<?xml version="1.0" standalone="no"?>
<!DOCTYPE svg PUBLIC "-//W3C//DTD SVG 1.1//EN" "http://www.w3.org/Graphics/SVG/1.1/DTD/svg11.dtd" >
<svg xmlns="http://www.w3.org/2000/svg" xmlns:xlink="http://www.w3.org/1999/xlink" version="1.1">
<metadata>
Created by FontForge 20170731 at Sat Oct 31 22:34:16 2020
 By Aleksey,,,
Copyright (c) 2019 by BumBumType. All rights reserved.
</metadata>
<defs>
<font id="AlbraText-Black" horiz-adv-x="1220" >
  <font-face 
    font-family="Albra Text Black"
    font-weight="900"
    font-stretch="expanded"
    units-per-em="2048"
    panose-1="2 0 9 0 0 0 0 0 0 0"
    ascent="1597"
    descent="-451"
    x-height="997"
    cap-height="1464"
    bbox="-305 -584 2902 2216"
    underline-thickness="102"
    underline-position="-307"
    unicode-range="U+0020-2212"
  />
<missing-glyph horiz-adv-x="1781" 
 />
    <glyph glyph-name="f_f" unicode="ff" horiz-adv-x="1486" 
d="M1126 1399q-57 0 -57 -62q0 -114 182 -340h224l-25 -118h-199v-619q0 -97 17 -143q17 -35 80 -80v-37h-631v37q57 45 71 80q17 46 17 143v619h-260v-619q0 -100 16 -143q14 -34 72 -80v-37h-623v37q58 46 72 80q16 43 16 143v619h-86v118h86v9q0 243 144 378
q145 136 381 136q80 0 278 -19l-143 -278h-33q-125 186 -217 186q-51 0 -51 -82q0 -106 88 -330h260v17q0 250 94.5 388t286.5 138q151 0 381 -82l-244 -284l-33 14q-28 92 -71.5 151.5t-92.5 59.5z" />
    <glyph glyph-name="f_i" unicode="fi" horiz-adv-x="1314" 
d="M1221 260q0 -100 16 -143q14 -34 72 -80v-37h-625v37q60 44 74 80q16 43 16 143v621h-223v-621q0 -100 16 -143q17 -35 80 -80v-37h-633v37q60 44 74 80q16 43 16 143v621h-94v116h94v21q0 145 55 255.5t146 166.5q168 100 346 100q205 0 498 -108l-262 -342h-13
q-48 143 -108 235q-60 100 -127 100q-88 0 -88 -198v-230h223q250 0 447 33v-770z" />
    <glyph glyph-name="f_l" unicode="fl" horiz-adv-x="1331" 
d="M1237 260q0 -100 16 -143q14 -34 72 -80v-37h-625v37q60 44 74 80q17 46 17 143v1112q-78 60 -132 60q-110 0 -110 -218v-217h176l-10 -116h-166v-621q0 -102 18 -143q20 -36 88 -80v-37h-643v37q60 44 74 80q16 43 16 143v621h-92v116h92v23q0 120 35.5 214t91 150
t131 92.5t146 50t145.5 13.5q155 0 365 -45l221 37v-1272z" />
    <glyph glyph-name=".notdef" horiz-adv-x="1781" 
 />
    <glyph glyph-name=".null" horiz-adv-x="0" 
 />
    <glyph glyph-name="nonmarkingreturn" horiz-adv-x="682" 
 />
    <glyph glyph-name="space" unicode=" " horiz-adv-x="462" 
 />
    <glyph glyph-name="exclam" unicode="!" horiz-adv-x="636" 
d="M260 453q-107 652 -184 987v24h489v-24q-92 -397 -188 -987h-117zM322 -20q-88 0 -149.5 58.5t-61.5 143.5q0 84 61 142q64 61 150 61t147 -60.5t61 -142.5q0 -85 -61 -143.5t-147 -58.5z" />
    <glyph glyph-name="quotedbl" unicode="&#x22;" horiz-adv-x="874" 
d="M256 899h-63q-80 342 -154 565h375q-84 -254 -158 -565zM682 897h-64q-70 312 -153 565h375q-61 -178 -158 -565z" />
    <glyph glyph-name="numbersign" unicode="#" horiz-adv-x="1253" 
d="M1219 821h-287l-107 -303h260l-12 -117h-289l-143 -401h-121l144 401h-279l-145 -401h-121l145 401h-237l12 117h268l109 303h-244l12 117h275l139 383h121l-139 -383h274l135 383h121l-135 -383h256zM705 518l106 303h-274l-109 -303h277z" />
    <glyph glyph-name="dollar" unicode="$" horiz-adv-x="1212" 
d="M1145 442q0 -97 -30 -176.5t-77.5 -131t-112.5 -87.5t-129 -53t-132 -21v-161h-107v161q-194 11 -446 103l-29 518h37q251 -399 438 -471v375q-74 46 -76 47q-82 45 -108 61q-35 21 -101 72q-59 45 -96 92q-35 50 -59.5 120t-24.5 142q0 192 131 305q134 116 334 125v148
h107v-148q169 -13 360 -63l43 -508h-37q-194 347 -366 422v-324q52 -32 55 -33q25 -14 57 -31t39 -22q34 -17 84 -49q61 -36 82 -57q8 -7 63 -66q53 -53 73.5 -118t27.5 -171zM461 1214q0 -75 96 -153v268q-45 -7 -70.5 -40.5t-25.5 -74.5zM664 115q94 21 94 121
q0 94 -94 182v-303z" />
    <glyph glyph-name="percent" unicode="%" horiz-adv-x="2031" 
d="M557 -47l-82 47l998 1501l79 -49zM45 979q0 215 123 344q122 131 321 131q192 0 312 -123q119 -122 119 -336t-121 -344q-120 -129 -316 -129t-317 121q-121 124 -121 336zM520 602q49 0 78 60.5t29 175.5q0 148 -39 323q-20 95 -57 153t-85 58q-49 0 -78.5 -60
t-29.5 -175q0 -69 9.5 -153.5t29.5 -173.5t57.5 -148.5t85.5 -59.5zM1552 926q198 0 318 -123q121 -121 121 -334t-121 -346q-119 -131 -318 -131t-317.5 123.5t-118.5 335.5q0 216 119 344q119 131 317 131zM1516 844q-49 0 -78 -60.5t-29 -175.5q0 -119 23 -257t73 -218
q45 -72 98 -59q54 13 80 105q15 56 15 130q0 69 -9.5 153.5t-29.5 173.5t-57.5 148.5t-85.5 59.5z" />
    <glyph glyph-name="ampersand" unicode="&#x26;" horiz-adv-x="1748" 
d="M559 -25q-242 0 -379 107q-135 108 -135 276q0 167 125 256q104 75 266 127q-182 212 -182 394q0 157 131 258q129 100 344 100q188 0 303 -83.5t115 -217.5q0 -54 -16.5 -95t-54.5 -75t-88 -60.5t-128 -56.5l344 -368q4 12 12.5 36t10.5 33q10 42 10 68q0 57 -24.5 101
t-61.5 56v56h461v-56q-70 -37 -125.5 -100.5t-136.5 -193.5l-60 -95l129 -141q55 -61 111 -61q104 0 174 196l39 -8q-9 -57 -30.5 -117t-62 -121.5t-92.5 -109.5t-128 -78.5t-162 -30.5q-87 0 -152.5 31.5t-140.5 103.5q-168 -131 -416 -131zM819 961q41 125 41 215
q0 101 -31.5 151.5t-83.5 50.5q-42 0 -67 -32t-25 -84q0 -111 166 -301zM778 207q62 0 96 18l-395 459q-22 -52 -22 -137q0 -154 89 -247t232 -93z" />
    <glyph glyph-name="quotesingle" unicode="'" horiz-adv-x="446" 
d="M256 899h-63q-80 342 -154 565h375q-84 -254 -158 -565z" />
    <glyph glyph-name="parenleft" unicode="(" horiz-adv-x="831" 
d="M811 1554q-98 -98 -154 -174q-63 -86 -112 -192q-101 -218 -101 -584q0 -363 101 -586q50 -106 112 -190q56 -76 154 -174l-29 -47q-132 49 -241 121t-215 186q-109 119 -171.5 297.5t-62.5 392.5t62.5 392.5t171.5 297.5q106 114 215 186.5t241 121.5z" />
    <glyph glyph-name="parenright" unicode=")" horiz-adv-x="831" 
d="M53 1602q108 -40 196.5 -91.5t176.5 -132.5q98 -86 164 -188q71 -109 113 -261.5t42 -324.5t-42 -324.5t-113 -261.5q-66 -102 -164 -188q-153 -141 -373 -223l-26 47q123 123 196 235q74 113 119 289q49 180 49 426q0 235 -45.5 417t-122.5 298q-73 112 -196 235z" />
    <glyph glyph-name="asterisk" unicode="*" horiz-adv-x="983" 
d="M940 1032l-20 -6l-324 14l268 -166l13 -18l-283 -203l-14 19l-88 321l-91 -323l-12 -17l-283 201l15 16l274 172l-327 -18l-21 6l107 326l20 -6l268 -205l-123 297v22h349v-22l-123 -301l266 209l23 6z" />
    <glyph glyph-name="plus" unicode="+" horiz-adv-x="897" 
d="M877 750v-119h-369v-355h-115v355h-366v119h366v356h115v-356h369z" />
    <glyph glyph-name="comma" unicode="," horiz-adv-x="591" 
d="M293 389q88 0 148.5 -66t60.5 -173q0 -134 -94 -283q-95 -154 -267 -227l-20 43q141 141 188 309h-14q-86 0 -142.5 54.5t-56.5 139.5t57.5 144t139.5 59z" />
    <glyph glyph-name="hyphen" unicode="-" horiz-adv-x="780" 
d="M719 643v-174h-651v174h651z" />
    <glyph glyph-name="period" unicode="." horiz-adv-x="598" 
d="M303 -20q-86 0 -146.5 59.5t-60.5 144.5t60.5 146t146.5 61q85 0 145 -61t60 -146t-60 -144.5t-145 -59.5z" />
    <glyph glyph-name="slash" unicode="/" horiz-adv-x="720" 
d="M-6 -240l594 1821h112l-591 -1821h-115z" />
    <glyph glyph-name="zero" unicode="0" horiz-adv-x="1335" 
d="M668 -29q-226 0 -414 176q-93 90 -148 238t-55 328q-1 265 114 450.5t284 253.5q161 71 329 35.5t303 -170.5q94 -90 149.5 -239t55.5 -330q0 -189 -57 -332q-38 -103 -102 -183.5t-140.5 -129t-157 -73t-161.5 -24.5zM668 102q172 0 172 611q0 620 -174 620
q-166 0 -166 -616q0 -615 168 -615z" />
    <glyph glyph-name="one" unicode="1" horiz-adv-x="823" 
d="M104 0v37q85 51 105 84q22 36 22 129v751q0 73 -30 111q-26 36 -119 100l-19 13v32l605 218v-1225q0 -96 20 -129t105 -84v-37h-689z" />
    <glyph glyph-name="two" unicode="2" horiz-adv-x="1071" 
d="M737 342q93 0 146 27q49 25 125 98l36 -4l-143 -463h-899v57q306 315 442 525q129 202 129 370q0 124 -57.5 194.5t-146.5 70.5q-131 0 -301 -170l-45 38q247 379 532 379q162 0 281 -104q118 -103 118 -297q0 -92 -35 -185.5t-88 -166.5q-47 -68 -131 -146
q-85 -79 -139 -119l-147 -104h323z" />
    <glyph glyph-name="three" unicode="3" horiz-adv-x="1124" 
d="M66 1112q99 165 247 256.5t318 91.5q157 0 253.5 -75.5t96.5 -194.5q0 -131 -113 -225q-109 -93 -258 -146v-2q52 10 92 10q152 0 263 -102q110 -101 110 -285q0 -219 -164 -342q-163 -123 -409 -123q-221 0 -447 86l154 420l35 -8q34 -146 100 -256q66 -106 162 -106
q80 0 135 83t55 207q0 132 -62.5 213.5t-176.5 81.5q-79 0 -170 -39l-29 84q196 94 282.5 175t86.5 171q0 59 -35 98.5t-93 51t-125.5 1t-140.5 -52t-131 -106.5z" />
    <glyph glyph-name="four" unicode="4" horiz-adv-x="1271" 
d="M1219 389h-175v-139q0 -94 21 -129q21 -34 104 -84v-37h-645v37q85 51 105 84q22 36 22 129v139h-614v60l899 1007h108v-919h195zM289 537h362v405z" />
    <glyph glyph-name="five" unicode="5" horiz-adv-x="1167" 
d="M547 905q237 0 383 -125q149 -122 149 -342q0 -130 -56 -228t-151 -149q-173 -90 -362 -90q-199 0 -459 86l109 500l37 -6q126 -455 309 -455q76 0 125 75t49 200q0 160 -80 236.5t-221 76.5q-148 0 -264 -72l211 824h522q118 0 158 28q29 19 49 37l28 23l33 -4
l-149 -420h-592l-62 -232q107 37 234 37z" />
    <glyph glyph-name="six" unicode="6" horiz-adv-x="1249" 
d="M756 842q80 0 155 -22.5t141.5 -69t107 -129.5t40.5 -191q0 -225 -164 -342t-413 -117q-282 0 -427 147t-145 406q0 256 142 469q144 215 366 334q227 121 485 139l9 -51q-232 -90 -380.5 -261t-199.5 -404q124 92 283 92zM627 94q76 0 124 77t48 189q0 113 -58 201
q-59 90 -163 90q-73 0 -127 -51q-1 -16 -2 -38t-2 -37.5t-1 -26.5q0 -186 47.5 -295t133.5 -109z" />
    <glyph glyph-name="seven" unicode="7" horiz-adv-x="1105" 
d="M213 0q89 476 512 1061h-403q-102 0 -152 -27q-46 -24 -117 -98l-35 4l136 496h942v-58q-111 -119 -215 -274q-41 -58 -78 -141l-62 -134q-27 -68 -47 -141l-35 -135q-15 -53 -28 -141l-23 -133l-18 -144l-17 -135h-360z" />
    <glyph glyph-name="eight" unicode="8" horiz-adv-x="1196" 
d="M582 -29q-230 0 -379 101q-152 103 -152 278q0 133 84 223q86 93 197 132q-228 138 -228 370q0 184 142 287q141 102 362 102q213 0 346 -92q133 -89 133 -219q0 -104 -104 -197q-19 -16 -35 -27t-40.5 -25t-35.5 -21l-38 -23l61 -39l39 -28q33 -21 84 -72
q127 -127 127 -313q0 -143 -82 -247t-211 -149q-125 -41 -270 -41zM750 905q33 50 56 121.5t23 126.5q0 85 -60 143t-146 58q-72 0 -114 -43t-42 -115q0 -85 65.5 -150t217.5 -141zM584 86q88 0 142 47t54 125q0 89 -86 178q-82 91 -291 219q-79 -125 -79 -270
q0 -139 71.5 -219t188.5 -80z" />
    <glyph glyph-name="nine" unicode="9" horiz-adv-x="1251" 
d="M629 1464q282 0 426.5 -147t144.5 -406t-141 -471q-140 -210 -367 -331q-225 -120 -485 -138l-8 49q231 90 378 261.5t199 402.5q-122 -90 -282 -90q-197 0 -320 111q-123 114 -123 303q0 223 164 340q162 116 414 116zM672 784q72 0 127 52q4 82 4 104q0 186 -47 293.5
t-133 107.5q-76 0 -125 -79q-47 -77 -47 -187q0 -117 57 -203q58 -88 164 -88z" />
    <glyph glyph-name="colon" unicode=":" horiz-adv-x="565" 
d="M287 1001q85 0 145 -63q64 -61 64 -147t-62.5 -147.5t-148.5 -61.5t-147.5 61.5t-61.5 147.5q0 87 62 148.5t149 61.5zM287 399q85 0 145 -63q64 -61 64 -148q0 -86 -62 -147t-149 -61q-86 0 -147.5 61t-61.5 147q0 87 62 149t149 62z" />
    <glyph glyph-name="semicolon" unicode=";" horiz-adv-x="567" 
d="M287 1001q85 0 145 -63q64 -61 64 -147t-62.5 -147.5t-148.5 -61.5t-147.5 61.5t-61.5 147.5q0 87 62 148.5t149 61.5zM281 389q87 0 147.5 -66t60.5 -173q0 -134 -94 -283q-95 -154 -264 -227l-22 43q145 142 188 309h-14q-86 0 -142.5 54.5t-56.5 139.5t57.5 144
t139.5 59z" />
    <glyph glyph-name="less" unicode="&#x3c;" horiz-adv-x="874" 
d="M854 250l-827 434v47l827 438v-125l-639 -339l639 -330v-125z" />
    <glyph glyph-name="equal" unicode="=" horiz-adv-x="811" 
d="M43 780v121h727v-121h-727zM43 483v119h727v-119h-727z" />
    <glyph glyph-name="greater" unicode="&#x3e;" horiz-adv-x="874" 
d="M27 250v125l637 330l-637 339v125l827 -438v-47z" />
    <glyph glyph-name="question" unicode="?" horiz-adv-x="1013" 
d="M356 451q-4 121 31.5 233t89.5 184q133 181 133 310q0 84 -41 144t-92 60q-41 0 -79 -43.5t-65.5 -115t-41 -116t-25.5 -91.5l-4 -19l-22 -4l-193 371l2 2q193 118 436 127h27q198 0 332 -88q137 -88 137 -270q0 -41 -9.5 -80.5t-22 -69.5t-38 -63.5t-44 -54t-54.5 -51.5
t-54.5 -45t-58.5 -44q-168 -130 -208 -276h-136zM588 39q-62 -60 -148 -60t-149 60q-61 61 -61 143t61 142q63 62 149 62t148 -62q63 -60 63 -141.5t-63 -143.5z" />
    <glyph glyph-name="at" unicode="@" horiz-adv-x="1607" 
d="M1380 -16l174 -181q-304 -141 -626 -141q-371 0 -625 219q-252 217 -252 586q0 350 232 582q231 231 569 231q282 0 459 -162q179 -157 176 -413l-12 -687h-41q-113 113 -211 113q-33 3 -77.5 -22t-83.5 -56t-98 -56.5t-118 -23.5q-169 0 -275 136q-102 135 -102 356
q0 225 111 366q114 144 307 144q80 0 153.5 -25t106.5 -55v10q0 79 -96 166q-94 88 -271 88q-64 0 -115 -11.5t-114 -47.5q-68 -39 -115 -101q-50 -67 -82 -186.5t-32 -271.5q0 -115 16 -218t57.5 -205t105.5 -175t167.5 -118.5t236.5 -45.5q156 0 279.5 58t195.5 147z
M1128 252l17 387q-28 91 -72.5 150t-95.5 59q-111 0 -111 -311q0 -365 144 -365q65 0 118 80z" />
    <glyph glyph-name="A" unicode="A" horiz-adv-x="1478" 
d="M1335 225q38 -100 70 -135q24 -27 63 -53v-37h-749v37q59 36 81.5 64.5t22.5 68.5q0 49 -39 162l-32 98h-377q-45 -139 -45 -205q0 -101 112 -188v-37h-430v37q105 88 152 172q46 82 96 227l250 729l-88 172q241 83 428 197zM434 608h258l-129 396z" />
    <glyph glyph-name="B" unicode="B" horiz-adv-x="1509" 
d="M965 823q72 -6 139.5 -23t132 -50t112.5 -77t77.5 -109.5t29.5 -143.5q0 -132 -87.5 -230.5t-226 -145.5t-302.5 -44h-813v37q81 49 102 86q23 44 23 147v924q0 104 -23 145q-20 39 -102 88v37h852q133 0 235 -31.5t154 -86.5q102 -96 102 -213q0 -87 -64 -155.5
t-157 -100.5q-95 -31 -184 -39v-15zM688 1329h-47v-481h49q95 0 149 67t54 189q0 174 -109 211q-38 14 -96 14zM784 137q25 0 44 4t41.5 20.5t37 44.5t24 80.5t9.5 125.5q0 71 -9.5 127t-24 90.5t-36.5 58.5t-41 35t-44 15t-40 3.5t-34 -2.5l-70 -6v-491q0 -47 36.5 -76
t106.5 -29z" />
    <glyph glyph-name="C" unicode="C" horiz-adv-x="1462" 
d="M838 1360q-33 0 -66.5 -18.5t-69 -65t-62.5 -115t-44.5 -178t-17.5 -244.5q0 -315 79 -473q80 -160 181 -160q95 0 227 132q130 130 248 307h37l-41 -514q-277 -60 -506 -60q-293 0 -508 152q-115 81 -179.5 234t-64.5 360q-1 160 38.5 290t108.5 219.5t166.5 150.5
t210.5 88.5t242 27.5q190 0 494 -59l41 -500h-37q-127 174 -258 299q-133 127 -219 127z" />
    <glyph glyph-name="D" unicode="D" horiz-adv-x="1613" 
d="M686 1464q435 0 657 -174t222 -512q0 -337 -205 -557q-206 -221 -588 -221h-745v37q81 49 102 86q23 44 23 147v924q0 104 -23 145q-20 39 -102 88v37h659zM758 139q114 15 196 170q86 157 86 451q0 229 -57 360q-22 56 -58 99.5t-71 64.5q-27 19 -70 31t-69 12
q-14 2 -53 2h-21v-1087q0 -42 33 -70t84 -33z" />
    <glyph glyph-name="E" unicode="E" horiz-adv-x="1374" 
d="M1253 489h35l-49 -489h-1212v37q81 49 102 86q23 44 23 147v924q0 104 -23 145q-20 39 -102 88v37h1140l37 -503h-35q-53 149 -178 256q-122 110 -313 110h-37v-491h61q99 0 176.5 47t118.5 121h31v-465h-31q-41 84 -118 136.5t-177 51.5l-61 -2v-483q0 -48 40.5 -76.5
t102.5 -28.5h4q145 0 265 105q123 111 200 247z" />
    <glyph glyph-name="F" unicode="F" horiz-adv-x="1286" 
d="M1182 1464l37 -503h-35q-53 149 -178 256q-122 110 -314 110h-51v-493h53q100 0 177 47t118 120h31v-464h-31q-40 84 -117.5 138t-177.5 50l-53 -2v-453q0 -106 27 -147q26 -36 135 -86v-37h-776v37q81 49 102 86q23 44 23 147v924q0 104 -23 145q-20 39 -102 88v37h1155
z" />
    <glyph glyph-name="G" unicode="G" horiz-adv-x="1609" 
d="M729 -29q-178 0 -342 84q-96 54 -168 131q-76 83 -122 222t-46 309q0 162 40.5 292t112 220t173 150t221.5 87.5t260 26.5q277 0 516 -78l41 -491h-37q-110 179 -239 305q-131 131 -254 131q-131 0 -219 -150q-88 -149 -88 -479q0 -325 84 -475q86 -145 200 -145
q139 0 139 174v188q0 115 -48 173t-162 71v47h751v-37q-48 -48 -63 -88q-13 -41 -13 -145v-486h-36q-95 74 -213 74q-67 0 -216 -55q-151 -56 -272 -56z" />
    <glyph glyph-name="H" unicode="H" horiz-adv-x="1712" 
d="M1690 1427q-86 -52 -105 -88q-20 -36 -20 -145v-924q0 -108 20 -147q19 -35 105 -86v-37h-740v37q83 50 103 86q22 42 22 147v437h-434v-437q0 -106 21 -147q20 -36 104 -86v-37h-739v37q81 49 102 86q23 44 23 147v924q0 104 -23 145q-20 39 -102 88v37h739v-37
q-85 -51 -104 -88q-21 -37 -21 -145v-311h434v311q0 106 -22 145q-20 38 -103 88v37h740v-37z" />
    <glyph glyph-name="I" unicode="I" horiz-adv-x="786" 
d="M27 0v37q81 49 102 86q23 44 23 147v924q0 104 -23 145q-20 39 -102 88v37h739v-37q-85 -51 -104 -88q-21 -37 -21 -145v-924q0 -106 21 -147q20 -36 104 -86v-37h-739z" />
    <glyph glyph-name="J" unicode="J" horiz-adv-x="786" 
d="M27 -266l-9 39q142 89 142 260v1161q0 104 -23 145q-19 37 -104 88v37h741v-37q-88 -53 -106 -88q-21 -37 -21 -145v-877q0 -489 -620 -583z" />
    <glyph glyph-name="K" unicode="K" horiz-adv-x="1667" 
d="M641 270q0 -106 21 -147q20 -36 104 -86v-37h-739v37q81 49 102 86q23 44 23 147v924q0 104 -23 145q-20 39 -102 88v37h739v-37q-85 -51 -104 -88q-21 -37 -21 -145v-924zM668 670l348 393q108 126 108 219q0 96 -100 145v37h606v-37q-278 -179 -450 -360l-140 -149
l394 -654q62 -102 122 -161.5t105 -65.5v-37h-641z" />
    <glyph glyph-name="L" unicode="L" horiz-adv-x="1323" 
d="M1200 489h37l-49 -489h-1161v37q81 49 102 86q23 44 23 147v924q0 104 -23 145q-20 39 -102 88v37h739v-37q-85 -51 -104 -88q-21 -37 -21 -145v-952q0 -42 34.5 -70t86.5 -33q134 9 250 113q115 103 188 237z" />
    <glyph glyph-name="M" unicode="M" horiz-adv-x="1918" 
d="M1898 1427q-88 -53 -106 -88q-20 -36 -20 -145v-924q0 -108 20 -147q19 -34 106 -86v-37h-741v37q86 51 105 86q22 42 22 147v695h-4q-94 -174 -406 -826l-88 2q-142 300 -426 817v-452q2 -74 3 -114.5t7 -87.5t8.5 -67t16.5 -50t21.5 -40t34 -34t43 -35.5t59.5 -40.5
v-37h-526v37q42 29 59 40.5t43.5 35.5t34 34t21.5 40.5t16 50t8 66.5t7 87t3 115v706q-55 131 -190 236v16h614q223 -399 373 -714l385 714h497v-37z" />
    <glyph glyph-name="N" unicode="N" horiz-adv-x="1538" 
d="M1526 1464v-37q-43 -29 -59.5 -40.5t-43 -35.5t-34 -34t-21.5 -40t-16.5 -50t-8.5 -67t-7 -87.5t-3 -114.5v-958h-379q-242 425 -589 977v-471q0 -163 15.5 -245t51.5 -126q34 -40 127 -98v-37h-532v37q95 58 127 98q35 41 51 121q16 85 16 250v577q0 192 -194 365v16
h579q251 -379 582 -944v438q-2 74 -3 114.5t-7 87.5t-8.5 67t-16.5 50t-21.5 40t-34 34t-43 35.5t-59.5 40.5v37h531z" />
    <glyph glyph-name="O" unicode="O" horiz-adv-x="1671" 
d="M1413 168q-209 -197 -577 -197q-369 0 -578 197q-207 201 -207 565q0 365 207 563q209 197 578 197q368 0 577 -197t209 -563q0 -365 -209 -565zM897 111q101 0 156 106t55 307q0 190 -37 383q-21 125 -55 217q-37 102 -100.5 166t-139.5 64q-101 0 -157 -104.5
t-56 -303.5q0 -213 62 -497q33 -152 105 -245t167 -93z" />
    <glyph glyph-name="P" unicode="P" horiz-adv-x="1441" 
d="M1389 1069q0 -216 -189.5 -331.5t-558.5 -119.5v-348q0 -103 23 -147q22 -35 114 -86v-37h-751v37q81 49 102 86q23 44 23 147v924q0 104 -23 145q-20 39 -102 88v37h778q289 0 436.5 -103t147.5 -292zM664 1331h-23v-596q130 7 204.5 99.5t74.5 230.5q0 129 -66.5 197.5
t-189.5 68.5z" />
    <glyph glyph-name="Q" unicode="Q" horiz-adv-x="1671" 
d="M961 -23q57 -69 327 -69q127 0 264 14v-14l-292 -342q-168 54 -295 155q-128 104 -166 250q-354 11 -551 209.5t-197 552.5q0 365 207 563q209 197 578 197q368 0 577 -197t209 -563q0 -331 -173 -527.5t-488 -228.5zM563 946q0 -213 62 -497q33 -152 105 -245t167 -93
q101 0 156 106t55 307q0 190 -37 383q-21 125 -55 217q-37 102 -100.5 166t-139.5 64q-101 0 -157 -104.5t-56 -303.5z" />
    <glyph glyph-name="R" unicode="R" horiz-adv-x="1626" 
d="M1427 244q52 -88 189 -207v-37h-594q-174 323 -322 670l-59 -6v-394q0 -106 21 -147q20 -36 104 -86v-37h-739v37q81 49 102 86q23 44 23 147v924q0 104 -23 145q-20 39 -102 88v37h776q279 0 444 -98q168 -94 168 -272q0 -116 -73.5 -205.5t-202.5 -134.5
q116 -227 288 -510zM641 1329v-555h45q250 0 250 270q0 216 -152 265q-12 5 -22 8.5t-19.5 5.5t-15 3.5t-15 2t-12 0.5h-13.5h-13h-33z" />
    <glyph glyph-name="S" unicode="S" horiz-adv-x="1183" 
d="M594 -29q-218 0 -488 107l-28 522h37q305 -489 503 -489q54 0 85.5 35t31.5 98q0 85 -62 156t-206 159l-64 37l-63 39l-55 37q-25 16 -39 27.5t-32.5 31t-29.5 29.5q-14 14 -24.5 29t-15.5 25.5t-14.5 31t-14.5 31.5q-27 58 -27 161q0 218 139 336q137 119 355 119
q168 0 419 -68l43 -512h-36q-100 186 -213 310q-120 135 -224 135q-51 0 -83.5 -34.5t-32.5 -88.5q0 -62 54.5 -119t192.5 -143l80 -47q65 -39 80 -49q26 -15 68 -46q49 -36 65 -55q75 -81 92 -133q33 -97 33 -188q0 -131 -47 -229.5t-131 -153.5q-157 -101 -348 -101z" />
    <glyph glyph-name="T" unicode="T" horiz-adv-x="1433" 
d="M1358 1464l37 -503h-35q-48 127 -143 225q-96 104 -248 131v-1047q0 -108 20 -147q19 -35 105 -86v-37h-740v37q83 50 103 86q22 42 22 147v1049q-147 -25 -250 -124t-151 -234h-35l37 503h1278z" />
    <glyph glyph-name="U" unicode="U" horiz-adv-x="1566" 
d="M1559 1464v-37q-43 -29 -59.5 -40.5t-43 -35.5t-34 -34t-21.5 -40t-16.5 -50t-8.5 -67t-7 -87.5t-3 -114.5v-471q0 -252 -144 -384t-427 -132q-248 0 -435 107q-98 58 -153 162.5t-55 242.5v711q0 104 -23 145q-20 39 -102 88v37h739v-37q-85 -51 -104 -88
q-21 -37 -21 -145v-735q0 -157 74.5 -240.5t210.5 -83.5q122 0 209 78q88 76 88 274v471q-2 74 -3 114.5t-7 87.5t-8.5 67t-16.5 50t-21.5 40t-34 34t-43 35.5t-59.5 40.5v37h529z" />
    <glyph glyph-name="V" unicode="V" horiz-adv-x="1476" 
d="M1036 1464h443v-34q-99 -91 -140 -154q-42 -63 -88 -189l-417 -1087h-203l-492 1245q-27 69 -56.5 111t-82.5 76v32h756v-37q-103 -65 -103 -135q0 -49 39 -153l221 -621l220 582q30 82 30 131q0 90 -127 196v37z" />
    <glyph glyph-name="W" unicode="W" horiz-adv-x="2250" 
d="M1784 1464h469v-37q-108 -85 -158 -176q-35 -63 -70 -155l-391 -1096h-215l-307 786l-293 -786h-213l-469 1243q-27 69 -55.5 109.5t-81.5 74.5v37h748v-37q-63 -39 -88 -67.5t-25 -63.5q0 -23 10 -53l252 -729l154 432l-117 297q-30 75 -58 112t-83 72v37h751v-37
q-56 -31 -79 -61t-23 -74q0 -55 33 -143l229 -627l199 568q32 85 32 139q0 49 -33 92t-118 106v37z" />
    <glyph glyph-name="X" unicode="X" horiz-adv-x="1550" 
d="M1368 229q73 -123 174 -192v-37h-794v37q94 64 94 123q0 29 -25 71l-172 289l-139 -174q-86 -109 -86 -172q0 -62 69 -137v-37h-477v37q93 58 176 127q67 58 174 190l222 269l-377 610q-74 122 -178 194v37h802v-37q-98 -64 -98 -122q0 -31 27 -74l162 -273l133 177
q71 95 71 159q0 58 -75 133v37h467v-37q-79 -47 -166 -131q-92 -89 -154 -166l-215 -272z" />
    <glyph glyph-name="Y" unicode="Y" horiz-adv-x="1472" 
d="M1051 1464h424v-37q-131 -113 -234 -288l-264 -443v-426q0 -108 20 -147q19 -35 105 -86v-37h-740v37q83 50 103 86q22 42 22 147v418l-346 559q-77 123 -141 180v37h750v-37q-111 -67 -111 -124q0 -42 66 -146l217 -338l180 320q39 65 39 121q0 74 -90 167v37z" />
    <glyph glyph-name="Z" unicode="Z" horiz-adv-x="1314" 
d="M1233 489h35l-49 -489h-1168v51l658 1276h-70q-190 0 -315 -110q-125 -109 -177 -256h-36l36 503h1108v-51l-657 -1276h168q143 0 266 105q128 112 201 247z" />
    <glyph glyph-name="bracketleft" unicode="[" horiz-adv-x="700" 
d="M637 1526h-174v-1825h174v-74h-471v1975h471v-76z" />
    <glyph glyph-name="backslash" unicode="\" horiz-adv-x="710" 
d="M731 -240h-113l-591 1821h112z" />
    <glyph glyph-name="bracketright" unicode="]" horiz-adv-x="684" 
d="M49 1526v76h473v-1975h-473v74h176v1825h-176z" />
    <glyph glyph-name="asciicircum" unicode="^" horiz-adv-x="1146" 
d="M166 850l387 614h45l387 -614h-113l-299 471l-294 -471h-113z" />
    <glyph glyph-name="underscore" unicode="_" horiz-adv-x="1216" 
d="M1171 -154v-141h-1120v141h1120z" />
    <glyph glyph-name="grave" unicode="`" horiz-adv-x="555" 
d="M455 1137l-389 327h423q-2 -25 -2 -106v-105q2 -47 2 -110z" />
    <glyph glyph-name="a" unicode="a" horiz-adv-x="1228" 
d="M676 197h-4q-46 -93 -137.5 -155t-206.5 -62q-123 0 -200 70.5t-77 182.5q0 304 623 433l4 155q0 82 -66 82q-67 0 -116 -88q-50 -87 -74 -199l-33 -10l-262 135q46 112 180 199q136 86 361 86q273 0 379 -156q48 -63 53 -190q3 -35 0 -88l-8 -379q0 -61 26 -61
q38 0 62 73l51 -28q-33 -95 -115.5 -156t-204.5 -61q-123 0 -182 61.5t-53 155.5zM586 242q26 0 50 17t30 38l8 285q-75 -26 -120.5 -87.5t-45.5 -136.5q0 -56 21 -86t57 -30z" />
    <glyph glyph-name="b" unicode="b" horiz-adv-x="1261" 
d="M819 1026q145 0 262 -106q64 -57 101 -163t37 -245q0 -147 -41.5 -257.5t-114.5 -168.5q-132 -106 -303 -106q-77 0 -145.5 22.5t-108.5 54.5q-94 78 -150 78q-79 0 -243 -164h-41v1276q0 21 -3.5 32t-15.5 34q-5 8 -29 39.5t-40 56.5v37q287 21 534 94v-678h2
q114 164 299 164zM657 111q97 0 97 338q0 372 -131 372q-34 0 -63 -23.5t-42 -56.5v-409q22 -98 58 -159.5t81 -61.5z" />
    <glyph glyph-name="c" unicode="c" horiz-adv-x="1019" 
d="M559 -20q-205 0 -362 133q-154 136 -154 397q0 258 150 387t370 129q295 0 422 -238l-250 -188l-24 10q-23 118 -66 215q-41 95 -92 95q-50 0 -78.5 -73t-28.5 -192q0 -186 74 -293.5t219 -107.5q141 0 217 98l43 -37q-40 -134 -147 -235q-106 -100 -293 -100z" />
    <glyph glyph-name="d" unicode="d" horiz-adv-x="1282" 
d="M442 -20q-143 0 -264 104q-63 57 -99 162t-36 243q-2 110 22 201.5t67 152t93.5 99.5t106.5 57q69 29 151 26.5t152.5 -22.5t107.5 -47v275q0 90 -88 178v37q289 21 535 94v-1284q0 -61 16.5 -90.5t69.5 -65.5v-37l-522 -83l-2 174h-4q-34 -70 -120 -122t-186 -52z
M635 193q55 0 108 71v375q-50 256 -139 256q-98 0 -98 -332q0 -370 129 -370z" />
    <glyph glyph-name="e" unicode="e" horiz-adv-x="1091" 
d="M1049 604v-51h-600q12 -156 102 -225q92 -68 211 -68q171 0 246 100l30 -18l-26 -78q-15 -39 -51 -90q-40 -62 -82 -96q-49 -40 -131.5 -69t-174.5 -29q-224 0 -378 139q-152 143 -152 397q0 252 152 383q153 129 385 129q220 0 344.5 -115t124.5 -309zM561 924
q-97 0 -112 -246l208 6q-9 240 -96 240z" />
    <glyph glyph-name="f" unicode="f" horiz-adv-x="780" 
d="M420 1399q-58 0 -58 -62q0 -113 183 -340h221l-23 -118h-198v-619q0 -100 16 -143q17 -35 80 -80v-37h-631v37q58 46 72 80q16 43 16 143v619h-88v118h88v17q0 250 93.5 388t285.5 138q157 0 381 -82l-242 -284l-32 14q-28 92 -71.5 151.5t-92.5 59.5z" />
    <glyph glyph-name="g" unicode="g" horiz-adv-x="1142" 
d="M842 190q130 -27 211.5 -104.5t81.5 -181.5q0 -90 -60.5 -159t-161.5 -105q-190 -68 -401 -68q-197 0 -346 51q-154 53 -154 139q0 54 59 96.5t152 67.5v4q-170 71 -170 197q0 83 72.5 147t187.5 91q-268 65 -268 311q0 178 127 264q130 86 324 86h57q132 0 200.5 46
t75.5 118l283 -82v-21q-94 -122 -313 -122q-44 0 -129 10v-10q370 -55 370 -318q0 -307 -493 -307q-56 0 -70 2q-76 -6 -76 -41q0 -18 35 -27l35 -8q82 -13 371 -76zM518 930q-69 0 -69 -129q0 -79 24 -211q12 -68 42 -112t67 -44q67 0 67 125q0 94 -24 211q-12 70 -41 115
t-66 45zM567 -319q108 0 167 21.5t59 57.5q0 41 -60 56l-184 37q-207 43 -223 47q-33 -44 -33 -86q0 -133 274 -133z" />
    <glyph glyph-name="h" unicode="h" horiz-adv-x="1312" 
d="M1219 260q0 -100 16 -143q14 -36 74 -80v-37h-625v37q60 48 74 80q13 32 16 143v170q2 113 2 178q0 73 -33 114.5t-86 41.5q-61 0 -112 -57v-447q0 -100 16 -143q14 -34 72 -80v-37h-623v37q58 46 72 80q16 43 16 143v846q0 164 -35 217q-9 15 -53 66v36q272 18 535 95
v-697q147 203 354 203q52 2 115.5 -17t115.5 -69q39 -34 64 -99t25 -147v-434z" />
    <glyph glyph-name="i" unicode="i" horiz-adv-x="638" 
d="M303 1104q-87 0 -149 58t-62 138t62 137.5t149 57.5q86 0 147.5 -57.5t61.5 -137.5t-61.5 -138t-147.5 -58zM545 260q0 -100 16 -143q14 -34 72 -80v-37h-623v37q58 46 72 80q16 43 16 143v354q0 164 -35 217q-12 21 -53 68v35q271 18 535 96v-770z" />
    <glyph glyph-name="j" unicode="j" horiz-adv-x="653" 
d="M332 1104q-87 0 -149 58t-62 138t62 137.5t149 57.5q86 0 147.5 -57.5t61.5 -137.5t-61.5 -138t-147.5 -58zM-57 -432l-15 39q105 56 147 139t42 238v630q0 133 -17 179q-15 43 -69 106v35q270 17 532 96v-807q0 -133 -36.5 -241t-95 -178t-141.5 -121t-167 -76.5
t-180 -38.5z" />
    <glyph glyph-name="k" unicode="k" horiz-adv-x="1339" 
d="M10 0v37q58 46 72 80q16 43 16 143v846q0 164 -35 217q-9 15 -53 66v36q272 18 535 95v-1053l248 252q63 63 63 112q0 66 -119 130v36h563v-36q-257 -133 -370 -267l-35 -41l240 -422q89 -158 200 -194v-37h-551l-211 426h-28v-166q0 -100 16 -143q14 -34 72 -80v-37
h-623z" />
    <glyph glyph-name="l" unicode="l" horiz-adv-x="638" 
d="M10 0v37q58 46 72 80q16 43 16 143v846q0 164 -35 217q-9 15 -53 66v36q272 18 535 95v-1260q0 -100 16 -143q14 -34 72 -80v-37h-623z" />
    <glyph glyph-name="m" unicode="m" horiz-adv-x="1933" 
d="M1841 260q0 -97 17 -143q14 -35 71 -80v-37h-622v37q57 48 71 82q16 40 19 141q4 328 4 350q0 71 -35 110.5t-86 39.5q-42 0 -86 -47v-453q0 -105 14 -143q14 -34 72 -80v-37h-621v37q59 49 72 82q16 40 19 141q4 328 4 350q0 71 -35 110.5t-86 39.5q-39 0 -88 -49v-451
q0 -105 14 -143q14 -34 72 -80v-37h-621v37q58 46 72 80q16 43 16 143v356q0 131 -16 181t-72 106v33q260 15 527 94v-211q67 99 155 153t180 54q74 0 160 -35q51 -21 90.5 -67.5t57.5 -110.5q139 213 346 213q86 0 184 -53q59 -30 95 -104t36 -175v-434z" />
    <glyph glyph-name="n" unicode="n" horiz-adv-x="1308" 
d="M1214 260q0 -97 17 -143q14 -36 74 -80v-37h-625v37q60 48 74 82q18 38 18 141v98q2 49 2 248q0 76 -32 116t-87 40q-58 0 -110 -55v-447q0 -100 16 -143q14 -34 72 -80v-37h-623v37q58 46 72 80q16 43 16 143v356q0 131 -16 181t-72 106v33q260 15 527 94v-209
q138 205 352 205q146 0 237 -86q39 -34 63.5 -98.5t24.5 -147.5v-434z" />
    <glyph glyph-name="o" unicode="o" horiz-adv-x="1243" 
d="M612 -20q-267 0 -418 128t-151 384q0 260 157 397t433 137q268 0 418.5 -128.5t150.5 -385.5q0 -261 -156.5 -396.5t-433.5 -135.5zM676 84q76 0 76 172q0 283 -68 512q-46 150 -115 150q-75 0 -75 -168q0 -149 32 -377q20 -128 59 -208.5t91 -80.5z" />
    <glyph glyph-name="p" unicode="p" horiz-adv-x="1275" 
d="M831 1026q53 0 104.5 -13t106.5 -48.5t96.5 -90t68 -146t26.5 -208.5q0 -146 -41.5 -259t-112.5 -171q-130 -110 -293 -110q-139 0 -249 67h-5v-197q0 -102 23 -143q20 -38 102 -80v-37h-661v37q60 41 74 80q16 40 16 143v893q0 60 -16 89.5t-72 70.5v33q271 21 526 94
l-2 -176h4q120 172 305 172zM678 119q47 0 68.5 74t21.5 241q0 385 -133 385q-50 0 -103 -71v-365q44 -264 146 -264z" />
    <glyph glyph-name="q" unicode="q" horiz-adv-x="1269" 
d="M618 -410v37q84 43 103 80q22 42 22 143v293h-2q-108 -163 -301 -163q-144 0 -262 104q-63 57 -99 161.5t-36 241.5q0 268 127 404q126 135 328 135q74 2 145 -23.5t114.5 -56.5t87 -56t68.5 -22q82 0 240 152h37v-1170q0 -103 16 -143q14 -38 72 -80v-37h-660zM637 184
q59 0 106 80v418q-53 213 -139 213q-98 0 -98 -342q0 -369 131 -369z" />
    <glyph glyph-name="r" unicode="r" horiz-adv-x="946" 
d="M10 0v37q58 46 72 80q16 43 16 143v391q0 100 -17.5 151t-70.5 101v33q253 15 527 94l-5 -199h7q27 83 102.5 139t189.5 56q48 0 89 -14l-62 -447h-37q-141 185 -227 185q-37 0 -49 -27v-463q0 -101 22 -143q19 -33 101 -80v-37h-658z" />
    <glyph glyph-name="s" unicode="s" horiz-adv-x="931" 
d="M492 -29q-145 0 -392 58l-43 372l31 9q235 -336 367 -336q35 0 56 18t21 49q0 81 -184 195l-20 12q-92 58 -101 64q-41 28 -84 69q-94 90 -94 230q0 146 106 230.5t281 84.5q131 0 361 -51l34 -346l-32 -8q-78 113 -176 208q-90 93 -152 93q-29 0 -49.5 -20.5
t-20.5 -51.5q0 -29 29 -62t66 -57l100 -55q70 -39 111 -67.5t88 -73.5q98 -88 98 -236q0 -151 -104.5 -239.5t-296.5 -88.5z" />
    <glyph glyph-name="t" unicode="t" horiz-adv-x="782" 
d="M406 -23q-135 0 -218.5 77t-83.5 220v607h-86v82q134 68 275 165q134 92 205 185h49v-316h215l-27 -116h-184l-6 -494q-3 -164 108 -164q65 0 111 43l27 -39q-45 -95 -144 -172q-101 -78 -241 -78z" />
    <glyph glyph-name="u" unicode="u" horiz-adv-x="1304" 
d="M1212 299q0 -90 17 -129q19 -36 71 -70v-37l-524 -92v203q-144 -203 -354 -203q-53 -2 -117 16.5t-121 65.5q-38 38 -63 103.5t-25 146.5v311q0 131 -14 177q-14 50 -72 108v35q271 18 533 96q0 -184 -2 -325t-2 -326q0 -148 116 -148q52 0 111 56v327q0 133 -14 179
q-15 49 -72 106v35q270 17 532 96v-731z" />
    <glyph glyph-name="v" unicode="v" horiz-adv-x="1132" 
d="M825 997h318v-36l-99 -136q-32 -47 -57 -102l-346 -723h-162l-387 834q-42 86 -100 127v36h637v-36q-68 -47 -68 -107q0 -31 35 -115q36 -82 139 -301q96 193 135 297q17 53 17 72q0 59 -62 154v36z" />
    <glyph glyph-name="w" unicode="w" horiz-adv-x="1787" 
d="M1462 997h338v-36q-99 -99 -172 -254l-325 -707h-162l-252 557l-256 -557h-162l-377 831q-47 103 -102 130v36h626v-36q-69 -34 -69 -101q0 -37 14 -69l158 -347l110 244l-65 143q-50 106 -102 130v36h630v-36q-73 -34 -73 -111q0 -32 18 -72q39 -93 152 -338
q83 170 114 265q19 55 19 92q0 55 -62 164v36z" />
    <glyph glyph-name="x" unicode="x" horiz-adv-x="1191" 
d="M1085 152q48 -70 105 -115v-37h-662v37q74 15 74 61q0 27 -18 54l-107 172l-61 -72q-37 -42 -50.5 -87t-3.5 -78.5t39 -49.5v-37h-397v37q151 92 275 225l139 152l-293 432q-57 87 -109 115v36h662v-36q-68 -21 -68 -66q0 -41 52 -117l65 -100l51 61q70 82 70 131
q0 41 -47 91v36h366v-36q-131 -84 -272 -250l-107 -125z" />
    <glyph glyph-name="y" unicode="y" horiz-adv-x="1148" 
d="M836 997h323v-36q-55 -55 -84 -103q-49 -91 -94 -186q-204 -420 -367 -674q-153 -243 -354 -432l-182 241l31 23q45 -10 81 -10q196 0 312 192l4 8l20 33l-430 778q-31 57 -104 130v36h682v-36q-84 -53 -84 -105q0 -32 31 -86l159 -276q49 95 101 215q22 55 22 104
q0 78 -67 148v36z" />
    <glyph glyph-name="z" unicode="z" horiz-adv-x="1044" 
d="M1004 997v-88l-490 -809h137q40 0 66 8t63 33q79 60 178 275h37l-32 -416h-920v82l506 813h-123q-37 0 -58.5 -7t-56.5 -32q-59 -44 -186 -262h-37l33 403h883z" />
    <glyph glyph-name="braceleft" unicode="{" horiz-adv-x="854" 
d="M569 133q-8 -68 -8 -141q0 -170 55 -240q58 -70 177 -94l-5 -51q-202 0 -360 92q-87 51 -135.5 147.5t-48.5 227.5q0 25 4 61l12 103q1 12 2 26.5t1.5 22.5t0.5 12q0 134 -61 207q-59 77 -119 86v33q59 9 119 84q61 76 61 209q0 4 -0.5 12t-1.5 22.5t-2 26.5l-12 102
q-4 36 -4 64q0 108 34.5 192t88.5 134t128 82.5t145 44.5t148 12l5 -51q-123 -24 -177.5 -98t-54.5 -236q0 -74 8 -142l9 -75q2 -10 2 -43q0 -169 -88 -263t-216 -94q128 0 216 -94t88 -262q0 -33 -2 -43z" />
    <glyph glyph-name="bar" unicode="|" horiz-adv-x="407" 
d="M264 -240h-114v1821h114v-1821z" />
    <glyph glyph-name="braceright" unicode="}" horiz-adv-x="813" 
d="M557 979q-1 -12 -2 -26.5t-1.5 -22.5t-0.5 -12q0 -132 59 -209q63 -75 123 -84v-33q-61 -9 -123 -86q-59 -74 -59 -205q0 -1 4 -63l12 -103q4 -36 4 -63q0 -108 -34.5 -192t-88.5 -134t-128 -82.5t-145 -44.5t-148 -12l-2 51q122 24 175.5 97.5t53.5 234.5q0 75 -8 143
l-8 76q-2 10 -2 43q0 168 88 262t215 94q-127 0 -215 94t-88 263q0 33 2 43l8 75q8 68 8 142q0 170 -57 239q-56 71 -172 95l2 51q202 0 360 -92q87 -51 135.5 -147.5t48.5 -227.5q0 -26 -4 -62z" />
    <glyph glyph-name="asciitilde" unicode="~" horiz-adv-x="993" 
d="M696 537q-73 0 -202 69q-131 70 -215 70q-101 0 -220 -72l-32 19q44 122 137 200q95 80 186 80q70 0 219 -82q151 -80 234 -80q67 0 139 35l31 -24q-39 -95 -115.5 -155t-161.5 -60z" />
    <glyph glyph-name="exclamdown" unicode="&#xa1;" horiz-adv-x="636" 
d="M322 1030q86 0 147 -59.5t61 -141.5q0 -85 -61 -143.5t-147 -58.5q-88 0 -149.5 58.5t-61.5 143.5q0 84 61.5 142.5t149.5 58.5zM260 559h117q96 -590 188 -987v-25h-489v25q77 335 184 987z" />
    <glyph glyph-name="cent" unicode="&#xa2;" horiz-adv-x="1019" 
d="M999 315q-36 -124 -129 -217q-90 -93 -239 -114v-172h-86v168q-210 9 -357 141q-145 133 -145 389q0 253 141 379q143 128 361 137v133h86v-135q127 -13 217 -78t137 -158l-250 -188l-24 10q-35 172 -80 246v-582q44 -20 112 -20q137 0 213 98zM446 659q0 -222 99 -327
v588q-46 -7 -72.5 -78.5t-26.5 -182.5z" />
    <glyph glyph-name="sterling" unicode="&#xa3;" horiz-adv-x="1196" 
d="M1073 535h33l-55 -535h-998v106q215 144 215 433q0 97 -45 180h-180v139h119q-17 63 -17 123q0 206 140 346q139 139 413 139q149 0 357 -41l45 -450h-37q-83 138 -199 254q-106 106 -202 106q-54 0 -95 -30.5t-41 -79.5q0 -31 56 -140q57 -105 69 -227h262v-139h-260
q-21 -265 -278 -430h440q69 0 136.5 69t121.5 177z" />
    <glyph glyph-name="currency" unicode="&#xa4;" horiz-adv-x="1089" 
d="M1042 672q0 -170 -108 -305l131 -134l-78 -77l-131 131q-137 -107 -307 -107q-172 0 -311 109l-134 -133l-77 77l135 136q-107 137 -107 305q0 170 109 309l-133 133l80 78l133 -133q130 106 305 106q169 0 307 -108l133 133l78 -82l-133 -129q108 -138 108 -309z
M174 672q0 -155 111 -266q112 -109 264 -109q150 0 262 109q113 110 113 266q0 158 -113 268q-111 111 -264 111t-264 -111q-109 -112 -109 -268z" />
    <glyph glyph-name="yen" unicode="&#xa5;" horiz-adv-x="1419" 
d="M1014 1436h407v-35q-116 -107 -223 -287l-194 -334h219v-129h-273v-98h275v-129h-275v-154q0 -106 21 -147q20 -36 104 -86v-37h-739v37q81 49 102 86q23 44 23 147v154h-273v129h273v98h-275v129h211l-264 441q-74 121 -133 180v35h731v-35q-104 -64 -104 -123
q0 -39 65 -145l203 -322l166 303q39 68 39 119q0 68 -86 168v35z" />
    <glyph glyph-name="section" unicode="&#xa7;" horiz-adv-x="1142" 
d="M836 291q131 -125 131 -279q0 -143 -99.5 -232t-287.5 -89q-170 0 -371 63l-29 410l37 -2q48 -147 129 -254q83 -109 189 -109q100 0 100 88q0 55 -49 107q-42 44 -187 158q-84 65 -102 81q-37 35 -90 93q-105 117 -105 268q0 208 209 328q-80 80 -107.5 165t-4.5 162
t90 142q101 98 299 98q150 0 336 -57l22 -385l-37 2q-49 129 -131 235q-75 100 -162 100q-41 0 -65.5 -26.5t-24.5 -63.5q0 -41 40.5 -85t154.5 -130l98 -73q33 -23 86 -76q55 -52 80 -92q70 -110 70 -230q0 -208 -219 -317zM590 475q78 -52 172 -121q18 30 18 74
q0 72 -57.5 144t-198.5 176q-86 64 -143 110q-23 -38 -23 -74q0 -66 72 -159q74 -93 160 -150z" />
    <glyph glyph-name="dieresis" unicode="&#xa8;" horiz-adv-x="892" 
d="M68 1303q0 69 54.5 123.5t123.5 54.5t123.5 -54.5t54.5 -123.5q0 -72 -53 -126.5t-125 -54.5t-125 54.5t-53 126.5zM473 1303q0 69 54.5 123.5t123.5 54.5q72 0 125 -56q55 -52 55 -122q0 -72 -54 -126.5t-126 -54.5t-125 54.5t-53 126.5z" />
    <glyph glyph-name="copyright" unicode="&#xa9;" horiz-adv-x="1648" 
d="M76 733q0 310 219 529q221 221 530 221q311 0 529 -221q221 -218 221 -529q0 -312 -221 -530q-219 -219 -529 -219q-308 0 -530 219q-219 219 -219 530zM829 78q265 0 453 194q188 197 188 461q0 265 -188 459q-188 197 -457 197q-261 0 -454 -193t-193 -463
q0 -268 195 -463q192 -192 456 -192zM850 1153q-72 0 -124 -102t-52 -291q0 -188 52 -296t124 -108q60 0 143 80q81 81 156 191h22l-26 -316q-164 -37 -314 -37q-72 0 -137.5 14t-128 48t-107.5 86t-72.5 134.5t-27.5 186.5q0 240 134 365t346 125q124 0 309 -37l27 -307
h-23q-74 104 -162 186q-84 78 -139 78z" />
    <glyph glyph-name="ordfeminine" unicode="&#xaa;" horiz-adv-x="743" 
d="M406 1020h-3q-28 -57 -82.5 -94t-123.5 -37q-75 0 -121.5 42.5t-46.5 110.5q0 182 374 258l3 95q0 47 -35 47q-36 0 -66 -48t-49 -122l-20 -6l-162 77q34 76 119 125.5t213 49.5q115 -6 173 -39.5t74 -94.5q15 -53 15 -133l-4 -221q0 -35 20 -35q16 0 31 41l33 -14
q-20 -58 -71 -95.5t-126 -37.5q-76 0 -111.5 36t-33.5 95zM358 1053q32 0 41 28l4 168q-39 -14 -64.5 -49.5t-25.5 -79.5q0 -31 13 -49t32 -18z" />
    <glyph glyph-name="guillemotleft" unicode="&#xab;" horiz-adv-x="1275" 
d="M721 997q-104 -259 -240 -471q149 -232 240 -473h-105q-305 285 -540 463v21q229 172 540 460h105zM1204 997q-91 -241 -239 -471q152 -240 239 -473h-102q-308 285 -543 463v21q224 167 543 460h102z" />
    <glyph glyph-name="registered" unicode="&#xae;" horiz-adv-x="1134" 
d="M569 584q-207 0 -350 143t-143 348q0 203 143 346q146 146 350 146q200 0 346 -146t146 -346q0 -202 -146 -348q-143 -143 -346 -143zM569 659q171 0 291 123q121 127 121 293q0 169 -121 293q-119 125 -291 125q-171 0 -297 -123q-122 -119 -122 -295q0 -173 122 -295
q127 -121 297 -121zM797 879q21 -41 69 -72v-16h-198q-112 217 -140 278l-26 -2v-176q0 -36 9 -50.5t42 -33.5v-16h-262v16q35 19 44 33t9 51v375q0 44 -9 59.5t-44 34.5v16h274q103 0 164.5 -39t61.5 -106q0 -66 -54.5 -109t-134.5 -43h-35v-2q45 -26 107 -26q27 0 33 2
q28 -66 90 -174zM502 1329v-225h43q41 0 65.5 32t24.5 87q-4 37 -14.5 60.5t-28 32.5t-31.5 11.5t-33 1.5h-26z" />
    <glyph glyph-name="overscore" unicode="&#xaf;" horiz-adv-x="729" 
d="M666 1358v-201h-600v201h600z" />
    <glyph glyph-name="degree" unicode="&#xb0;" horiz-adv-x="878" 
d="M442 813q-140 0 -241 98q-101 101 -101 244q0 142 101 240t241 98q142 0 240 -98q100 -97 100 -240q0 -144 -100 -244q-101 -98 -240 -98zM442 909q97 0 166 72q70 70 70 174q0 101 -68 172q-69 72 -168 72q-98 0 -170 -72q-69 -69 -69 -172q0 -105 69 -174
q72 -72 170 -72z" />
    <glyph glyph-name="uni00B2" unicode="&#xb2;" horiz-adv-x="643" 
d="M446 827q53 0 85 15.5t75 58.5l23 -4l-88 -283h-541v35q181 187 262 314q78 122 78 219q0 73 -34 115t-85 42q-79 0 -182 -100l-29 25q143 229 324 229q102 0 171.5 -65.5t69.5 -178.5q0 -147 -116 -260q-52 -52 -93.5 -84t-111.5 -78h192z" />
    <glyph glyph-name="uni00B3" unicode="&#xb3;" horiz-adv-x="677" 
d="M37 1278q57 100 148 156.5t194 56.5q94 0 153.5 -45t59.5 -117q0 -73 -64.5 -132t-158.5 -91v-2q27 6 55 6q97 0 161 -62t64 -171q0 -127 -96 -202t-248 -75q-140 0 -274 51l96 260l20 -4q56 -225 156 -225q47 0 79 50t32 124q0 76 -38.5 125t-105.5 49q-45 0 -100 -22
l-18 51q118 56 169.5 103.5t51.5 101.5q0 45 -32 68.5t-79 23.5q-116 0 -203 -96z" />
    <glyph glyph-name="acute" unicode="&#xb4;" horiz-adv-x="555" 
d="M102 1137l-34 6q1 43 2 96t1.5 82t0.5 45q0 75 -2 98h422z" />
    <glyph glyph-name="paragraph" unicode="&#xb6;" horiz-adv-x="1150" 
d="M657 1464v-1464h-340v37q86 51 105 86q22 42 22 147v279h-51q-151 0 -260 133q-106 132 -106 324q0 190 106 323q108 135 260 135h264zM1128 1464v-37q-85 -51 -104 -88q-20 -36 -20 -145v-924q0 -108 20 -147q20 -36 104 -86v-37h-337v1464h337z" />
    <glyph glyph-name="middot" unicode="&#xb7;" horiz-adv-x="581" 
d="M295 811q85 0 151 -66t66 -153q0 -91 -63 -154t-154 -63q-93 0 -156 63t-63 153.5t63 153.5q66 66 156 66z" />
    <glyph glyph-name="cedilla" unicode="&#xb8;" horiz-adv-x="624" 
d="M84 -403q110 8 175 42t65 87q0 47 -52 81.5t-125 34.5l115 154h51l-28 -45q276 -21 276 -168q0 -109 -132 -170t-361 -59z" />
    <glyph glyph-name="uni00B9" unicode="&#xb9;" horiz-adv-x="499" 
d="M63 614v23q48 30 61 52t13 75v446q0 28 -13 53.5t-26 34.5q-4 4 -61 48v20l373 133v-735q2 -55 8 -69q10 -20 65 -58v-23h-420z" />
    <glyph glyph-name="ordmasculine" unicode="&#xba;" horiz-adv-x="753" 
d="M377 889q-352 0 -352 307q0 158 95.5 240t264.5 82q163 0 253.5 -76.5t90.5 -231.5q0 -158 -93.5 -239.5t-258.5 -81.5zM410 954q39 0 39 95q0 87 -19 223q-8 77 -31 128.5t-53 51.5q-41 0 -41 -94q0 -105 25 -258q24 -146 80 -146z" />
    <glyph glyph-name="guillemotright" unicode="&#xbb;" horiz-adv-x="1275" 
d="M74 997h104q319 -293 543 -460v-21q-235 -178 -543 -463h-104q103 261 241 473q-142 218 -241 471zM559 997h105q311 -288 540 -460v-21q-235 -178 -540 -463h-105q85 229 240 473q-151 234 -240 471z" />
    <glyph glyph-name="onequarter" unicode="&#xbc;" horiz-adv-x="1757" 
d="M63 614v23q48 30 61 52t13 75v446q0 28 -13 53.5t-26 34.5q-4 4 -61 48v20l373 133v-735q2 -55 8 -69q10 -20 65 -58v-23h-420zM248 0l1009 1464h115l-1007 -1464h-117zM1683 231h-102v-81q0 -51 10 -74q10 -18 64 -53v-23h-391v23q47 29 59 50.5t12 76.5v81h-368v37
l549 606h65v-552h115zM1124 322h211v233z" />
    <glyph glyph-name="onehalf" unicode="&#xbd;" horiz-adv-x="1685" 
d="M63 614v23q48 30 61 52t13 75v446q0 28 -13 53.5t-26 34.5q-4 4 -61 48v20l373 133v-735q2 -55 8 -69q10 -20 65 -58v-23h-420zM248 0l1009 1464h115l-1007 -1464h-117zM1448 213q53 0 85 15.5t75 58.5l22 -4l-88 -283h-541v35q186 191 263 313q77 121 77 219
q0 73 -33.5 115.5t-84.5 42.5q-80 0 -183 -100l-28 24q146 230 323 230q103 0 172.5 -65.5t69.5 -178.5q0 -146 -117 -260q-52 -52 -93.5 -84t-111.5 -78h193z" />
    <glyph glyph-name="threequarters" unicode="&#xbe;" horiz-adv-x="1861" 
d="M37 1278q57 100 148 156.5t194 56.5q94 0 153.5 -45t59.5 -117q0 -73 -64.5 -132t-158.5 -91v-2q27 6 55 6q97 0 161 -62t64 -171q0 -127 -96 -202t-248 -75q-140 0 -274 51l96 260l20 -4q56 -225 156 -225q47 0 79 50t32 124q0 76 -38.5 125t-105.5 49q-45 0 -100 -22
l-18 51q118 56 169.5 103.5t51.5 101.5q0 45 -32 68.5t-79 23.5q-116 0 -203 -96zM352 0l1010 1464h115l-1008 -1464h-117zM1788 231h-102v-81q0 -51 10 -74q11 -19 63 -53v-23h-391v23q48 29 60 50.5t12 76.5v81h-369v37l549 606h66v-552h114zM1229 322h211v233z" />
    <glyph glyph-name="questiondown" unicode="&#xbf;" horiz-adv-x="1005" 
d="M578 1030q88 0 149 -58t61 -143t-61 -143.5t-149 -58.5q-87 0 -148 59t-61 143q0 82 61.5 141.5t147.5 59.5zM662 561q4 -121 -31.5 -233.5t-89.5 -186.5q-133 -177 -133 -309q0 -84 41.5 -143.5t93.5 -59.5q36 0 68 31t55.5 83t39.5 97.5t30.5 99t17.5 62.5l2 12l22 4
l195 -370l-2 -2q-196 -118 -436 -127h-31q-196 0 -330 88q-135 89 -135 270q0 41 9 80.5t22 69.5t37.5 63t43.5 54.5t53.5 51t54.5 45t58 44.5q167 126 211 276h134z" />
    <glyph glyph-name="Agrave" unicode="&#xc0;" horiz-adv-x="1478" 
d="M887 1583l-33 -6q-110 84 -215 156l-174 125h422q-2 -20 -2 -91v-90q2 -39 2 -94zM1335 225q38 -100 70 -135q24 -27 63 -53v-37h-749v37q59 36 81.5 64.5t22.5 68.5q0 49 -39 162l-32 98h-377q-45 -139 -45 -205q0 -101 112 -188v-37h-430v37q105 88 152 172
q46 82 96 227l250 729l-88 172q241 83 428 197zM434 608h258l-129 396z" />
    <glyph glyph-name="Aacute" unicode="&#xc1;" horiz-adv-x="1478" 
d="M676 1530l-35 6q0 26 1 110.5t1 118.5q0 70 -2 93h422q-81 -72 -184 -156zM1335 225q38 -100 70 -135q24 -27 63 -53v-37h-749v37q59 36 81.5 64.5t22.5 68.5q0 49 -39 162l-32 98h-377q-45 -139 -45 -205q0 -101 112 -188v-37h-430v37q105 88 152 172q46 82 96 227
l250 729l-88 172q241 83 428 197zM434 608h258l-129 396z" />
    <glyph glyph-name="Acircumflex" unicode="&#xc2;" horiz-adv-x="1478" 
d="M754 1661l-293 -154l-33 19l313 418h23l313 -418l-30 -19zM1335 225q38 -100 70 -135q24 -27 63 -53v-37h-749v37q59 36 81.5 64.5t22.5 68.5q0 49 -39 162l-32 98h-377q-45 -139 -45 -205q0 -101 112 -188v-37h-430v37q105 88 152 172q46 82 96 227l250 729l-88 172
q241 83 428 197zM434 608h258l-129 396z" />
    <glyph glyph-name="Atilde" unicode="&#xc3;" horiz-adv-x="1478" 
d="M528 1634q-66 0 -137 -59l-43 16q43 146 122.5 211.5t199.5 65.5q47 0 153 -29q140 -41 172 -41q48 0 79 13t69 47l45 -15q-76 -278 -307 -278q-70 0 -168 28q-143 41 -185 41zM1335 225q38 -100 70 -135q24 -27 63 -53v-37h-749v37q59 36 81.5 64.5t22.5 68.5
q0 49 -39 162l-32 98h-377q-45 -139 -45 -205q0 -101 112 -188v-37h-430v37q105 88 152 172q46 82 96 227l250 729l-88 172q241 83 428 197zM434 608h258l-129 396z" />
    <glyph glyph-name="Adieresis" unicode="&#xc4;" horiz-adv-x="1478" 
d="M987 1540q-69 0 -120.5 51t-51.5 119q0 69 51.5 120.5t120.5 51.5q68 0 120 -51.5t52 -120.5q0 -67 -52 -118.5t-120 -51.5zM518 1536q-69 0 -120.5 51t-51.5 119q0 69 51.5 120.5t120.5 51.5q68 0 120 -51.5t52 -120.5q0 -67 -52 -118.5t-120 -51.5zM1335 225
q38 -100 70 -135q24 -27 63 -53v-37h-749v37q59 36 81.5 64.5t22.5 68.5q0 49 -39 162l-32 98h-377q-45 -139 -45 -205q0 -101 112 -188v-37h-430v37q105 88 152 172q46 82 96 227l250 729l-88 172q241 83 428 197zM434 608h258l-129 396z" />
    <glyph glyph-name="Aring" unicode="&#xc5;" horiz-adv-x="1478" 
d="M750 1939q82 0 138 -57t56 -141q0 -85 -56 -142t-138 -57t-140.5 57.5t-58.5 141.5q0 85 57 141.5t142 56.5zM750 1876q-47 0 -80 -38t-33 -89q0 -55 36 -97t85 -42q44 0 74 37.5t30 91.5q0 58 -31.5 97.5t-80.5 39.5zM1335 225q38 -100 70 -135q24 -27 63 -53v-37h-749
v37q59 36 81.5 64.5t22.5 68.5q0 49 -39 162l-32 98h-377q-45 -139 -45 -205q0 -101 112 -188v-37h-430v37q105 88 152 172q46 82 96 227l250 729l-88 172q241 83 428 197zM434 608h258l-129 396z" />
    <glyph glyph-name="AE" unicode="&#xc6;" horiz-adv-x="2076" 
d="M1956 489h35l-49 -489h-1205v37q86 51 105 86q22 42 22 147v164h-434l-4 -6q-94 -143 -94 -215q0 -75 110 -176v-37h-446v37q90 75 145 149q56 74 154 242l479 817q17 31 17 51q0 28 -23 54.5t-86 76.5v37h1192l37 -503h-35q-53 149 -178 256q-122 110 -314 110h-32v-483
h55q99 0 176.5 47t118.5 121h31v-467h-31q-41 85 -118.5 138.5t-176.5 49.5l-55 -2v-489q0 -49 41 -77t108 -28q136 0 260 109q126 114 195 243zM535 612h329v564z" />
    <glyph glyph-name="Ccedilla" unicode="&#xc7;" horiz-adv-x="1462" 
d="M838 106q95 0 227 132q130 130 248 307h37l-41 -514q-251 -54 -490 -60l-6 -16q307 -24 307 -180q0 -210 -452 -207l8 59q102 7 159.5 35.5t57.5 67.5q0 44 -58 81t-141 37l72 123q-102 0 -197.5 21t-191.5 75t-166.5 136.5t-115 215t-44.5 300.5q0 384 213 579
q216 195 553 195q190 0 494 -59l41 -500h-37q-127 174 -258 299q-133 127 -219 127q-33 0 -66.5 -18.5t-69 -65t-62.5 -115t-44.5 -178t-17.5 -244.5q0 -315 79 -473q80 -160 181 -160z" />
    <glyph glyph-name="Egrave" unicode="&#xc8;" horiz-adv-x="1374" 
d="M801 1536l-35 -6l-389 328h424q-4 -114 -4 -132q0 -13 0.5 -37.5t1.5 -69.5t2 -83zM1253 489h35l-49 -489h-1212v37q81 49 102 86q23 44 23 147v924q0 104 -23 145q-20 39 -102 88v37h1140l37 -503h-35q-53 149 -178 256q-122 110 -313 110h-37v-491h61q99 0 176.5 47
t118.5 121h31v-465h-31q-41 84 -118 136.5t-177 51.5l-61 -2v-483q0 -48 40.5 -76.5t102.5 -28.5h4q145 0 265 105q123 111 200 247z" />
    <glyph glyph-name="Eacute" unicode="&#xc9;" horiz-adv-x="1374" 
d="M598 1530l-35 6v111q2 47 2 104q0 82 -2 107h422q-81 -72 -184 -156zM1253 489h35l-49 -489h-1212v37q81 49 102 86q23 44 23 147v924q0 104 -23 145q-20 39 -102 88v37h1140l37 -503h-35q-53 149 -178 256q-122 110 -313 110h-37v-491h61q99 0 176.5 47t118.5 121h31
v-465h-31q-41 84 -118 136.5t-177 51.5l-61 -2v-483q0 -48 40.5 -76.5t102.5 -28.5h4q145 0 265 105q123 111 200 247z" />
    <glyph glyph-name="Ecircumflex" unicode="&#xca;" horiz-adv-x="1374" 
d="M676 1661l-293 -154l-33 19l314 418h22l313 -418l-30 -19zM1253 489h35l-49 -489h-1212v37q81 49 102 86q23 44 23 147v924q0 104 -23 145q-20 39 -102 88v37h1140l37 -503h-35q-53 149 -178 256q-122 110 -313 110h-37v-491h61q99 0 176.5 47t118.5 121h31v-465h-31
q-41 84 -118 136.5t-177 51.5l-61 -2v-483q0 -48 40.5 -76.5t102.5 -28.5h4q145 0 265 105q123 111 200 247z" />
    <glyph glyph-name="Edieresis" unicode="&#xcb;" horiz-adv-x="1374" 
d="M909 1540q-69 0 -120.5 51t-51.5 119q0 69 51.5 120.5t120.5 51.5q68 0 120 -51.5t52 -120.5q0 -67 -52 -118.5t-120 -51.5zM440 1536q-69 0 -120.5 51t-51.5 119q0 69 51.5 120.5t120.5 51.5q68 0 120 -51.5t52 -120.5q0 -67 -52 -118.5t-120 -51.5zM1253 489h35
l-49 -489h-1212v37q81 49 102 86q23 44 23 147v924q0 104 -23 145q-20 39 -102 88v37h1140l37 -503h-35q-53 149 -178 256q-122 110 -313 110h-37v-491h61q99 0 176.5 47t118.5 121h31v-465h-31q-41 84 -118 136.5t-177 51.5l-61 -2v-483q0 -48 40.5 -76.5t102.5 -28.5h4
q145 0 265 105q123 111 200 247z" />
    <glyph glyph-name="Igrave" unicode="&#xcc;" horiz-adv-x="786" 
d="M492 1530l-390 328h424q-4 -114 -4 -132q0 -13 0.5 -37.5t1.5 -69.5t2 -83zM27 0v37q81 49 102 86q23 44 23 147v924q0 104 -23 145q-20 39 -102 88v37h739v-37q-85 -51 -104 -88q-21 -37 -21 -145v-924q0 -106 21 -147q20 -36 104 -86v-37h-739z" />
    <glyph glyph-name="Iacute" unicode="&#xcd;" horiz-adv-x="786" 
d="M324 1530l-35 6q0 26 1 110.5t1 118.5q0 70 -2 93h422q-69 -61 -185 -156zM27 0v37q81 49 102 86q23 44 23 147v924q0 104 -23 145q-20 39 -102 88v37h739v-37q-85 -51 -104 -88q-21 -37 -21 -145v-924q0 -106 21 -147q20 -36 104 -86v-37h-739z" />
    <glyph glyph-name="Icircumflex" unicode="&#xce;" horiz-adv-x="786" 
d="M109 1507l-33 19l313 418h23l313 -418l-31 -19l-293 154zM27 0v37q81 49 102 86q23 44 23 147v924q0 104 -23 145q-20 39 -102 88v37h739v-37q-85 -51 -104 -88q-21 -37 -21 -145v-924q0 -106 21 -147q20 -36 104 -86v-37h-739z" />
    <glyph glyph-name="Idieresis" unicode="&#xcf;" horiz-adv-x="786" 
d="M635 1540q-69 0 -120.5 51t-51.5 119q0 69 51.5 120.5t120.5 51.5q68 0 120 -51.5t52 -120.5q0 -67 -52 -118.5t-120 -51.5zM166 1536q-69 0 -120.5 51t-51.5 119q0 69 51.5 120.5t120.5 51.5q68 0 120 -51.5t52 -120.5q0 -67 -52 -118.5t-120 -51.5zM27 0v37
q81 49 102 86q23 44 23 147v924q0 104 -23 145q-20 39 -102 88v37h739v-37q-85 -51 -104 -88q-21 -37 -21 -145v-924q0 -106 21 -147q20 -36 104 -86v-37h-739z" />
    <glyph glyph-name="Eth" unicode="&#xd0;" horiz-adv-x="1613" 
d="M686 1464q435 0 657 -174t222 -512q0 -337 -205 -557q-206 -221 -588 -221h-745v37q81 49 102 86q23 44 23 147v428h-82v131h82v365q0 104 -23 145q-20 39 -102 88v37h659zM758 139q114 15 196 170q86 157 86 451q0 229 -57 360q-22 56 -58 99.5t-71 64.5q-27 19 -70 31
t-69 12q-14 2 -53 2h-21v-500h182v-131h-182v-456q0 -42 33 -70t84 -33z" />
    <glyph glyph-name="Ntilde" unicode="&#xd1;" horiz-adv-x="1538" 
d="M565 1634q-66 0 -137 -59l-43 16q43 146 122.5 211.5t199.5 65.5q47 0 153 -29q140 -41 172 -41q48 0 79 13t69 47l45 -15q-76 -278 -307 -278q-70 0 -168 28q-143 41 -185 41zM1526 1464v-37q-43 -29 -59.5 -40.5t-43 -35.5t-34 -34t-21.5 -40t-16.5 -50t-8.5 -67
t-7 -87.5t-3 -114.5v-958h-379q-242 425 -589 977v-471q0 -163 15.5 -245t51.5 -126q34 -40 127 -98v-37h-532v37q95 58 127 98q35 41 51 121q16 85 16 250v577q0 192 -194 365v16h579q251 -379 582 -944v438q-2 74 -3 114.5t-7 87.5t-8.5 67t-16.5 50t-21.5 40t-34 34
t-43 35.5t-59.5 40.5v37h531z" />
    <glyph glyph-name="Ograve" unicode="&#xd2;" horiz-adv-x="1671" 
d="M928 1530l-389 328h424q-1 -22 -2 -50.5t-2 -48t-1 -33.5q0 -12 1 -37.5t2 -68.5t2 -84zM1413 168q-209 -197 -577 -197q-369 0 -578 197q-207 201 -207 565q0 365 207 563q209 197 578 197q368 0 577 -197t209 -563q0 -365 -209 -565zM897 111q101 0 156 106t55 307
q0 190 -37 383q-21 125 -55 217q-37 102 -100.5 166t-139.5 64q-101 0 -157 -104.5t-56 -303.5q0 -213 62 -497q33 -152 105 -245t167 -93z" />
    <glyph glyph-name="Oacute" unicode="&#xd3;" horiz-adv-x="1671" 
d="M760 1530l-35 6q0 26 1 110.5t1 118.5q0 70 -2 93h422q-81 -72 -184 -156zM1413 168q-209 -197 -577 -197q-369 0 -578 197q-207 201 -207 565q0 365 207 563q209 197 578 197q368 0 577 -197t209 -563q0 -365 -209 -565zM897 111q101 0 156 106t55 307q0 190 -37 383
q-21 125 -55 217q-37 102 -100.5 166t-139.5 64q-101 0 -157 -104.5t-56 -303.5q0 -213 62 -497q33 -152 105 -245t167 -93z" />
    <glyph glyph-name="Ocircumflex" unicode="&#xd4;" horiz-adv-x="1671" 
d="M545 1507l-33 19l313 418h23l313 -418l-31 -19l-292 154zM1413 168q-209 -197 -577 -197q-369 0 -578 197q-207 201 -207 565q0 365 207 563q209 197 578 197q368 0 577 -197t209 -563q0 -365 -209 -565zM897 111q101 0 156 106t55 307q0 190 -37 383q-21 125 -55 217
q-37 102 -100.5 166t-139.5 64q-101 0 -157 -104.5t-56 -303.5q0 -213 62 -497q33 -152 105 -245t167 -93z" />
    <glyph glyph-name="Otilde" unicode="&#xd5;" horiz-adv-x="1671" 
d="M1227 1858l45 -15q-76 -278 -307 -278q-70 0 -168 28q-143 41 -185 41q-66 0 -137 -59l-43 16q43 146 122.5 211.5t199.5 65.5q47 0 153 -29q140 -41 172 -41q48 0 79 13t69 47zM1413 168q-209 -197 -577 -197q-369 0 -578 197q-207 201 -207 565q0 365 207 563
q209 197 578 197q368 0 577 -197t209 -563q0 -365 -209 -565zM897 111q101 0 156 106t55 307q0 190 -37 383q-21 125 -55 217q-37 102 -100.5 166t-139.5 64q-101 0 -157 -104.5t-56 -303.5q0 -213 62 -497q33 -152 105 -245t167 -93z" />
    <glyph glyph-name="Odieresis" unicode="&#xd6;" horiz-adv-x="1671" 
d="M1071 1540q-69 0 -120.5 51t-51.5 119q0 69 51.5 120.5t120.5 51.5q68 0 120 -51.5t52 -120.5q0 -67 -52 -118.5t-120 -51.5zM602 1536q-69 0 -120.5 51t-51.5 119q0 69 51.5 120.5t120.5 51.5q68 0 120 -51.5t52 -120.5q0 -67 -52 -118.5t-120 -51.5zM1413 168
q-209 -197 -577 -197q-369 0 -578 197q-207 201 -207 565q0 365 207 563q209 197 578 197q368 0 577 -197t209 -563q0 -365 -209 -565zM897 111q101 0 156 106t55 307q0 190 -37 383q-21 125 -55 217q-37 102 -100.5 166t-139.5 64q-101 0 -157 -104.5t-56 -303.5
q0 -213 62 -497q33 -152 105 -245t167 -93z" />
    <glyph glyph-name="multiply" unicode="&#xd7;" horiz-adv-x="829" 
d="M760 442l-84 -84l-258 260l-252 -251l-82 82l252 251l-260 258l84 84l260 -258l250 250l82 -82l-250 -250z" />
    <glyph glyph-name="Oslash" unicode="&#xd8;" horiz-adv-x="1671" 
d="M1348 1352q274 -200 274 -619q0 -365 -209 -565q-209 -197 -577 -197q-239 0 -416 86l-84 -118h-137l127 176q-275 201 -275 618q0 365 207 563q209 197 578 197q234 0 413 -84l78 107h137zM563 944q0 -221 47 -432l416 582q-85 260 -250 260q-103 0 -158 -105t-55 -305z
M895 111q103 0 158 105.5t55 305.5q0 230 -45 432l-416 -581q89 -262 248 -262z" />
    <glyph glyph-name="Ugrave" unicode="&#xd9;" horiz-adv-x="1566" 
d="M895 1530l-389 328h424q-4 -114 -4 -132q0 -13 0.5 -37.5t1.5 -69.5t2 -83zM1559 1464v-37q-43 -29 -59.5 -40.5t-43 -35.5t-34 -34t-21.5 -40t-16.5 -50t-8.5 -67t-7 -87.5t-3 -114.5v-471q0 -252 -144 -384t-427 -132q-248 0 -435 107q-98 58 -153 162.5t-55 242.5v711
q0 104 -23 145q-20 39 -102 88v37h739v-37q-85 -51 -104 -88q-21 -37 -21 -145v-735q0 -157 74.5 -240.5t210.5 -83.5q122 0 209 78q88 76 88 274v471q-2 74 -3 114.5t-7 87.5t-8.5 67t-16.5 50t-21.5 40t-34 34t-43 35.5t-59.5 40.5v37h529z" />
    <glyph glyph-name="Uacute" unicode="&#xda;" horiz-adv-x="1566" 
d="M729 1530l-35 6q0 26 1 110.5t1 118.5q0 70 -2 93h422q-81 -72 -184 -156zM1559 1464v-37q-43 -29 -59.5 -40.5t-43 -35.5t-34 -34t-21.5 -40t-16.5 -50t-8.5 -67t-7 -87.5t-3 -114.5v-471q0 -252 -144 -384t-427 -132q-248 0 -435 107q-98 58 -153 162.5t-55 242.5v711
q0 104 -23 145q-20 39 -102 88v37h739v-37q-85 -51 -104 -88q-21 -37 -21 -145v-735q0 -157 74.5 -240.5t210.5 -83.5q122 0 209 78q88 76 88 274v471q-2 74 -3 114.5t-7 87.5t-8.5 67t-16.5 50t-21.5 40t-34 34t-43 35.5t-59.5 40.5v37h529z" />
    <glyph glyph-name="Ucircumflex" unicode="&#xdb;" horiz-adv-x="1566" 
d="M514 1507l-33 19l314 418h22l313 -418l-30 -19l-293 154zM1559 1464v-37q-43 -29 -59.5 -40.5t-43 -35.5t-34 -34t-21.5 -40t-16.5 -50t-8.5 -67t-7 -87.5t-3 -114.5v-471q0 -252 -144 -384t-427 -132q-248 0 -435 107q-98 58 -153 162.5t-55 242.5v711q0 104 -23 145
q-20 39 -102 88v37h739v-37q-85 -51 -104 -88q-21 -37 -21 -145v-735q0 -157 74.5 -240.5t210.5 -83.5q122 0 209 78q88 76 88 274v471q-2 74 -3 114.5t-7 87.5t-8.5 67t-16.5 50t-21.5 40t-34 34t-43 35.5t-59.5 40.5v37h529z" />
    <glyph glyph-name="Udieresis" unicode="&#xdc;" horiz-adv-x="1566" 
d="M1040 1540q-69 0 -120.5 51t-51.5 119q0 69 51.5 120.5t120.5 51.5q68 0 120 -51.5t52 -120.5q0 -67 -52 -118.5t-120 -51.5zM571 1536q-69 0 -120.5 51t-51.5 119q0 69 51.5 120.5t120.5 51.5q68 0 120 -51.5t52 -120.5q0 -67 -52 -118.5t-120 -51.5zM1559 1464v-37
q-43 -29 -59.5 -40.5t-43 -35.5t-34 -34t-21.5 -40t-16.5 -50t-8.5 -67t-7 -87.5t-3 -114.5v-471q0 -252 -144 -384t-427 -132q-248 0 -435 107q-98 58 -153 162.5t-55 242.5v711q0 104 -23 145q-20 39 -102 88v37h739v-37q-85 -51 -104 -88q-21 -37 -21 -145v-735
q0 -157 74.5 -240.5t210.5 -83.5q122 0 209 78q88 76 88 274v471q-2 74 -3 114.5t-7 87.5t-8.5 67t-16.5 50t-21.5 40t-34 34t-43 35.5t-59.5 40.5v37h529z" />
    <glyph glyph-name="Yacute" unicode="&#xdd;" horiz-adv-x="1472" 
d="M702 1530l-34 6q0 26 1 110.5t1 118.5q0 70 -2 93h422q-69 -61 -185 -156zM1051 1464h424v-37q-131 -113 -234 -288l-264 -443v-426q0 -108 20 -147q19 -35 105 -86v-37h-740v37q83 50 103 86q22 42 22 147v418l-346 559q-77 123 -141 180v37h750v-37q-111 -67 -111 -124
q0 -42 66 -146l217 -338l180 320q39 65 39 121q0 74 -90 167v37z" />
    <glyph glyph-name="germandbls" unicode="&#xdf;" horiz-adv-x="1429" 
d="M895 1006q0 -31 44.5 -74t134 -112t138.5 -113q78 -70 126 -166.5t48 -200.5q0 -182 -126 -274q-130 -91 -289 -91q-185 0 -355 105l64 420l33 -11q44 -166 110 -286q71 -123 152 -123q74 0 74 96q0 49 -23.5 94t-61 82t-82.5 73.5t-90 75t-82.5 78.5t-61 92t-23.5 109
t24 105.5t57.5 84.5t67.5 71t58 82t24 102q0 75 -40 117t-103 42q-168 0 -168 -307v-817q0 -100 16 -143q14 -34 72 -80v-37h-623v37q58 46 72 80q16 43 16 143v674h-82v76h82q1 233 156 356t440 123q200 0 315 -59.5t115 -172.5q0 -56 -33.5 -98t-80.5 -61
q-115 -46 -115 -92z" />
    <glyph glyph-name="agrave" unicode="&#xe0;" horiz-adv-x="1228" 
d="M750 1120l-390 328h422q-2 -23 -2 -98q0 -16 0.5 -45t1.5 -83t2 -96zM676 197h-4q-46 -93 -137.5 -155t-206.5 -62q-123 0 -200 70.5t-77 182.5q0 304 623 433l4 155q0 82 -66 82q-67 0 -116 -88q-50 -87 -74 -199l-33 -10l-262 135q46 112 180 199q136 86 361 86
q273 0 379 -156q48 -63 53 -190q3 -35 0 -88l-8 -379q0 -61 26 -61q38 0 62 73l51 -28q-33 -95 -115.5 -156t-204.5 -61q-123 0 -182 61.5t-53 155.5zM586 242q26 0 50 17t30 38l8 285q-75 -26 -120.5 -87.5t-45.5 -136.5q0 -56 21 -86t57 -30z" />
    <glyph glyph-name="aacute" unicode="&#xe1;" horiz-adv-x="1228" 
d="M526 1120l-34 6q0 26 1 111t1 119q0 69 -2 92h421zM676 197h-4q-46 -93 -137.5 -155t-206.5 -62q-123 0 -200 70.5t-77 182.5q0 304 623 433l4 155q0 82 -66 82q-67 0 -116 -88q-50 -87 -74 -199l-33 -10l-262 135q46 112 180 199q136 86 361 86q273 0 379 -156
q48 -63 53 -190q3 -35 0 -88l-8 -379q0 -61 26 -61q38 0 62 73l51 -28q-33 -95 -115.5 -156t-204.5 -61q-123 0 -182 61.5t-53 155.5zM586 242q26 0 50 17t30 38l8 285q-75 -26 -120.5 -87.5t-45.5 -136.5q0 -56 21 -86t57 -30z" />
    <glyph glyph-name="acircumflex" unicode="&#xe2;" horiz-adv-x="1228" 
d="M365 1106l-23 20q13 16 105.5 141.5t170.5 219.5h25q177 -250 275 -361l-25 -18l-262 135zM676 197h-4q-46 -93 -137.5 -155t-206.5 -62q-123 0 -200 70.5t-77 182.5q0 304 623 433l4 155q0 82 -66 82q-67 0 -116 -88q-50 -87 -74 -199l-33 -10l-262 135q46 112 180 199
q136 86 361 86q273 0 379 -156q48 -63 53 -190q3 -35 0 -88l-8 -379q0 -61 26 -61q38 0 62 73l51 -28q-33 -95 -115.5 -156t-204.5 -61q-123 0 -182 61.5t-53 155.5zM586 242q26 0 50 17t30 38l8 285q-75 -26 -120.5 -87.5t-45.5 -136.5q0 -56 21 -86t57 -30z" />
    <glyph glyph-name="atilde" unicode="&#xe3;" horiz-adv-x="1228" 
d="M981 1401l23 -4q-47 -262 -252 -262q-65 0 -154 28q-116 39 -166 39q-58 0 -123 -59l-20 6q49 264 260 264q49 0 147 -31q116 -39 146 -39q49 0 73 10.5t66 47.5zM676 197h-4q-46 -93 -137.5 -155t-206.5 -62q-123 0 -200 70.5t-77 182.5q0 304 623 433l4 155
q0 82 -66 82q-67 0 -116 -88q-50 -87 -74 -199l-33 -10l-262 135q46 112 180 199q136 86 361 86q273 0 379 -156q48 -63 53 -190q3 -35 0 -88l-8 -379q0 -61 26 -61q38 0 62 73l51 -28q-33 -95 -115.5 -156t-204.5 -61q-123 0 -182 61.5t-53 155.5zM586 242q26 0 50 17
t30 38l8 285q-75 -26 -120.5 -87.5t-45.5 -136.5q0 -56 21 -86t57 -30z" />
    <glyph glyph-name="adieresis" unicode="&#xe4;" horiz-adv-x="1228" 
d="M248 1286q0 69 54.5 123.5t123.5 54.5q54 2 99.5 -31t66 -80t12 -102t-52.5 -92q-36 -43 -90 -51t-101.5 13t-80.5 66t-31 99zM653 1286q0 69 54 123q55 55 127 55t124 -55q54 -54 54 -123q0 -72 -53 -126t-125 -54t-126.5 54t-54.5 126zM676 197h-4q-46 -93 -137.5 -155
t-206.5 -62q-123 0 -200 70.5t-77 182.5q0 304 623 433l4 155q0 82 -66 82q-67 0 -116 -88q-50 -87 -74 -199l-33 -10l-262 135q46 112 180 199q136 86 361 86q273 0 379 -156q48 -63 53 -190q3 -35 0 -88l-8 -379q0 -61 26 -61q38 0 62 73l51 -28q-33 -95 -115.5 -156
t-204.5 -61q-123 0 -182 61.5t-53 155.5zM586 242q26 0 50 17t30 38l8 285q-75 -26 -120.5 -87.5t-45.5 -136.5q0 -56 21 -86t57 -30z" />
    <glyph glyph-name="aring" unicode="&#xe5;" horiz-adv-x="1228" 
d="M629 1075q-84 0 -141.5 58.5t-57.5 140.5t57.5 139t141.5 57q82 0 138 -56t56 -140q0 -85 -56 -142t-138 -57zM739 1272q0 57 -33.5 97t-80.5 40t-77 -38t-30 -93q0 -54 36 -95.5t83 -41.5q46 0 74 39t28 92zM676 197h-4q-46 -93 -137.5 -155t-206.5 -62
q-123 0 -200 70.5t-77 182.5q0 304 623 433l4 155q0 82 -66 82q-67 0 -116 -88q-50 -87 -74 -199l-33 -10l-262 135q46 112 180 199q136 86 361 86q273 0 379 -156q48 -63 53 -190q3 -35 0 -88l-8 -379q0 -61 26 -61q38 0 62 73l51 -28q-33 -95 -115.5 -156t-204.5 -61
q-123 0 -182 61.5t-53 155.5zM586 242q26 0 50 17t30 38l8 285q-75 -26 -120.5 -87.5t-45.5 -136.5q0 -56 21 -86t57 -30z" />
    <glyph glyph-name="ae" unicode="&#xe6;" horiz-adv-x="1744" 
d="M362 -20q-125 0 -217 57q-94 58 -94 192q0 207 271 324q142 62 370 113l2 145q0 39 -24.5 64.5t-65.5 25.5q-79 -3 -127 -91t-55 -196l-35 -8l-258 137q41 103 178 191q139 92 340 92q155 0 289 -76q155 76 307 76q206 0 332 -111q127 -112 127 -292v-70h-629
q0 -102 55 -173t132 -97q77 -23 145 -23q80 0 153.5 28t110.5 72l31 -20q-40 -146 -160 -254q-118 -106 -317 -106q-134 0 -247.5 50t-176.5 138q-78 -79 -198 -133.5t-239 -54.5zM1075 678l234 2q-2 107 -33.5 175.5t-85.5 68.5t-84.5 -68.5t-30.5 -177.5zM614 227
q73 0 113 52q-41 93 -41 215q0 40 6 90q-95 -37 -139.5 -88t-44.5 -136q0 -133 106 -133z" />
    <glyph glyph-name="ccedilla" unicode="&#xe7;" horiz-adv-x="1019" 
d="M565 -20q-31 0 -41 2l-18 -31q143 -12 210.5 -52.5t67.5 -113.5q0 -110 -131.5 -171.5t-363.5 -59.5l16 43q110 8 175 42t65 85q0 50 -50.5 84t-123.5 34l104 144q-185 27 -309 157q-123 132 -123 367q0 258 150 387t372 129q290 0 420 -238l-250 -188l-24 10
q-23 118 -66 215q-41 95 -92 95q-50 0 -78.5 -73t-28.5 -192q0 -186 74 -293.5t219 -107.5q141 0 217 98l43 -37q-42 -135 -147 -235q-106 -100 -287 -100z" />
    <glyph glyph-name="egrave" unicode="&#xe8;" horiz-adv-x="1091" 
d="M727 1126l-35 -6l-389 328h422q-2 -23 -2 -98q0 -16 0.5 -45t1.5 -83t2 -96zM1049 604v-51h-600q12 -156 102 -225q92 -68 211 -68q171 0 246 100l30 -18l-26 -78q-15 -39 -51 -90q-40 -62 -82 -96q-49 -40 -131.5 -69t-174.5 -29q-224 0 -378 139q-152 143 -152 397
q0 252 152 383q153 129 385 129q220 0 344.5 -115t124.5 -309zM561 924q-97 0 -112 -246l208 6q-9 240 -96 240z" />
    <glyph glyph-name="eacute" unicode="&#xe9;" horiz-adv-x="1091" 
d="M469 1120l-35 6q0 26 1 111t1 119q0 69 -2 92h422zM1049 604v-51h-600q12 -156 102 -225q92 -68 211 -68q171 0 246 100l30 -18l-26 -78q-15 -39 -51 -90q-40 -62 -82 -96q-49 -40 -131.5 -69t-174.5 -29q-224 0 -378 139q-152 143 -152 397q0 252 152 383
q153 129 385 129q220 0 344.5 -115t124.5 -309zM561 924q-97 0 -112 -246l208 6q-9 240 -96 240z" />
    <glyph glyph-name="ecircumflex" unicode="&#xea;" horiz-adv-x="1091" 
d="M571 1243l-266 -137l-22 20q13 16 105.5 141.5t170.5 219.5h25q181 -256 274 -361l-24 -18zM1049 604v-51h-600q12 -156 102 -225q92 -68 211 -68q171 0 246 100l30 -18l-26 -78q-15 -39 -51 -90q-40 -62 -82 -96q-49 -40 -131.5 -69t-174.5 -29q-224 0 -378 139
q-152 143 -152 397q0 252 152 383q153 129 385 129q220 0 344.5 -115t124.5 -309zM561 924q-97 0 -112 -246l208 6q-9 240 -96 240z" />
    <glyph glyph-name="edieresis" unicode="&#xeb;" horiz-adv-x="1091" 
d="M190 1286q0 69 55 123.5t124 54.5q54 2 99.5 -31t66 -80t12 -102t-52.5 -92q-29 -34 -70.5 -47t-82 -3t-75.5 33t-56.5 62t-19.5 82zM596 1286q0 70 53 123q55 55 127 55q73 0 125 -55q53 -53 53 -123q0 -72 -53 -126t-125 -54t-126 54t-54 126zM1049 604v-51h-600
q12 -156 102 -225q92 -68 211 -68q171 0 246 100l30 -18l-26 -78q-15 -39 -51 -90q-40 -62 -82 -96q-49 -40 -131.5 -69t-174.5 -29q-224 0 -378 139q-152 143 -152 397q0 252 152 383q153 129 385 129q220 0 344.5 -115t124.5 -309zM561 924q-97 0 -112 -246l208 6
q-9 240 -96 240z" />
    <glyph glyph-name="igrave" unicode="&#xec;" horiz-adv-x="638" 
d="M457 1143l-35 -6l-389 327h422q-2 -23 -2 -88q0 -7 4 -233zM545 260q0 -100 16 -143q14 -34 72 -80v-37h-623v37q58 46 72 80q16 43 16 143v354q0 164 -35 217q-12 21 -53 68v35q271 18 535 96v-770z" />
    <glyph glyph-name="iacute" unicode="&#xed;" horiz-adv-x="638" 
d="M199 1137l-35 6q0 26 1 110.5t1 118.5q0 69 -2 92h422zM545 260q0 -100 16 -143q14 -34 72 -80v-37h-623v37q58 46 72 80q16 43 16 143v354q0 164 -35 217q-12 21 -53 68v35q271 18 535 96v-770z" />
    <glyph glyph-name="icircumflex" unicode="&#xee;" horiz-adv-x="638" 
d="M303 1260l-266 -138l-23 21q12 15 105.5 140t171.5 220h24q174 -245 275 -360l-25 -19zM545 260q0 -100 16 -143q14 -34 72 -80v-37h-623v37q58 46 72 80q16 43 16 143v354q0 164 -35 217q-12 21 -53 68v35q271 18 535 96v-770z" />
    <glyph glyph-name="idieresis" unicode="&#xef;" horiz-adv-x="638" 
d="M-80 1303q0 69 54.5 123.5t123.5 54.5q54 2 99.5 -31t66 -80t12 -102t-52.5 -92q-36 -43 -90 -51t-101.5 13t-80.5 66t-31 99zM326 1303q0 69 53 122q56 56 127 56q72 0 125 -56q53 -53 53 -122q0 -72 -53 -126.5t-125 -54.5t-126 54.5t-54 126.5zM545 260
q0 -100 16 -143q14 -34 72 -80v-37h-623v37q58 46 72 80q16 43 16 143v354q0 164 -35 217q-12 21 -53 68v35q271 18 535 96v-770z" />
    <glyph glyph-name="ntilde" unicode="&#xf1;" horiz-adv-x="1308" 
d="M477 1202q-58 0 -123 -59l-20 6q50 264 260 264q49 0 147 -31q116 -39 146 -39q49 0 73 10.5t66 47.5l23 -4q-47 -262 -252 -262q-65 0 -154 28q-116 39 -166 39zM1214 260q0 -97 17 -143q14 -36 74 -80v-37h-625v37q60 48 74 82q18 38 18 141v98q2 49 2 248
q0 76 -32 116t-87 40q-58 0 -110 -55v-447q0 -100 16 -143q14 -34 72 -80v-37h-623v37q58 46 72 80q16 43 16 143v356q0 131 -16 181t-72 106v33q260 15 527 94v-209q138 205 352 205q146 0 237 -86q39 -34 63.5 -98.5t24.5 -147.5v-434z" />
    <glyph glyph-name="ograve" unicode="&#xf2;" horiz-adv-x="1243" 
d="M741 1120l-389 328h422q-2 -23 -2 -98q0 -16 0.5 -45t1.5 -83t2 -96zM612 -20q-267 0 -418 128t-151 384q0 260 157 397t433 137q268 0 418.5 -128.5t150.5 -385.5q0 -261 -156.5 -396.5t-433.5 -135.5zM676 84q76 0 76 172q0 283 -68 512q-46 150 -115 150
q-75 0 -75 -168q0 -149 32 -377q20 -128 59 -208.5t91 -80.5z" />
    <glyph glyph-name="oacute" unicode="&#xf3;" horiz-adv-x="1243" 
d="M520 1120l-35 6q0 26 1 111t1 119q0 69 -2 92h422zM612 -20q-267 0 -418 128t-151 384q0 260 157 397t433 137q268 0 418.5 -128.5t150.5 -385.5q0 -261 -156.5 -396.5t-433.5 -135.5zM676 84q76 0 76 172q0 283 -68 512q-46 150 -115 150q-75 0 -75 -168q0 -149 32 -377
q20 -128 59 -208.5t91 -80.5z" />
    <glyph glyph-name="ocircumflex" unicode="&#xf4;" horiz-adv-x="1243" 
d="M356 1106l-22 20q13 16 105.5 141.5t170.5 219.5h25q181 -256 274 -361l-24 -18l-262 135zM612 -20q-267 0 -418 128t-151 384q0 260 157 397t433 137q268 0 418.5 -128.5t150.5 -385.5q0 -261 -156.5 -396.5t-433.5 -135.5zM676 84q76 0 76 172q0 283 -68 512
q-46 150 -115 150q-75 0 -75 -168q0 -149 32 -377q20 -128 59 -208.5t91 -80.5z" />
    <glyph glyph-name="otilde" unicode="&#xf5;" horiz-adv-x="1243" 
d="M973 1401l22 -4q-47 -262 -252 -262q-64 0 -153 28q-116 39 -166 39q-58 0 -123 -59l-20 6q49 264 260 264q49 0 147 -31q116 -39 146 -39q49 0 73 10.5t66 47.5zM612 -20q-267 0 -418 128t-151 384q0 260 157 397t433 137q268 0 418.5 -128.5t150.5 -385.5
q0 -261 -156.5 -396.5t-433.5 -135.5zM676 84q76 0 76 172q0 283 -68 512q-46 150 -115 150q-75 0 -75 -168q0 -149 32 -377q20 -128 59 -208.5t91 -80.5z" />
    <glyph glyph-name="odieresis" unicode="&#xf6;" horiz-adv-x="1243" 
d="M240 1286q0 69 54.5 123.5t123.5 54.5q54 2 99.5 -31t66 -80t12 -102t-52.5 -92q-36 -43 -90 -51t-101.5 13t-80.5 66t-31 99zM645 1286q0 70 53 123q55 55 127 55q73 0 125 -55q54 -54 54 -123q0 -72 -53.5 -126t-125.5 -54t-126 54t-54 126zM612 -20q-267 0 -418 128
t-151 384q0 260 157 397t433 137q268 0 418.5 -128.5t150.5 -385.5q0 -261 -156.5 -396.5t-433.5 -135.5zM676 84q76 0 76 172q0 283 -68 512q-46 150 -115 150q-75 0 -75 -168q0 -149 32 -377q20 -128 59 -208.5t91 -80.5z" />
    <glyph glyph-name="divide" unicode="&#xf7;" horiz-adv-x="872" 
d="M535 891q-43 -43 -100.5 -43t-100.5 43t-43 100.5t43 100.5t100.5 43t100.5 -43t43 -100.5t-43 -100.5zM803 758v-119h-727v119h727zM528 297q-43 -43 -100 -43t-100 43t-43 100.5t43 100.5t100 43t100 -43t43 -100.5t-43 -100.5z" />
    <glyph glyph-name="oslash" unicode="&#xf8;" horiz-adv-x="1243" 
d="M1018 924q184 -132 184 -410q0 -260 -154.5 -397t-424.5 -137q-179 0 -301 51l-86 -111h-134l125 162q-184 129 -184 407q0 257 153 397t431 140q172 0 299 -53l71 92h131zM494 752q0 -119 22 -303l191 243q-53 226 -138 226q-75 0 -75 -166zM674 84q78 0 78 170
q0 110 -23 299l-190 -244q47 -225 135 -225z" />
    <glyph glyph-name="ugrave" unicode="&#xf9;" horiz-adv-x="1304" 
d="M807 1126l-35 -6l-389 328h422q-2 -23 -2 -98q0 -16 0.5 -45t1.5 -83t2 -96zM1212 299q0 -90 17 -129q19 -36 71 -70v-37l-524 -92v203q-144 -203 -354 -203q-53 -2 -117 16.5t-121 65.5q-38 38 -63 103.5t-25 146.5v311q0 131 -14 177q-14 50 -72 108v35q271 18 533 96
q0 -184 -2 -325t-2 -326q0 -148 116 -148q52 0 111 56v327q0 133 -14 179q-15 49 -72 106v35q270 17 532 96v-731z" />
    <glyph glyph-name="uacute" unicode="&#xfa;" horiz-adv-x="1304" 
d="M549 1120l-35 6q0 26 1 111t1 119q0 69 -2 92h422zM1212 299q0 -90 17 -129q19 -36 71 -70v-37l-524 -92v203q-144 -203 -354 -203q-53 -2 -117 16.5t-121 65.5q-38 38 -63 103.5t-25 146.5v311q0 131 -14 177q-14 50 -72 108v35q271 18 533 96q0 -184 -2 -325t-2 -326
q0 -148 116 -148q52 0 111 56v327q0 133 -14 179q-15 49 -72 106v35q270 17 532 96v-731z" />
    <glyph glyph-name="ucircumflex" unicode="&#xfb;" horiz-adv-x="1304" 
d="M653 1243l-266 -137l-22 20q13 16 105.5 141.5t170.5 219.5h25q181 -256 274 -361l-25 -18zM1212 299q0 -90 17 -129q19 -36 71 -70v-37l-524 -92v203q-144 -203 -354 -203q-53 -2 -117 16.5t-121 65.5q-38 38 -63 103.5t-25 146.5v311q0 131 -14 177q-14 50 -72 108v35
q271 18 533 96q0 -184 -2 -325t-2 -326q0 -148 116 -148q52 0 111 56v327q0 133 -14 179q-15 49 -72 106v35q270 17 532 96v-731z" />
    <glyph glyph-name="udieresis" unicode="&#xfc;" horiz-adv-x="1304" 
d="M270 1286q0 69 54 123q52 55 125 55q72 0 126 -53t54 -125t-54 -126t-126 -54t-125.5 54t-53.5 126zM676 1286q0 70 53 123q55 55 127 55q69 0 123.5 -54.5t54.5 -123.5q0 -72 -53 -126t-125 -54t-126 54t-54 126zM1212 299q0 -90 17 -129q19 -36 71 -70v-37l-524 -92
v203q-144 -203 -354 -203q-53 -2 -117 16.5t-121 65.5q-38 38 -63 103.5t-25 146.5v311q0 131 -14 177q-14 50 -72 108v35q271 18 533 96q0 -184 -2 -325t-2 -326q0 -148 116 -148q52 0 111 56v327q0 133 -14 179q-15 49 -72 106v35q270 17 532 96v-731z" />
    <glyph glyph-name="yacute" unicode="&#xfd;" horiz-adv-x="1148" 
d="M506 1120l-35 6q0 26 1 111t1 119q0 69 -2 92h422zM836 997h323v-36q-55 -55 -84 -103q-49 -91 -94 -186q-204 -420 -367 -674q-153 -243 -354 -432l-182 241l31 23q45 -10 81 -10q196 0 312 192l4 8l20 33l-430 778q-31 57 -104 130v36h682v-36q-84 -53 -84 -105
q0 -32 31 -86l159 -276q49 95 101 215q22 55 22 104q0 78 -67 148v36z" />
    <glyph glyph-name="ydieresis" unicode="&#xff;" horiz-adv-x="1148" 
d="M227 1286q0 69 55 123.5t124 54.5q43 2 82 -19t62 -56t32.5 -75.5t-4 -82.5t-48.5 -72q-36 -43 -90 -51t-101.5 13t-80.5 66t-31 99zM633 1286q0 70 53 123q55 55 127 55q73 0 125 -55q53 -53 53 -123q0 -72 -53 -126t-125 -54t-126 54t-54 126zM836 997h323v-36
q-55 -55 -84 -103q-49 -91 -94 -186q-204 -420 -367 -674q-153 -243 -354 -432l-182 241l31 23q45 -10 81 -10q196 0 312 192l4 8l20 33l-430 778q-31 57 -104 130v36h682v-36q-84 -53 -84 -105q0 -32 31 -86l159 -276q49 95 101 215q22 55 22 104q0 78 -67 148v36z" />
    <glyph glyph-name="Amacron" unicode="&#x100;" horiz-adv-x="1478" 
d="M1059 1765v-186h-610v186h610zM1335 225q38 -100 70 -135q24 -27 63 -53v-37h-749v37q59 36 81.5 64.5t22.5 68.5q0 49 -39 162l-32 98h-377q-45 -139 -45 -205q0 -101 112 -188v-37h-430v37q105 88 152 172q46 82 96 227l250 729l-88 172q241 83 428 197zM434 608h258
l-129 396z" />
    <glyph glyph-name="amacron" unicode="&#x101;" horiz-adv-x="1228" 
d="M938 1341v-200h-600v200h600zM676 197h-4q-46 -93 -137.5 -155t-206.5 -62q-123 0 -200 70.5t-77 182.5q0 304 623 433l4 155q0 82 -66 82q-67 0 -116 -88q-50 -87 -74 -199l-33 -10l-262 135q46 112 180 199q136 86 361 86q273 0 379 -156q48 -63 53 -190q3 -35 0 -88
l-8 -379q0 -61 26 -61q38 0 62 73l51 -28q-33 -95 -115.5 -156t-204.5 -61q-123 0 -182 61.5t-53 155.5zM586 242q26 0 50 17t30 38l8 285q-75 -26 -120.5 -87.5t-45.5 -136.5q0 -56 21 -86t57 -30z" />
    <glyph glyph-name="Abreve" unicode="&#x102;" horiz-adv-x="1478" 
d="M760 1563q-134 0 -202.5 82t-86.5 247h37q25 -71 97 -112t155 -41q86 0 156.5 40.5t95.5 112.5h37q-18 -166 -85.5 -247.5t-203.5 -81.5zM1335 225q38 -100 70 -135q24 -27 63 -53v-37h-749v37q59 36 81.5 64.5t22.5 68.5q0 49 -39 162l-32 98h-377q-45 -139 -45 -205
q0 -101 112 -188v-37h-430v37q105 88 152 172q46 82 96 227l250 729l-88 172q241 83 428 197zM434 608h258l-129 396z" />
    <glyph glyph-name="abreve" unicode="&#x103;" horiz-adv-x="1228" 
d="M891 1468h27q-14 -187 -83 -278.5t-206 -91.5q-134 0 -202.5 91.5t-86.5 278.5h29q25 -81 100 -126.5t160 -45.5q86 0 160 45.5t102 126.5zM676 197h-4q-46 -93 -137.5 -155t-206.5 -62q-123 0 -200 70.5t-77 182.5q0 304 623 433l4 155q0 82 -66 82q-67 0 -116 -88
q-50 -87 -74 -199l-33 -10l-262 135q46 112 180 199q136 86 361 86q273 0 379 -156q48 -63 53 -190q3 -35 0 -88l-8 -379q0 -61 26 -61q38 0 62 73l51 -28q-33 -95 -115.5 -156t-204.5 -61q-123 0 -182 61.5t-53 155.5zM586 242q26 0 50 17t30 38l8 285
q-75 -26 -120.5 -87.5t-45.5 -136.5q0 -56 21 -86t57 -30z" />
    <glyph glyph-name="Aogonek" unicode="&#x104;" horiz-adv-x="1478" 
d="M1284 0q-44 -36 -73 -88t-29 -98q0 -40 23 -62t59 -22q64 0 116 49l27 -19q-47 -74 -128.5 -117.5t-168.5 -43.5q-83 0 -134.5 41.5t-51.5 109.5q0 139 254 250h-459v37q59 36 81.5 64.5t22.5 68.5q0 49 -39 162l-32 98h-377q-45 -139 -45 -205q0 -101 112 -188v-37h-430
v37q105 88 152 172q46 82 96 227l250 729l-88 172q241 83 428 197l485 -1309q38 -100 70 -135q24 -27 63 -53v-37h-184zM434 608h258l-129 396z" />
    <glyph glyph-name="aogonek" unicode="&#x105;" horiz-adv-x="1228" 
d="M1051 -264q64 0 116 49l27 -18q-47 -74 -128.5 -118t-168.5 -44q-83 0 -134.5 41.5t-51.5 109.5q0 125 196 224q-122 1 -179.5 62.5t-51.5 154.5h-4q-46 -93 -137.5 -155t-206.5 -62q-123 0 -200 70.5t-77 182.5q0 304 623 433l4 155q0 82 -66 82q-67 0 -116 -88
q-50 -87 -74 -199l-33 -10l-262 135q46 112 180 199q136 86 361 86q273 0 379 -156q48 -63 53 -190q3 -35 0 -88l-8 -379q0 -61 26 -61q38 0 62 73l51 -28q-41 -114 -137 -170l2 -2q-45 -26 -88 -91q-39 -59 -39 -114q0 -40 23 -62t59 -22zM666 297l8 285
q-75 -26 -120.5 -87.5t-45.5 -136.5q0 -56 21 -86t57 -30q26 0 50 17t30 38z" />
    <glyph glyph-name="Cacute" unicode="&#x106;" horiz-adv-x="1462" 
d="M780 1530l-35 6q0 26 1.5 110.5t1.5 118.5q0 59 -3 93h422q-81 -72 -184 -156zM838 1360q-33 0 -66.5 -18.5t-69 -65t-62.5 -115t-44.5 -178t-17.5 -244.5q0 -315 79 -473q80 -160 181 -160q95 0 227 132q130 130 248 307h37l-41 -514q-277 -60 -506 -60q-293 0 -508 152
q-115 81 -179.5 234t-64.5 360q-1 160 38.5 290t108.5 219.5t166.5 150.5t210.5 88.5t242 27.5q190 0 494 -59l41 -500h-37q-127 174 -258 299q-133 127 -219 127z" />
    <glyph glyph-name="cacute" unicode="&#x107;" horiz-adv-x="1019" 
d="M457 1120l-35 6q0 26 1 111t1 119q0 69 -2 92h422zM559 -20q-205 0 -362 133q-154 136 -154 397q0 258 150 387t370 129q295 0 422 -238l-250 -188l-24 10q-23 118 -66 215q-41 95 -92 95q-50 0 -78.5 -73t-28.5 -192q0 -186 74 -293.5t219 -107.5q141 0 217 98l43 -37
q-40 -134 -147 -235q-106 -100 -293 -100z" />
    <glyph glyph-name="Ccircumflex" unicode="&#x108;" horiz-adv-x="1462" 
d="M565 1507l-33 19l314 418h22l314 -418l-31 -19l-293 154zM838 1360q-33 0 -66.5 -18.5t-69 -65t-62.5 -115t-44.5 -178t-17.5 -244.5q0 -315 79 -473q80 -160 181 -160q95 0 227 132q130 130 248 307h37l-41 -514q-277 -60 -506 -60q-293 0 -508 152q-115 81 -179.5 234
t-64.5 360q-1 160 38.5 290t108.5 219.5t166.5 150.5t210.5 88.5t242 27.5q190 0 494 -59l41 -500h-37q-127 174 -258 299q-133 127 -219 127z" />
    <glyph glyph-name="ccircumflex" unicode="&#x109;" horiz-adv-x="1019" 
d="M293 1106l-23 20q13 16 106 141t171 220h24q177 -250 275 -361l-25 -18l-262 135zM559 -20q-205 0 -362 133q-154 136 -154 397q0 258 150 387t370 129q295 0 422 -238l-250 -188l-24 10q-23 118 -66 215q-41 95 -92 95q-50 0 -78.5 -73t-28.5 -192q0 -186 74 -293.5
t219 -107.5q141 0 217 98l43 -37q-40 -134 -147 -235q-106 -100 -293 -100z" />
    <glyph glyph-name="Cdotaccent" unicode="&#x10a;" horiz-adv-x="1462" 
d="M854 1546q-67 0 -118.5 52t-51.5 120t51 119t119 51q69 0 120.5 -51t51.5 -119t-51.5 -120t-120.5 -52zM838 1360q-33 0 -66.5 -18.5t-69 -65t-62.5 -115t-44.5 -178t-17.5 -244.5q0 -315 79 -473q80 -160 181 -160q95 0 227 132q130 130 248 307h37l-41 -514
q-277 -60 -506 -60q-293 0 -508 152q-115 81 -179.5 234t-64.5 360q-1 160 38.5 290t108.5 219.5t166.5 150.5t210.5 88.5t242 27.5q190 0 494 -59l41 -500h-37q-127 174 -258 299q-133 127 -219 127z" />
    <glyph glyph-name="cdotaccent" unicode="&#x10b;" horiz-adv-x="1019" 
d="M561 1087q-87 0 -149 58.5t-62 138.5t62 137.5t149 57.5q86 0 147.5 -57.5t61.5 -137.5t-61.5 -138.5t-147.5 -58.5zM559 -20q-205 0 -362 133q-154 136 -154 397q0 258 150 387t370 129q295 0 422 -238l-250 -188l-24 10q-23 118 -66 215q-41 95 -92 95q-50 0 -78.5 -73
t-28.5 -192q0 -186 74 -293.5t219 -107.5q141 0 217 98l43 -37q-40 -134 -147 -235q-106 -100 -293 -100z" />
    <glyph glyph-name="Ccaron" unicode="&#x10c;" horiz-adv-x="1462" 
d="M565 1952l291 -152l295 152l31 -19q-149 -188 -314 -417h-22l-314 417zM838 1360q-33 0 -66.5 -18.5t-69 -65t-62.5 -115t-44.5 -178t-17.5 -244.5q0 -315 79 -473q80 -160 181 -160q95 0 227 132q130 130 248 307h37l-41 -514q-277 -60 -506 -60q-293 0 -508 152
q-115 81 -179.5 234t-64.5 360q-1 160 38.5 290t108.5 219.5t166.5 150.5t210.5 88.5t242 27.5q190 0 494 -59l41 -500h-37q-127 174 -258 299q-133 127 -219 127z" />
    <glyph glyph-name="ccaron" unicode="&#x10d;" horiz-adv-x="1019" 
d="M274 1503l267 -137l262 135l24 -18q-105 -119 -274 -361h-25q-48 57 -97.5 120.5t-79 103.5t-61.5 85t-38 52zM559 -20q-205 0 -362 133q-154 136 -154 397q0 258 150 387t370 129q295 0 422 -238l-250 -188l-24 10q-23 118 -66 215q-41 95 -92 95q-50 0 -78.5 -73
t-28.5 -192q0 -186 74 -293.5t219 -107.5q141 0 217 98l43 -37q-40 -134 -147 -235q-106 -100 -293 -100z" />
    <glyph glyph-name="Dcaron" unicode="&#x10e;" horiz-adv-x="1613" 
d="M809 1516h-23l-313 417l33 19l291 -152l295 152l30 -19q-138 -174 -313 -417zM686 1464q435 0 657 -174t222 -512q0 -337 -205 -557q-206 -221 -588 -221h-745v37q81 49 102 86q23 44 23 147v924q0 104 -23 145q-20 39 -102 88v37h659zM758 139q114 15 196 170
q86 157 86 451q0 229 -57 360q-22 56 -58 99.5t-71 64.5q-27 19 -70 31t-69 12q-14 2 -53 2h-21v-1087q0 -42 33 -70t84 -33z" />
    <glyph glyph-name="dcaron" unicode="&#x10f;" horiz-adv-x="1282" 
d="M442 -20q-143 0 -264 104q-63 57 -99 162t-36 243q-2 110 22 201.5t67 152t93.5 99.5t106.5 57q69 29 151 26.5t152.5 -22.5t107.5 -47v275q0 90 -88 178v37q289 21 535 94v-1284q0 -61 16.5 -90.5t69.5 -65.5v-37l-522 -83l-2 174h-4q-34 -70 -120 -122t-186 -52z
M1300 977h-36l36 506h340zM635 193q55 0 108 71v375q-50 256 -139 256q-98 0 -98 -332q0 -370 129 -370z" />
    <glyph glyph-name="Dcroat" unicode="&#x110;" horiz-adv-x="1613" 
d="M686 1464q435 0 657 -174t222 -512q0 -337 -205 -557q-206 -221 -588 -221h-745v37q81 49 102 86q23 44 23 147v428h-82v131h82v365q0 104 -23 145q-20 39 -102 88v37h659zM758 139q114 15 196 170q86 157 86 451q0 229 -57 360q-22 56 -58 99.5t-71 64.5q-27 19 -70 31
t-69 12q-14 2 -53 2h-21v-500h182v-131h-182v-456q0 -42 33 -70t84 -33z" />
    <glyph glyph-name="dslash" unicode="&#x111;" horiz-adv-x="1282" 
d="M1280 1122h-90v-866q0 -61 16.5 -90.5t69.5 -65.5v-37l-522 -83l-2 174h-4q-34 -70 -120 -122t-186 -52q-143 0 -264 104q-63 57 -99 162t-36 243q-2 110 22 201.5t67 152t93.5 99.5t106.5 57q69 29 151 26.5t152.5 -22.5t107.5 -47v166h-251v131h249q-6 76 -86 156v37
q289 21 535 94v-287h90v-131zM743 264v375q-50 256 -139 256q-98 0 -98 -332q0 -370 129 -370q55 0 108 71z" />
    <glyph glyph-name="Emacron" unicode="&#x112;" horiz-adv-x="1374" 
d="M1016 1765v-186h-680v186h680zM1253 489h35l-49 -489h-1212v37q81 49 102 86q23 44 23 147v924q0 104 -23 145q-20 39 -102 88v37h1140l37 -503h-35q-53 149 -178 256q-122 110 -313 110h-37v-491h61q99 0 176.5 47t118.5 121h31v-465h-31q-41 84 -118 136.5t-177 51.5
l-61 -2v-483q0 -48 40.5 -76.5t102.5 -28.5h4q145 0 265 105q123 111 200 247z" />
    <glyph glyph-name="emacron" unicode="&#x113;" horiz-adv-x="1091" 
d="M881 1341v-200h-600v200h600zM1049 604v-51h-600q12 -156 102 -225q92 -68 211 -68q171 0 246 100l30 -18l-26 -78q-15 -39 -51 -90q-40 -62 -82 -96q-49 -40 -131.5 -69t-174.5 -29q-224 0 -378 139q-152 143 -152 397q0 252 152 383q153 129 385 129q220 0 344.5 -115
t124.5 -309zM561 924q-97 0 -112 -246l208 6q-9 240 -96 240z" />
    <glyph glyph-name="Ebreve" unicode="&#x114;" horiz-adv-x="1374" 
d="M672 1522q-134 0 -202.5 91.5t-86.5 278.5h37q25 -81 96.5 -126.5t155.5 -45.5q86 0 156.5 45t95.5 127h37q-14 -187 -83 -278.5t-206 -91.5zM1253 489h35l-49 -489h-1212v37q81 49 102 86q23 44 23 147v924q0 104 -23 145q-20 39 -102 88v37h1140l37 -503h-35
q-53 149 -178 256q-122 110 -313 110h-37v-491h61q99 0 176.5 47t118.5 121h31v-465h-31q-41 84 -118 136.5t-177 51.5l-61 -2v-483q0 -48 40.5 -76.5t102.5 -28.5h4q145 0 265 105q123 111 200 247z" />
    <glyph glyph-name="ebreve" unicode="&#x115;" horiz-adv-x="1091" 
d="M571 1098q-134 0 -202 91.5t-86 278.5h28q25 -81 100 -126.5t160 -45.5q86 0 160.5 45.5t102.5 126.5h26q-14 -187 -83 -278.5t-206 -91.5zM1049 604v-51h-600q12 -156 102 -225q92 -68 211 -68q171 0 246 100l30 -18l-26 -78q-15 -39 -51 -90q-40 -62 -82 -96
q-49 -40 -131.5 -69t-174.5 -29q-224 0 -378 139q-152 143 -152 397q0 252 152 383q153 129 385 129q220 0 344.5 -115t124.5 -309zM561 924q-97 0 -112 -246l208 6q-9 240 -96 240z" />
    <glyph glyph-name="Edotaccent" unicode="&#x116;" horiz-adv-x="1374" 
d="M672 1546q-67 0 -118.5 52t-51.5 120t51 119t119 51q69 0 120.5 -51t51.5 -119t-51.5 -120t-120.5 -52zM1253 489h35l-49 -489h-1212v37q81 49 102 86q23 44 23 147v924q0 104 -23 145q-20 39 -102 88v37h1140l37 -503h-35q-53 149 -178 256q-122 110 -313 110h-37v-491
h61q99 0 176.5 47t118.5 121h31v-465h-31q-41 84 -118 136.5t-177 51.5l-61 -2v-483q0 -48 40.5 -76.5t102.5 -28.5h4q145 0 265 105q123 111 200 247z" />
    <glyph glyph-name="edotaccent" unicode="&#x117;" horiz-adv-x="1091" 
d="M573 1087q-87 0 -149 58.5t-62 138.5t62 137.5t149 57.5q86 0 147.5 -57.5t61.5 -137.5t-61.5 -138.5t-147.5 -58.5zM1049 604v-51h-600q12 -156 102 -225q92 -68 211 -68q171 0 246 100l30 -18l-26 -78q-15 -39 -51 -90q-40 -62 -82 -96q-49 -40 -131.5 -69t-174.5 -29
q-224 0 -378 139q-152 143 -152 397q0 252 152 383q153 129 385 129q220 0 344.5 -115t124.5 -309zM561 924q-97 0 -112 -246l208 6q-9 240 -96 240z" />
    <glyph glyph-name="Eogonek" unicode="&#x118;" horiz-adv-x="1374" 
d="M1038 0q-42 -33 -72 -83.5t-30 -92.5q0 -38 23 -60t59 -22q63 0 117 45l14 -10q-36 -76 -116 -120t-169 -44q-84 0 -135 40.5t-51 104.5q0 137 285 242h-936v37q81 49 102 86q23 44 23 147v924q0 104 -23 145q-20 39 -102 88v37h1140l37 -503h-35q-53 149 -178 256
q-122 110 -313 110h-37v-491h61q99 0 176.5 47t118.5 121h31v-465h-31q-41 84 -118 136.5t-177 51.5l-61 -2v-483q0 -48 40.5 -76.5t102.5 -28.5h4q145 0 265 105q123 111 200 247h35l-49 -489h-201z" />
    <glyph glyph-name="eogonek" unicode="&#x119;" horiz-adv-x="1091" 
d="M1049 604v-51h-600q12 -156 102 -225q92 -68 211 -68q171 0 246 100l30 -18q-65 -225 -237 -315l6 -2q-45 -26 -88 -91q-39 -59 -39 -114q0 -40 23 -62t59 -22q65 0 117 49l26 -18q-47 -74 -128.5 -118t-168.5 -44q-83 0 -134.5 41.5t-51.5 109.5q0 130 199 224h-31
q-238 0 -393 137q-154 139 -154 397q0 257 152 385q153 129 385 129q220 0 344.5 -115t124.5 -309zM561 924q-97 0 -112 -246l208 6q-9 240 -96 240z" />
    <glyph glyph-name="Ecaron" unicode="&#x11a;" horiz-adv-x="1374" 
d="M686 1516h-22l-314 417l33 19l291 -152l295 152l30 -19q-138 -174 -313 -417zM1253 489h35l-49 -489h-1212v37q81 49 102 86q23 44 23 147v924q0 104 -23 145q-20 39 -102 88v37h1140l37 -503h-35q-53 149 -178 256q-122 110 -313 110h-37v-491h61q99 0 176.5 47
t118.5 121h31v-465h-31q-41 84 -118 136.5t-177 51.5l-61 -2v-483q0 -48 40.5 -76.5t102.5 -28.5h4q145 0 265 105q123 111 200 247z" />
    <glyph glyph-name="ecaron" unicode="&#x11b;" horiz-adv-x="1091" 
d="M565 1122h-24q-48 57 -97.5 121t-79 103t-63 85t-37.5 52l23 20l266 -137l262 135l25 -18q-110 -125 -275 -361zM1049 604v-51h-600q12 -156 102 -225q92 -68 211 -68q171 0 246 100l30 -18l-26 -78q-15 -39 -51 -90q-40 -62 -82 -96q-49 -40 -131.5 -69t-174.5 -29
q-224 0 -378 139q-152 143 -152 397q0 252 152 383q153 129 385 129q220 0 344.5 -115t124.5 -309zM561 924q-97 0 -112 -246l208 6q-9 240 -96 240z" />
    <glyph glyph-name="Gcircumflex" unicode="&#x11c;" horiz-adv-x="1609" 
d="M573 1507l-32 19l313 418h23l313 -418l-31 -19l-293 154zM729 -29q-178 0 -342 84q-96 54 -168 131q-76 83 -122 222t-46 309q0 162 40.5 292t112 220t173 150t221.5 87.5t260 26.5q277 0 516 -78l41 -491h-37q-110 179 -239 305q-131 131 -254 131q-131 0 -219 -150
q-88 -149 -88 -479q0 -325 84 -475q86 -145 200 -145q139 0 139 174v188q0 115 -48 173t-162 71v47h751v-37q-48 -48 -63 -88q-13 -41 -13 -145v-486h-36q-95 74 -213 74q-67 0 -216 -55q-151 -56 -272 -56z" />
    <glyph glyph-name="gcircumflex" unicode="&#x11d;" horiz-adv-x="1142" 
d="M842 190q130 -27 211.5 -104.5t81.5 -181.5q0 -90 -60.5 -159t-161.5 -105q-190 -68 -401 -68q-197 0 -346 51q-154 53 -154 139q0 54 59 96.5t152 67.5v4q-170 71 -170 197q0 83 72.5 147t187.5 91q-268 65 -268 311q0 178 127 264q130 86 324 86h57q172 0 244 84l-4 -2
l-263 135l-266 -137l-22 20q13 16 105.5 141.5t170.5 219.5h25q21 -30 49 -72q56 -80 57 -82q7 -9 38.5 -49t63 -78.5t60.5 -72.5q18 27 18 57l283 -82v-21q-94 -122 -313 -122q-44 0 -129 10v-10q370 -55 370 -318q0 -307 -493 -307q-56 0 -70 2q-76 -6 -76 -41
q0 -18 35 -27l35 -8q82 -13 371 -76zM518 930q-69 0 -69 -129q0 -79 24 -211q12 -68 42 -112t67 -44q67 0 67 125q0 94 -24 211q-12 70 -41 115t-66 45zM567 -319q108 0 167 21.5t59 57.5q0 41 -60 56l-184 37q-207 43 -223 47q-33 -44 -33 -86q0 -133 274 -133z" />
    <glyph glyph-name="Gbreve" unicode="&#x11e;" horiz-adv-x="1609" 
d="M1114 1892h37q-14 -187 -83 -278.5t-206 -91.5q-134 0 -202.5 91.5t-86.5 278.5h37q25 -81 96.5 -126.5t155.5 -45.5q86 0 156.5 45t95.5 127zM729 -29q-178 0 -342 84q-96 54 -168 131q-76 83 -122 222t-46 309q0 162 40.5 292t112 220t173 150t221.5 87.5t260 26.5
q277 0 516 -78l41 -491h-37q-110 179 -239 305q-131 131 -254 131q-131 0 -219 -150q-88 -149 -88 -479q0 -325 84 -475q86 -145 200 -145q139 0 139 174v188q0 115 -48 173t-162 71v47h751v-37q-48 -48 -63 -88q-13 -41 -13 -145v-486h-36q-95 74 -213 74q-67 0 -216 -55
q-151 -56 -272 -56z" />
    <glyph glyph-name="gbreve" unicode="&#x11f;" horiz-adv-x="1142" 
d="M528 1098q-134 0 -202 91.5t-86 278.5h28q25 -81 100 -126.5t160 -45.5q86 0 160.5 45.5t102.5 126.5h26q-14 -187 -83 -278.5t-206 -91.5zM842 190q130 -27 211.5 -104.5t81.5 -181.5q0 -90 -60.5 -159t-161.5 -105q-190 -68 -401 -68q-197 0 -346 51q-154 53 -154 139
q0 54 59 96.5t152 67.5v4q-170 71 -170 197q0 83 72.5 147t187.5 91q-268 65 -268 311q0 178 127 264q130 86 324 86h57q132 0 200.5 46t75.5 118l283 -82v-21q-94 -122 -313 -122q-44 0 -129 10v-10q370 -55 370 -318q0 -307 -493 -307q-56 0 -70 2q-76 -6 -76 -41
q0 -18 35 -27l35 -8q82 -13 371 -76zM518 930q-69 0 -69 -129q0 -79 24 -211q12 -68 42 -112t67 -44q67 0 67 125q0 94 -24 211q-12 70 -41 115t-66 45zM567 -319q108 0 167 21.5t59 57.5q0 41 -60 56l-184 37q-207 43 -223 47q-33 -44 -33 -86q0 -133 274 -133z" />
    <glyph glyph-name="Gdotaccent" unicode="&#x120;" horiz-adv-x="1609" 
d="M862 1546q-67 0 -118.5 52t-51.5 120t51 119t119 51q69 0 120.5 -51t51.5 -119t-51.5 -120t-120.5 -52zM729 -29q-178 0 -342 84q-96 54 -168 131q-76 83 -122 222t-46 309q0 162 40.5 292t112 220t173 150t221.5 87.5t260 26.5q277 0 516 -78l41 -491h-37
q-110 179 -239 305q-131 131 -254 131q-131 0 -219 -150q-88 -149 -88 -479q0 -325 84 -475q86 -145 200 -145q139 0 139 174v188q0 115 -48 173t-162 71v47h751v-37q-48 -48 -63 -88q-13 -41 -13 -145v-486h-36q-95 74 -213 74q-67 0 -216 -55q-151 -56 -272 -56z" />
    <glyph glyph-name="gdotaccent" unicode="&#x121;" horiz-adv-x="1142" 
d="M530 1124q-67 0 -118.5 52t-51.5 120t51 119t119 51q69 0 120.5 -51t51.5 -119t-51.5 -120t-120.5 -52zM842 190q130 -27 211.5 -104.5t81.5 -181.5q0 -90 -60.5 -159t-161.5 -105q-190 -68 -401 -68q-197 0 -346 51q-154 53 -154 139q0 54 59 96.5t152 67.5v4
q-170 71 -170 197q0 83 72.5 147t187.5 91q-268 65 -268 311q0 178 127 264q130 86 324 86h57q132 0 200.5 46t75.5 118l283 -82v-21q-94 -122 -313 -122q-44 0 -129 10v-10q370 -55 370 -318q0 -307 -493 -307q-56 0 -70 2q-76 -6 -76 -41q0 -18 35 -27l35 -8
q82 -13 371 -76zM518 930q-69 0 -69 -129q0 -79 24 -211q12 -68 42 -112t67 -44q67 0 67 125q0 94 -24 211q-12 70 -41 115t-66 45zM567 -319q108 0 167 21.5t59 57.5q0 41 -60 56l-184 37q-207 43 -223 47q-33 -44 -33 -86q0 -133 274 -133z" />
    <glyph glyph-name="uni0122" unicode="&#x122;" horiz-adv-x="1609" 
d="M1542 764v-37q-48 -48 -63 -88q-13 -41 -13 -145v-486h-36q-95 74 -213 74q-67 0 -216 -55q-151 -56 -272 -56q-178 0 -342 84q-96 54 -168 131q-76 83 -122 222t-46 309q0 162 40.5 292t112 220t173 150t221.5 87.5t260 26.5q277 0 516 -78l41 -491h-37
q-110 179 -239 305q-131 131 -254 131q-131 0 -219 -150q-88 -149 -88 -479q0 -325 84 -475q86 -145 200 -145q139 0 139 174v188q0 115 -48 173t-162 71v47h751zM846 -59q80 0 136 -47.5t56 -120.5q0 -92 -86 -201q-87 -109 -243 -156l-21 37q125 79 172 201h-12
q-79 0 -131.5 40.5t-52.5 100.5t53.5 103t128.5 43z" />
    <glyph glyph-name="uni0123" unicode="&#x123;" horiz-adv-x="1142" 
d="M522 1112q-80 0 -136 47.5t-56 120.5q0 92 86 201q86 108 243 155l21 -37q-127 -75 -174 -200h14q78 0 131.5 -41t53.5 -101t-54.5 -102.5t-128.5 -42.5zM842 190q130 -27 211.5 -104.5t81.5 -181.5q0 -90 -60.5 -159t-161.5 -105q-190 -68 -401 -68q-197 0 -346 51
q-154 53 -154 139q0 54 59 96.5t152 67.5v4q-170 71 -170 197q0 83 72.5 147t187.5 91q-268 65 -268 311q0 178 127 264q130 86 324 86h57q132 0 200.5 46t75.5 118l283 -82v-21q-94 -122 -313 -122q-44 0 -129 10v-10q370 -55 370 -318q0 -307 -493 -307q-56 0 -70 2
q-76 -6 -76 -41q0 -18 35 -27l35 -8q82 -13 371 -76zM518 930q-69 0 -69 -129q0 -79 24 -211q12 -68 42 -112t67 -44q67 0 67 125q0 94 -24 211q-12 70 -41 115t-66 45zM567 -319q108 0 167 21.5t59 57.5q0 41 -60 56l-184 37q-207 43 -223 47q-33 -44 -33 -86
q0 -133 274 -133z" />
    <glyph glyph-name="Hcircumflex" unicode="&#x124;" horiz-adv-x="1712" 
d="M850 1661l-293 -154l-33 19l314 418h22l314 -418l-31 -19zM1690 1427q-86 -52 -105 -88q-20 -36 -20 -145v-924q0 -108 20 -147q19 -35 105 -86v-37h-740v37q83 50 103 86q22 42 22 147v437h-434v-437q0 -106 21 -147q20 -36 104 -86v-37h-739v37q81 49 102 86
q23 44 23 147v924q0 104 -23 145q-20 39 -102 88v37h739v-37q-85 -51 -104 -88q-21 -37 -21 -145v-311h434v311q0 106 -22 145q-20 38 -103 88v37h740v-37z" />
    <glyph glyph-name="hcircumflex" unicode="&#x125;" horiz-adv-x="1312" 
d="M678 1675l-264 -137l-29 16l281 375h22q123 -174 281 -375l-27 -16zM1219 260q0 -100 16 -143q14 -36 74 -80v-37h-625v37q60 48 74 80q13 32 16 143v170q2 113 2 178q0 73 -33 114.5t-86 41.5q-61 0 -112 -57v-447q0 -100 16 -143q14 -34 72 -80v-37h-623v37
q58 46 72 80q16 43 16 143v846q0 164 -35 217q-9 15 -53 66v36q272 18 535 95v-697q147 203 354 203q52 2 115.5 -17t115.5 -69q39 -34 64 -99t25 -147v-434z" />
    <glyph glyph-name="Hbar" unicode="&#x126;" horiz-adv-x="1712" 
d="M1690 1427q-86 -52 -105 -88q-20 -36 -20 -145v-64h106v-124h-106v-736q0 -108 20 -147q19 -35 105 -86v-37h-740v37q83 50 103 86q22 42 22 147v437h-434v-437q0 -106 21 -147q20 -36 104 -86v-37h-739v37q81 49 102 86q23 44 23 147v736h-107v124h107v64q0 104 -23 145
q-20 39 -102 88v37h739v-37q-85 -51 -104 -88q-21 -37 -21 -145v-64h434v64q0 106 -22 145q-20 38 -103 88v37h740v-37zM1075 883v123h-434v-123h434z" />
    <glyph glyph-name="hbar" unicode="&#x127;" horiz-adv-x="1312" 
d="M1219 260q0 -100 16 -143q14 -36 74 -80v-37h-625v37q60 48 74 80q13 32 16 143v170q2 113 2 178q0 73 -33 114.5t-86 41.5q-61 0 -112 -57v-447q0 -100 16 -143q14 -34 72 -80v-37h-623v37q58 46 72 80q16 43 16 143v860h-84v131h76q-9 60 -41 92l-39 46v36
q272 18 535 95v-269h223v-131h-223v-297q147 203 354 203q52 2 115.5 -17t115.5 -69q39 -34 64 -99t25 -147v-434z" />
    <glyph glyph-name="Itilde" unicode="&#x128;" horiz-adv-x="786" 
d="M791 1858l45 -15q-76 -278 -308 -278q-70 0 -168 28q-143 41 -184 41q-66 0 -137 -59l-43 16q43 146 122 211.5t199 65.5q48 0 154 -29q140 -41 172 -41q48 0 79 13t69 47zM27 0v37q81 49 102 86q23 44 23 147v924q0 104 -23 145q-20 39 -102 88v37h739v-37
q-85 -51 -104 -88q-21 -37 -21 -145v-924q0 -106 21 -147q20 -36 104 -86v-37h-739z" />
    <glyph glyph-name="itilde" unicode="&#x129;" horiz-adv-x="638" 
d="M270 1180q-116 39 -166 39q-56 0 -122 -60l-21 6q50 265 260 265q50 0 148 -31q116 -39 145 -39q49 0 73 10t66 47l23 -4q-47 -262 -252 -262q-62 0 -154 29zM545 260q0 -100 16 -143q14 -34 72 -80v-37h-623v37q58 46 72 80q16 43 16 143v354q0 164 -35 217
q-12 21 -53 68v35q271 18 535 96v-770z" />
    <glyph glyph-name="Imacron" unicode="&#x12a;" horiz-adv-x="786" 
d="M741 1765v-186h-680v186h680zM27 0v37q81 49 102 86q23 44 23 147v924q0 104 -23 145q-20 39 -102 88v37h739v-37q-85 -51 -104 -88q-21 -37 -21 -145v-924q0 -106 21 -147q20 -36 104 -86v-37h-739z" />
    <glyph glyph-name="imacron" unicode="&#x12b;" horiz-adv-x="638" 
d="M610 1358v-201h-600v201h600zM545 260q0 -100 16 -143q14 -34 72 -80v-37h-623v37q58 46 72 80q16 43 16 143v354q0 164 -35 217q-12 21 -53 68v35q271 18 535 96v-770z" />
    <glyph glyph-name="Ibreve" unicode="&#x12c;" horiz-adv-x="786" 
d="M649 1892h37q-14 -187 -83 -278.5t-206 -91.5q-134 0 -202 91.5t-86 278.5h36q25 -81 96.5 -126.5t155.5 -45.5q86 0 156.5 45t95.5 127zM27 0v37q81 49 102 86q23 44 23 147v924q0 104 -23 145q-20 39 -102 88v37h739v-37q-85 -51 -104 -88q-21 -37 -21 -145v-924
q0 -106 21 -147q20 -36 104 -86v-37h-739z" />
    <glyph glyph-name="ibreve" unicode="&#x12d;" horiz-adv-x="638" 
d="M301 1114q-134 0 -202.5 92t-86.5 279h29q25 -81 100 -126.5t160 -45.5q86 0 160 45.5t102 126.5h27q-14 -187 -83 -279t-206 -92zM545 260q0 -100 16 -143q14 -34 72 -80v-37h-623v37q58 46 72 80q16 43 16 143v354q0 164 -35 217q-12 21 -53 68v35q271 18 535 96v-770z
" />
    <glyph glyph-name="Iogonek" unicode="&#x12e;" horiz-adv-x="786" 
d="M766 1427q-85 -51 -104 -88q-21 -37 -21 -145v-924q0 -106 21 -147q20 -36 104 -86v-37h-193q-42 -33 -72 -83.5t-30 -92.5q0 -38 23 -60t59 -22q63 0 117 45l12 -10q-32 -73 -111 -118.5t-170 -45.5q-85 0 -136.5 40.5t-51.5 104.5q0 137 285 242h-471v37q81 49 102 86
q23 44 23 147v924q0 104 -23 145q-20 39 -102 88v37h739v-37z" />
    <glyph glyph-name="iogonek" unicode="&#x12f;" horiz-adv-x="638" 
d="M303 1104q-87 0 -149 58t-62 138t62 137.5t149 57.5q86 0 147.5 -57.5t61.5 -137.5t-61.5 -138t-147.5 -58zM504 0q-44 -36 -73.5 -88t-29.5 -98q0 -40 23 -62t59 -22q65 0 117 49l27 -19q-47 -74 -128.5 -117.5t-168.5 -43.5q-83 0 -135 41.5t-52 109.5q0 139 254 250
h-387v37q58 46 72 80q16 43 16 143v354q0 164 -35 217q-12 21 -53 68v35q271 18 535 96v-770q0 -100 16 -143q14 -34 72 -80v-37h-129z" />
    <glyph glyph-name="Idot" unicode="&#x130;" horiz-adv-x="786" 
d="M397 1546q-67 0 -118.5 52t-51.5 120t51.5 119t118.5 51q69 0 120.5 -51t51.5 -119t-51.5 -120t-120.5 -52zM27 0v37q81 49 102 86q23 44 23 147v924q0 104 -23 145q-20 39 -102 88v37h739v-37q-85 -51 -104 -88q-21 -37 -21 -145v-924q0 -106 21 -147q20 -36 104 -86
v-37h-739z" />
    <glyph glyph-name="dotlessi" unicode="&#x131;" horiz-adv-x="638" 
d="M545 260q0 -100 16 -143q14 -34 72 -80v-37h-623v37q58 46 72 80q16 43 16 143v354q0 164 -35 217q-12 21 -53 68v35q271 18 535 96v-770z" />
    <glyph glyph-name="Jcircumflex" unicode="&#x134;" horiz-adv-x="786" 
d="M100 1507l-32 19l313 418h22l314 -418l-31 -19l-293 154zM27 -266l-9 39q142 89 142 260v1161q0 104 -23 145q-19 37 -104 88v37h741v-37q-88 -53 -106 -88q-21 -37 -21 -145v-877q0 -489 -620 -583z" />
    <glyph glyph-name="jcircumflex" unicode="&#x135;" horiz-adv-x="653" 
d="M66 1122l-23 21q13 16 105.5 140.5t170.5 219.5h25q178 -251 274 -360l-24 -19l-262 136zM-57 -432l-15 39q105 56 147 139t42 238v630q0 133 -17 179q-15 43 -69 106v35q270 17 532 96v-807q0 -133 -36.5 -241t-95 -178t-141.5 -121t-167 -76.5t-180 -38.5z" />
    <glyph glyph-name="uni0136" unicode="&#x136;" horiz-adv-x="1667" 
d="M641 270q0 -106 21 -147q20 -36 104 -86v-37h-739v37q81 49 102 86q23 44 23 147v924q0 104 -23 145q-20 39 -102 88v37h739v-37q-85 -51 -104 -88q-21 -37 -21 -145v-924zM668 670l348 393q108 126 108 219q0 96 -100 145v37h606v-37q-278 -179 -450 -360l-140 -149
l394 -654q62 -102 122 -161.5t105 -65.5v-37h-641zM831 -59q80 0 136.5 -47.5t56.5 -120.5q0 -92 -86 -201t-244 -156l-20 37q128 76 172 201h-12q-79 0 -132 40.5t-53 100.5t53.5 103t128.5 43z" />
    <glyph glyph-name="uni0137" unicode="&#x137;" horiz-adv-x="1339" 
d="M10 0v37q58 46 72 80q16 43 16 143v846q0 164 -35 217q-9 15 -53 66v36q272 18 535 95v-1053l248 252q63 63 63 112q0 66 -119 130v36h563v-36q-257 -133 -370 -267l-35 -41l240 -422q89 -158 200 -194v-37h-551l-211 426h-28v-166q0 -100 16 -143q14 -34 72 -80v-37
h-623zM662 -59q80 0 136 -47.5t56 -120.5q0 -92 -86 -201t-244 -156l-20 37q128 76 172 201h-12q-79 0 -132 40.5t-53 100.5t54 103t129 43z" />
    <glyph glyph-name="Lacute" unicode="&#x139;" horiz-adv-x="1323" 
d="M338 1530l-35 6q0 26 1 110.5t1 118.5q0 70 -2 93h422q-81 -72 -184 -156zM1200 489h37l-49 -489h-1161v37q81 49 102 86q23 44 23 147v924q0 104 -23 145q-20 39 -102 88v37h739v-37q-85 -51 -104 -88q-21 -37 -21 -145v-952q0 -42 34.5 -70t86.5 -33q134 9 250 113
q115 103 188 237z" />
    <glyph glyph-name="lacute" unicode="&#x13a;" horiz-adv-x="638" 
d="M121 1573l-33 14l76 311l409 -96l-208 -104q-126 -63 -244 -125zM10 0v37q58 46 72 80q16 43 16 143v846q0 164 -35 217q-9 15 -53 66v36q272 18 535 95v-1260q0 -100 16 -143q14 -34 72 -80v-37h-623z" />
    <glyph glyph-name="uni013B" unicode="&#x13b;" horiz-adv-x="1323" 
d="M1200 489h37l-49 -489h-1161v37q81 49 102 86q23 44 23 147v924q0 104 -23 145q-20 39 -102 88v37h739v-37q-85 -51 -104 -88q-21 -37 -21 -145v-952q0 -42 34.5 -70t86.5 -33q134 9 250 113q115 103 188 237zM717 -59q80 0 136 -47.5t56 -120.5q0 -92 -86 -201
q-87 -109 -243 -156l-21 37q128 76 172 201h-12q-79 0 -131.5 40.5t-52.5 100.5t53.5 103t128.5 43z" />
    <glyph glyph-name="uni013C" unicode="&#x13c;" horiz-adv-x="638" 
d="M10 0v37q58 46 72 80q16 43 16 143v846q0 164 -35 217q-9 15 -53 66v36q272 18 535 95v-1260q0 -100 16 -143q14 -34 72 -80v-37h-623zM328 -59q80 0 136 -47.5t56 -120.5q0 -92 -86 -201t-244 -156l-20 37q128 76 172 201h-12q-79 0 -132 40.5t-53 100.5t54 103t129 43z
" />
    <glyph glyph-name="Lcaron" unicode="&#x13d;" horiz-adv-x="1323" 
d="M1200 489h37l-49 -489h-1161v37q81 49 102 86q23 44 23 147v924q0 104 -23 145q-20 39 -102 88v37h739v-37q-85 -51 -104 -88q-21 -37 -21 -145v-952q0 -42 34.5 -70t86.5 -33q134 9 250 113q115 103 188 237zM838 1135l-35 6q1 38 2 83t1.5 69.5t0.5 37.5q0 17 -4 131
h424z" />
    <glyph glyph-name="lcaron" unicode="&#x13e;" horiz-adv-x="634" 
d="M10 0v37q58 46 72 80q16 43 16 143v846q0 164 -35 217q-9 15 -53 66v36q272 18 535 95v-1260q0 -100 16 -143q14 -34 72 -80v-37h-623zM657 983h-36l36 506h342z" />
    <glyph glyph-name="Ldot" unicode="&#x13f;" horiz-adv-x="1323" 
d="M1200 489h37l-49 -489h-1161v37q81 49 102 86q23 44 23 147v924q0 104 -23 145q-20 39 -102 88v37h739v-37q-85 -51 -104 -88q-21 -37 -21 -145v-952q0 -42 34.5 -70t86.5 -33q134 9 250 113q115 103 188 237zM977 514q-91 0 -155 63t-64 154t63 154q65 65 156 65
q86 0 151 -65q66 -66 66 -154q0 -87 -66 -153q-64 -64 -151 -64z" />
    <glyph glyph-name="ldot" unicode="&#x140;" horiz-adv-x="1138" 
d="M10 0v37q58 46 72 80q16 43 16 143v846q0 164 -35 217q-9 15 -53 66v36q272 18 535 95v-1260q0 -100 16 -143q14 -34 72 -80v-37h-623zM664 590q0 88 65 153q66 66 156 66q85 0 151 -66t66 -153q0 -90 -64 -154q-63 -63 -153 -63q-93 0 -156 63q-65 65 -65 154z" />
    <glyph glyph-name="Lslash" unicode="&#x141;" horiz-adv-x="1323" 
d="M1200 489h37l-49 -489h-1161v37q81 49 102 86q23 44 23 147v168l-125 -73v159l125 72v598q0 104 -23 145q-20 39 -102 88v37h739v-37q-85 -51 -104 -88q-21 -37 -21 -145v-313l242 141v-145l-242 -146v-489q0 -42 34.5 -70t86.5 -33q134 9 250 113q115 103 188 237z" />
    <glyph glyph-name="lslash" unicode="&#x142;" horiz-adv-x="638" 
d="M545 260q0 -100 16 -143q14 -34 72 -80v-37h-623v37q58 46 72 80q16 43 16 143v266l-73 -53v154l73 53v426q0 164 -35 217q-9 15 -53 66v36q272 18 535 95v-512l76 55v-156l-76 -55v-592z" />
    <glyph glyph-name="Nacute" unicode="&#x143;" horiz-adv-x="1538" 
d="M715 1530l-35 6q0 26 1 110.5t1 118.5q0 70 -2 93h422q-81 -72 -184 -156zM1526 1464v-37q-43 -29 -59.5 -40.5t-43 -35.5t-34 -34t-21.5 -40t-16.5 -50t-8.5 -67t-7 -87.5t-3 -114.5v-958h-379q-242 425 -589 977v-471q0 -163 15.5 -245t51.5 -126q34 -40 127 -98v-37
h-532v37q95 58 127 98q35 41 51 121q16 85 16 250v577q0 192 -194 365v16h579q251 -379 582 -944v438q-2 74 -3 114.5t-7 87.5t-8.5 67t-16.5 50t-21.5 40t-34 34t-43 35.5t-59.5 40.5v37h531z" />
    <glyph glyph-name="nacute" unicode="&#x144;" horiz-adv-x="1308" 
d="M571 1120l-34 6q0 26 1 111t1 119q0 69 -2 92h421zM1214 260q0 -97 17 -143q14 -36 74 -80v-37h-625v37q60 48 74 82q18 38 18 141v98q2 49 2 248q0 76 -32 116t-87 40q-58 0 -110 -55v-447q0 -100 16 -143q14 -34 72 -80v-37h-623v37q58 46 72 80q16 43 16 143v356
q0 131 -16 181t-72 106v33q260 15 527 94v-209q138 205 352 205q146 0 237 -86q39 -34 63.5 -98.5t24.5 -147.5v-434z" />
    <glyph glyph-name="uni0145" unicode="&#x145;" horiz-adv-x="1538" 
d="M1526 1464v-37q-43 -29 -59.5 -40.5t-43 -35.5t-34 -34t-21.5 -40t-16.5 -50t-8.5 -67t-7 -87.5t-3 -114.5v-958h-379q-242 425 -589 977v-471q0 -163 15.5 -245t51.5 -126q34 -40 127 -98v-37h-532v37q95 58 127 98q35 41 51 121q16 85 16 250v577q0 192 -194 365v16
h579q251 -379 582 -944v438q-2 74 -3 114.5t-7 87.5t-8.5 67t-16.5 50t-21.5 40t-34 34t-43 35.5t-59.5 40.5v37h531zM776 -59q80 0 136.5 -47.5t56.5 -120.5q0 -92 -86 -201t-244 -156l-21 37q129 76 173 201h-13q-79 0 -131.5 40.5t-52.5 100.5t53.5 103t128.5 43z" />
    <glyph glyph-name="uni0146" unicode="&#x146;" horiz-adv-x="1308" 
d="M1214 260q0 -97 17 -143q14 -36 74 -80v-37h-625v37q60 48 74 82q18 38 18 141v98q2 49 2 248q0 76 -32 116t-87 40q-58 0 -110 -55v-447q0 -100 16 -143q14 -34 72 -80v-37h-623v37q58 46 72 80q16 43 16 143v356q0 131 -16 181t-72 106v33q260 15 527 94v-209
q138 205 352 205q146 0 237 -86q39 -34 63.5 -98.5t24.5 -147.5v-434zM657 -59q80 0 136.5 -47.5t56.5 -120.5q0 -92 -86 -201t-244 -156l-20 37q128 76 172 201h-13q-79 0 -131.5 40.5t-52.5 100.5t53.5 103t128.5 43z" />
    <glyph glyph-name="Ncaron" unicode="&#x147;" horiz-adv-x="1538" 
d="M803 1516h-23l-313 417l33 19l291 -152l294 152l31 -19q-138 -174 -313 -417zM1526 1464v-37q-43 -29 -59.5 -40.5t-43 -35.5t-34 -34t-21.5 -40t-16.5 -50t-8.5 -67t-7 -87.5t-3 -114.5v-958h-379q-242 425 -589 977v-471q0 -163 15.5 -245t51.5 -126q34 -40 127 -98
v-37h-532v37q95 58 127 98q35 41 51 121q16 85 16 250v577q0 192 -194 365v16h579q251 -379 582 -944v438q-2 74 -3 114.5t-7 87.5t-8.5 67t-16.5 50t-21.5 40t-34 34t-43 35.5t-59.5 40.5v37h531z" />
    <glyph glyph-name="ncaron" unicode="&#x148;" horiz-adv-x="1308" 
d="M668 1122h-25q-48 57 -97.5 120.5t-79 103.5t-61.5 85t-38 52l22 20l266 -137l263 135l24 -18q-105 -119 -274 -361zM1214 260q0 -97 17 -143q14 -36 74 -80v-37h-625v37q60 48 74 82q18 38 18 141v98q2 49 2 248q0 76 -32 116t-87 40q-58 0 -110 -55v-447
q0 -100 16 -143q14 -34 72 -80v-37h-623v37q58 46 72 80q16 43 16 143v356q0 131 -16 181t-72 106v33q260 15 527 94v-209q138 205 352 205q146 0 237 -86q39 -34 63.5 -98.5t24.5 -147.5v-434z" />
    <glyph glyph-name="Eng" unicode="&#x14a;" horiz-adv-x="1538" 
d="M1526 1464v-37q-43 -29 -59.5 -40.5t-43 -35.5t-34 -34t-21.5 -40t-16.5 -50t-8.5 -67t-7 -87.5t-3 -114.5v-1062q0 -153 -80.5 -235.5t-232.5 -82.5q-159 0 -285 60l162 350l29 -11q25 -111 67.5 -181t96.5 -70q47 0 77.5 40.5t30.5 118.5v115h-244q-242 425 -589 977
v-471q0 -163 15.5 -245t51.5 -126q34 -40 127 -98v-37h-532v37q95 58 127 98q35 41 51 121q16 85 16 250v577q0 192 -194 365v16h579q251 -379 582 -944v438q-2 74 -3 114.5t-7 87.5t-8.5 67t-16.5 50t-21.5 40t-34 34t-43 35.5t-59.5 40.5v37h531z" />
    <glyph glyph-name="eng" unicode="&#x14b;" horiz-adv-x="1306" 
d="M895 1026q142 0 233 -86q39 -34 64 -99t25 -147l-3 -461q0 -133 -36.5 -241t-95 -178t-141.5 -121t-167 -76.5t-180 -38.5l-14 37q103 57 145 143q40 81 43 238l4 610q0 74 -31.5 115t-83.5 41q-58 0 -112 -57v-445q0 -100 16 -143q14 -34 72 -80v-37h-623v37
q58 46 72 80q16 43 16 143v356q0 131 -16 181t-72 106v33q260 15 527 94v-207q147 203 358 203z" />
    <glyph glyph-name="Omacron" unicode="&#x14c;" horiz-adv-x="1671" 
d="M1178 1765v-186h-680v186h680zM1413 168q-209 -197 -577 -197q-369 0 -578 197q-207 201 -207 565q0 365 207 563q209 197 578 197q368 0 577 -197t209 -563q0 -365 -209 -565zM897 111q101 0 156 106t55 307q0 190 -37 383q-21 125 -55 217q-37 102 -100.5 166
t-139.5 64q-101 0 -157 -104.5t-56 -303.5q0 -213 62 -497q33 -152 105 -245t167 -93z" />
    <glyph glyph-name="omacron" unicode="&#x14d;" horiz-adv-x="1243" 
d="M930 1341v-200h-600v200h600zM612 -20q-267 0 -418 128t-151 384q0 260 157 397t433 137q268 0 418.5 -128.5t150.5 -385.5q0 -261 -156.5 -396.5t-433.5 -135.5zM676 84q76 0 76 172q0 283 -68 512q-46 150 -115 150q-75 0 -75 -168q0 -149 32 -377q20 -128 59 -208.5
t91 -80.5z" />
    <glyph glyph-name="Obreve" unicode="&#x14e;" horiz-adv-x="1671" 
d="M1085 1892h37q-14 -187 -82.5 -278.5t-205.5 -91.5q-134 0 -202.5 91.5t-86.5 278.5h37q25 -81 96.5 -126.5t155.5 -45.5q86 0 156 45t95 127zM1413 168q-209 -197 -577 -197q-369 0 -578 197q-207 201 -207 565q0 365 207 563q209 197 578 197q368 0 577 -197t209 -563
q0 -365 -209 -565zM897 111q101 0 156 106t55 307q0 190 -37 383q-21 125 -55 217q-37 102 -100.5 166t-139.5 64q-101 0 -157 -104.5t-56 -303.5q0 -213 62 -497q33 -152 105 -245t167 -93z" />
    <glyph glyph-name="obreve" unicode="&#x14f;" horiz-adv-x="1243" 
d="M885 1468h26q-14 -187 -82.5 -278.5t-205.5 -91.5q-134 0 -202.5 91.5t-86.5 278.5h28q25 -81 100.5 -126.5t160.5 -45.5q86 0 160 45.5t102 126.5zM612 -20q-267 0 -418 128t-151 384q0 260 157 397t433 137q268 0 418.5 -128.5t150.5 -385.5q0 -261 -156.5 -396.5
t-433.5 -135.5zM676 84q76 0 76 172q0 283 -68 512q-46 150 -115 150q-75 0 -75 -168q0 -149 32 -377q20 -128 59 -208.5t91 -80.5z" />
    <glyph glyph-name="Ohungarumlaut" unicode="&#x150;" horiz-adv-x="1671" 
d="M950 1528l-28 6q0 26 1 111.5t1 119.5q0 67 -2 90h358zM549 1524l-29 6q1 36 2 81.5t1.5 70t0.5 38.5q0 17 -4 131h359zM1413 168q-209 -197 -577 -197q-369 0 -578 197q-207 201 -207 565q0 365 207 563q209 197 578 197q368 0 577 -197t209 -563q0 -365 -209 -565z
M897 111q101 0 156 106t55 307q0 190 -37 383q-21 125 -55 217q-37 102 -100.5 166t-139.5 64q-101 0 -157 -104.5t-56 -303.5q0 -213 62 -497q33 -152 105 -245t167 -93z" />
    <glyph glyph-name="ohungarumlaut" unicode="&#x151;" horiz-adv-x="1243" 
d="M737 1128l-28 7q0 26 1 110.5t1 118.5q0 69 -2 92h358zM336 1122l-29 6q1 38 2 83.5t1.5 70t0.5 37.5q0 17 -4 131h359zM612 -20q-267 0 -418 128t-151 384q0 260 157 397t433 137q268 0 418.5 -128.5t150.5 -385.5q0 -261 -156.5 -396.5t-433.5 -135.5zM676 84
q76 0 76 172q0 283 -68 512q-46 150 -115 150q-75 0 -75 -168q0 -149 32 -377q20 -128 59 -208.5t91 -80.5z" />
    <glyph glyph-name="OE" unicode="&#x152;" horiz-adv-x="2201" 
d="M2081 489h35l-50 -489h-1042v20q-107 -40 -240 -40q-301 0 -510 182q-105 93 -164 240.5t-59 330.5q0 150 40 275.5t109 212.5t162.5 147.5t199.5 88.5t222 28q131 0 240 -41v20h981l37 -503h-35q-53 149 -178 256q-122 110 -313 110h-29v-489h49q99 0 176.5 47
t118.5 121h31v-465h-31q-102 197 -295 188l-49 -2v-485q0 -48 40 -75.5t105 -27.5q135 0 254 107q120 108 195 243zM879 113q86 0 145 77v914q-88 246 -248 246q-215 0 -215 -398q0 -226 55 -493q32 -154 102 -250t161 -96z" />
    <glyph glyph-name="oe" unicode="&#x153;" horiz-adv-x="1820" 
d="M1780 623v-70h-625q7 -103 59.5 -174t124.5 -96q71 -23 144 -23q162 0 246 90l38 -18q-44 -136 -133 -230q-52 -58 -136 -90t-187 -32q-199 0 -346 114q-108 -114 -349 -114q-271 0 -422 127.5t-151 384.5q0 260 157 397t431 137q218 0 325 -94q137 96 340 96
q229 0 356.5 -109.5t127.5 -295.5zM1270 924q-100 0 -115 -242l231 6q-9 236 -116 236zM676 84q76 0 76 178q0 162 -33 371q-20 127 -60 206t-92 79q-73 0 -73 -162q0 -149 32 -377q20 -130 59 -212.5t91 -82.5z" />
    <glyph glyph-name="Racute" unicode="&#x154;" horiz-adv-x="1626" 
d="M614 1530l-34 6v111q2 47 2 104q0 82 -2 107h421q-81 -72 -184 -156zM1427 244q52 -88 189 -207v-37h-594q-174 323 -322 670l-59 -6v-394q0 -106 21 -147q20 -36 104 -86v-37h-739v37q81 49 102 86q23 44 23 147v924q0 104 -23 145q-20 39 -102 88v37h776q279 0 444 -98
q168 -94 168 -272q0 -116 -73.5 -205.5t-202.5 -134.5q116 -227 288 -510zM641 1329v-555h45q250 0 250 270q0 216 -152 265q-12 5 -22 8.5t-19.5 5.5t-15 3.5t-15 2t-12 0.5h-13.5h-13h-33z" />
    <glyph glyph-name="racute" unicode="&#x155;" horiz-adv-x="946" 
d="M334 1120l-35 6v111q2 47 2 104q0 82 -2 107h422zM10 0v37q58 46 72 80q16 43 16 143v391q0 100 -17.5 151t-70.5 101v33q253 15 527 94l-5 -199h7q27 83 102.5 139t189.5 56q48 0 89 -14l-62 -447h-37q-141 185 -227 185q-37 0 -49 -27v-463q0 -101 22 -143
q19 -33 101 -80v-37h-658z" />
    <glyph glyph-name="uni0156" unicode="&#x156;" horiz-adv-x="1626" 
d="M1427 244q52 -88 189 -207v-37h-594q-174 323 -322 670l-59 -6v-394q0 -106 21 -147q20 -36 104 -86v-37h-739v37q81 49 102 86q23 44 23 147v924q0 104 -23 145q-20 39 -102 88v37h776q279 0 444 -98q168 -94 168 -272q0 -116 -73.5 -205.5t-202.5 -134.5
q116 -227 288 -510zM641 1329v-555h45q250 0 250 270q0 216 -152 265q-12 5 -22 8.5t-19.5 5.5t-15 3.5t-15 2t-12 0.5h-13.5h-13h-33zM776 -59q80 0 136.5 -47.5t56.5 -120.5q0 -92 -86 -201t-244 -156l-21 37q129 76 173 201h-13q-79 0 -131.5 40.5t-52.5 100.5t53.5 103
t128.5 43z" />
    <glyph glyph-name="uni0157" unicode="&#x157;" horiz-adv-x="946" 
d="M10 0v37q58 46 72 80q16 43 16 143v391q0 100 -17.5 151t-70.5 101v33q253 15 527 94l-5 -199h7q27 83 102.5 139t189.5 56q48 0 89 -14l-62 -447h-37q-141 185 -227 185q-37 0 -49 -27v-463q0 -101 22 -143q19 -33 101 -80v-37h-658zM340 -59q80 0 136 -47.5t56 -120.5
q0 -92 -86 -201q-87 -109 -243 -156l-21 37q128 76 172 201h-12q-79 0 -131.5 40.5t-52.5 100.5t53.5 103t128.5 43z" />
    <glyph glyph-name="Rcaron" unicode="&#x158;" horiz-adv-x="1626" 
d="M702 1516h-22l-313 417l32 19l291 -152l295 152l31 -19q-149 -188 -314 -417zM1427 244q52 -88 189 -207v-37h-594q-174 323 -322 670l-59 -6v-394q0 -106 21 -147q20 -36 104 -86v-37h-739v37q81 49 102 86q23 44 23 147v924q0 104 -23 145q-20 39 -102 88v37h776
q279 0 444 -98q168 -94 168 -272q0 -116 -73.5 -205.5t-202.5 -134.5q116 -227 288 -510zM641 1329v-555h45q250 0 250 270q0 216 -152 265q-12 5 -22 8.5t-19.5 5.5t-15 3.5t-15 2t-12 0.5h-13.5h-13h-33z" />
    <glyph glyph-name="rcaron" unicode="&#x159;" horiz-adv-x="946" 
d="M152 1503l266 -137l262 135l25 -18q-110 -125 -275 -361h-24q-48 57 -97.5 121t-79 103t-63 85t-37.5 52zM10 0v37q58 46 72 80q16 43 16 143v391q0 100 -17.5 151t-70.5 101v33q253 15 527 94l-5 -199h7q27 83 102.5 139t189.5 56q48 0 89 -14l-62 -447h-37
q-141 185 -227 185q-37 0 -49 -27v-463q0 -101 22 -143q19 -33 101 -80v-37h-658z" />
    <glyph glyph-name="Sacute" unicode="&#x15a;" horiz-adv-x="1183" 
d="M535 1530l-35 6v111q2 47 2 104q0 82 -2 107h422q-69 -61 -185 -156zM594 -29q-218 0 -488 107l-28 522h37q305 -489 503 -489q54 0 85.5 35t31.5 98q0 85 -62 156t-206 159l-64 37l-63 39l-55 37q-25 16 -39 27.5t-32.5 31t-29.5 29.5q-14 14 -24.5 29t-15.5 25.5
t-14.5 31t-14.5 31.5q-27 58 -27 161q0 218 139 336q137 119 355 119q168 0 419 -68l43 -512h-36q-100 186 -213 310q-120 135 -224 135q-51 0 -83.5 -34.5t-32.5 -88.5q0 -62 54.5 -119t192.5 -143l80 -47q65 -39 80 -49q26 -15 68 -46q49 -36 65 -55q75 -81 92 -133
q33 -97 33 -188q0 -131 -47 -229.5t-131 -153.5q-157 -101 -348 -101z" />
    <glyph glyph-name="sacute" unicode="&#x15b;" horiz-adv-x="931" 
d="M367 1120l-35 6v111q2 47 2 104q0 82 -2 107h422zM492 -29q-145 0 -392 58l-43 372l31 9q235 -336 367 -336q35 0 56 18t21 49q0 81 -184 195l-20 12q-92 58 -101 64q-41 28 -84 69q-94 90 -94 230q0 146 106 230.5t281 84.5q131 0 361 -51l34 -346l-32 -8
q-78 113 -176 208q-90 93 -152 93q-29 0 -49.5 -20.5t-20.5 -51.5q0 -29 29 -62t66 -57l100 -55q70 -39 111 -67.5t88 -73.5q98 -88 98 -236q0 -151 -104.5 -239.5t-296.5 -88.5z" />
    <glyph glyph-name="Scircumflex" unicode="&#x15c;" horiz-adv-x="1183" 
d="M319 1507l-32 19l313 418h23l313 -418l-31 -19l-293 154zM594 -29q-218 0 -488 107l-28 522h37q305 -489 503 -489q54 0 85.5 35t31.5 98q0 85 -62 156t-206 159l-64 37l-63 39l-55 37q-25 16 -39 27.5t-32.5 31t-29.5 29.5q-14 14 -24.5 29t-15.5 25.5t-14.5 31
t-14.5 31.5q-27 58 -27 161q0 218 139 336q137 119 355 119q168 0 419 -68l43 -512h-36q-100 186 -213 310q-120 135 -224 135q-51 0 -83.5 -34.5t-32.5 -88.5q0 -62 54.5 -119t192.5 -143l80 -47q65 -39 80 -49q26 -15 68 -46q49 -36 65 -55q75 -81 92 -133q33 -97 33 -188
q0 -131 -47 -229.5t-131 -153.5q-157 -101 -348 -101z" />
    <glyph glyph-name="scircumflex" unicode="&#x15d;" horiz-adv-x="931" 
d="M203 1106l-23 20q13 16 106 141t171 220h24q177 -250 275 -361l-25 -18l-262 135zM492 -29q-145 0 -392 58l-43 372l31 9q235 -336 367 -336q35 0 56 18t21 49q0 81 -184 195l-20 12q-92 58 -101 64q-41 28 -84 69q-94 90 -94 230q0 146 106 230.5t281 84.5
q131 0 361 -51l34 -346l-32 -8q-78 113 -176 208q-90 93 -152 93q-29 0 -49.5 -20.5t-20.5 -51.5q0 -29 29 -62t66 -57l100 -55q70 -39 111 -67.5t88 -73.5q98 -88 98 -236q0 -151 -104.5 -239.5t-296.5 -88.5z" />
    <glyph glyph-name="Scedilla" unicode="&#x15e;" horiz-adv-x="1183" 
d="M594 -29h-2l-6 -16q307 -24 307 -180q0 -210 -453 -207l9 59q102 7 159.5 35.5t57.5 67.5q0 44 -58 81t-141 37l74 125q-206 15 -435 105l-28 522h37q305 -489 503 -489q54 0 85.5 35t31.5 98q0 85 -62 156t-206 159l-64 37l-63 39l-55 37q-25 16 -39 27.5t-32.5 31
t-29.5 29.5q-14 14 -24.5 29t-15.5 25.5t-14.5 31t-14.5 31.5q-27 58 -27 161q0 218 139 336q137 119 355 119q168 0 419 -68l43 -512h-36q-100 186 -213 310q-120 135 -224 135q-51 0 -83.5 -34.5t-32.5 -88.5q0 -62 54.5 -119t192.5 -143l80 -47q65 -39 80 -49
q14 -8 68 -48t65 -53q74 -80 92 -133q33 -97 33 -190q0 -130 -47 -228t-131 -153q-157 -101 -348 -101z" />
    <glyph glyph-name="scedilla" unicode="&#x15f;" horiz-adv-x="931" 
d="M893 297q0 -151 -108 -238.5t-308 -87.5l-12 -20q143 -12 210.5 -52.5t67.5 -113.5q0 -110 -131.5 -171.5t-363.5 -59.5l16 43q110 8 175 42t65 85q0 50 -50.5 84t-123.5 34l96 131q-121 9 -326 56l-43 372l31 9q235 -336 367 -336q35 0 56 18t21 49q0 81 -184 195
l-20 12q-92 58 -101 64q-41 28 -84 69q-94 90 -94 230q0 146 106 230.5t281 84.5q131 0 361 -51l34 -346l-32 -8q-78 113 -176 208q-90 93 -152 93q-29 0 -49.5 -20.5t-20.5 -51.5q0 -29 29 -62t66 -57l100 -55q103 -56 163.5 -105t97 -118t36.5 -156z" />
    <glyph glyph-name="Scaron" unicode="&#x160;" horiz-adv-x="1183" 
d="M319 1952l291 -152l295 152l31 -19q-138 -174 -313 -417h-23l-313 417zM594 -29q-218 0 -488 107l-28 522h37q305 -489 503 -489q54 0 85.5 35t31.5 98q0 85 -62 156t-206 159l-64 37l-63 39l-55 37q-25 16 -39 27.5t-32.5 31t-29.5 29.5q-14 14 -24.5 29t-15.5 25.5
t-14.5 31t-14.5 31.5q-27 58 -27 161q0 218 139 336q137 119 355 119q168 0 419 -68l43 -512h-36q-100 186 -213 310q-120 135 -224 135q-51 0 -83.5 -34.5t-32.5 -88.5q0 -62 54.5 -119t192.5 -143l80 -47q65 -39 80 -49q26 -15 68 -46q49 -36 65 -55q75 -81 92 -133
q33 -97 33 -188q0 -131 -47 -229.5t-131 -153.5q-157 -101 -348 -101z" />
    <glyph glyph-name="scaron" unicode="&#x161;" horiz-adv-x="931" 
d="M184 1503l267 -137l262 135l24 -18q-105 -119 -274 -361h-25q-48 57 -97.5 120.5t-79 103.5t-61.5 85t-38 52zM492 -29q-145 0 -392 58l-43 372l31 9q235 -336 367 -336q35 0 56 18t21 49q0 81 -184 195l-20 12q-92 58 -101 64q-41 28 -84 69q-94 90 -94 230
q0 146 106 230.5t281 84.5q131 0 361 -51l34 -346l-32 -8q-78 113 -176 208q-90 93 -152 93q-29 0 -49.5 -20.5t-20.5 -51.5q0 -29 29 -62t66 -57l100 -55q70 -39 111 -67.5t88 -73.5q98 -88 98 -236q0 -151 -104.5 -239.5t-296.5 -88.5z" />
    <glyph glyph-name="uni0162" unicode="&#x162;" horiz-adv-x="1433" 
d="M1358 1464l37 -503h-35q-48 127 -143 225q-96 104 -248 131v-1047q0 -108 20 -147q19 -35 105 -86v-37h-344l-17 -41q307 -24 307 -180q0 -210 -452 -207l8 59q102 7 159.5 35.5t57.5 67.5q0 44 -58 81.5t-141 37.5l86 147h-346v37q83 50 103 86q22 42 22 147v1049
q-147 -25 -250 -124t-151 -234h-35l37 503h1278z" />
    <glyph glyph-name="uni0163" unicode="&#x163;" horiz-adv-x="782" 
d="M406 -23h-5l-16 -26q143 -12 211 -52.5t68 -113.5q0 -110 -132 -171.5t-364 -59.5l16 43q110 8 175 42t65 85q0 50 -50.5 84t-123.5 34l102 140q-114 14 -181 89.5t-67 202.5v607h-86v82q134 68 275 165q134 92 205 185h49v-316h215l-27 -116h-184l-6 -494
q-3 -164 108 -164q65 0 111 43l27 -39q-45 -95 -144 -172q-101 -78 -241 -78z" />
    <glyph glyph-name="Tcaron" unicode="&#x164;" horiz-adv-x="1433" 
d="M739 1516h-22l-314 417l33 19l291 -152l295 152l31 -19q-149 -188 -314 -417zM1358 1464l37 -503h-35q-48 127 -143 225q-96 104 -248 131v-1047q0 -108 20 -147q19 -35 105 -86v-37h-740v37q83 50 103 86q22 42 22 147v1049q-147 -25 -250 -124t-151 -234h-35l37 503
h1278z" />
    <glyph glyph-name="tcaron" unicode="&#x165;" horiz-adv-x="782" 
d="M659 1034h-36l36 449h340zM406 -23q-135 0 -218.5 77t-83.5 220v607h-86v82q134 68 275 165q134 92 205 185h49v-316h215l-27 -116h-184l-6 -494q-3 -164 108 -164q65 0 111 43l27 -39q-45 -95 -144 -172q-101 -78 -241 -78z" />
    <glyph glyph-name="Tbar" unicode="&#x166;" horiz-adv-x="1433" 
d="M1358 1464l37 -503h-35q-48 127 -143 225q-96 104 -248 131v-414h229v-131h-229v-502q0 -108 20 -147q19 -35 105 -86v-37h-740v37q83 50 103 86q22 42 22 147v502h-223v131h223v416q-147 -25 -250 -124t-151 -234h-35l37 503h1278z" />
    <glyph glyph-name="tbar" unicode="&#x167;" horiz-adv-x="782" 
d="M764 266l27 -39q-45 -95 -144 -172q-101 -78 -241 -78q-135 0 -218.5 77t-83.5 220v383h-79v131h79v93h-86v82q134 68 275 165q134 92 205 185h49v-316h215l-27 -116h-184l-2 -93h190v-131h-190l-4 -270q0 -164 108 -164q65 0 111 43z" />
    <glyph glyph-name="Utilde" unicode="&#x168;" horiz-adv-x="1566" 
d="M1196 1858l45 -15q-76 -278 -307 -278q-70 0 -168 28q-143 41 -184 41q-67 0 -138 -59l-43 16q43 146 122.5 211.5t199.5 65.5q48 0 154 -29q140 -41 172 -41q48 0 78 13t69 47zM1559 1464v-37q-43 -29 -59.5 -40.5t-43 -35.5t-34 -34t-21.5 -40t-16.5 -50t-8.5 -67
t-7 -87.5t-3 -114.5v-471q0 -252 -144 -384t-427 -132q-248 0 -435 107q-98 58 -153 162.5t-55 242.5v711q0 104 -23 145q-20 39 -102 88v37h739v-37q-85 -51 -104 -88q-21 -37 -21 -145v-735q0 -157 74.5 -240.5t210.5 -83.5q122 0 209 78q88 76 88 274v471q-2 74 -3 114.5
t-7 87.5t-8.5 67t-16.5 50t-21.5 40t-34 34t-43 35.5t-59.5 40.5v37h529z" />
    <glyph glyph-name="utilde" unicode="&#x169;" horiz-adv-x="1304" 
d="M455 1202q-58 0 -123 -59l-21 6q49 264 260 264q50 0 148 -31q116 -39 145 -39q49 0 73.5 10.5t66.5 47.5l22 -4q-47 -262 -252 -262q-64 0 -153 28q-116 39 -166 39zM1212 299q0 -90 17 -129q19 -36 71 -70v-37l-524 -92v203q-144 -203 -354 -203q-53 -2 -117 16.5
t-121 65.5q-38 38 -63 103.5t-25 146.5v311q0 131 -14 177q-14 50 -72 108v35q271 18 533 96q0 -184 -2 -325t-2 -326q0 -148 116 -148q52 0 111 56v327q0 133 -14 179q-15 49 -72 106v35q270 17 532 96v-731z" />
    <glyph glyph-name="Umacron" unicode="&#x16a;" horiz-adv-x="1566" 
d="M1147 1765v-186h-680v186h680zM1559 1464v-37q-43 -29 -59.5 -40.5t-43 -35.5t-34 -34t-21.5 -40t-16.5 -50t-8.5 -67t-7 -87.5t-3 -114.5v-471q0 -252 -144 -384t-427 -132q-248 0 -435 107q-98 58 -153 162.5t-55 242.5v711q0 104 -23 145q-20 39 -102 88v37h739v-37
q-85 -51 -104 -88q-21 -37 -21 -145v-735q0 -157 74.5 -240.5t210.5 -83.5q122 0 209 78q88 76 88 274v471q-2 74 -3 114.5t-7 87.5t-8.5 67t-16.5 50t-21.5 40t-34 34t-43 35.5t-59.5 40.5v37h529z" />
    <glyph glyph-name="umacron" unicode="&#x16b;" horiz-adv-x="1304" 
d="M961 1341v-200h-601v200h601zM1212 299q0 -90 17 -129q19 -36 71 -70v-37l-524 -92v203q-144 -203 -354 -203q-53 -2 -117 16.5t-121 65.5q-38 38 -63 103.5t-25 146.5v311q0 131 -14 177q-14 50 -72 108v35q271 18 533 96q0 -184 -2 -325t-2 -326q0 -148 116 -148
q52 0 111 56v327q0 133 -14 179q-15 49 -72 106v35q270 17 532 96v-731z" />
    <glyph glyph-name="Ubreve" unicode="&#x16c;" horiz-adv-x="1566" 
d="M1055 1892h37q-14 -187 -83 -278.5t-206 -91.5q-134 0 -202.5 91.5t-86.5 278.5h37q25 -81 96.5 -126.5t155.5 -45.5q86 0 156.5 45t95.5 127zM1559 1464v-37q-43 -29 -59.5 -40.5t-43 -35.5t-34 -34t-21.5 -40t-16.5 -50t-8.5 -67t-7 -87.5t-3 -114.5v-471
q0 -252 -144 -384t-427 -132q-248 0 -435 107q-98 58 -153 162.5t-55 242.5v711q0 104 -23 145q-20 39 -102 88v37h739v-37q-85 -51 -104 -88q-21 -37 -21 -145v-735q0 -157 74.5 -240.5t210.5 -83.5q122 0 209 78q88 76 88 274v471q-2 74 -3 114.5t-7 87.5t-8.5 67
t-16.5 50t-21.5 40t-34 34t-43 35.5t-59.5 40.5v37h529z" />
    <glyph glyph-name="ubreve" unicode="&#x16d;" horiz-adv-x="1304" 
d="M651 1098q-134 0 -202.5 91.5t-86.5 278.5h29q25 -81 100 -126.5t160 -45.5q86 0 160 45.5t102 126.5h27q-14 -187 -83 -278.5t-206 -91.5zM1212 299q0 -90 17 -129q19 -36 71 -70v-37l-524 -92v203q-144 -203 -354 -203q-53 -2 -117 16.5t-121 65.5q-38 38 -63 103.5
t-25 146.5v311q0 131 -14 177q-14 50 -72 108v35q271 18 533 96q0 -184 -2 -325t-2 -326q0 -148 116 -148q52 0 111 56v327q0 133 -14 179q-15 49 -72 106v35q270 17 532 96v-731z" />
    <glyph glyph-name="Uring" unicode="&#x16e;" horiz-adv-x="1566" 
d="M803 1939q82 0 138 -57t56 -141q0 -85 -56 -142t-138 -57t-140.5 57.5t-58.5 141.5q0 85 57 141.5t142 56.5zM811 1610q44 0 74 37.5t30 91.5q0 58 -32.5 97.5t-81.5 39.5q-46 0 -77.5 -37.5t-31.5 -89.5q0 -56 35 -97.5t84 -41.5zM1559 1464v-37q-43 -29 -59.5 -40.5
t-43 -35.5t-34 -34t-21.5 -40t-16.5 -50t-8.5 -67t-7 -87.5t-3 -114.5v-471q0 -252 -144 -384t-427 -132q-248 0 -435 107q-98 58 -153 162.5t-55 242.5v711q0 104 -23 145q-20 39 -102 88v37h739v-37q-85 -51 -104 -88q-21 -37 -21 -145v-735q0 -157 74.5 -240.5
t210.5 -83.5q122 0 209 78q88 76 88 274v471q-2 74 -3 114.5t-7 87.5t-8.5 67t-16.5 50t-21.5 40t-34 34t-43 35.5t-59.5 40.5v37h529z" />
    <glyph glyph-name="uring" unicode="&#x16f;" horiz-adv-x="1304" 
d="M651 1470q82 0 138.5 -56t56.5 -140t-56.5 -141.5t-138.5 -57.5t-140 58.5t-58 140.5t57 139t141 57zM762 1274q0 55 -34 95t-81 40q-46 0 -76 -38t-30 -93q0 -54 35.5 -95.5t82.5 -41.5q46 0 74.5 38.5t28.5 94.5zM1212 299q0 -90 17 -129q19 -36 71 -70v-37l-524 -92
v203q-144 -203 -354 -203q-53 -2 -117 16.5t-121 65.5q-38 38 -63 103.5t-25 146.5v311q0 131 -14 177q-14 50 -72 108v35q271 18 533 96q0 -184 -2 -325t-2 -326q0 -148 116 -148q52 0 111 56v327q0 133 -14 179q-15 49 -72 106v35q270 17 532 96v-731z" />
    <glyph glyph-name="Uhungarumlaut" unicode="&#x170;" horiz-adv-x="1566" 
d="M918 1528l-29 6q0 26 1 111.5t1 119.5q0 67 -2 90h358zM516 1524l-29 6q1 40 2 82.5t2 68.5t1 39q0 14 -1 33t-2 47.5t-2 50.5h359zM1559 1464v-37q-43 -29 -59.5 -40.5t-43 -35.5t-34 -34t-21.5 -40t-16.5 -50t-8.5 -67t-7 -87.5t-3 -114.5v-471q0 -252 -144 -384
t-427 -132q-248 0 -435 107q-98 58 -153 162.5t-55 242.5v711q0 104 -23 145q-20 39 -102 88v37h739v-37q-85 -51 -104 -88q-21 -37 -21 -145v-735q0 -157 74.5 -240.5t210.5 -83.5q122 0 209 78q88 76 88 274v471q-2 74 -3 114.5t-7 87.5t-8.5 67t-16.5 50t-21.5 40t-34 34
t-43 35.5t-59.5 40.5v37h529z" />
    <glyph glyph-name="uhungarumlaut" unicode="&#x171;" horiz-adv-x="1304" 
d="M768 1128l-29 7q0 26 1 110.5t1 118.5q0 69 -2 92h359zM367 1122l-29 6q1 38 2 83.5t1.5 70t0.5 37.5q0 17 -4 131h358zM1212 299q0 -90 17 -129q19 -36 71 -70v-37l-524 -92v203q-144 -203 -354 -203q-53 -2 -117 16.5t-121 65.5q-38 38 -63 103.5t-25 146.5v311
q0 131 -14 177q-14 50 -72 108v35q271 18 533 96q0 -184 -2 -325t-2 -326q0 -148 116 -148q52 0 111 56v327q0 133 -14 179q-15 49 -72 106v35q270 17 532 96v-731z" />
    <glyph glyph-name="Uogonek" unicode="&#x172;" horiz-adv-x="1566" 
d="M1559 1464v-37q-43 -29 -59.5 -40.5t-43 -35.5t-34 -34t-21.5 -40t-16.5 -50t-8.5 -67t-7 -87.5t-3 -114.5v-471q0 -367 -299 -475q-48 -27 -86.5 -84t-38.5 -106q0 -38 23 -60t59 -22q63 0 117 45l14 -10q-36 -76 -116 -120t-169 -44q-84 0 -135 40.5t-51 104.5
q0 125 234 224q-52 -9 -123 -9q-248 0 -435 107q-98 58 -153 162.5t-55 242.5v711q0 104 -23 145q-20 39 -102 88v37h739v-37q-85 -51 -104 -88q-21 -37 -21 -145v-735q0 -157 74.5 -240.5t210.5 -83.5q122 0 209 78q88 76 88 274v471q-2 74 -3 114.5t-7 87.5t-8.5 67
t-16.5 50t-21.5 40t-34 34t-43 35.5t-59.5 40.5v37h529z" />
    <glyph glyph-name="uogonek" unicode="&#x173;" horiz-adv-x="1304" 
d="M856 -14q-86 -86 -86 -172q0 -40 23 -62t59 -22q65 0 117 49l26 -19q-47 -74 -128.5 -117.5t-168.5 -43.5q-83 0 -134.5 41.5t-51.5 109.5q0 143 264 254v170q-144 -203 -354 -203q-53 -2 -117 16.5t-121 65.5q-38 38 -63 103.5t-25 146.5v311q0 131 -14 177
q-14 50 -72 108v35q271 18 533 96q0 -184 -2 -325t-2 -326q0 -148 116 -148q52 0 111 56v327q0 133 -14 179q-15 49 -72 106v35q270 17 532 96v-731q0 -90 17 -129q19 -36 71 -70v-37z" />
    <glyph glyph-name="Wcircumflex" unicode="&#x174;" horiz-adv-x="2250" 
d="M1182 1661l-293 -154l-33 19l313 418h23l313 -418l-30 -19zM1784 1464h469v-37q-108 -85 -158 -176q-35 -63 -70 -155l-391 -1096h-215l-307 786l-293 -786h-213l-469 1243q-27 69 -55.5 109.5t-81.5 74.5v37h748v-37q-63 -39 -88 -67.5t-25 -63.5q0 -23 10 -53l252 -729
l154 432l-117 297q-30 75 -58 112t-83 72v37h751v-37q-56 -31 -79 -61t-23 -74q0 -55 33 -143l229 -627l199 568q32 85 32 139q0 49 -33 92t-118 106v37z" />
    <glyph glyph-name="wcircumflex" unicode="&#x175;" horiz-adv-x="1787" 
d="M969 1243l-267 -137l-22 20q13 16 105.5 141.5t170.5 219.5h25q181 -256 274 -361l-24 -18zM1462 997h338v-36q-99 -99 -172 -254l-325 -707h-162l-252 557l-256 -557h-162l-377 831q-47 103 -102 130v36h626v-36q-69 -34 -69 -101q0 -37 14 -69l158 -347l110 244
l-65 143q-50 106 -102 130v36h630v-36q-73 -34 -73 -111q0 -32 18 -72q39 -93 152 -338q83 170 114 265q19 55 19 92q0 55 -62 164v36z" />
    <glyph glyph-name="Ycircumflex" unicode="&#x176;" horiz-adv-x="1472" 
d="M778 1661l-293 -154l-32 19l313 418h22l314 -418l-31 -19zM1051 1464h424v-37q-131 -113 -234 -288l-264 -443v-426q0 -108 20 -147q19 -35 105 -86v-37h-740v37q83 50 103 86q22 42 22 147v418l-346 559q-77 123 -141 180v37h750v-37q-111 -67 -111 -124q0 -42 66 -146
l217 -338l180 320q39 65 39 121q0 74 -90 167v37z" />
    <glyph glyph-name="ycircumflex" unicode="&#x177;" horiz-adv-x="1148" 
d="M608 1243l-266 -137l-23 20q13 16 106 141t171 220h25q181 -256 274 -361l-25 -18zM836 997h323v-36q-55 -55 -84 -103q-49 -91 -94 -186q-204 -420 -367 -674q-153 -243 -354 -432l-182 241l31 23q45 -10 81 -10q196 0 312 192l4 8l20 33l-430 778q-31 57 -104 130v36
h682v-36q-84 -53 -84 -105q0 -32 31 -86l159 -276q49 95 101 215q22 55 22 104q0 78 -67 148v36z" />
    <glyph glyph-name="Ydieresis" unicode="&#x178;" horiz-adv-x="1472" 
d="M1012 1540q-69 0 -120.5 51t-51.5 119q0 69 51.5 120.5t120.5 51.5q68 0 120 -51.5t52 -120.5q0 -67 -52 -118.5t-120 -51.5zM543 1536q-69 0 -120.5 51t-51.5 119q0 69 51.5 120.5t120.5 51.5q68 0 120 -51.5t52 -120.5q0 -67 -52 -118.5t-120 -51.5zM1051 1464h424v-37
q-131 -113 -234 -288l-264 -443v-426q0 -108 20 -147q19 -35 105 -86v-37h-740v37q83 50 103 86q22 42 22 147v418l-346 559q-77 123 -141 180v37h750v-37q-111 -67 -111 -124q0 -42 66 -146l217 -338l180 320q39 65 39 121q0 74 -90 167v37z" />
    <glyph glyph-name="Zacute" unicode="&#x179;" horiz-adv-x="1314" 
d="M623 1530l-35 6v111q2 47 2 104q0 82 -2 107h422q-69 -61 -185 -156zM1233 489h35l-49 -489h-1168v51l658 1276h-70q-190 0 -315 -110q-125 -109 -177 -256h-36l36 503h1108v-51l-657 -1276h168q143 0 266 105q128 112 201 247z" />
    <glyph glyph-name="zacute" unicode="&#x17a;" horiz-adv-x="1044" 
d="M422 1120l-35 6v111q2 47 2 104q0 82 -2 107h422zM1004 997v-88l-490 -809h137q40 0 66 8t63 33q79 60 178 275h37l-32 -416h-920v82l506 813h-123q-37 0 -58.5 -7t-56.5 -32q-59 -44 -186 -262h-37l33 403h883z" />
    <glyph glyph-name="Zdotaccent" unicode="&#x17b;" horiz-adv-x="1314" 
d="M696 1546q-67 0 -118.5 52t-51.5 120t51 119t119 51q69 0 120.5 -51t51.5 -119t-51.5 -120t-120.5 -52zM1233 489h35l-49 -489h-1168v51l658 1276h-70q-190 0 -315 -110q-125 -109 -177 -256h-36l36 503h1108v-51l-657 -1276h168q143 0 266 105q128 112 201 247z" />
    <glyph glyph-name="zdotaccent" unicode="&#x17c;" horiz-adv-x="1044" 
d="M526 1087q-87 0 -149 58.5t-62 138.5t62 137.5t149 57.5q86 0 147.5 -57.5t61.5 -137.5t-61.5 -138.5t-147.5 -58.5zM1004 997v-88l-490 -809h137q40 0 66 8t63 33q79 60 178 275h37l-32 -416h-920v82l506 813h-123q-37 0 -58.5 -7t-56.5 -32q-59 -44 -186 -262h-37
l33 403h883z" />
    <glyph glyph-name="Zcaron" unicode="&#x17d;" horiz-adv-x="1314" 
d="M711 1516h-23l-313 417l33 19l290 -152l295 152l31 -19q-138 -174 -313 -417zM1233 489h35l-49 -489h-1168v51l658 1276h-70q-190 0 -315 -110q-125 -109 -177 -256h-36l36 503h1108v-51l-657 -1276h168q143 0 266 105q128 112 201 247z" />
    <glyph glyph-name="zcaron" unicode="&#x17e;" horiz-adv-x="1044" 
d="M518 1122h-24q-48 57 -97.5 121t-79 103t-63 85t-37.5 52l23 20l266 -137l262 135l25 -18q-110 -125 -275 -361zM1004 997v-88l-490 -809h137q40 0 66 8t63 33q79 60 178 275h37l-32 -416h-920v82l506 813h-123q-37 0 -58.5 -7t-56.5 -32q-59 -44 -186 -262h-37l33 403
h883z" />
    <glyph glyph-name="Aringacute" unicode="&#x1fa;" horiz-adv-x="1478" 
d="M674 1939l-35 5v94q2 41 2 90q0 68 -2 88h422l-182 -129q-110 -76 -205 -148zM750 1939q82 0 138 -57t56 -141q0 -85 -56 -142t-138 -57t-140.5 57.5t-58.5 141.5q0 85 57 141.5t142 56.5zM750 1876q-47 0 -80 -38t-33 -89q0 -55 36 -97t85 -42q44 0 74 37.5t30 91.5
q0 58 -31.5 97.5t-80.5 39.5zM1335 225q38 -100 70 -135q24 -27 63 -53v-37h-749v37q59 36 81.5 64.5t22.5 68.5q0 49 -39 162l-32 98h-377q-45 -139 -45 -205q0 -101 112 -188v-37h-430v37q105 88 152 172q46 82 96 227l250 729l-88 172q241 83 428 197zM434 608h258
l-129 396z" />
    <glyph glyph-name="aringacute" unicode="&#x1fb;" horiz-adv-x="1228" 
d="M524 1495l-35 6v111q3 70 3 104q0 70 -3 107h422zM629 1075q-84 0 -141.5 58.5t-57.5 140.5t57.5 139t141.5 57q82 0 138 -56t56 -140q0 -85 -56 -142t-138 -57zM739 1272q0 57 -33.5 97t-80.5 40t-77 -38t-30 -93q0 -54 36 -95.5t83 -41.5q46 0 74 39t28 92zM676 197h-4
q-46 -93 -137.5 -155t-206.5 -62q-123 0 -200 70.5t-77 182.5q0 304 623 433l4 155q0 82 -66 82q-67 0 -116 -88q-50 -87 -74 -199l-33 -10l-262 135q46 112 180 199q136 86 361 86q273 0 379 -156q48 -63 53 -190q3 -35 0 -88l-8 -379q0 -61 26 -61q38 0 62 73l51 -28
q-33 -95 -115.5 -156t-204.5 -61q-123 0 -182 61.5t-53 155.5zM586 242q26 0 50 17t30 38l8 285q-75 -26 -120.5 -87.5t-45.5 -136.5q0 -56 21 -86t57 -30z" />
    <glyph glyph-name="AEacute" unicode="&#x1fc;" horiz-adv-x="2076" 
d="M1305 1530l-35 6v111q2 47 2 104q0 82 -2 107h422q-69 -61 -185 -156zM1956 489h35l-49 -489h-1205v37q86 51 105 86q22 42 22 147v164h-434l-4 -6q-94 -143 -94 -215q0 -75 110 -176v-37h-446v37q90 75 145 149q56 74 154 242l479 817q17 31 17 51q0 28 -23 54.5
t-86 76.5v37h1192l37 -503h-35q-53 149 -178 256q-122 110 -314 110h-32v-483h55q99 0 176.5 47t118.5 121h31v-467h-31q-41 85 -118.5 138.5t-176.5 49.5l-55 -2v-489q0 -49 41 -77t108 -28q136 0 260 109q126 114 195 243zM535 612h329v564z" />
    <glyph glyph-name="aeacute" unicode="&#x1fd;" horiz-adv-x="1744" 
d="M834 1120l-35 6q0 26 1 111t1 119q0 69 -2 92h422zM362 -20q-125 0 -217 57q-94 58 -94 192q0 207 271 324q142 62 370 113l2 145q0 39 -24.5 64.5t-65.5 25.5q-79 -3 -127 -91t-55 -196l-35 -8l-258 137q41 103 178 191q139 92 340 92q155 0 289 -76q155 76 307 76
q206 0 332 -111q127 -112 127 -292v-70h-629q0 -102 55 -173t132 -97q77 -23 145 -23q80 0 153.5 28t110.5 72l31 -20q-40 -146 -160 -254q-118 -106 -317 -106q-134 0 -247.5 50t-176.5 138q-78 -79 -198 -133.5t-239 -54.5zM1075 678l234 2q-2 107 -33.5 175.5t-85.5 68.5
t-84.5 -68.5t-30.5 -177.5zM614 227q73 0 113 52q-41 93 -41 215q0 40 6 90q-95 -37 -139.5 -88t-44.5 -136q0 -133 106 -133z" />
    <glyph glyph-name="Oslashacute" unicode="&#x1fe;" horiz-adv-x="1671" 
d="M760 1530l-35 6q0 26 1 110.5t1 118.5q0 70 -2 93h422q-81 -72 -184 -156zM1348 1352q274 -200 274 -619q0 -365 -209 -565q-209 -197 -577 -197q-239 0 -416 86l-84 -118h-137l127 176q-275 201 -275 618q0 365 207 563q209 197 578 197q234 0 413 -84l78 107h137z
M563 944q0 -221 47 -432l416 582q-85 260 -250 260q-103 0 -158 -105t-55 -305zM895 111q103 0 158 105.5t55 305.5q0 230 -45 432l-416 -581q89 -262 248 -262z" />
    <glyph glyph-name="oslashacute" unicode="&#x1ff;" horiz-adv-x="1243" 
d="M520 1120l-35 6q0 26 1 111t1 119q0 69 -2 92h422zM1018 924q184 -132 184 -410q0 -260 -154.5 -397t-424.5 -137q-179 0 -301 51l-86 -111h-134l125 162q-184 129 -184 407q0 257 153 397t431 140q172 0 299 -53l71 92h131zM494 752q0 -119 22 -303l191 243
q-53 226 -138 226q-75 0 -75 -166zM674 84q78 0 78 170q0 110 -23 299l-190 -244q47 -225 135 -225z" />
    <glyph glyph-name="uni0218" unicode="&#x218;" horiz-adv-x="1183" 
d="M594 -29q-218 0 -488 107l-28 522h37q305 -489 503 -489q54 0 85.5 35t31.5 98q0 85 -62 156t-206 159l-64 37l-63 39l-55 37q-25 16 -39 27.5t-32.5 31t-29.5 29.5q-14 14 -24.5 29t-15.5 25.5t-14.5 31t-14.5 31.5q-27 58 -27 161q0 218 139 336q137 119 355 119
q168 0 419 -68l43 -512h-36q-100 186 -213 310q-120 135 -224 135q-51 0 -83.5 -34.5t-32.5 -88.5q0 -62 54.5 -119t192.5 -143l80 -47q65 -39 80 -49q26 -15 68 -46q49 -36 65 -55q75 -81 92 -133q33 -97 33 -188q0 -131 -47 -229.5t-131 -153.5q-157 -101 -348 -101z
M582 -59q80 0 136 -47.5t56 -120.5q0 -92 -86 -201t-244 -156l-20 37q128 76 172 201h-12q-79 0 -132 40.5t-53 100.5t54 103t129 43z" />
    <glyph glyph-name="uni0219" unicode="&#x219;" horiz-adv-x="931" 
d="M492 -29q-145 0 -392 58l-43 372l31 9q235 -336 367 -336q35 0 56 18t21 49q0 81 -184 195l-20 12q-92 58 -101 64q-41 28 -84 69q-94 90 -94 230q0 146 106 230.5t281 84.5q131 0 361 -51l34 -346l-32 -8q-78 113 -176 208q-90 93 -152 93q-29 0 -49.5 -20.5
t-20.5 -51.5q0 -29 29 -62t66 -57l100 -55q70 -39 111 -67.5t88 -73.5q98 -88 98 -236q0 -151 -104.5 -239.5t-296.5 -88.5zM475 -59q80 0 136.5 -47.5t56.5 -120.5q0 -92 -86 -201t-244 -156l-21 37q128 76 172 201h-12q-79 0 -131.5 40.5t-52.5 100.5t53.5 103t128.5 43z
" />
    <glyph glyph-name="uni021A" unicode="&#x21a;" horiz-adv-x="1433" 
d="M1358 1464l37 -503h-35q-48 127 -143 225q-96 104 -248 131v-1047q0 -108 20 -147q19 -35 105 -86v-37h-740v37q83 50 103 86q22 42 22 147v1049q-147 -25 -250 -124t-151 -234h-35l37 503h1278zM729 -55q80 0 136.5 -47.5t56.5 -120.5q0 -92 -86 -201t-244 -156l-21 37
q128 76 172 201h-12q-79 0 -131.5 40.5t-52.5 100.5t53.5 103t128.5 43z" />
    <glyph glyph-name="uni021B" unicode="&#x21b;" horiz-adv-x="782" 
d="M406 -23q-135 0 -218.5 77t-83.5 220v607h-86v82q134 68 275 165q134 92 205 185h49v-316h215l-27 -116h-184l-6 -494q-3 -164 108 -164q65 0 111 43l27 -39q-45 -95 -144 -172q-101 -78 -241 -78zM393 -59q80 0 136.5 -47.5t56.5 -120.5q0 -92 -86 -201t-244 -156
l-20 37q128 76 172 201h-13q-79 0 -131.5 40.5t-52.5 100.5t53.5 103t128.5 43z" />
    <glyph glyph-name="uni0237" unicode="&#x237;" horiz-adv-x="653" 
d="M-57 -432l-15 39q105 56 147 139t42 238v630q0 133 -17 179q-15 43 -69 106v35q270 17 532 96v-807q0 -133 -36.5 -241t-95 -178t-141.5 -121t-167 -76.5t-180 -38.5z" />
    <glyph glyph-name="circumflex" unicode="&#x2c6;" horiz-adv-x="704" 
d="M88 1122l-20 21q5 6 37.5 51.5t62 85t79 103t97.5 120.5h23q29 -41 49 -71q53 -75 59 -84q4 -5 38 -48.5t66 -82t64 -74.5l-25 -19l-262 136z" />
    <glyph glyph-name="caron" unicode="&#x2c7;" horiz-adv-x="704" 
d="M88 1520l268 -138l262 136l25 -19q-32 -36 -64.5 -76t-64.5 -81t-39 -50l-59 -84l-49 -69h-23q-48 57 -97.5 120.5t-79 103t-62 85t-37.5 51.5z" />
    <glyph glyph-name="breve" unicode="&#x2d8;" horiz-adv-x="706" 
d="M616 1485h27q-14 -187 -83 -279t-206 -92q-134 0 -202 92t-86 279h28q25 -81 100 -126.5t160 -45.5q86 0 160 45.5t102 126.5z" />
    <glyph glyph-name="dotaccent" unicode="&#x2d9;" horiz-adv-x="548" 
d="M424 1163q-62 -57 -148 -57t-147 57q-61 60 -61.5 140t59.5 137t149 57q91 0 148 -57q62 -57 62 -137t-62 -140z" />
    <glyph glyph-name="ring" unicode="&#x2da;" horiz-adv-x="522" 
d="M68 1290q0 83 56 140t140 57t140.5 -57.5t56.5 -139.5q0 -85 -56 -141.5t-141 -56.5t-140.5 56.5t-55.5 141.5zM377 1290q0 55 -35 95t-82 40q-44 0 -74 -37.5t-30 -89.5q0 -57 35.5 -99t82.5 -42q46 0 74.5 38.5t28.5 94.5z" />
    <glyph glyph-name="ogonek" unicode="&#x2db;" horiz-adv-x="610" 
d="M252 -401q-85 0 -134.5 41t-49.5 110q0 88 86.5 155.5t257.5 131.5l39 -19q-48 -28 -89 -90q-38 -58 -38 -114q0 -40 23 -62t59 -22q64 0 116 49l27 -19q-47 -74 -128.5 -117.5t-168.5 -43.5z" />
    <glyph glyph-name="tilde" unicode="&#x2dc;" horiz-adv-x="843" 
d="M758 1423l22 -4q-45 -262 -252 -262q-61 0 -153 29q-116 39 -164 39q-59 0 -125 -60l-18 6q47 265 268 265q39 0 137 -31q118 -39 148 -39q50 0 74.5 10t62.5 47z" />
    <glyph glyph-name="hungarumlaut" unicode="&#x2dd;" horiz-adv-x="888" 
d="M498 1145l-31 6q4 226 4 233q0 66 -2 89h356zM96 1139l-28 6v110q2 47 2 105q0 81 -2 106h358z" />
    <glyph glyph-name="Wgrave" unicode="&#x1e80;" horiz-adv-x="2250" 
d="M1307 1536l-35 -6l-389 328h424q-4 -114 -4 -132q0 -13 0.5 -37.5t1.5 -69.5t2 -83zM1784 1464h469v-37q-108 -85 -158 -176q-35 -63 -70 -155l-391 -1096h-215l-307 786l-293 -786h-213l-469 1243q-27 69 -55.5 109.5t-81.5 74.5v37h748v-37q-63 -39 -88 -67.5
t-25 -63.5q0 -23 10 -53l252 -729l154 432l-117 297q-30 75 -58 112t-83 72v37h751v-37q-56 -31 -79 -61t-23 -74q0 -55 33 -143l229 -627l199 568q32 85 32 139q0 49 -33 92t-118 106v37z" />
    <glyph glyph-name="wgrave" unicode="&#x1e81;" horiz-adv-x="1787" 
d="M1122 1126l-35 -6l-389 328h422q-2 -23 -2 -88q0 -8 4 -234zM1462 997h338v-36q-99 -99 -172 -254l-325 -707h-162l-252 557l-256 -557h-162l-377 831q-47 103 -102 130v36h626v-36q-69 -34 -69 -101q0 -37 14 -69l158 -347l110 244l-65 143q-50 106 -102 130v36h630v-36
q-73 -34 -73 -111q0 -32 18 -72q39 -93 152 -338q83 170 114 265q19 55 19 92q0 55 -62 164v36z" />
    <glyph glyph-name="Wacute" unicode="&#x1e82;" horiz-adv-x="2250" 
d="M1106 1530l-35 6q0 26 1 110.5t1 118.5q0 70 -2 93h422q-81 -72 -184 -156zM1784 1464h469v-37q-108 -85 -158 -176q-35 -63 -70 -155l-391 -1096h-215l-307 786l-293 -786h-213l-469 1243q-27 69 -55.5 109.5t-81.5 74.5v37h748v-37q-63 -39 -88 -67.5t-25 -63.5
q0 -23 10 -53l252 -729l154 432l-117 297q-30 75 -58 112t-83 72v37h751v-37q-56 -31 -79 -61t-23 -74q0 -55 33 -143l229 -627l199 568q32 85 32 139q0 49 -33 92t-118 106v37z" />
    <glyph glyph-name="wacute" unicode="&#x1e83;" horiz-adv-x="1787" 
d="M864 1120l-35 6v111q2 47 2 104q0 82 -2 107h422zM1462 997h338v-36q-99 -99 -172 -254l-325 -707h-162l-252 557l-256 -557h-162l-377 831q-47 103 -102 130v36h626v-36q-69 -34 -69 -101q0 -37 14 -69l158 -347l110 244l-65 143q-50 106 -102 130v36h630v-36
q-73 -34 -73 -111q0 -32 18 -72q39 -93 152 -338q83 170 114 265q19 55 19 92q0 55 -62 164v36z" />
    <glyph glyph-name="Wdieresis" unicode="&#x1e84;" horiz-adv-x="2250" 
d="M1415 1540q-69 0 -120.5 51t-51.5 119q0 69 51.5 120.5t120.5 51.5q68 0 120 -51.5t52 -120.5q0 -67 -52 -118.5t-120 -51.5zM946 1536q-69 0 -120.5 51t-51.5 119q0 69 51.5 120.5t120.5 51.5q68 0 120 -51.5t52 -120.5q0 -67 -52 -118.5t-120 -51.5zM1784 1464h469v-37
q-108 -85 -158 -176q-35 -63 -70 -155l-391 -1096h-215l-307 786l-293 -786h-213l-469 1243q-27 69 -55.5 109.5t-81.5 74.5v37h748v-37q-63 -39 -88 -67.5t-25 -63.5q0 -23 10 -53l252 -729l154 432l-117 297q-30 75 -58 112t-83 72v37h751v-37q-56 -31 -79 -61t-23 -74
q0 -55 33 -143l229 -627l199 568q32 85 32 139q0 49 -33 92t-118 106v37z" />
    <glyph glyph-name="wdieresis" unicode="&#x1e85;" horiz-adv-x="1787" 
d="M586 1286q0 70 53 123q52 55 125 55q72 0 126 -53t54 -125t-54 -126t-126 -54t-125 54t-53 126zM991 1286q0 70 53 123q55 55 127 55q69 0 124 -54.5t55 -123.5q0 -72 -53.5 -126t-125.5 -54t-126 54t-54 126zM1462 997h338v-36q-99 -99 -172 -254l-325 -707h-162
l-252 557l-256 -557h-162l-377 831q-47 103 -102 130v36h626v-36q-69 -34 -69 -101q0 -37 14 -69l158 -347l110 244l-65 143q-50 106 -102 130v36h630v-36q-73 -34 -73 -111q0 -32 18 -72q39 -93 152 -338q83 170 114 265q19 55 19 92q0 55 -62 164v36z" />
    <glyph glyph-name="uni1E8A" unicode="&#x1e8a;" horiz-adv-x="1550" 
d="M881 1546q-67 0 -118.5 52t-51.5 120t51.5 119t118.5 51q69 0 120.5 -51t51.5 -119t-51.5 -120t-120.5 -52zM1368 229q73 -123 174 -192v-37h-794v37q94 64 94 123q0 29 -25 71l-172 289l-139 -174q-86 -109 -86 -172q0 -62 69 -137v-37h-477v37q93 58 176 127
q67 58 174 190l222 269l-377 610q-74 122 -178 194v37h802v-37q-98 -64 -98 -122q0 -31 27 -74l162 -273l133 177q71 95 71 159q0 58 -75 133v37h467v-37q-79 -47 -166 -131q-92 -89 -154 -166l-215 -272z" />
    <glyph glyph-name="uni1E8B" unicode="&#x1e8b;" horiz-adv-x="1191" 
d="M608 1087q-87 0 -149 58.5t-62 138.5t62 137.5t149 57.5q86 0 147.5 -57.5t61.5 -137.5t-61.5 -138.5t-147.5 -58.5zM1085 152q48 -70 105 -115v-37h-662v37q74 15 74 61q0 27 -18 54l-107 172l-61 -72q-37 -42 -50.5 -87t-3.5 -78.5t39 -49.5v-37h-397v37
q151 92 275 225l139 152l-293 432q-57 87 -109 115v36h662v-36q-68 -21 -68 -66q0 -41 52 -117l65 -100l51 61q70 82 70 131q0 41 -47 91v36h366v-36q-131 -84 -272 -250l-107 -125z" />
    <glyph glyph-name="Ygrave" unicode="&#x1ef2;" horiz-adv-x="1472" 
d="M903 1536l-35 -6l-389 328h424q-4 -114 -4 -132q0 -13 0.5 -37.5t1.5 -69.5t2 -83zM1051 1464h424v-37q-131 -113 -234 -288l-264 -443v-426q0 -108 20 -147q19 -35 105 -86v-37h-740v37q83 50 103 86q22 42 22 147v418l-346 559q-77 123 -141 180v37h750v-37
q-111 -67 -111 -124q0 -42 66 -146l217 -338l180 320q39 65 39 121q0 74 -90 167v37z" />
    <glyph glyph-name="ygrave" unicode="&#x1ef3;" horiz-adv-x="1148" 
d="M762 1126l-35 -6l-389 328h422q-2 -23 -2 -98q0 -16 0.5 -45t1.5 -83t2 -96zM836 997h323v-36q-55 -55 -84 -103q-49 -91 -94 -186q-204 -420 -367 -674q-153 -243 -354 -432l-182 241l31 23q45 -10 81 -10q196 0 312 192l4 8l20 33l-430 778q-31 57 -104 130v36h682v-36
q-84 -53 -84 -105q0 -32 31 -86l159 -276q49 95 101 215q22 55 22 104q0 78 -67 148v36z" />
    <glyph glyph-name="endash" unicode="&#x2013;" horiz-adv-x="987" 
d="M926 618v-149h-858v149h858z" />
    <glyph glyph-name="emdash" unicode="&#x2014;" horiz-adv-x="1845" 
d="M1784 618v-147h-1716v147h1716z" />
    <glyph glyph-name="quoteleft" unicode="&#x2018;" horiz-adv-x="475" 
d="M244 1167q81 0 135.5 -53t54.5 -131q0 -80 -54 -136t-132 -56q-82 0 -142.5 62.5t-60.5 158.5q0 120 90 266q93 147 252 211l19 -37q-121 -109 -170 -285h8z" />
    <glyph glyph-name="quoteright" unicode="&#x2019;" horiz-adv-x="475" 
d="M233 1489q84 0 142.5 -61.5t58.5 -161.5q0 -122 -92 -267q-87 -142 -250 -208l-18 36q126 114 172 287h-10q-81 0 -135 53t-54 131q0 80 54 135.5t132 55.5z" />
    <glyph glyph-name="quotesinglbase" unicode="&#x201a;" horiz-adv-x="591" 
d="M293 389q88 0 148.5 -66t60.5 -173q0 -134 -94 -283q-95 -154 -267 -227l-20 43q141 141 188 309h-14q-86 0 -142.5 54.5t-56.5 139.5t57.5 144t139.5 59z" />
    <glyph glyph-name="quotedblleft" unicode="&#x201c;" horiz-adv-x="933" 
d="M244 1167q81 0 135.5 -53t54.5 -131q0 -80 -54 -136t-132 -56q-82 0 -142.5 62.5t-60.5 158.5q0 120 90 266q93 147 252 211l19 -37q-121 -109 -170 -285h8zM702 1167q81 0 135 -53t54 -131q0 -80 -54 -136t-132 -56q-84 0 -142.5 62.5t-58.5 162.5q0 116 90 262
q93 147 252 211l16 -37q-123 -108 -170 -285h10z" />
    <glyph glyph-name="quotedblright" unicode="&#x201d;" horiz-adv-x="933" 
d="M233 1489q84 0 142.5 -61.5t58.5 -161.5q0 -122 -92 -267q-87 -142 -250 -208l-18 36q126 114 172 287h-10q-81 0 -135 53t-54 131q0 80 54 135.5t132 55.5zM690 1489q84 0 142.5 -61.5t58.5 -161.5q0 -171 -152 -340q-79 -88 -188 -135l-19 36q123 111 170 287h-10
q-81 0 -134.5 53t-53.5 131q0 80 54 135.5t132 55.5z" />
    <glyph glyph-name="quotedblbase" unicode="&#x201e;" horiz-adv-x="1069" 
d="M293 389q88 0 148.5 -66t60.5 -173q0 -134 -94 -283q-95 -154 -267 -227l-20 43q141 141 188 309h-14q-86 0 -142.5 54.5t-56.5 139.5t57.5 144t139.5 59zM768 389q88 0 148.5 -66t60.5 -173q0 -134 -94 -283q-95 -153 -265 -227l-22 43q145 142 188 309h-14
q-86 0 -142.5 54.5t-56.5 139.5t57.5 144t139.5 59z" />
    <glyph glyph-name="dagger" unicode="&#x2020;" horiz-adv-x="776" 
d="M657 1225v-84h-229v-555h-78v555h-225v84h225v239h78v-239h229z" />
    <glyph glyph-name="daggerdbl" unicode="&#x2021;" horiz-adv-x="776" 
d="M657 1141h-227v-197h227v-84h-227v-274h-80v274h-225v84h225v197h-225v84h225v239h80v-239h227v-84z" />
    <glyph glyph-name="bullet" unicode="&#x2022;" horiz-adv-x="905" 
d="M76 575q0 157 112 269t269 112t266 -112q113 -113 113 -269q0 -152 -111 -266q-110 -110 -268 -110t-271 110q-110 113 -110 266z" />
    <glyph glyph-name="ellipsis" unicode="&#x2026;" horiz-adv-x="1624" 
d="M303 -20q-86 0 -146.5 59.5t-60.5 144.5t60.5 146t146.5 61q85 0 145 -61t60 -146t-60 -144.5t-145 -59.5zM817 -20q-86 0 -146.5 59.5t-60.5 144.5t60.5 146t146.5 61q85 0 145 -61t60 -146t-60 -144.5t-145 -59.5zM1327 -20q-86 0 -146.5 59.5t-60.5 144.5t60.5 146
t146.5 61q85 0 145 -61t60 -146t-60 -144.5t-145 -59.5z" />
    <glyph glyph-name="perthousand" unicode="&#x2030;" horiz-adv-x="2945" 
d="M557 -47l-82 47l998 1501l79 -49zM45 979q0 215 123 344q122 131 321 131q192 0 312 -123q119 -122 119 -336t-121 -344q-120 -129 -316 -129t-317 121q-121 124 -121 336zM520 602q49 0 78 60.5t29 175.5q0 148 -39 323q-20 95 -57 153t-85 58q-49 0 -78.5 -60
t-29.5 -175q0 -69 9.5 -153.5t29.5 -173.5t57.5 -148.5t85.5 -59.5zM1552 926q198 0 318 -123q121 -121 121 -334t-121 -346q-119 -131 -318 -131t-317.5 123.5t-118.5 335.5q0 216 119 344q119 131 317 131zM2470 926q193 0 313 -123q119 -122 119 -334q0 -214 -123 -346
q-119 -131 -321 -131q-193 0 -310.5 123t-117.5 336q0 215 120 344q119 131 320 131zM1516 844q-49 0 -78 -60.5t-29 -175.5q0 -119 23 -257t73 -218q45 -72 98 -59q54 13 80 105q15 56 15 130q0 69 -9.5 153.5t-29.5 173.5t-57.5 148.5t-85.5 59.5zM2427 844
q-49 0 -78 -60.5t-29 -175.5q0 -118 23.5 -256.5t73.5 -218.5q45 -73 98 -59q54 14 79 107q15 55 15 128q0 146 -41 324q-20 95 -56.5 153t-84.5 58z" />
    <glyph glyph-name="guilsinglleft" unicode="&#x2039;" horiz-adv-x="790" 
d="M721 997q-104 -259 -240 -471q149 -232 240 -473h-105q-305 285 -540 463v21q229 172 540 460h105z" />
    <glyph glyph-name="guilsinglright" unicode="&#x203a;" horiz-adv-x="790" 
d="M76 997h102q319 -293 543 -460v-21q-235 -178 -543 -463h-102q93 245 239 473q-146 221 -239 471z" />
    <glyph glyph-name="fraction" unicode="&#x2044;" horiz-adv-x="428" 
d="M-305 0l1010 1464h114l-1007 -1464h-117z" />
    <glyph glyph-name="Euro" unicode="&#x20ac;" horiz-adv-x="1536" 
d="M956 106q72 0 193 130q109 117 231 305h37l-37 -512q-232 -58 -473 -58q-67 0 -128.5 8t-125.5 28.5t-119 51.5t-106 80t-89 111.5t-66 148t-40 187.5h-182v108h176v19q0 67 6 125h-182v108h201q56 253 240 385q186 133 442 133q172 0 448 -55l37 -498h-37
q-116 170 -237 297q-116 125 -187 125q-64 0 -118 -100t-76 -287h491l-14 -108h-487q-2 -25 -2 -117v-27h434l-15 -108h-415q13 -228 70 -354t130 -126z" />
    <glyph glyph-name="trademark" unicode="&#x2122;" horiz-adv-x="1730" 
d="M707 1464l18 -254h-23q-62 165 -188 189v-529q0 -50 9 -68t48 -48v-21h-372v21q40 33 46.5 49t8.5 67v529q-126 -21 -188 -189h-23l18 254h646zM1694 1444q-40 -25 -49 -44.5t-9 -70.5v-459q0 -51 9 -69.5t49 -44.5v-21h-373v21q38 26 46.5 44.5t8.5 69.5v390h-2
l-59 -123q-18 -36 -48.5 -102t-35.5 -77q-40 -84 -70 -161h-33q-155 326 -225 456v-256q0 -113 15 -157q15 -40 79 -86v-21h-254v21q66 46 82 88q15 40 15 155v338q-35 72 -97 121v8h326q19 -36 90 -192l74 -162l176 354h285v-20z" />
    <glyph glyph-name="oneeighth" unicode="&#x215b;" horiz-adv-x="1763" 
d="M63 614v23q48 30 61 52t13 75v446q0 28 -13 53.5t-26 34.5q-4 4 -61 48v20l373 133v-735q2 -55 8 -69q10 -20 65 -58v-23h-420zM248 0l1009 1464h115l-1007 -1464h-117zM1352 -16q-142 0 -233 60t-91 161q0 152 170 217q-137 82 -137 223q0 108 84 171t221 63
q128 0 210.5 -55t82.5 -134q0 -32 -19 -63t-43 -52q-8 -6 -53 -34l-37 -23q2 0 19 -10.5t22 -15.5l27 -19q9 -6 16.5 -12t11.5 -10.5t12.5 -14.5t14.5 -16q64 -64 64 -176q0 -133 -101 -197q-100 -63 -241 -63zM1454 547q45 68 45 145q0 49 -36.5 83t-86.5 34
q-41 0 -65.5 -23.5t-24.5 -64.5q0 -95 168 -174zM1354 53q49 0 80.5 28.5t31.5 72.5q0 101 -227 235q-41 -84 -41 -158q0 -84 42.5 -131t113.5 -47z" />
    <glyph glyph-name="threeeighths" unicode="&#x215c;" horiz-adv-x="1869" 
d="M37 1278q57 100 148 156.5t194 56.5q94 0 153.5 -45t59.5 -117q0 -73 -64.5 -132t-158.5 -91v-2q27 6 55 6q97 0 161 -62t64 -171q0 -127 -96 -202t-248 -75q-140 0 -274 51l96 260l20 -4q56 -225 156 -225q47 0 79 50t32 124q0 76 -38.5 125t-105.5 49q-45 0 -100 -22
l-18 51q118 56 169.5 103.5t51.5 101.5q0 45 -32 68.5t-79 23.5q-116 0 -203 -96zM352 0l1010 1464h115l-1008 -1464h-117zM1456 -16q-142 0 -232.5 60t-90.5 161q0 152 170 217q-138 83 -138 223q0 108 84 171t221 63q128 0 210.5 -55t82.5 -134q0 -32 -18.5 -63.5
t-42.5 -51.5q-8 -6 -53 -34l-37 -23q2 0 19 -10.5t22 -15.5l26 -19q18 -11 56 -53q63 -63 63 -176q0 -134 -100 -197t-242 -63zM1559 547q45 68 45 145q0 49 -36.5 83t-86.5 34q-41 0 -65.5 -23.5t-24.5 -64.5q0 -95 168 -174zM1458 53q50 0 81.5 28.5t31.5 72.5
q0 100 -228 235q-40 -81 -40 -158q0 -85 42 -131.5t113 -46.5z" />
    <glyph glyph-name="fiveeighths" unicode="&#x215d;" horiz-adv-x="1896" 
d="M330 1157q144 0 233.5 -75.5t89.5 -204.5q0 -66 -24 -117t-60 -80.5t-84.5 -49t-91 -26t-84.5 -6.5q-121 0 -280 51l67 312l23 -5q76 -282 188 -282q42 0 69 43t27 117q0 188 -176 188q-89 0 -159 -43l129 498h317q43 1 67.5 7.5t34 13t37.5 30.5l23 -2l-92 -258h-357
l-39 -131q61 20 142 20zM379 0l1010 1464h114l-1007 -1464h-117zM1483 -16q-142 0 -233 60t-91 161q0 152 170 217q-137 82 -137 223q0 108 84 171t221 63q128 0 210.5 -55t82.5 -134q0 -32 -18.5 -63.5t-42.5 -51.5q-5 -4 -54 -34l-37 -23q2 0 19 -10.5t22 -15.5l27 -19
q9 -6 16.5 -12t11.5 -10.5t12.5 -14.5t14.5 -16q64 -64 64 -176q0 -133 -101 -197q-100 -63 -241 -63zM1585 547q45 68 45 145q0 49 -36.5 83t-86.5 34q-41 0 -65.5 -23.5t-24.5 -64.5q0 -95 168 -174zM1485 53q49 0 80.5 28.5t31.5 72.5q0 101 -227 235q-41 -84 -41 -158
q0 -84 42.5 -131t113.5 -47z" />
    <glyph glyph-name="seveneighths" unicode="&#x215e;" horiz-adv-x="1736" 
d="M125 614q56 283 305 629h-242q-65 -4 -90.5 -16.5t-66.5 -57.5l-23 2l84 306h570v-37q-120 -123 -173 -242l-49 -111q-20 -44 -37 -124l-22 -111l-19 -125l-14 -113h-223zM219 0l1010 1464h114l-1007 -1464h-117zM1323 -16q-142 0 -233 60t-91 161q0 152 170 217
q-137 82 -137 223q0 108 84 171t221 63q128 0 210.5 -55t82.5 -134q0 -32 -18.5 -63.5t-42.5 -51.5q-8 -6 -53 -34l-37 -23q2 0 19 -10.5t22 -15.5l26 -19q18 -11 56 -53q63 -63 63 -176q0 -134 -100 -197t-242 -63zM1425 547q45 68 45 145q0 49 -36 83t-86 34
q-42 0 -66.5 -23.5t-24.5 -64.5q0 -95 168 -174zM1325 53q50 0 81.5 28.5t31.5 72.5q0 100 -228 235q-41 -84 -41 -158q0 -84 42.5 -131t113.5 -47z" />
    <glyph glyph-name="arrowleft" unicode="&#x2190;" horiz-adv-x="1157" 
d="M1108 618v-149h-737q207 -121 338 -289l-248 -139q-132 322 -406 504q275 183 406 502l248 -140q-132 -170 -342 -289h741zM166 545q12 0 14 -2v4q-2 -2 -14 -2z" />
    <glyph glyph-name="arrowup" unicode="&#x2191;" horiz-adv-x="1110" 
d="M557 1065q179 -277 502 -406l-139 -247q-169 129 -289 340v-740h-148v742q-124 -215 -290 -342l-138 247q323 129 502 406zM555 938h4q-2 2 -2 14q0 -12 -2 -14z" />
    <glyph glyph-name="arrowright" unicode="&#x2192;" horiz-adv-x="1157" 
d="M700 1047q133 -324 408 -502q-276 -181 -408 -504l-247 139q129 169 340 289h-738v149h740q-203 116 -342 289zM981 543q2 2 14 2q-12 0 -14 2v-4z" />
    <glyph glyph-name="arrowdown" unicode="&#x2193;" horiz-adv-x="1110" 
d="M920 666l139 -248q-323 -129 -502 -406q-179 277 -502 406l138 248q166 -127 290 -342v741h148v-739q120 211 289 340zM555 139q2 -4 2 -16q0 12 2 16h-4z" />
    <glyph glyph-name="uni2196" unicode="&#x2196;" horiz-adv-x="970" 
d="M920 238l-105 -105l-524 524q45 -164 45 -323q0 -58 -8 -123l-273 78q90 218 90 422q0 109 -22 219q115 -23 219 -23q203 0 424 90l76 -272q-65 -8 -123 -8q-160 0 -324 45zM201 852l10 -12l2 2z" />
    <glyph glyph-name="uni2197" unicode="&#x2197;" horiz-adv-x="970" 
d="M852 932q-25 -122 -25 -223q0 -203 93 -418l-275 -78q-6 55 -6 115q0 167 43 329l-522 -522l-105 107l523 522q-164 -45 -324 -45q-58 0 -123 8l78 274q219 -92 424 -92q104 0 219 23zM760 844l2 -2l10 12z" />
    <glyph glyph-name="uni2198" unicode="&#x2198;" horiz-adv-x="970" 
d="M920 803q-93 -229 -93 -422q0 -99 25 -221q-114 24 -219 24q-198 0 -424 -92l-76 273q47 8 123 8q168 0 322 -43l-523 522l105 104l524 -524q-45 164 -45 324q0 58 8 123zM762 248l10 -8l-8 10z" />
    <glyph glyph-name="uni2199" unicode="&#x2199;" horiz-adv-x="970" 
d="M395 330q164 45 324 45q58 0 123 -8l-76 -275q-213 92 -420 92q-106 0 -223 -24q22 113 22 221q0 201 -90 422l273 78q8 -65 8 -123q0 -160 -45 -324l524 524l105 -106zM211 252l-10 -12l12 10z" />
    <glyph glyph-name="minus" unicode="&#x2212;" horiz-adv-x="774" 
d="M754 758v-119h-727v119h727z" />
    <glyph glyph-name="uni00A40301" horiz-adv-x="786" 
d="M315 1530l-34 6q0 26 1 110.5t1 118.5q0 70 -2 93h421q-81 -72 -184 -156zM27 -266l-9 39q142 89 142 260v1161q0 104 -23 145q-19 37 -104 88v37h741v-37q-88 -53 -106 -88q-21 -37 -21 -145v-877q0 -489 -620 -583z" />
    <glyph glyph-name="R.ss01" horiz-adv-x="1626" 
d="M1427 244q57 -100 189 -207v-37h-594q-183 338 -326 680l-55 -4v-406q0 -106 21 -147q20 -36 104 -86v-37h-739v37q81 49 102 86q23 44 23 147v924q0 104 -23 145q-20 39 -102 88v37h776q279 0 444 -98q168 -94 168 -270q0 -169 -147 -277q-144 -106 -361 -106h-57v-4
q113 -76 276 -76q57 0 105 10q101 -235 196 -399zM641 1329v-575h80q96 0 155.5 87.5t59.5 223.5q-6 114 -41.5 172t-99.5 74q-57 18 -121 18h-33z" />
    <glyph glyph-name="i.loclTRK" horiz-adv-x="638" 
d="M303 1104q-87 0 -149 58t-62 138t62 137.5t149 57.5q86 0 147.5 -57.5t61.5 -137.5t-61.5 -138t-147.5 -58zM545 260q0 -100 16 -143q14 -34 72 -80v-37h-623v37q58 46 72 80q16 43 16 143v354q0 164 -35 217q-12 21 -53 68v35q271 18 535 96v-770z" />
    <glyph glyph-name="uni006A0301" horiz-adv-x="653" 
d="M227 1137l-34 6q0 26 1 110.5t1 118.5q0 69 -2 92h421zM-57 -432l-15 39q105 56 147 139t42 238v630q0 133 -17 179q-15 43 -69 106v35q270 17 532 96v-807q0 -133 -36.5 -241t-95 -178t-141.5 -121t-167 -76.5t-180 -38.5z" />
    <glyph glyph-name="germandbls.calt" horiz-adv-x="1630" 
d="M1077 -29q-189 0 -411 74l106 492h19q60 -181 131 -308q74 -129 143 -129q51 0 94 55.5t43 155.5q0 155 -104 262q-107 110 -285 119l-84 125l320 481q-65 56 -183 56q-104 0 -164.5 -56t-60.5 -174v-1124h-614v37q81 49 102 86q23 44 23 147v512q0 711 657 711
q174 0 315.5 -45.5t223.5 -114.5v-20l-275 -363q73 -13 139.5 -37t133 -66.5t114 -98.5t77.5 -138t30 -180q0 -212 -129.5 -335.5t-360.5 -123.5z" />
    <glyph glyph-name="a.ss01" horiz-adv-x="1282" 
d="M442 -20q-143 0 -264 104q-63 57 -99 162t-36 243q0 273 131 404q133 133 326 133q78 0 146 -22.5t106 -55.5q95 -76 149 -76q75 0 240 154h49v-768q0 -63 17.5 -94.5t68.5 -63.5v-37l-522 -86l-2 175h-4q-37 -72 -121 -122t-185 -50zM633 182q57 0 110 80v377
q-53 256 -137 256q-100 0 -100 -334q0 -379 127 -379z" />
    <glyph glyph-name="aacute.ss01" horiz-adv-x="1282" 
d="M571 1120l-34 6q0 26 1 111t1 119q0 69 -2 92h421zM442 -20q-143 0 -264 104q-63 57 -99 162t-36 243q0 273 131 404q133 133 326 133q78 0 146 -22.5t106 -55.5q95 -76 149 -76q75 0 240 154h49v-768q0 -63 17.5 -94.5t68.5 -63.5v-37l-522 -86l-2 175h-4
q-37 -72 -121 -122t-185 -50zM633 182q57 0 110 80v377q-53 256 -137 256q-100 0 -100 -334q0 -379 127 -379z" />
    <glyph glyph-name="abreve.ss01" horiz-adv-x="1282" 
d="M936 1468h27q-14 -187 -83 -278.5t-206 -91.5q-134 0 -202.5 91.5t-86.5 278.5h29q25 -81 100 -126.5t160 -45.5q86 0 160 45.5t102 126.5zM442 -20q-143 0 -264 104q-63 57 -99 162t-36 243q0 273 131 404q133 133 326 133q78 0 146 -22.5t106 -55.5q95 -76 149 -76
q75 0 240 154h49v-768q0 -63 17.5 -94.5t68.5 -63.5v-37l-522 -86l-2 175h-4q-37 -72 -121 -122t-185 -50zM633 182q57 0 110 80v377q-53 256 -137 256q-100 0 -100 -334q0 -379 127 -379z" />
    <glyph glyph-name="acircumflex.ss01" horiz-adv-x="1282" 
d="M410 1106l-23 20q13 16 106 141t171 220h24q177 -250 275 -361l-25 -18l-262 135zM442 -20q-143 0 -264 104q-63 57 -99 162t-36 243q0 273 131 404q133 133 326 133q78 0 146 -22.5t106 -55.5q95 -76 149 -76q75 0 240 154h49v-768q0 -63 17.5 -94.5t68.5 -63.5v-37
l-522 -86l-2 175h-4q-37 -72 -121 -122t-185 -50zM633 182q57 0 110 80v377q-53 256 -137 256q-100 0 -100 -334q0 -379 127 -379z" />
    <glyph glyph-name="adieresis.ss01" horiz-adv-x="1282" 
d="M293 1286q0 69 54.5 123.5t123.5 54.5q54 2 99.5 -31t66 -80t12 -102t-52.5 -92q-36 -43 -90 -51t-101.5 13t-80.5 66t-31 99zM698 1286q0 69 54 123q55 55 127 55q73 0 125 -55q53 -53 53 -123q0 -72 -53 -126t-125 -54t-126.5 54t-54.5 126zM442 -20q-143 0 -264 104
q-63 57 -99 162t-36 243q0 273 131 404q133 133 326 133q78 0 146 -22.5t106 -55.5q95 -76 149 -76q75 0 240 154h49v-768q0 -63 17.5 -94.5t68.5 -63.5v-37l-522 -86l-2 175h-4q-37 -72 -121 -122t-185 -50zM633 182q57 0 110 80v377q-53 256 -137 256q-100 0 -100 -334
q0 -379 127 -379z" />
    <glyph glyph-name="agrave.ss01" horiz-adv-x="1282" 
d="M795 1120l-389 328h421q-2 -23 -2 -98q0 -16 0.5 -45t1.5 -83t2 -96zM442 -20q-143 0 -264 104q-63 57 -99 162t-36 243q0 273 131 404q133 133 326 133q78 0 146 -22.5t106 -55.5q95 -76 149 -76q75 0 240 154h49v-768q0 -63 17.5 -94.5t68.5 -63.5v-37l-522 -86l-2 175
h-4q-37 -72 -121 -122t-185 -50zM633 182q57 0 110 80v377q-53 256 -137 256q-100 0 -100 -334q0 -379 127 -379z" />
    <glyph glyph-name="amacron.ss01" horiz-adv-x="1282" 
d="M983 1341v-200h-600v200h600zM442 -20q-143 0 -264 104q-63 57 -99 162t-36 243q0 273 131 404q133 133 326 133q78 0 146 -22.5t106 -55.5q95 -76 149 -76q75 0 240 154h49v-768q0 -63 17.5 -94.5t68.5 -63.5v-37l-522 -86l-2 175h-4q-37 -72 -121 -122t-185 -50z
M633 182q57 0 110 80v377q-53 256 -137 256q-100 0 -100 -334q0 -379 127 -379z" />
    <glyph glyph-name="aogonek.ss01" horiz-adv-x="1282" 
d="M1276 100v-37l-180 -30l18 -8q-45 -26 -88 -91q-39 -59 -39 -114q0 -40 23 -62t59 -22q65 0 117 49l26 -18q-47 -74 -128.5 -118t-168.5 -44q-83 0 -134.5 41.5t-51.5 109.5q0 147 289 264l-264 -43l-2 175h-4q-37 -72 -121 -122t-185 -50q-143 0 -264 104
q-63 57 -99 162t-36 243q0 273 131 404q133 133 326 133q78 0 146 -22.5t106 -55.5q95 -76 149 -76q75 0 240 154h49v-768q0 -63 17.5 -94.5t68.5 -63.5zM743 262v377q-53 256 -137 256q-100 0 -100 -334q0 -379 127 -379q57 0 110 80z" />
    <glyph glyph-name="aring.ss01" horiz-adv-x="1282" 
d="M674 1075q-84 0 -141.5 58.5t-57.5 140.5t57.5 139t141.5 57q82 0 138 -56t56 -140q0 -85 -56 -142t-138 -57zM784 1272q0 57 -33.5 97t-80.5 40t-77 -38t-30 -93q0 -54 36 -95.5t83 -41.5q46 0 74 39t28 92zM442 -20q-143 0 -264 104q-63 57 -99 162t-36 243
q0 273 131 404q133 133 326 133q78 0 146 -22.5t106 -55.5q95 -76 149 -76q75 0 240 154h49v-768q0 -63 17.5 -94.5t68.5 -63.5v-37l-522 -86l-2 175h-4q-37 -72 -121 -122t-185 -50zM633 182q57 0 110 80v377q-53 256 -137 256q-100 0 -100 -334q0 -379 127 -379z" />
    <glyph glyph-name="aringacute.ss01" horiz-adv-x="1282" 
d="M569 1495l-34 6v111q2 47 2 104q0 82 -2 107h421zM674 1075q-84 0 -141.5 58.5t-57.5 140.5t57.5 139t141.5 57q82 0 138 -56t56 -140q0 -85 -56 -142t-138 -57zM784 1272q0 57 -33.5 97t-80.5 40t-77 -38t-30 -93q0 -54 36 -95.5t83 -41.5q46 0 74 39t28 92zM442 -20
q-143 0 -264 104q-63 57 -99 162t-36 243q0 273 131 404q133 133 326 133q78 0 146 -22.5t106 -55.5q95 -76 149 -76q75 0 240 154h49v-768q0 -63 17.5 -94.5t68.5 -63.5v-37l-522 -86l-2 175h-4q-37 -72 -121 -122t-185 -50zM633 182q57 0 110 80v377q-53 256 -137 256
q-100 0 -100 -334q0 -379 127 -379z" />
    <glyph glyph-name="atilde.ss01" horiz-adv-x="1282" 
d="M1026 1401l23 -4q-47 -262 -252 -262q-65 0 -154 28q-116 39 -166 39q-58 0 -123 -59l-20 6q50 264 260 264q49 0 147 -31q116 -39 146 -39q49 0 73 10.5t66 47.5zM442 -20q-143 0 -264 104q-63 57 -99 162t-36 243q0 273 131 404q133 133 326 133q78 0 146 -22.5
t106 -55.5q95 -76 149 -76q75 0 240 154h49v-768q0 -63 17.5 -94.5t68.5 -63.5v-37l-522 -86l-2 175h-4q-37 -72 -121 -122t-185 -50zM633 182q57 0 110 80v377q-53 256 -137 256q-100 0 -100 -334q0 -379 127 -379z" />
    <glyph glyph-name="zero.zero" horiz-adv-x="1335" 
d="M668 -29q-226 0 -414 176q-93 90 -148 238t-55 328q-1 265 114 450.5t284 253.5q161 71 329 35.5t303 -170.5q94 -90 149.5 -239t55.5 -330q0 -189 -57 -332q-38 -103 -102 -183.5t-140.5 -129t-157 -73t-161.5 -24.5zM668 1333q-168 0 -168 -614v-57l104 110
q53 53 123 131q45 48 98 115q-34 315 -157 315zM666 102q174 0 174 629q0 60 -2 78q-45 -52 -156 -166q-121 -127 -172 -192q27 -349 156 -349z" />
    <glyph glyph-name="zero.numrsuperior" horiz-adv-x="851" 
d="M51 1329q0 211 115 332q113 119 260 119t260 -119q117 -117 117 -328q0 -217 -117 -334q-114 -114 -260 -114t-260 114q-115 115 -115 330zM426 963q98 0 98 364q0 373 -98 373q-94 0 -94 -367q0 -370 94 -370z" />
    <glyph glyph-name="one.numrsuperior" horiz-adv-x="499" 
d="M63 901v23q48 30 61 52t13 75v446q0 54 -41 90l-59 45v21l373 133v-735q2 -55 8 -69q10 -20 65 -58v-23h-420z" />
    <glyph glyph-name="two.numrsuperior" horiz-adv-x="643" 
d="M446 1114q53 0 85 15.5t75 58.5l23 -4l-88 -283h-541v35q190 200 264 315q76 119 76 217q0 73 -34 115.5t-85 42.5q-79 0 -182 -100l-29 24q143 230 324 230q102 0 171.5 -65.5t69.5 -178.5q0 -147 -116 -260q-52 -52 -93.5 -84t-111.5 -78h192z" />
    <glyph glyph-name="three.numrsuperior" horiz-adv-x="698" 
d="M37 1565q57 100 148 156.5t194 56.5q94 0 153.5 -45t59.5 -117q0 -73 -64.5 -132t-158.5 -91v-2q27 6 55 6q97 0 161 -62.5t64 -171.5q0 -127 -96 -201.5t-248 -74.5q-140 0 -274 51l96 260l20 -4q56 -225 156 -225q47 0 79 50t32 124q0 76 -38.5 125t-105.5 49
q-42 0 -100 -23l-18 52q118 56 169.5 103t51.5 101q0 45 -32 68.5t-79 23.5q-116 0 -203 -96z" />
    <glyph glyph-name="four.numrsuperior" horiz-adv-x="770" 
d="M737 1133h-102v-82q0 -51 10 -74q10 -18 64 -53v-23h-392v23q47 29 59.5 51t12.5 76v82h-369v36l549 607h66v-553h115zM178 1223h211v233z" />
    <glyph glyph-name="five.numrsuperior" horiz-adv-x="724" 
d="M330 1444q144 0 233.5 -76t89.5 -205q0 -66 -24 -117t-60 -80.5t-84.5 -48.5t-90.5 -25.5t-85 -6.5q-121 0 -280 51l67 311l23 -4q76 -282 188 -282q44 0 70 43.5t26 117.5q0 187 -176 187q-89 0 -159 -43l129 497h317q13 0 24 1t19.5 1.5t17.5 3t13.5 3t12 4.5t10 5
t10.5 7t9.5 7t11 9.5t11.5 10.5l23 -3l-92 -258h-357l-39 -131q64 21 142 21z" />
    <glyph glyph-name="six.numrsuperior" horiz-adv-x="798" 
d="M481 1407q106 0 185 -61q82 -61 82 -187q0 -132 -96.5 -203t-254.5 -71q-172 0 -259 89.5t-87 246.5q0 232 180 387q181 159 422 174l6 -31q-281 -111 -346 -397q77 53 168 53zM399 958q43 0 71 45.5t28 108.5q0 73 -35 124.5t-94 51.5q-42 0 -70 -28q-2 -12 -2 -56
q0 -246 102 -246z" />
    <glyph glyph-name="seven.numrsuperior" horiz-adv-x="667" 
d="M125 901q56 283 305 629h-242q-65 -4 -90.5 -16.5t-66.5 -57.5l-23 2l84 305h570v-37q-121 -124 -173 -241l-49 -111q-19 -43 -37 -125l-22 -110l-19 -125l-14 -113h-223z" />
    <glyph glyph-name="eight.numrsuperior" horiz-adv-x="765" 
d="M373 885q-142 0 -232 60.5t-90 164.5q0 149 168 213q-135 83 -135 221q0 110 83.5 173t219.5 63q128 0 210.5 -55t82.5 -134q0 -61 -62 -114q-12 -10 -53 -35l-37 -23q2 0 19 -10.5t22 -15.5l27 -19q9 -6 16.5 -12t11.5 -10.5t12.5 -14.5t14.5 -16q64 -64 64 -176
q0 -133 -101 -197q-100 -63 -241 -63zM477 1448q43 70 43 141q0 53 -35 87t-86 34q-41 0 -66.5 -24.5t-25.5 -63.5q0 -94 170 -174zM373 954q51 0 82.5 28.5t31.5 72.5q0 97 -225 235q-43 -76 -43 -157q0 -83 42.5 -131t111.5 -48z" />
    <glyph glyph-name="nine.numrsuperior" horiz-adv-x="755" 
d="M379 1780q174 0 261 -89.5t87 -246.5q0 -230 -182 -389q-183 -160 -422 -172l-4 30q281 112 346 398q-73 -54 -168 -54q-101 0 -186 60q-82 61 -82 188q0 131 96.5 203t253.5 72zM410 1374q40 0 69 29q2 12 2 57q0 244 -104 244q-42 0 -69 -46.5t-27 -111.5
q0 -70 35 -121t94 -51z" />
    <glyph glyph-name="zero.numrsuperior.zero" horiz-adv-x="811" 
d="M780 1333q0 -221 -116 -334q-114 -114 -258 -114q-146 0 -263 114q-114 114 -114 330q0 212 114 332q116 119 263 119t260 -119q114 -117 114 -328zM406 1700q-97 0 -97 -367v-22q180 195 185 202q-21 187 -88 187zM403 963q99 0 99 370v56q-164 -173 -189 -205
q15 -221 90 -221z" />
    <glyph glyph-name="zero.osf" horiz-adv-x="1105" 
d="M43 494q0 219 143 374q146 158 369 158q219 0 365 -158q143 -155 143 -374q0 -218 -143 -367q-143 -152 -365 -152q-225 0 -369 150q-143 149 -143 369zM553 78q160 0 276 110q117 114 117 306q0 193 -115 311q-114 117 -276 117q-167 0 -281 -117t-114 -311
q0 -192 114 -306q116 -110 279 -110z" />
    <glyph glyph-name="one.osf" horiz-adv-x="714" 
d="M621 260q0 -100 16 -143q14 -34 72 -80v-37h-609v37q60 44 74 80q16 43 16 143v367q0 91 -30 129q-24 36 -133 75v33l594 166v-770z" />
    <glyph glyph-name="two.osf" horiz-adv-x="1077" 
d="M762 315q45 0 88.5 9.5t62.5 17.5q9 4 56 35l49 35l33 -13l-43 -123l-97 -276h-876v66q317 248 416 350q104 107 104 202q0 78 -54.5 124t-138.5 46q-104 0 -237 -92l-68 25q246 305 512 305q145 0 254 -80q107 -76 107 -223q0 -75 -30 -136t-90 -110t-139 -87.5
t-188 -74.5h279z" />
    <glyph glyph-name="three.osf" horiz-adv-x="1021" 
d="M33 698q94 156 234.5 242t301.5 86q149 0 241.5 -70.5t92.5 -183.5q0 -120 -108 -209q-105 -86 -244 -133v-2q36 8 82 8q150 0 254 -94q106 -93 106 -264q0 -207 -155 -320q-153 -114 -387 -114q-218 0 -428 82l145 397l35 -6q36 -142 94 -242q64 -104 154 -104
q75 0 127.5 77.5t52.5 192.5q0 121 -59 196.5t-166 75.5q-74 0 -164 -37l-27 80q185 89 267.5 163t82.5 155q0 56 -33 93t-88 47t-119.5 0t-133.5 -48.5t-123 -97.5z" />
    <glyph glyph-name="four.osf" horiz-adv-x="1206" 
d="M1159 27h-166v-127q0 -81 19 -117t100 -82v-35h-612v35q81 46 100 82q18 35 18 117v127h-583v55l858 940h100v-854h185zM274 168h344v364z" />
    <glyph glyph-name="five.osf" horiz-adv-x="1064" 
d="M492 502q224 0 366 -115q141 -114 141 -319q0 -84 -25.5 -153t-69.5 -115t-97.5 -79.5t-116.5 -51.5t-119.5 -26t-111.5 -8q-182 0 -436 80l102 475l37 -4q120 -434 293 -434q73 0 118 69t45 185q0 148 -75 218.5t-209 70.5q-140 0 -252 -68l201 770h497q85 -2 146 23
q4 1 19.5 11.5t17.5 12.5q29 29 41 33l30 -4l-141 -397h-563l-58 -207q98 33 220 33z" />
    <glyph glyph-name="six.osf" horiz-adv-x="1234" 
d="M748 842q80 0 155 -22.5t141.5 -69t107 -129.5t40.5 -191q0 -225 -164 -342t-414 -117q-282 0 -426.5 147t-144.5 406q0 258 141 469q143 215 367 334q227 121 485 139l8 -51q-232 -90 -380 -261t-199 -404q124 92 283 92zM618 94q76 0 124.5 77.5t48.5 188.5
q0 113 -58 201q-59 90 -164 90q-73 0 -127 -51q-4 -86 -4 -102q0 -186 47 -295t133 -109z" />
    <glyph glyph-name="seven.osf" horiz-adv-x="1026" 
d="M195 -338q83 430 487 979h-383q-90 0 -141 -23q-38 -17 -115 -94l-33 4l129 469h895v-57q-103 -113 -166.5 -199.5t-111.5 -187.5q-54 -115 -58 -125q-29 -69 -45 -131q-8 -33 -21 -79l-14 -46q-21 -101 -26 -131l-21 -123l-16 -131l-16 -125h-344z" />
    <glyph glyph-name="eight.osf" horiz-adv-x="1155" 
d="M563 -29q-223 0 -373 99q-147 102 -147 274q0 123 78 214t196 132q-223 137 -223 365q0 179 137 280t355 101q206 0 340 -90q133 -89 133 -218q-8 -118 -105 -190q-59 -44 -108 -72q-10 -6 -19.5 -11t-14 -7.5t-5.5 -3.5q133 -83 190 -146q117 -126 117 -299
q0 -214 -162 -321t-389 -107zM725 887q33 48 56.5 118t23.5 123q0 85 -60 142t-141 57q-72 0 -113.5 -42t-41.5 -114q0 -83 63.5 -146t212.5 -138zM563 84q87 0 141 47.5t54 122.5q0 90 -83.5 177.5t-285.5 211.5q-80 -121 -80 -266q0 -137 70.5 -215t183.5 -78z" />
    <glyph glyph-name="nine.osf" horiz-adv-x="1177" 
d="M588 1028q270 0 408.5 -139t138.5 -379q0 -235 -136 -436q-131 -194 -348 -310q-205 -111 -461 -126l-8 47q219 85 359 243t190 375q-116 -84 -268 -84q-188 0 -305 105q-115 109 -115 282q0 207 154 316q153 106 391 106zM633 401q71 0 119 45q4 78 4 95
q0 171 -44 271.5t-124 100.5q-70 0 -116 -71t-46 -170q0 -106 53 -189q55 -82 154 -82z" />
    <glyph glyph-name="zero.tf" 
d="M610 -29q-210 0 -389 176q-89 90 -140.5 238t-51.5 328q0 179 51.5 327.5t140.5 241.5q85 90 186 137t205 47q210 0 389 -182q90 -90 142.5 -239t52.5 -330t-53.5 -330t-143.5 -238q-87 -86 -187.5 -131t-201.5 -45zM610 102q140 0 140 611q0 622 -140 622
q-133 0 -133 -618q0 -325 33 -470t100 -145z" />
    <glyph glyph-name="one.tf" 
d="M305 0v37q88 54 105 86q20 33 20 127v754q0 71 -31 110q-27 37 -118 100l-19 13v33l604 217v-1227q0 -91 19 -127q20 -33 106 -86v-37h-686z" />
    <glyph glyph-name="two.tf" 
d="M813 342q91 0 143 27q54 28 127 98l37 -4l-143 -463h-899v57q308 320 440 527q131 201 131 368q0 125 -56 196t-144 71q-136 0 -306 -170l-45 38q244 379 533 379q165 0 280 -106q119 -104 119 -295q0 -93 -35.5 -188t-89.5 -168q-48 -70 -133 -146q-89 -82 -139 -119
q-18 -14 -67 -48t-77 -54h324z" />
    <glyph glyph-name="three.tf" 
d="M113 1114q99 165 247 256.5t318 91.5q155 0 252.5 -75.5t97.5 -194.5q0 -86 -59.5 -165.5t-143.5 -127.5q-57 -35 -168 -78v-2q36 8 86 8q158 0 267 -100q112 -100 112 -285q0 -221 -164 -344q-163 -123 -407 -123q-223 0 -449 86l154 420l35 -8q34 -146 100 -256
q66 -106 160 -106q82 0 137 83t55 207q0 132 -62.5 213.5t-176.5 81.5q-79 0 -170 -39l-29 84q195 94 282 176t87 173q0 59 -34.5 98t-92 50.5t-125 1t-140 -52t-130.5 -106.5z" />
    <glyph glyph-name="four.tf" 
d="M1192 389h-174v-139q0 -93 20 -129q19 -31 107 -84v-37h-645v37q83 50 104 84q21 35 21 129v139h-615v60l901 1009h107v-921h194zM262 537h363v407z" />
    <glyph glyph-name="five.tf" 
d="M573 907q236 0 385 -125q150 -126 150 -344q0 -130 -56.5 -228t-152.5 -149q-176 -90 -362 -90q-196 0 -459 86l110 500l35 -6q126 -455 312 -455q75 0 124.5 76t49.5 201q0 160 -80.5 236.5t-222.5 76.5q-148 0 -263 -74l209 826h522q118 0 158 28q29 19 49 37l29 23
l35 -4l-152 -420h-590l-63 -232q107 37 233 37z" />
    <glyph glyph-name="six.tf" 
d="M739 844q180 0 312 -105q135 -102 135 -309q0 -225 -164 -342t-414 -117q-282 0 -427.5 148.5t-145.5 408.5q0 257 143 467q147 215 369 334q227 121 483 139l8 -51q-232 -90 -380 -261t-199 -404q118 92 280 92zM612 94q76 0 123 80q49 79 49 186q0 114 -59 203
q-59 90 -162 90q-73 0 -127 -51q-4 -86 -4 -106q0 -184 47 -293t133 -109z" />
    <glyph glyph-name="seven.tf" 
d="M270 0q86 467 512 1063h-403q-103 0 -152 -27q-44 -22 -116 -98l-35 4l135 496h942v-58q-111 -119 -215 -274q-40 -58 -78 -141l-61 -134q-28 -69 -47 -143q-10 -44 -35 -133q-16 -55 -29 -141l-22 -135l-19 -144l-16 -135h-361z" />
    <glyph glyph-name="eight.tf" 
d="M594 -29q-230 0 -381 101q-152 103 -152 278q0 139 86 228q88 88 197 129q-227 137 -227 370q0 185 141 287t360 102q216 0 349 -92t133 -221q11 -106 -135 -219q-19 -14 -72 -45l-47 -27q5 -2 31.5 -18.5t37.5 -26.5q2 -1 43 -33q46 -30 93 -86q106 -114 106 -290
q0 -143 -82 -247t-211 -149q-125 -41 -270 -41zM762 907q32 47 56 119t24 123q0 89 -60.5 148t-144.5 59q-72 0 -115 -43t-43 -115q0 -85 65.5 -150t217.5 -141zM596 86q90 0 143.5 47.5t53.5 126.5q0 89 -86 180t-293 217q-78 -138 -78 -270q0 -139 71.5 -220t188.5 -81z
" />
    <glyph glyph-name="nine.tf" 
d="M614 1466q281 0 426.5 -148.5t145.5 -408.5q0 -188 -82 -359.5t-225 -295.5q-137 -122 -316.5 -196.5t-369.5 -86.5l-11 49q232 90 380.5 261.5t199.5 404.5q-118 -92 -281 -92q-178 0 -313 102q-133 106 -133 312q0 225 164 342q165 116 415 116zM657 784q72 0 127 52
q4 86 4 106q0 184 -46 292.5t-132 108.5q-76 0 -125 -77.5t-49 -188.5q0 -115 58 -203q59 -90 163 -90z" />
    <glyph glyph-name="zero.tf.zero" 
d="M1196 715q0 -181 -53.5 -330t-143.5 -238q-87 -86 -187.5 -131t-201.5 -45q-210 0 -389 176q-89 90 -140.5 238t-51.5 328q0 179 51.5 327.5t140.5 241.5q85 90 186 137t205 47q210 0 389 -182q90 -90 142.5 -239t52.5 -330zM612 1335q-135 0 -135 -616v-19q6 6 34 36
t50 52q14 14 101 107q18 19 79 90q-27 350 -129 350zM610 102q140 0 140 617v57q-34 -40 -129 -135q-94 -97 -140 -149q21 -390 129 -390z" />
    <glyph glyph-name="zero.tosf" 
d="M612 -25q-222 0 -368 152t-146 367q0 218 146 376t368 158q219 0 365 -158q143 -155 143 -376q0 -218 -143 -367q-146 -152 -365 -152zM610 78q162 0 277 112q117 114 117 306t-117 309q-113 119 -277 119q-162 0 -278 -119q-115 -118 -115 -309t115 -306
q115 -112 278 -112z" />
    <glyph glyph-name="one.tosf" 
d="M874 260q0 -97 17 -143q14 -34 72 -80v-37h-609v37q60 44 74 80q16 43 16 143v369q0 91 -30 129q-28 38 -135 76v32l595 166v-772z" />
    <glyph glyph-name="two.tosf" 
d="M834 315q45 0 88.5 9.5t62.5 17.5q6 2 55 35l50 35l32 -13l-43 -123l-96 -276h-879v66q304 238 416 350q107 107 107 205q0 77 -54.5 123.5t-140.5 46.5q-101 0 -235 -93l-68 25q246 305 512 305q146 0 252 -80q106 -75 106 -223q0 -160 -137 -260q-117 -88 -307 -150
h279z" />
    <glyph glyph-name="three.tosf" 
d="M137 700q94 155 235.5 241.5t301.5 86.5q148 0 241 -71t93 -183q0 -121 -107 -209q-108 -89 -246 -135v-2q36 8 82 8q150 0 254 -94q107 -94 107 -264q0 -206 -156 -320q-153 -114 -387 -114q-218 0 -428 82l145 397l35 -6q36 -142 94 -242q64 -104 154 -104
q75 0 127.5 77.5t52.5 192.5q0 121 -59 196.5t-166 75.5q-74 0 -164 -37l-27 80q182 87 266.5 163t84.5 157q0 69 -50.5 107t-127.5 38q-79 0 -166 -39.5t-152 -111.5z" />
    <glyph glyph-name="four.tosf" 
d="M1163 27h-164v-127q0 -76 17 -115q17 -33 102 -84v-35h-614v35q86 52 100 84q19 36 19 115v127h-584v55l858 942h102v-856h183zM279 168h344v367z" />
    <glyph glyph-name="five.tosf" 
d="M573 502q227 0 369 -115q141 -114 141 -319q0 -84 -25.5 -153t-69.5 -115t-98 -79.5t-116.5 -51.5t-118.5 -26t-110 -8q-190 0 -441 80l103 475l37 -4q120 -434 295 -434q70 0 115.5 69.5t45.5 184.5q0 148 -75 218.5t-209 70.5q-138 0 -250 -68l199 772h497
q85 -2 146 23q16 6 36 25q28 27 41 32l33 -4l-143 -397h-561l-60 -209q98 33 219 33z" />
    <glyph glyph-name="six.tosf" 
d="M739 844q180 0 312 -105q135 -102 135 -309q0 -225 -164 -342t-414 -117q-282 0 -427.5 148.5t-145.5 408.5q0 257 143 467q147 215 369 334q227 121 483 139l8 -51q-232 -90 -380 -261t-199 -404q118 92 280 92zM612 94q76 0 123 80q49 79 49 186q0 114 -59 203
q-59 90 -162 90q-73 0 -127 -51q-4 -86 -4 -106q0 -184 47 -293t133 -109z" />
    <glyph glyph-name="seven.tosf" 
d="M287 -338q80 425 487 981h-383q-92 0 -141 -22q-42 -19 -115 -95l-33 4l129 469h895v-57q-102 -114 -166 -201t-112 -186l-57 -125q-30 -72 -46 -133q-19 -73 -34 -125q-21 -95 -27 -131l-20 -123l-17 -131l-16 -125h-344z" />
    <glyph glyph-name="eight.tosf" 
d="M596 -29q-223 0 -373 99q-149 101 -149 274q0 131 84 221q83 86 192 127q-223 137 -223 365q0 177 139 280q137 101 352 101q207 0 340 -92q132 -88 132 -218q-4 -62 -29.5 -106t-75.5 -84q-40 -32 -108 -70l-37 -22q5 -2 31.5 -19.5t37.5 -27.5l43 -31q42 -29 90 -86
q103 -115 103 -283q0 -214 -162 -321t-387 -107zM758 889q32 44 56 115.5t24 121.5q0 85 -60 144t-141 59q-71 0 -113.5 -42.5t-42.5 -112.5q0 -83 64 -146.5t213 -138.5zM596 84q87 0 141 48t54 124q0 88 -85 177t-286 212q-78 -128 -78 -268q0 -135 70 -214t184 -79z" />
    <glyph glyph-name="nine.tosf" 
d="M610 1030q269 0 408 -139.5t139 -380.5q0 -236 -135 -436q-134 -198 -350 -310q-208 -111 -461 -126l-6 47q219 84 359 243t190 375q-116 -84 -267 -84q-166 0 -297 96q-127 95 -127 289q0 210 156 318t391 108zM655 401q65 0 119 48q4 70 4 92q0 173 -44 273.5
t-124 100.5q-71 0 -117.5 -72.5t-46.5 -174.5t56 -185q55 -82 153 -82z" />
    <glyph glyph-name="zero.subs" horiz-adv-x="811" 
d="M406 -303q-145 0 -263 115q-114 114 -114 329q0 212 114 332q116 119 263 119t260 -119q114 -117 114 -328q0 -220 -116 -333q-115 -115 -258 -115zM403 -225q99 0 99 366q0 371 -99 371q-94 0 -94 -367q0 -370 94 -370z" />
    <glyph glyph-name="one.subs" horiz-adv-x="499" 
d="M63 -287v23q48 30 61 52t13 75v446q0 54 -41 90q-13 13 -59 45v21l373 133v-735q2 -55 8 -69q10 -20 65 -58v-23h-420z" />
    <glyph glyph-name="two.subs" horiz-adv-x="643" 
d="M446 -74q54 0 85 15t75 59l23 -4l-88 -283h-541v35q183 188 262 313q78 122 78 220q0 73 -34 115t-85 42q-79 0 -182 -100l-29 24q146 230 324 230q102 0 171.5 -65.5t69.5 -178.5q0 -147 -116 -260q-52 -52 -93.5 -84t-111.5 -78h192z" />
    <glyph glyph-name="three.subs" horiz-adv-x="677" 
d="M37 377q57 100 148 156.5t194 56.5q94 0 153.5 -45t59.5 -117q0 -73 -64.5 -132t-158.5 -91v-2q27 6 55 6q97 0 161 -62.5t64 -171.5q0 -127 -96 -201.5t-248 -74.5q-140 0 -274 51l96 260l20 -4q56 -225 156 -225q47 0 79 50t32 124q0 76 -38.5 125t-105.5 49
q-42 0 -100 -23l-18 52q115 55 168 104t53 100q0 45 -32 69t-79 24q-115 0 -203 -97z" />
    <glyph glyph-name="four.subs" horiz-adv-x="770" 
d="M737 -55h-102v-82q0 -51 10 -74q10 -18 64 -53v-23h-392v23q47 29 59.5 51t12.5 76v82h-369v35l549 608h66v-553h115zM178 35h211v233z" />
    <glyph glyph-name="five.subs" horiz-adv-x="704" 
d="M330 256q144 0 233.5 -76t89.5 -205q0 -66 -24 -117t-60 -80.5t-84.5 -48.5t-90.5 -25.5t-85 -6.5q-121 0 -280 51l67 311l23 -4q77 -282 188 -282q44 0 70 43.5t26 117.5q0 187 -176 187q-89 0 -159 -43l129 497h317q13 0 24 1t19.5 1.5t17.5 3t13.5 3t12 4.5t10 5
t10.5 7t9.5 7t11 9.5t11.5 10.5l23 -2l-92 -258h-357l-39 -131q61 20 142 20z" />
    <glyph glyph-name="six.subs" horiz-adv-x="798" 
d="M481 219q106 0 185 -61q82 -61 82 -187q0 -132 -96.5 -203t-254.5 -71q-172 0 -259 89.5t-87 246.5q0 232 180 387q182 159 422 174l6 -31q-281 -111 -346 -397q77 53 168 53zM399 -229q43 0 71 46t28 111q0 70 -35 121t-94 51q-42 0 -70 -28q-2 -12 -2 -33
q0 -268 102 -268z" />
    <glyph glyph-name="seven.subs" horiz-adv-x="667" 
d="M125 -287q56 283 305 629h-242q-53 0 -83.5 -14.5t-73.5 -59.5l-23 2l84 305h570v-36q-120 -123 -173 -242l-49 -111q-19 -43 -37 -125l-22 -110l-19 -125l-14 -113h-223z" />
    <glyph glyph-name="eight.subs" horiz-adv-x="722" 
d="M352 -303q-142 0 -232.5 60t-90.5 161q0 152 170 217q-138 83 -138 223q0 107 84.5 170.5t221.5 63.5q128 0 210 -54.5t82 -134.5q0 -62 -61 -114q-12 -10 -53 -35l-37 -23q2 0 19 -10.5t22 -15.5l26 -19q18 -11 56 -53q63 -63 63 -176q0 -134 -100 -197t-242 -63z
M455 260q45 68 45 146q0 49 -36.5 82.5t-86.5 33.5q-41 0 -65.5 -23.5t-24.5 -64.5q0 -95 168 -174zM354 -233q50 0 81.5 28t31.5 72q0 101 -227 235q-41 -84 -41 -157q0 -85 42 -131.5t113 -46.5z" />
    <glyph glyph-name="nine.subs" horiz-adv-x="755" 
d="M379 592q174 0 261 -89.5t87 -246.5q0 -230 -182 -389q-183 -160 -422 -172l-4 31q281 112 346 397q-71 -53 -168 -53q-103 0 -186 59q-82 61 -82 188q0 131 96.5 203t253.5 72zM410 186q40 0 69 29q2 10 2 47q0 254 -104 254q-42 0 -69 -46.5t-27 -111.5q0 -70 35 -121
t94 -51z" />
    <glyph glyph-name="zero.dnom" horiz-adv-x="892" 
d="M446 -16q-145 0 -262 114q-114 114 -114 330q0 212 114 332q116 119 262 119q148 0 261 -119q114 -117 114 -328q0 -221 -116 -334q-114 -114 -259 -114zM444 61q99 0 99 367q0 371 -99 371q-94 0 -94 -367q0 -371 94 -371z" />
    <glyph glyph-name="one.dnom" horiz-adv-x="581" 
d="M104 0v23q48 30 61 52t13 75v446q0 54 -41 90l-59 45v21l373 133v-735q2 -55 8 -69q10 -20 65 -58v-23h-420z" />
    <glyph glyph-name="two.dnom" horiz-adv-x="724" 
d="M487 213q53 0 85 15.5t75 58.5l23 -4l-88 -283h-541v35q183 188 262 313q78 122 78 219q0 73 -34 115.5t-85 42.5q-79 0 -182 -100l-29 24q146 230 324 230q102 0 171.5 -65.5t69.5 -178.5q0 -147 -116 -260q-52 -52 -93.5 -84t-111.5 -78h192z" />
    <glyph glyph-name="three.dnom" horiz-adv-x="759" 
d="M78 664q57 100 148 156.5t194 56.5q94 0 153.5 -45t59.5 -117q0 -73 -64.5 -132t-158.5 -91v-3q31 7 55 7q97 0 161 -62.5t64 -171.5q0 -127 -96 -201.5t-248 -74.5q-140 0 -274 51l96 260l20 -4q56 -225 156 -225q47 0 79 50t32 124q0 76 -38.5 125t-105.5 49
q-43 0 -100 -23l-18 51q118 56 169.5 103.5t51.5 101.5q0 45 -32 68.5t-79 23.5q-116 0 -203 -96z" />
    <glyph glyph-name="four.dnom" horiz-adv-x="851" 
d="M778 231h-102v-81q0 -51 10 -74q10 -18 64 -53v-23h-392v23q48 29 60 50.5t12 76.5v81h-369v37l549 606h66v-552h115zM219 322h211v233z" />
    <glyph glyph-name="five.dnom" horiz-adv-x="786" 
d="M371 543q144 0 233.5 -76t89.5 -205q0 -66 -24 -117t-60 -80.5t-84.5 -48.5t-90.5 -25.5t-85 -6.5q-121 0 -280 51l67 311l23 -4q77 -283 188 -283q44 0 70 44t26 118q0 187 -176 187q-89 0 -159 -43l129 497h317q43 1 67.5 7.5t34 13t37.5 30.5l23 -2l-92 -258h-357
l-39 -131q64 21 142 21z" />
    <glyph glyph-name="six.dnom" horiz-adv-x="843" 
d="M506 506q103 0 186 -62q84 -60 84 -186q0 -133 -97.5 -204.5t-256.5 -71.5q-175 0 -263.5 90t-88.5 245q0 235 182 394q183 160 430 172l4 -33q-279 -108 -344 -395q68 51 164 51zM424 59q41 0 67.5 46t26.5 110q0 67 -35 118.5t-92 51.5q-35 0 -63 -25q-2 -12 -2 -59
q0 -242 98 -242z" />
    <glyph glyph-name="seven.dnom" horiz-adv-x="749" 
d="M166 0q56 283 305 629h-242q-54 0 -83.5 -14.5t-73.5 -59.5l-23 2l84 305h569v-37q-119 -122 -172 -241l-49 -111q-19 -43 -37 -125l-22 -110l-19 -125l-14 -113h-223z" />
    <glyph glyph-name="eight.dnom" horiz-adv-x="804" 
d="M393 -16q-142 0 -232.5 60t-90.5 161q0 152 170 217q-138 82 -138 223q0 107 84.5 170.5t221.5 63.5q128 0 210 -54.5t82 -134.5q0 -32 -18.5 -63.5t-42.5 -51.5q-8 -6 -53 -34l-37 -23q2 0 19 -10.5t22 -15.5l26 -19q18 -11 56 -53q63 -63 63 -176q0 -134 -100 -197
t-242 -63zM496 547q45 68 45 145q0 49 -36.5 83t-86.5 34q-41 0 -65.5 -23.5t-24.5 -64.5q0 -95 168 -174zM395 53q50 0 81.5 28.5t31.5 72.5q0 101 -227 235q-41 -84 -41 -158q0 -85 42 -131.5t113 -46.5z" />
    <glyph glyph-name="nine.dnom" horiz-adv-x="837" 
d="M420 879q174 0 261 -89.5t87 -246.5q0 -230 -182 -389q-183 -160 -422 -172l-4 30q281 112 346 398q-73 -54 -168 -54q-101 0 -186 60q-82 61 -82 188q0 131 96.5 203t253.5 72zM451 473q40 0 69 29q2 10 2 47q0 254 -104 254q-42 0 -69 -46.5t-27 -111.5q0 -70 35 -121
t94 -51z" />
    <glyph glyph-name="zero.numr" horiz-adv-x="811" 
d="M406 598q-145 0 -263 115q-114 114 -114 329q0 212 114 332q116 119 263 119t260 -119q114 -117 114 -327q0 -221 -116 -334q-115 -115 -258 -115zM403 676q99 0 99 366q0 371 -99 371q-94 0 -94 -366q0 -371 94 -371z" />
    <glyph glyph-name="one.numr" horiz-adv-x="499" 
d="M63 614v23q48 30 61 52t13 75v446q0 28 -13 53.5t-26 34.5q-4 4 -61 48v20l373 133v-735q2 -55 8 -69q10 -20 65 -58v-23h-420z" />
    <glyph glyph-name="two.numr" horiz-adv-x="643" 
d="M446 827q53 0 85 15.5t75 58.5l23 -4l-88 -283h-541v35q181 187 262 314q78 122 78 219q0 73 -34 115t-85 42q-79 0 -182 -100l-29 25q143 229 324 229q102 0 171.5 -65.5t69.5 -178.5q0 -147 -116 -260q-52 -52 -93.5 -84t-111.5 -78h192z" />
    <glyph glyph-name="three.numr" horiz-adv-x="677" 
d="M37 1278q57 100 148 156.5t194 56.5q94 0 153.5 -45t59.5 -117q0 -73 -64.5 -132t-158.5 -91v-2q27 6 55 6q97 0 161 -62t64 -171q0 -127 -96 -202t-248 -75q-140 0 -274 51l96 260l20 -4q56 -225 156 -225q47 0 79 50t32 124q0 76 -38.5 125t-105.5 49q-45 0 -100 -22
l-18 51q118 56 169.5 103.5t51.5 101.5q0 45 -32 68.5t-79 23.5q-116 0 -203 -96z" />
    <glyph glyph-name="four.numr" horiz-adv-x="770" 
d="M737 846h-102v-82q0 -51 10 -74q10 -18 64 -53v-23h-392v23q47 29 59.5 51t12.5 76v82h-369v35l549 608h66v-553h115zM178 936h211v233z" />
    <glyph glyph-name="five.numr" horiz-adv-x="704" 
d="M330 1157q144 0 233.5 -75.5t89.5 -204.5q0 -66 -24 -117t-60 -80.5t-84.5 -49t-91 -26t-84.5 -6.5q-121 0 -280 51l67 312l23 -5q76 -282 188 -282q42 0 69 43t27 117q0 188 -176 188q-89 0 -159 -43l129 498h317q43 1 67.5 7.5t34 13t37.5 30.5l23 -2l-92 -258h-357
l-39 -131q61 20 142 20z" />
    <glyph glyph-name="six.numr" horiz-adv-x="798" 
d="M481 1120q106 0 185 -61q82 -61 82 -187q0 -132 -96.5 -203t-254.5 -71q-172 0 -259 89.5t-87 246.5q0 232 180 387q182 159 422 174l6 -31q-281 -111 -346 -397q77 53 168 53zM399 672q43 0 71 46t28 111q0 70 -35 121t-94 51q-42 0 -70 -28q-2 -12 -2 -33
q0 -268 102 -268z" />
    <glyph glyph-name="seven.numr" horiz-adv-x="667" 
d="M125 614q56 283 305 629h-242q-65 -4 -90.5 -16.5t-66.5 -57.5l-23 2l84 306h570v-37q-120 -123 -173 -242l-49 -111q-20 -44 -37 -124l-22 -111l-19 -125l-14 -113h-223z" />
    <glyph glyph-name="eight.numr" horiz-adv-x="722" 
d="M352 598q-142 0 -232.5 61t-90.5 164q0 74 48 129.5t122 83.5q-138 82 -138 224q0 107 84.5 170t221.5 63q128 0 210 -54.5t82 -133.5q0 -69 -81 -129q-10 -7 -27 -17.5t-29.5 -17.5t-13.5 -8q2 0 19 -11t22 -16l26 -19q18 -11 56 -53q63 -63 63 -176q0 -133 -100 -196
q-101 -64 -242 -64zM455 1161q45 68 45 146q0 49 -36.5 82.5t-86.5 33.5q-41 0 -65.5 -23.5t-24.5 -64.5q0 -95 168 -174zM354 668q50 0 81.5 28t31.5 72q0 102 -227 236q-41 -84 -41 -158q0 -85 42 -131.5t113 -46.5z" />
    <glyph glyph-name="nine.numr" horiz-adv-x="755" 
d="M379 1493q174 0 261 -89.5t87 -246.5q0 -230 -182 -389q-183 -160 -422 -172l-4 31q284 111 346 397q-77 -53 -168 -53q-103 0 -186 59q-82 61 -82 189q0 131 96.5 202.5t253.5 71.5zM410 1087q40 0 69 29q2 12 2 58q0 243 -104 243q-42 0 -69 -46t-27 -111
q0 -70 35 -121.5t94 -51.5z" />
    <glyph glyph-name="zero.subs.zero" horiz-adv-x="811" 
d="M780 145q0 -220 -116 -333q-115 -115 -258 -115q-145 0 -263 115q-114 114 -114 329q0 212 114 332q116 119 263 119t260 -119q114 -117 114 -328zM406 512q-97 0 -97 -367v-22q159 170 185 205q-21 184 -88 184zM403 -225q99 0 99 370v58l-88 -94q-43 -45 -101 -113
q15 -221 90 -221z" />
    <glyph glyph-name="zero.dnom.zero" horiz-adv-x="851" 
d="M803 432q0 -217 -117 -334q-114 -114 -260 -114t-260 114q-115 115 -115 330q0 211 115 332q113 119 260 119t260 -119q117 -117 117 -328zM426 799q-94 0 -94 -363q126 129 180 209q-21 154 -86 154zM424 61q100 0 100 385q0 54 -2 70l-98 -106q-15 -16 -90 -99
q15 -250 90 -250z" />
    <glyph glyph-name="zero.numr.zero" horiz-adv-x="851" 
d="M803 1047q0 -217 -117 -334q-115 -115 -260 -115t-260 115t-115 329q0 211 115 332q113 119 260 119t260 -119q117 -117 117 -327zM426 1413q-94 0 -94 -362q126 129 180 209q-21 153 -86 153zM424 676q100 0 100 385q0 53 -2 69l-98 -106q-31 -32 -90 -98
q15 -250 90 -250z" />
    <glyph glyph-name="colon.case" horiz-adv-x="565" 
d="M287 1165q85 0 145 -63q64 -61 64 -148q0 -86 -62.5 -147.5t-148.5 -61.5t-147.5 61.5t-61.5 147.5q0 87 62 149t149 62zM287 563q85 0 145 -63q64 -61 64 -148q0 -86 -62.5 -147.5t-148.5 -61.5t-147.5 61.5t-61.5 147.5q0 87 62 149t149 62z" />
    <glyph glyph-name="exclamdown.case" horiz-adv-x="538" 
d="M272 1485q86 0 147.5 -59t61.5 -144q0 -82 -61.5 -142.5t-147.5 -60.5q-83 0 -149 60q-62 62 -62 143q0 85 61.5 144t149.5 59zM211 1012h117q96 -590 188 -987v-25h-489v25q77 335 184 987z" />
    <glyph glyph-name="questiondown.case" horiz-adv-x="1054" 
d="M602 1479q88 0 149.5 -58.5t61.5 -142.5q0 -85 -61.5 -144t-149.5 -59q-86 0 -147.5 59t-61.5 144q0 82 61.5 141.5t147.5 59.5zM686 1008q3 -78 -9.5 -149t-41.5 -135t-50.5 -101.5t-58.5 -94.5q-94 -140 -94 -247q0 -84 41.5 -143.5t93.5 -59.5q36 0 68 31t55.5 83
t39.5 97.5t30.5 99t17.5 62.5l2 12l23 4l194 -371l-2 -2q-196 -118 -436 -127h-31q-142 0 -256.5 47t-169.5 144q-39 73 -39 167.5t41 168.5q26 48 71.5 96t72.5 69t94 72q73 55 130.5 127.5t80.5 149.5h133z" />
    <glyph glyph-name="slash.case" horiz-adv-x="720" 
d="M-6 -199l594 1821h112l-591 -1821h-115z" />
    <glyph glyph-name="backslash.case" horiz-adv-x="710" 
d="M731 -199h-113l-591 1821h112z" />
    <glyph glyph-name="parenleft.case" horiz-adv-x="831" 
d="M811 1651q-191 -193 -279 -396q-88 -198 -88 -557q0 -362 101 -585q51 -109 112 -191q56 -76 154 -174l-29 -45q-107 38 -195.5 89t-176.5 132q-92 81 -162 189q-71 109 -113.5 262t-42.5 323q0 214 62.5 393t171.5 298q106 114 215 186t241 121z" />
    <glyph glyph-name="parenright.case" horiz-adv-x="794" 
d="M53 1696q220 -82 373 -223q97 -85 164 -189q71 -109 113 -261.5t42 -324.5q0 -171 -42.5 -324t-114.5 -261q-70 -108 -162 -189q-155 -143 -373 -221l-26 45q121 121 196 236q74 114 119 288q49 180 49 426q0 376 -102 584q-52 113 -111 193q-61 84 -151 176z" />
    <glyph glyph-name="braceleft.case" horiz-adv-x="854" 
d="M569 219q-8 -60 -8 -139q0 -162 54.5 -237t177.5 -99l-5 -51q-75 0 -145.5 12t-145 44.5t-129 82.5t-89.5 134t-35 192q0 27 4 63l12 105q1 12 2 26.5t1.5 22.5t0.5 12q0 132 -61 205q-59 77 -119 86v33q59 9 119 84q61 76 61 209q0 4 -0.5 12t-1.5 22.5t-2 26.5l-12 102
q-4 36 -4 64q0 131 48.5 227.5t135.5 147.5q158 92 360 92l5 -53q-124 -21 -178 -94.5t-54 -237.5q0 -76 8 -144l9 -75q2 -10 2 -43q0 -169 -88 -263t-216 -94q128 0 216 -94q88 -91 88 -260q0 -33 -2 -43z" />
    <glyph glyph-name="braceright.case" horiz-adv-x="813" 
d="M557 1065q-1 -12 -2 -26.5t-1.5 -22.5t-0.5 -12q0 -132 59 -209q63 -75 123 -84v-33q-59 -9 -121 -86q-61 -73 -61 -205q0 -4 0.5 -12t1.5 -22.5t2 -26.5l12 -105q4 -36 4 -61q0 -131 -50 -229t-138 -146q-158 -92 -356 -92l-2 51q121 24 175 98.5t54 235.5q0 73 -8 141
l-8 78q-2 10 -2 43q0 169 88 260q88 94 215 94q-127 0 -215 94t-88 263q0 33 2 43l8 75q8 68 8 144q0 168 -57 237q-59 75 -172 95l2 51q75 2 147.5 -10t145.5 -45t127.5 -84t89 -135t34.5 -191q0 -28 -4 -64z" />
    <glyph glyph-name="bracketleft.case" horiz-adv-x="700" 
d="M637 1612h-174v-1825h174v-76h-471v1975h471v-74z" />
    <glyph glyph-name="bracketright.case" horiz-adv-x="684" 
d="M49 1612v74h473v-1975h-473v76h176v1825h-176z" />
    <glyph glyph-name="hyphen.case" horiz-adv-x="780" 
d="M719 745v-172h-651v172h651z" />
    <glyph glyph-name="endash.case" horiz-adv-x="987" 
d="M926 723v-150h-858v150h858z" />
    <glyph glyph-name="emdash.case" horiz-adv-x="1845" 
d="M1784 723v-148h-1716v148h1716z" />
    <glyph glyph-name="guillemotleft.case" horiz-adv-x="1275" 
d="M721 1190q-104 -259 -240 -471q149 -232 240 -473h-105q-304 284 -542 463v20q221 164 542 461h105zM1204 1190q-91 -241 -239 -471q152 -240 239 -473h-104q-301 281 -541 463v20q229 172 541 461h104z" />
    <glyph glyph-name="guillemotright.case" horiz-adv-x="1275" 
d="M76 1190h102q325 -298 543 -461v-20q-235 -178 -543 -463h-102q87 233 239 473q-148 230 -239 471zM559 1190h105q317 -293 540 -461v-20q-235 -178 -540 -463h-105q91 241 240 473q-136 212 -240 471z" />
    <glyph glyph-name="guilsinglleft.case" horiz-adv-x="790" 
d="M721 1190q-104 -259 -240 -471q149 -232 240 -473h-105q-305 285 -540 463v20q223 168 540 461h105z" />
    <glyph glyph-name="guilsinglright.case" horiz-adv-x="790" 
d="M76 1190h102q325 -298 543 -461v-20q-235 -178 -543 -463h-102q93 245 239 473q-146 221 -239 471z" />
    <glyph glyph-name="cent.osf" horiz-adv-x="1040" 
d="M999 315q-36 -124 -129 -217q-90 -93 -239 -114v-172h-86v168q-210 9 -357 141q-145 133 -145 389q0 253 141 379q143 128 361 137v133h86v-135q127 -13 217 -78t137 -158l-250 -188l-24 10q-35 172 -80 246v-582q44 -20 112 -20q137 0 213 98zM446 659q0 -222 99 -327
v588q-46 -7 -72.5 -78.5t-26.5 -182.5z" />
    <glyph glyph-name="dollar.osf" horiz-adv-x="1212" 
d="M1145 444q0 -98 -28.5 -178t-75.5 -131.5t-111 -88t-129.5 -53t-136.5 -20.5v-157h-107v157q-208 12 -446 101l-29 514h37q115 -176 217 -291q120 -135 221 -174v362q-10 6 -35.5 21.5t-40.5 23.5l-45 25l-53 29q-10 10 -49 30q-23 15 -36.5 25t-33.5 27t-31 26
q-19 18 -31.5 32.5t-27.5 36.5t-24 34q-28 46 -33 63q-25 102 -25 152q0 188 131 301q132 114 334 123v145h107v-145q151 -12 360 -62l43 -504h-37q-191 342 -366 418v-311l55 -31q156 -88 186 -108q65 -41 125 -99q64 -58 89.5 -125.5t25.5 -167.5zM461 1192q0 -73 96 -148
v259q-43 -7 -69.5 -40t-26.5 -71zM664 115q94 21 94 114q0 95 -94 177v-291z" />
    <glyph glyph-name="Euro.osf" horiz-adv-x="1394" 
d="M872 106q61 0 175 138t208 293h35l-33 -510q-77 -20 -204 -37q-139 -19 -230 -19q-262 0 -425.5 153.5t-192.5 448.5h-162v107h156v18q0 64 6 123h-162v107h178q52 246 221 377q168 131 408 131q135 0 410 -54l32 -493h-35q-116 171 -219 291q-109 127 -159 127
q-15 2 -31.5 -9.5t-34 -41t-33 -73t-28.5 -109.5t-21 -146h424l-14 -107h-418q-2 -23 -2 -114v-27h371l-15 -107h-354q5 -95 16.5 -174t26.5 -133.5t32.5 -92t36 -53.5t37.5 -14z" />
    <glyph glyph-name="sterling.osf" horiz-adv-x="1196" 
d="M1073 530h33l-55 -530h-998v106q215 138 215 422q0 97 -45 177h-180v137h117q-15 59 -15 116q0 202 140 342q138 138 413 138q165 0 357 -39l45 -449h-37q-86 140 -199 250q-107 107 -202 107q-53 0 -94.5 -29.5t-41.5 -75.5q0 -20 27.5 -71.5t59 -129.5t38.5 -159h262
v-137h-260q-27 -264 -278 -416h440q73 0 141 71t117 170z" />
    <glyph glyph-name="yen.osf" horiz-adv-x="1419" 
d="M1014 1409h407v-35q-115 -104 -223 -284l-190 -322h215v-129h-273v-94h275v-129h-275v-146q0 -106 21 -147q20 -36 104 -86v-37h-739v37q81 49 102 86q23 44 23 147v146h-273v129h273v94h-275v129h211l-264 428q-79 124 -133 178v35h731v-35q-104 -67 -104 -125
q0 -38 65 -141l203 -313l166 295q39 62 39 114q0 75 -86 170v35z" />
    <glyph glyph-name="cent.tf" 
d="M1087 315q-36 -124 -126 -217t-242 -114v-172h-84v168q-76 3 -146.5 23t-136 61.5t-114.5 101t-78 148t-29 196.5q0 253 143 381t361 137v133h84v-135q126 -11 217 -76t137 -159l-250 -191l-22 10q-35 167 -82 248v-584q53 -20 117 -20q135 0 211 98zM537 659
q0 -223 98 -327v590q-46 -6 -72 -78t-26 -185z" />
    <glyph glyph-name="dollar.tf" 
d="M1149 451q0 -99 -29 -179.5t-76 -133t-111 -89.5t-129 -54.5t-136 -21.5v-161h-107v161q-194 11 -446 103l-29 518h37q251 -399 438 -471v375q-40 28 -78 49l-53 28l-63 37q-89 59 -127 95q-77 82 -103 137q-41 87 -41 190q0 192 131 305q134 116 334 125v148h107v-148
q177 -13 360 -63l43 -508h-37q-194 347 -366 422v-326l53 -31l149 -86q64 -37 113 -77q67 -49 94 -93q72 -105 72 -251zM465 1217q0 -76 96 -154v268q-43 -10 -69.5 -43t-26.5 -71zM668 115q94 21 94 121q0 97 -94 182v-303z" />
    <glyph glyph-name="Euro.tf" 
d="M782 106q53 0 162 136q121 151 207 299h35l-31 -512q-76 -20 -199 -37q-132 -21 -223 -21q-211 0 -375 123q-89 67 -149 194t-78 298h-156v108h150v19q0 65 6 127h-156v108h172q50 252 215 383q170 135 396 135q143 0 399 -55l33 -498h-37q-93 144 -209 285
q-113 137 -158 137q-52 0 -94 -157q-25 -97 -37 -230h404l-12 -108h-398q-2 -25 -2 -119v-27h350l-14 -108h-334q10 -227 46 -353.5t87 -126.5z" />
    <glyph glyph-name="sterling.tf" 
d="M1085 535h35l-55 -535h-997v106q215 150 215 435q0 97 -45 180h-183v139h121q-16 59 -16 123q0 207 139 346t412 139q156 0 358 -41l45 -450h-39q-85 141 -198 254q-106 106 -203 106q-52 0 -92.5 -31t-40.5 -79q0 -33 55 -140q58 -107 70 -227h260v-139h-258
q-21 -264 -281 -432h440q69 0 136.5 69t121.5 177z" />
    <glyph glyph-name="yen.tf" 
d="M889 1438h375v-35q-114 -111 -203 -287l-172 -336h203v-129h-244v-98h246v-129h-246v-154q0 -108 20 -147q18 -33 107 -86v-37h-739v37q84 50 104 86q22 42 22 147v154h-243v129h243v98h-245v129h190l-233 443q-20 36 -64 104l-49 76v35h688v-35q-88 -64 -88 -121
q0 -34 62 -149l168 -308l139 291q33 62 33 121q0 77 -74 166v35z" />
    <glyph glyph-name="cent.tosf" 
d="M1087 315q-36 -124 -126 -217t-242 -114v-172h-84v168q-76 3 -146.5 23t-136 61.5t-114.5 101t-78 148t-29 196.5q0 253 143 381t361 137v133h84v-135q126 -11 217 -76t137 -159l-250 -191l-22 10q-35 167 -82 248v-584q53 -20 117 -20q135 0 211 98zM537 659
q0 -223 98 -327v590q-46 -6 -72 -78t-26 -185z" />
    <glyph glyph-name="dollar.tosf" 
d="M1149 451q0 -99 -29 -179.5t-76 -133t-111 -89.5t-129 -54.5t-136 -21.5v-161h-107v161q-194 11 -446 103l-29 518h37q251 -399 438 -471v377q-55 35 -80 49l-47 26l-55 31l-55 35q-18 13 -34 25.5t-22 17.5t-27 25.5t-26 25.5q-9 9 -16.5 17t-15 18t-11.5 16t-11 19
t-9.5 17t-10.5 20.5t-10 19.5q-35 71 -35 172q0 194 131 307q134 116 334 125v148h107v-148q177 -13 360 -63l43 -508h-37q-194 347 -366 422v-326l51 -30q212 -120 272 -168q149 -122 158 -312v-30zM465 1219q0 -79 96 -154v268q-43 -10 -69.5 -43t-26.5 -71zM668 115
q94 21 94 121q0 96 -94 184v-305z" />
    <glyph glyph-name="Euro.tosf" 
d="M778 106q44 0 160 146q108 139 192 285h35l-30 -510q-75 -19 -191 -35q-129 -21 -217 -21q-221 0 -387 146q-160 145 -190 456h-148v107h141v18q0 57 7 125h-148v107h162q50 250 211 377q162 131 379 131q124 0 383 -54l28 -493h-32q-89 141 -205 283q-108 135 -146 135
q-9 0 -20 -9t-24.5 -35t-26 -66t-23 -110t-16.5 -159h375l-15 -107h-366q-2 -25 -2 -116v-27h325l-14 -107h-309q3 -99 11.5 -180t19.5 -134.5t24.5 -89.5t28 -50.5t28.5 -12.5z" />
    <glyph glyph-name="sterling.tosf" 
d="M1085 530h35l-55 -530h-997v106q215 141 215 422q0 96 -45 179h-183v137h119q-14 55 -14 117q0 200 139 339q140 140 412 140q166 0 358 -39l45 -449h-39q-88 143 -198 250q-107 107 -203 107q-52 0 -92.5 -30t-40.5 -75q0 -20 27.5 -71.5t59 -129.5t38.5 -159h260v-137
h-258q-27 -263 -281 -418h440q74 0 142 71q66 69 116 170z" />
    <glyph glyph-name="yen.tosf" 
d="M1264 1376q-119 -125 -203 -286l-168 -322h199v-129h-244v-94h246v-129h-246v-146q0 -108 20 -147q18 -33 107 -86v-37h-739v37q84 50 104 86q22 42 22 147v146h-243v129h243v94h-245v129h188l-231 430q-16 31 -64 102l-49 76v35h688v-35q-88 -64 -88 -119q0 -40 62 -149
l168 -299l139 283q35 72 35 118q0 78 -76 166v35h375v-35z" />
    <glyph glyph-name="at.case" horiz-adv-x="1605" 
d="M1380 231l174 -182q-304 -141 -626 -141q-371 0 -625 219q-252 217 -252 586q0 349 232 581t569 232q282 0 459 -162q179 -157 176 -414l-12 -686h-41q-113 113 -211 113q-33 3 -77.5 -22t-83.5 -56t-98 -56.5t-118 -23.5q-168 0 -273 135q-104 137 -104 357
q0 225 111 366q111 144 305 144q78 0 151.5 -23.5t110.5 -56.5v10q0 79 -96 166q-94 88 -271 88q-64 0 -115 -11.5t-114 -47.5q-68 -39 -115 -101q-50 -65 -82 -185.5t-32 -271.5q0 -115 16 -218t57.5 -205t105.5 -175t167.5 -118.5t236.5 -46.5q157 0 279 58t196 148z
M1128 498l17 387q-28 91 -72.5 150t-95.5 59q-111 0 -111 -312q0 -364 144 -364q65 0 118 80z" />
    <glyph glyph-name="bar.case" horiz-adv-x="407" 
d="M264 -199h-114v1821h114v-1821z" />
    <glyph glyph-name="NULL" horiz-adv-x="0" 
 />
    <glyph glyph-name="CR" horiz-adv-x="462" 
 />
    </font>
</defs>
</svg>
