<?xml version="1.0" encoding="UTF-8"?>
<svg overflow="visible" baseProfile="tiny" version="1.2" viewBox="0 0 670 560" height="560" width="670" xml:space="preserve" xmlns="http://www.w3.org/2000/svg">
	<path d="m213.17 539.46c-0.09-0.03-0.18-0.05-0.26-0.08-61.47-19.83-103.87-83.41-103.87-155.76v-207.24c0-72.29 42.32-135.81 103.7-155.71 0.06-0.01 0.12-0.04 0.17-0.05 37.02-11.94 75.16-17.91 113.3-17.91 38.03 0 76.06 5.94 113 17.82 0.23 0.07 0.46 0.14 0.68 0.22 61.17 19.93 103.35 83.21 103.49 155.27 0.01 0.23 0.01 0.46 0 0.69v206.91c0 72.24-42.25 135.72-103.56 155.66-0.23 0.08-0.47 0.16-0.7 0.22-36.91 11.86-74.91 17.79-112.91 17.79-38.05 0-76.09-5.94-113.04-17.83" fill="none" stroke="#812826" stroke-miterlimit="10" stroke-width="1.5"/>
	<g fill="#812826">
		<polyline points="25.01 448.53 25.17 426.71 25.75 353.1" stroke="#812826" stroke-miterlimit="10"/>
		<path d="m14.65 415.98s0 9.62 10.36 11.1c0 0 0.74-9.62-10.36-11.1z"/>
		<path d="m14.75 406.96s0 9.62 10.36 11.1c0 0 0.74-9.62-10.36-11.1z"/>
		<path d="m14.75 397.35s0 9.62 10.36 11.1c0-0.01 0.74-9.62-10.36-11.1z"/>
		<path d="m14.75 388.47s0 9.62 10.36 11.1c0 0 0.74-9.62-10.36-11.1z"/>
		<path d="m14.75 378.85s0 9.62 10.36 11.1c0 0 0.74-9.62-10.36-11.1z"/>
		<path d="m14.75 369.23s0 9.62 10.36 11.1c0 0 0.74-9.62-10.36-11.1z"/>
		<path d="m14.75 360.36s0 9.62 10.36 11.1c0-0.01 0.74-9.63-10.36-11.1z"/>
		<path d="m14.75 351.48s0 9.62 10.36 11.1c0-0.01 0.74-9.62-10.36-11.1z"/>
		<path d="m25.75 360.23s0-9.93 10.98-11.45c-0.01 0 0.78 9.92-10.98 11.45z"/>
		<path d="m25.85 369.54s0-9.93 10.98-11.45c0-0.01 0.79 9.92-10.98 11.45z"/>
		<path d="m25.85 379.47s0-9.93 10.98-11.45c0-0.01 0.79 9.92-10.98 11.45z"/>
		<path d="m25.85 388.63s0-9.93 10.98-11.45c0 0 0.79 9.92-10.98 11.45z"/>
		<path d="m25.85 398.56s0-9.93 10.98-11.45c0-0.01 0.79 9.92-10.98 11.45z"/>
		<path d="m25.85 408.49s0-9.93 10.98-11.45c0-0.01 0.79 9.92-10.98 11.45z"/>
		<path d="m25.85 417.65s0-9.93 10.98-11.45c0 0 0.79 9.92-10.98 11.45z"/>
		<path d="m25.85 426.81s0-9.93 10.98-11.45c0 0 0.79 9.93-10.98 11.45z"/>
		<path d="m25.3 341.97s-5.61 6.55 0.39 12.54c0-0.01 5.84-5.03-0.39-12.54z"/>
	</g>
	<g fill="#812826">
		<path d="m46.75 117.42s-1.77 8.67-5.93 7.81-1.83-10.21-1.83-10.21l1.88-2.51-1.88-3.94-2.97 3.19 1.37 3.08c-0.51 3.94-2.17 9.53-5.93 9.53s-5.08-8.84-3.71-9.98 2.62 0.91 2.62 0.91l2.79-2-2.68-2.68s-1.14 1.6-2.22 0.68c-1.08-0.91 0.46-3.08 0.46-3.08l-2.4-3.71-2.4 3.71s1.54 2.17 0.46 3.08-2.22-0.68-2.22-0.68l-2.68 2.68 2.79 2s1.25-2.05 2.62-0.91 0.06 9.98-3.71 9.98c-3.76 0-5.42-5.59-5.93-9.53l1.37-3.08-2.97-3.19-1.88 3.94 1.88 2.51s2.34 9.35-1.83 10.21c-4.16 0.86-5.93-7.81-5.93-7.81l1.2-2.85-3.71-2.85 4.73 18.76h36.4l4.73-18.76-3.71 2.85 1.22 2.85zm-34.87 11.79c-0.41 0-0.73-0.33-0.73-0.73 0-0.41 0.33-0.73 0.73-0.73 0.41 0 0.73 0.33 0.73 0.73s-0.33 0.73-0.73 0.73zm4.43 0c-0.49 0-0.89-0.4-0.89-0.89s0.4-0.89 0.89-0.89 0.89 0.4 0.89 0.89-0.4 0.89-0.89 0.89zm4.5 0c-0.58 0-1.05-0.47-1.05-1.05s0.47-1.05 1.05-1.05 1.05 0.47 1.05 1.05-0.47 1.05-1.05 1.05zm5.52 0-1.94-1.94 1.94-1.94 1.94 1.94-1.94 1.94zm5.52 0c-0.58 0-1.05-0.47-1.05-1.05s0.47-1.05 1.05-1.05 1.05 0.47 1.05 1.05-0.48 1.05-1.05 1.05zm4.49 0c-0.49 0-0.89-0.4-0.89-0.89s0.4-0.89 0.89-0.89 0.89 0.4 0.89 0.89-0.4 0.89-0.89 0.89zm4.44 0c-0.41 0-0.73-0.33-0.73-0.73 0-0.41 0.33-0.73 0.73-0.73 0.41 0 0.73 0.33 0.73 0.73s-0.33 0.73-0.73 0.73z"/>
		<path d="m44.77 131.3h-36.88c-0.38 0-0.69 0.31-0.69 0.69v0.6c0 0.38 0.31 0.69 0.69 0.69h36.88c0.38 0 0.69-0.31 0.69-0.69v-0.6c-0.01-0.38-0.32-0.69-0.69-0.69zm-35.79 1.25-0.47 0.27-0.47-0.27v-0.54l0.47-0.27 0.47 0.27v0.54zm1.98 0-0.47 0.27-0.47-0.27v-0.54l0.47-0.27 0.47 0.27v0.54zm1.98 0-0.47 0.27-0.47-0.27v-0.54l0.47-0.27 0.47 0.27v0.54zm1.98 0-0.47 0.27-0.47-0.27v-0.54l0.47-0.27 0.47 0.27v0.54zm1.98 0-0.47 0.27-0.47-0.27v-0.54l0.47-0.27 0.47 0.27v0.54zm1.98 0-0.47 0.27-0.47-0.27v-0.54l0.47-0.27 0.47 0.27v0.54zm1.97 0-0.47 0.27-0.47-0.27v-0.54l0.47-0.27 0.47 0.27v0.54zm1.98 0-0.47 0.27-0.47-0.27v-0.54l0.47-0.27 0.47 0.27v0.54zm1.98 0-0.47 0.27-0.47-0.27v-0.54l0.47-0.27 0.47 0.27v0.54zm1.98 0-0.47 0.27-0.47-0.27v-0.54l0.47-0.27 0.47 0.27v0.54zm1.98 0-0.47 0.27-0.47-0.27v-0.54l0.47-0.27 0.47 0.27v0.54zm1.98 0-0.47 0.27-0.47-0.27v-0.54l0.47-0.27 0.47 0.27v0.54zm1.98 0-0.47 0.27-0.47-0.27v-0.54l0.47-0.27 0.47 0.27v0.54zm1.98 0-0.47 0.27-0.47-0.27v-0.54l0.47-0.27 0.47 0.27v0.54zm1.98 0-0.47 0.27-0.47-0.27v-0.54l0.47-0.27 0.47 0.27v0.54zm1.98 0-0.47 0.27-0.47-0.27v-0.54l0.47-0.27 0.47 0.27v0.54zm1.98 0-0.47 0.27-0.47-0.27v-0.54l0.47-0.27 0.47 0.27v0.54zm1.98 0-0.47 0.27-0.47-0.27v-0.54l0.47-0.27 0.47 0.27v0.54zm1.98 0-0.47 0.27-0.47-0.27v-0.54l0.47-0.27 0.47 0.27v0.54z"/>
		<path d="m44.77 139.14h-36.88c-0.38 0-0.69 0.31-0.69 0.69v0.6c0 0.38 0.31 0.69 0.69 0.69h36.88c0.38 0 0.69-0.31 0.69-0.69v-0.6c-0.01-0.38-0.32-0.69-0.69-0.69zm-35.79 1.26-0.47 0.27-0.47-0.27v-0.54l0.47-0.27 0.47 0.27v0.54zm1.98 0-0.47 0.27-0.47-0.27v-0.54l0.47-0.27 0.47 0.27v0.54zm1.98 0-0.47 0.27-0.47-0.27v-0.54l0.47-0.27 0.47 0.27v0.54zm1.98 0-0.47 0.27-0.47-0.27v-0.54l0.47-0.27 0.47 0.27v0.54zm1.98 0-0.47 0.27-0.47-0.27v-0.54l0.47-0.27 0.47 0.27v0.54zm1.98 0-0.47 0.27-0.47-0.27v-0.54l0.47-0.27 0.47 0.27v0.54zm1.97 0-0.47 0.27-0.47-0.27v-0.54l0.47-0.27 0.47 0.27v0.54zm1.98 0-0.47 0.27-0.47-0.27v-0.54l0.47-0.27 0.47 0.27v0.54zm1.98 0-0.47 0.27-0.47-0.27v-0.54l0.47-0.27 0.47 0.27v0.54zm1.98 0-0.47 0.27-0.47-0.27v-0.54l0.47-0.27 0.47 0.27v0.54zm1.98 0-0.47 0.27-0.47-0.27v-0.54l0.47-0.27 0.47 0.27v0.54zm1.98 0-0.47 0.27-0.47-0.27v-0.54l0.47-0.27 0.47 0.27v0.54zm1.98 0-0.47 0.27-0.47-0.27v-0.54l0.47-0.27 0.47 0.27v0.54zm1.98 0-0.47 0.27-0.47-0.27v-0.54l0.47-0.27 0.47 0.27v0.54zm1.98 0-0.47 0.27-0.47-0.27v-0.54l0.47-0.27 0.47 0.27v0.54zm1.98 0-0.47 0.27-0.47-0.27v-0.54l0.47-0.27 0.47 0.27v0.54zm1.98 0-0.47 0.27-0.47-0.27v-0.54l0.47-0.27 0.47 0.27v0.54zm1.98 0-0.47 0.27-0.47-0.27v-0.54l0.47-0.27 0.47 0.27v0.54zm1.98 0-0.47 0.27-0.47-0.27v-0.54l0.47-0.27 0.47 0.27v0.54z"/>
		<path d="m8.42 134.19v4.18h35.82v-4.18h-35.82zm1.25 3.27c0 0.16-0.13 0.29-0.29 0.29s-0.29-0.13-0.29-0.29v-2.22c0-0.16 0.13-0.29 0.29-0.29s0.29 0.13 0.29 0.29v2.22zm1.54 0c0 0.16-0.13 0.29-0.29 0.29s-0.29-0.13-0.29-0.29v-2.22c0-0.16 0.13-0.29 0.29-0.29s0.29 0.13 0.29 0.29v2.22zm1.54 0c0 0.16-0.13 0.29-0.29 0.29s-0.29-0.13-0.29-0.29v-2.22c0-0.16 0.13-0.29 0.29-0.29s0.29 0.13 0.29 0.29v2.22zm1.54 0c0 0.16-0.13 0.29-0.29 0.29s-0.29-0.13-0.29-0.29v-2.22c0-0.16 0.13-0.29 0.29-0.29s0.29 0.13 0.29 0.29v2.22zm1.54 0c0 0.16-0.13 0.29-0.29 0.29s-0.29-0.13-0.29-0.29v-2.22c0-0.16 0.13-0.29 0.29-0.29s0.29 0.13 0.29 0.29v2.22zm1.54 0c0 0.16-0.13 0.29-0.29 0.29s-0.29-0.13-0.29-0.29v-2.22c0-0.16 0.13-0.29 0.29-0.29s0.29 0.13 0.29 0.29v2.22zm1.54 0c0 0.16-0.13 0.29-0.29 0.29s-0.29-0.13-0.29-0.29v-2.22c0-0.16 0.13-0.29 0.29-0.29s0.29 0.13 0.29 0.29v2.22zm1.54 0c0 0.16-0.13 0.29-0.29 0.29s-0.29-0.13-0.29-0.29v-2.22c0-0.16 0.13-0.29 0.29-0.29s0.29 0.13 0.29 0.29v2.22zm1.54 0c0 0.16-0.13 0.29-0.29 0.29s-0.29-0.13-0.29-0.29v-2.22c0-0.16 0.13-0.29 0.29-0.29s0.29 0.13 0.29 0.29v2.22zm1.54 0c0 0.16-0.13 0.29-0.29 0.29s-0.29-0.13-0.29-0.29v-2.22c0-0.16 0.13-0.29 0.29-0.29s0.29 0.13 0.29 0.29v2.22zm1.54 0c0 0.16-0.13 0.29-0.29 0.29s-0.29-0.13-0.29-0.29v-2.22c0-0.16 0.13-0.29 0.29-0.29s0.29 0.13 0.29 0.29v2.22zm1.54 0c0 0.16-0.13 0.29-0.29 0.29s-0.29-0.13-0.29-0.29v-2.22c0-0.16 0.13-0.29 0.29-0.29s0.29 0.13 0.29 0.29v2.22zm1.54 0c0 0.16-0.13 0.29-0.29 0.29s-0.29-0.13-0.29-0.29v-2.22c0-0.16 0.13-0.29 0.29-0.29s0.29 0.13 0.29 0.29v2.22zm1.54 0c0 0.16-0.13 0.29-0.29 0.29s-0.29-0.13-0.29-0.29v-2.22c0-0.16 0.13-0.29 0.29-0.29s0.29 0.13 0.29 0.29v2.22zm1.54 0c0 0.16-0.13 0.29-0.29 0.29s-0.29-0.13-0.29-0.29v-2.22c0-0.16 0.13-0.29 0.29-0.29s0.29 0.13 0.29 0.29v2.22zm1.54 0c0 0.16-0.13 0.29-0.29 0.29s-0.29-0.13-0.29-0.29v-2.22c0-0.16 0.13-0.29 0.29-0.29s0.29 0.13 0.29 0.29v2.22zm1.54 0c0 0.16-0.13 0.29-0.29 0.29s-0.29-0.13-0.29-0.29v-2.22c0-0.16 0.13-0.29 0.29-0.29s0.29 0.13 0.29 0.29v2.22zm1.54 0c0 0.16-0.13 0.29-0.29 0.29s-0.29-0.13-0.29-0.29v-2.22c0-0.16 0.13-0.29 0.29-0.29s0.29 0.13 0.29 0.29v2.22zm1.54 0c0 0.16-0.13 0.29-0.29 0.29s-0.29-0.13-0.29-0.29v-2.22c0-0.16 0.13-0.29 0.29-0.29s0.29 0.13 0.29 0.29v2.22zm1.54 0c0 0.16-0.13 0.29-0.29 0.29s-0.29-0.13-0.29-0.29v-2.22c0-0.16 0.13-0.29 0.29-0.29s0.29 0.13 0.29 0.29v2.22zm1.54 0c0 0.16-0.13 0.29-0.29 0.29s-0.29-0.13-0.29-0.29v-2.22c0-0.16 0.13-0.29 0.29-0.29s0.29 0.13 0.29 0.29v2.22zm1.54 0c0 0.16-0.13 0.29-0.29 0.29s-0.29-0.13-0.29-0.29v-2.22c0-0.16 0.13-0.29 0.29-0.29s0.29 0.13 0.29 0.29v2.22zm1.54 0c0 0.16-0.13 0.29-0.29 0.29s-0.29-0.13-0.29-0.29v-2.22c0-0.16 0.13-0.29 0.29-0.29s0.29 0.13 0.29 0.29v2.22z"/>
	</g>
	<g fill="#812826">
		<path d="m664.09 119.95s-1.77 8.67-5.93 7.81-1.83-10.21-1.83-10.21l1.88-2.51-1.88-3.94-2.97 3.19 1.37 3.08c-0.51 3.94-2.17 9.53-5.93 9.53s-5.08-8.84-3.71-9.98 2.62 0.91 2.62 0.91l2.79-2-2.68-2.68s-1.14 1.6-2.22 0.68c-1.08-0.91 0.46-3.08 0.46-3.08l-2.4-3.71-2.4 3.71s1.54 2.17 0.46 3.08-2.22-0.68-2.22-0.68l-2.68 2.68 2.79 2s1.25-2.05 2.62-0.91 0.06 9.98-3.71 9.98c-3.76 0-5.42-5.59-5.93-9.53l1.37-3.08-2.97-3.19-1.88 3.94 1.88 2.51s2.34 9.35-1.83 10.21c-4.16 0.86-5.93-7.81-5.93-7.81l1.2-2.85-3.71-2.85 4.73 18.76h36.4l4.73-18.76-3.71 2.85 1.22 2.85zm-34.87 11.78c-0.41 0-0.73-0.33-0.73-0.73 0-0.41 0.33-0.73 0.73-0.73 0.41 0 0.73 0.33 0.73 0.73 0.01 0.41-0.32 0.73-0.73 0.73zm4.44 0c-0.49 0-0.89-0.4-0.89-0.89s0.4-0.89 0.89-0.89 0.89 0.4 0.89 0.89c0 0.5-0.4 0.89-0.89 0.89zm4.49 0c-0.58 0-1.05-0.47-1.05-1.05s0.47-1.05 1.05-1.05 1.05 0.47 1.05 1.05-0.47 1.05-1.05 1.05zm5.52 0-1.94-1.94 1.94-1.94 1.94 1.94-1.94 1.94zm5.52 0c-0.58 0-1.05-0.47-1.05-1.05s0.47-1.05 1.05-1.05 1.05 0.47 1.05 1.05-0.47 1.05-1.05 1.05zm4.5 0c-0.49 0-0.89-0.4-0.89-0.89s0.4-0.89 0.89-0.89 0.89 0.4 0.89 0.89c0 0.5-0.4 0.89-0.89 0.89zm4.43 0c-0.41 0-0.73-0.33-0.73-0.73 0-0.41 0.33-0.73 0.73-0.73 0.41 0 0.73 0.33 0.73 0.73 0.01 0.41-0.32 0.73-0.73 0.73z"/>
		<path d="m662.11 133.83h-36.88c-0.38 0-0.69 0.31-0.69 0.69v0.6c0 0.38 0.31 0.69 0.69 0.69h36.88c0.38 0 0.69-0.31 0.69-0.69v-0.6c0-0.38-0.31-0.69-0.69-0.69zm-35.79 1.25-0.47 0.27-0.47-0.27v-0.54l0.47-0.27 0.47 0.27v0.54zm1.98 0-0.47 0.27-0.47-0.27v-0.54l0.47-0.27 0.47 0.27v0.54zm1.98 0-0.47 0.27-0.47-0.27v-0.54l0.47-0.27 0.47 0.27v0.54zm1.98 0-0.47 0.27-0.47-0.27v-0.54l0.47-0.27 0.47 0.27v0.54zm1.98 0-0.47 0.27-0.47-0.27v-0.54l0.47-0.27 0.47 0.27v0.54zm1.98 0-0.47 0.27-0.47-0.27v-0.54l0.47-0.27 0.47 0.27v0.54zm1.98 0-0.47 0.27-0.47-0.27v-0.54l0.47-0.27 0.47 0.27v0.54zm1.98 0-0.47 0.27-0.47-0.27v-0.54l0.47-0.27 0.47 0.27v0.54zm1.98 0-0.47 0.27-0.47-0.27v-0.54l0.47-0.27 0.47 0.27v0.54zm1.98 0-0.47 0.27-0.47-0.27v-0.54l0.47-0.27 0.47 0.27v0.54zm1.98 0-0.47 0.27-0.47-0.27v-0.54l0.47-0.27 0.47 0.27v0.54zm1.98 0-0.47 0.27-0.47-0.27v-0.54l0.47-0.27 0.47 0.27v0.54zm1.98 0-0.47 0.27-0.47-0.27v-0.54l0.47-0.27 0.47 0.27v0.54zm1.98 0-0.47 0.27-0.47-0.27v-0.54l0.47-0.27 0.47 0.27v0.54zm1.98 0-0.47 0.27-0.47-0.27v-0.54l0.47-0.27 0.47 0.27v0.54zm1.98 0-0.47 0.27-0.47-0.27v-0.54l0.47-0.27 0.47 0.27v0.54zm1.98 0-0.47 0.27-0.47-0.27v-0.54l0.47-0.27 0.47 0.27v0.54zm1.98 0-0.47 0.27-0.47-0.27v-0.54l0.47-0.27 0.47 0.27v0.54zm1.98 0-0.47 0.27-0.47-0.27v-0.54l0.47-0.27 0.47 0.27v0.54z"/>
		<path d="m662.11 141.66h-36.88c-0.38 0-0.69 0.31-0.69 0.69v0.6c0 0.38 0.31 0.69 0.69 0.69h36.88c0.38 0 0.69-0.31 0.69-0.69v-0.6c0-0.38-0.31-0.69-0.69-0.69zm-35.79 1.26-0.47 0.27-0.47-0.27v-0.54l0.47-0.27 0.47 0.27v0.54zm1.98 0-0.47 0.27-0.47-0.27v-0.54l0.47-0.27 0.47 0.27v0.54zm1.98 0-0.47 0.27-0.47-0.27v-0.54l0.47-0.27 0.47 0.27v0.54zm1.98 0-0.47 0.27-0.47-0.27v-0.54l0.47-0.27 0.47 0.27v0.54zm1.98 0-0.47 0.27-0.47-0.27v-0.54l0.47-0.27 0.47 0.27v0.54zm1.98 0-0.47 0.27-0.47-0.27v-0.54l0.47-0.27 0.47 0.27v0.54zm1.98 0-0.47 0.27-0.47-0.27v-0.54l0.47-0.27 0.47 0.27v0.54zm1.98 0-0.47 0.27-0.47-0.27v-0.54l0.47-0.27 0.47 0.27v0.54zm1.98 0-0.47 0.27-0.47-0.27v-0.54l0.47-0.27 0.47 0.27v0.54zm1.98 0-0.47 0.27-0.47-0.27v-0.54l0.47-0.27 0.47 0.27v0.54zm1.98 0-0.47 0.27-0.47-0.27v-0.54l0.47-0.27 0.47 0.27v0.54zm1.98 0-0.47 0.27-0.47-0.27v-0.54l0.47-0.27 0.47 0.27v0.54zm1.98 0-0.47 0.27-0.47-0.27v-0.54l0.47-0.27 0.47 0.27v0.54zm1.98 0-0.47 0.27-0.47-0.27v-0.54l0.47-0.27 0.47 0.27v0.54zm1.98 0-0.47 0.27-0.47-0.27v-0.54l0.47-0.27 0.47 0.27v0.54zm1.98 0-0.47 0.27-0.47-0.27v-0.54l0.47-0.27 0.47 0.27v0.54zm1.98 0-0.47 0.27-0.47-0.27v-0.54l0.47-0.27 0.47 0.27v0.54zm1.98 0-0.47 0.27-0.47-0.27v-0.54l0.47-0.27 0.47 0.27v0.54zm1.98 0-0.47 0.27-0.47-0.27v-0.54l0.47-0.27 0.47 0.27v0.54z"/>
		<path d="m625.76 136.72v4.18h35.82v-4.18h-35.82zm1.26 3.27c0 0.16-0.13 0.29-0.29 0.29s-0.29-0.13-0.29-0.29v-2.22c0-0.16 0.13-0.29 0.29-0.29s0.29 0.13 0.29 0.29v2.22zm1.54 0c0 0.16-0.13 0.29-0.29 0.29s-0.29-0.13-0.29-0.29v-2.22c0-0.16 0.13-0.29 0.29-0.29s0.29 0.13 0.29 0.29v2.22zm1.54 0c0 0.16-0.13 0.29-0.29 0.29s-0.29-0.13-0.29-0.29v-2.22c0-0.16 0.13-0.29 0.29-0.29s0.29 0.13 0.29 0.29v2.22zm1.54 0c0 0.16-0.13 0.29-0.29 0.29s-0.29-0.13-0.29-0.29v-2.22c0-0.16 0.13-0.29 0.29-0.29s0.29 0.13 0.29 0.29v2.22zm1.54 0c0 0.16-0.13 0.29-0.29 0.29s-0.29-0.13-0.29-0.29v-2.22c0-0.16 0.13-0.29 0.29-0.29s0.29 0.13 0.29 0.29v2.22zm1.54 0c0 0.16-0.13 0.29-0.29 0.29s-0.29-0.13-0.29-0.29v-2.22c0-0.16 0.13-0.29 0.29-0.29s0.29 0.13 0.29 0.29v2.22zm1.54 0c0 0.16-0.13 0.29-0.29 0.29s-0.29-0.13-0.29-0.29v-2.22c0-0.16 0.13-0.29 0.29-0.29s0.29 0.13 0.29 0.29v2.22zm1.54 0c0 0.16-0.13 0.29-0.29 0.29s-0.29-0.13-0.29-0.29v-2.22c0-0.16 0.13-0.29 0.29-0.29s0.29 0.13 0.29 0.29v2.22zm1.54 0c0 0.16-0.13 0.29-0.29 0.29s-0.29-0.13-0.29-0.29v-2.22c0-0.16 0.13-0.29 0.29-0.29s0.29 0.13 0.29 0.29v2.22zm1.54 0c0 0.16-0.13 0.29-0.29 0.29s-0.29-0.13-0.29-0.29v-2.22c0-0.16 0.13-0.29 0.29-0.29s0.29 0.13 0.29 0.29v2.22zm1.54 0c0 0.16-0.13 0.29-0.29 0.29s-0.29-0.13-0.29-0.29v-2.22c0-0.16 0.13-0.29 0.29-0.29s0.29 0.13 0.29 0.29v2.22zm1.54 0c0 0.16-0.13 0.29-0.29 0.29s-0.29-0.13-0.29-0.29v-2.22c0-0.16 0.13-0.29 0.29-0.29s0.29 0.13 0.29 0.29v2.22zm1.54 0c0 0.16-0.13 0.29-0.29 0.29s-0.29-0.13-0.29-0.29v-2.22c0-0.16 0.13-0.29 0.29-0.29s0.29 0.13 0.29 0.29v2.22zm1.54 0c0 0.16-0.13 0.29-0.29 0.29s-0.29-0.13-0.29-0.29v-2.22c0-0.16 0.13-0.29 0.29-0.29s0.29 0.13 0.29 0.29v2.22zm1.54 0c0 0.16-0.13 0.29-0.29 0.29s-0.29-0.13-0.29-0.29v-2.22c0-0.16 0.13-0.29 0.29-0.29s0.29 0.13 0.29 0.29v2.22zm1.54 0c0 0.16-0.13 0.29-0.29 0.29s-0.29-0.13-0.29-0.29v-2.22c0-0.16 0.13-0.29 0.29-0.29s0.29 0.13 0.29 0.29v2.22zm1.54 0c0 0.16-0.13 0.29-0.29 0.29s-0.29-0.13-0.29-0.29v-2.22c0-0.16 0.13-0.29 0.29-0.29s0.29 0.13 0.29 0.29v2.22zm1.54 0c0 0.16-0.13 0.29-0.29 0.29s-0.29-0.13-0.29-0.29v-2.22c0-0.16 0.13-0.29 0.29-0.29s0.29 0.13 0.29 0.29v2.22zm1.54 0c0 0.16-0.13 0.29-0.29 0.29s-0.29-0.13-0.29-0.29v-2.22c0-0.16 0.13-0.29 0.29-0.29s0.29 0.13 0.29 0.29v2.22zm1.54 0c0 0.16-0.13 0.29-0.29 0.29s-0.29-0.13-0.29-0.29v-2.22c0-0.16 0.13-0.29 0.29-0.29s0.29 0.13 0.29 0.29v2.22zm1.54 0c0 0.16-0.13 0.29-0.29 0.29s-0.29-0.13-0.29-0.29v-2.22c0-0.16 0.13-0.29 0.29-0.29s0.29 0.13 0.29 0.29v2.22zm1.54 0c0 0.16-0.13 0.29-0.29 0.29s-0.29-0.13-0.29-0.29v-2.22c0-0.16 0.13-0.29 0.29-0.29s0.29 0.13 0.29 0.29v2.22zm1.54 0c0 0.16-0.13 0.29-0.29 0.29s-0.29-0.13-0.29-0.29v-2.22c0-0.16 0.13-0.29 0.29-0.29s0.29 0.13 0.29 0.29v2.22z"/>
	</g>
	<g fill="#812826">
		<path d="m20.14 192.43h4.65c4.3 0 6.8 2.5 6.8 6.01v0.03c0 3.51-2.53 6.12-6.87 6.12h-4.58v-12.16zm4.7 9.18c2 0 3.32-1.11 3.32-3.08v-0.04c0-1.95-1.33-3.08-3.32-3.08h-1.36v6.19h1.36z"/>
		<path d="M20.98,219.2h9.69v2.87h-6.39v1.84h5.78v2.66h-5.78v1.93h6.47v2.87h-9.78V219.2z"/>
		<path d="m20.2 256.33 1.86-2.24c1.19 0.96 2.51 1.46 3.91 1.46 0.9 0 1.38-0.31 1.38-0.83v-0.03c0-0.5-0.4-0.78-2.03-1.17-2.56-0.59-4.54-1.32-4.54-3.82v-0.04c0-2.26 1.77-3.89 4.66-3.89 2.05 0 3.65 0.56 4.96 1.62l-1.67 2.38c-1.1-0.78-2.31-1.2-3.37-1.2-0.81 0-1.2 0.35-1.2 0.78v0.04c0 0.56 0.41 0.8 2.08 1.18 2.77 0.61 4.49 1.51 4.49 3.79v0.03c0 2.49-1.94 3.96-4.87 3.96-2.15 0-4.18-0.68-5.66-2.02z"/>
		<path d="m20.14 272.74h4.65c4.3 0 6.8 2.5 6.8 6.01v0.04c0 3.51-2.53 6.12-6.87 6.12h-4.58v-12.17zm4.7 9.18c2 0 3.32-1.11 3.32-3.08v-0.03c0-1.95-1.33-3.08-3.32-3.08h-1.36v6.19h1.36z"/>
		<path d="m20.98 299.52h9.69v2.87h-6.39v1.84h5.78v2.66h-5.78v1.93h6.47v2.87h-9.78v-12.17z"/>
	</g>
	<g fill="#812826">
		<polyline points="642.82 443.77 642.99 421.94 643.56 348.33" stroke="#812826" stroke-miterlimit="10"/>
		<path d="m632.46 411.21s0 9.62 10.36 11.1c0 0 0.74-9.62-10.36-11.1z"/>
		<path d="m632.56 402.2s0 9.62 10.36 11.1c0-0.01 0.74-9.62-10.36-11.1z"/>
		<path d="m632.56 392.58s0 9.62 10.36 11.1c0 0 0.74-9.62-10.36-11.1z"/>
		<path d="m632.56 383.7s0 9.62 10.36 11.1c0 0 0.74-9.62-10.36-11.1z"/>
		<path d="m632.56 374.08s0 9.62 10.36 11.1c0 0 0.74-9.62-10.36-11.1z"/>
		<path d="m632.56 364.47s0 9.62 10.36 11.1c0-0.01 0.74-9.62-10.36-11.1z"/>
		<path d="m632.56 355.59s0 9.62 10.36 11.1c0 0 0.74-9.62-10.36-11.1z"/>
		<path d="m632.56 346.71s0 9.62 10.36 11.1c0 0 0.74-9.62-10.36-11.1z"/>
		<path d="m643.56 355.46s0-9.93 10.98-11.45c0 0 0.78 9.93-10.98 11.45z"/>
		<path d="m643.67 364.77s0-9.93 10.98-11.45c-0.01 0 0.78 9.92-10.98 11.45z"/>
		<path d="m643.67 374.7s0-9.93 10.98-11.45c-0.01-0.01 0.78 9.92-10.98 11.45z"/>
		<path d="m643.67 383.86s0-9.93 10.98-11.45c-0.01 0 0.78 9.93-10.98 11.45z"/>
		<path d="m643.67 393.79s0-9.93 10.98-11.45c-0.01 0 0.78 9.92-10.98 11.45z"/>
		<path d="m643.67 403.72s0-9.93 10.98-11.45c-0.01-0.01 0.78 9.92-10.98 11.45z"/>
		<path d="m643.67 412.88s0-9.93 10.98-11.45c-0.01 0 0.78 9.93-10.98 11.45z"/>
		<path d="m643.67 422.05s0-9.93 10.98-11.45c-0.01-0.01 0.78 9.92-10.98 11.45z"/>
		<path d="m643.11 337.2s-5.61 6.55 0.39 12.54c0 0 5.85-5.02-0.39-12.54z"/>
	</g>
	<g fill="#812826">
		<path d="m641.96 196.29-2.03 0.47-0.64-2.61 3.53-1.01h2.43v12.25h-3.29v-9.1z"/>
		<path d="m638 239.14 1.57-2.33c0.83 0.66 1.62 0.97 2.58 0.97 1.38 0 2.12-0.97 2.27-2.54-0.62 0.59-1.48 0.99-2.55 0.99-2.34 0-4.04-1.46-4.04-3.84v-0.04c0-2.69 2.05-4.43 4.8-4.43 1.76 0 2.79 0.5 3.7 1.43 0.88 0.87 1.45 2.26 1.45 4.5v0.04c0 3.98-1.96 6.69-5.58 6.69-1.79 0-3.09-0.57-4.2-1.44zm6.48-6.9v-0.04c0-0.94-0.67-1.65-1.72-1.65s-1.69 0.69-1.69 1.63v0.03c0 0.92 0.67 1.6 1.72 1.6s1.69-0.68 1.69-1.57z"/>
		<path d="m637.99 272.74 4.51-3.48c1.12-0.89 1.55-1.46 1.55-2.19 0-0.76-0.53-1.23-1.34-1.23s-1.45 0.47-2.39 1.56l-2.25-1.89c1.29-1.69 2.56-2.61 4.91-2.61 2.63 0 4.44 1.58 4.44 3.88v0.04c0 1.95-1 2.95-2.79 4.26l-2.07 1.46h4.97v2.75h-9.54v-2.55z"/>
		<path d="m641.96 301.11-2.03 0.47-0.64-2.61 3.53-1.01h2.43v12.25h-3.29v-9.1z"/>
	</g>
	
		<rect transform="matrix(.7071 -.7071 .7071 .7071 -256.27 378.48)" x="324.34" y="494.19" width="8.78" height="8.78" fill="#812826"/>

</svg>
