<?xml version="1.0" encoding="utf-8"?>
<!-- Generator: Adobe Illustrator 25.0.0, SVG Export Plug-In . SVG Version: 6.00 Build 0)  -->
<svg version="1.2" baseProfile="tiny" id="landing" xmlns="http://www.w3.org/2000/svg" xmlns:xlink="http://www.w3.org/1999/xlink"
	 x="0px" y="0px" viewBox="0 0 150 90" overflow="visible" xml:space="preserve">
<g id="mecánica">
</g>
<g id="inicio">
</g>
<g id="ubicación">
</g>
<g id="menú">
</g>
<g id="legal__x2B__redes">
</g>
<g id="guías">
</g>
<g id="campaña">
	<g>
		<path fill="#812826" d="M27.78,3.8c0.44-0.1,0.04,0.34,0.32,2.67c0.28,2.33,1.92,11.79,8.42,20.24c6.5,8.44,15.9,14.3,28.91,21
			c13.01,6.7,13.61,7.97,15.18,8.09c1.57,0.12,8.2-1.8,11.12-2.22c2.92-0.42,3.04-0.81,7.02-1.44c3.98-0.63,4.25-1.2,5.61-2.53
			c1.36-1.32,2.26-2.2,6.3-3.82c4.04-1.62,12.17-5.44,20.73-11.14c8.56-5.7,12.63-13.13,12.91-14.13c0.28-1,0.54-1.95,1.01-1.95
			c0.46,0,0.64,1.07,0.38,2.37c-0.26,1.31-3.06,4.88-3.06,4.88s0.38,1.29-0.07,2.46c-0.45,1.17-7.69,7.95-7.69,7.95
			s4.43-2.56,7.43-5.24c3-2.68,4.12-4.03,4.43-4.41c0.32-0.38,0.54-0.66,0.78-0.48c0.24,0.18,0.09,1.31-0.97,2.88
			c-1.06,1.57-2.68,3.12-2.68,3.12s0.3,1.18-1.95,3.13c-2.25,1.96-8.83,6.03-8.83,6.03s4.55-1.37,8.03-3.22
			c3.48-1.85,5.03-3.02,5.82-3.72c0.78-0.69,1.18-0.57,0.95,0.15c-0.23,0.72-2.35,2.97-3.98,4.03c-1.63,1.07-1.03,1.08-1.72,1.91
			c-0.69,0.83-3.65,3.19-10.9,5.31c4.87-0.85,8-1.94,10.93-2.99c2.92-1.05,4.99-2.36,5.46-2.66c0.47-0.3,0.86-0.16,0.71,0.39
			c-0.15,0.56-2.85,2.89-4.69,3.63c-1.84,0.74-1.09,1.1-2.19,2.05c-1.1,0.95-6.67,2.63-10.28,3.23c4.56,0.08,8.88-1.34,11.41-2.26
			c2.53-0.92,3.74-1.91,4.08-1.86c0.34,0.04,0.46,0.76-0.93,1.95c-1.39,1.18-4.4,2.11-5.06,2.37c-0.66,0.26-1.09,0.28-1.82,1.13
			c-0.73,0.85-6.67,2.4-11.61,2.61c3.34,0.58,6.81-0.11,9.88-0.68c3.07-0.57,4.99-1.34,5.98-1.98c0.99-0.65,1.16-0.74,1.39-0.6
			c0.23,0.14-0.03,1.13-2.43,2.72c-2.4,1.6-6.86,2.1-6.86,2.1s-0.71,1.04-3.98,1.5c-3.27,0.46-8.82,0.41-8.82,0.41
			s3.01,0.89,8.2,0.89c5.18,0,5.99-0.24,6.77-0.46c0.78-0.22,1.19-0.5,1.41-0.36c0.22,0.14,0.06,1.06-2.17,1.81
			c-2.23,0.74-4.87,0.63-4.87,0.63s-1.07,1.2-5.21,0.96c-4.14-0.24-5.36-0.61-5.36-0.61s2.68,1.01,6.3,1.44
			c3.62,0.42,4.44,0.41,4.93,0.25c0.48-0.17,0.81-0.2,0.89,0c0.08,0.2-0.15,0.87-2.83,1.26c-2.68,0.39-4.01-0.21-4.76-0.17
			c-0.75,0.04-1.88,0.6-3.83,0.21c-1.94-0.39-2.79-0.53-2.79-0.53s1.93,1.15,4.71,1.56c2.79,0.41,4.7,0.23,4.87,0.4
			c0.17,0.17,0.24,0.74-1.64,1.11c-1.88,0.38-4.1-0.38-4.55-0.35c-0.45,0.03-1.6,0.78-4.25-0.06c-2.65-0.85-3.68-1.25-3.68-1.25
			s1.39,0.97,3.65,1.87c2.27,0.91,3.64,0.79,3.93,0.79c0.29,0,0.58,0.52-0.41,0.82c-0.99,0.3-2.71,0.24-4.24-0.3
			c-1.53-0.54-1.6-0.1-2.76-0.18c-1.17-0.08-2.98-0.67-4.96-1.62c0.98,1.22,3.46,2.04,3.94,2.1c0.48,0.06,0.74,0.24,0.74,0.41
			c0,0.17-1.99,0.63-4.89,0.08s-3.46-1.09-3.46-1.09s0.57,0.6,1.5,1.09c0.93,0.49,1.12,0.54,1.12,0.79c0,0.25-2.75,0.59-5.78-0.72
			c0.77,0.84,1.72,1.18,2.16,1.27c0.44,0.09,0.43,0.45-0.31,0.57c-0.74,0.12-3.67,0.21-6.5-1.1c0.41,0.75,1.27,1.12,1.65,1.31
			c0.38,0.2,0.46,0.27,0.36,0.5c-0.13,0.31-2.73,0.25-4.63-0.81c0.37,0.65,0.91,1.02,1.12,1.14c0.21,0.12,0.29,0.31,0.24,0.44
			c-0.05,0.13-1.13,0.51-3.1-0.45c0.28,0.42,0.35,0.6,0.22,0.89c-0.14,0.29-1.89-0.43-2.67-0.95c-0.63,0.23-2.2,1.06-3.31,1.58
			c-1.12,0.52-1.71,0.52-2.23,0.59c-0.52,0.07-0.97,0.56-2.39,1.38c-1.42,0.82-3.84,2.32-6.91,2.88c-3.07,0.56-3.35,0.31-3.65,0.45
			c-0.29,0.14-1.56,1.26-1.93,1.63c-0.37,0.36-0.63,0.7-1.27,0.83c-0.63,0.13-1.38,0.5-1.41-0.18c-0.4,0.41-1.12,1.18-1.57,1.35
			c-0.45,0.17-1.1,0.07-1.44,0.15c-0.34,0.08-0.43,0.4-1.24,0.61c-0.81,0.21-1.85-0.23-2.4-1.09c-0.56-0.86,0.57-0.42,1.15-0.44
			l0.58-0.64c0,0-1.8,0.05-2.7-0.54c-1.66,0.53-6.41,2.92-7.68,3.72c-1.27,0.8-2.17,0.83-2.99,0.84c-0.82,0.01-5.2,2.37-8.61,3.03
			c-3.41,0.66-3.81-0.11-3.81-0.27c0-0.17,0.77-0.18,1.81-0.67c1.03-0.49,2.33-1.64,2.33-1.64s-4.02,1.57-7.24,1.93
			c-3.22,0.36-4.43-0.37-4.44-0.62c-0.01-0.26,0.93,0.06,3.04-0.49c2.11-0.56,3.98-1.59,3.98-1.59s-3.89,0.93-6.64,0.66
			c-2.75-0.26-4.36-1.58-4.3-1.83c0.06-0.25,1.08,0.46,4.1,0.06c3.01-0.4,3.96-0.78,3.96-0.78s-5.52,0.66-8.4-0.67
			c-0.44-0.15-0.53-0.29-0.51-0.44c0.01-0.2,0.38-0.12,0.78-0.12c0.55-0.01,4.41-0.24,7.9-1.21c-4.09,0.21-7.8,0.2-9.89-1.36
			c-0.32-0.2-0.29-0.37-0.21-0.49c0.08-0.12,0.25-0.07,0.87,0.15c0.63,0.22,6,0.73,9.32-0.5c-5.06-0.27-8.86-1.07-10.06-1.9
			c-0.4-0.2-0.34-0.48-0.25-0.57c0.14-0.14,0.51,0.09,1.68,0.26c1.17,0.17,4.93,0.06,8.71-0.75c-4.41-0.33-9.08-2.46-10.54-3.58
			c-0.23-0.17-0.17-0.33-0.11-0.45c0.05-0.12,0.22-0.11,0.78,0.05c0.56,0.15,6.37,1.61,9.54,0.83c-5.52-2.84-7.47-4.35-7.85-5.01
			c-0.38-0.66-0.25-0.7-0.17-0.76c0.08-0.06,0.29-0.04,1.28,0.48c0.99,0.53,4.59,1.99,10.17,2.84c5.57,0.85,7.2,1.45,9.1,1.97
			c1.9,0.51,6.42,0.58,9.16-0.5c-0.43-0.19-0.41-0.47-0.24-0.59c0.17-0.12,1.63-0.71,2.21-1.12c-1.7,0.64-3.94,0.43-4.69-0.06
			c-0.75-0.49,0.2-0.64,1.18-0.96c1.24-0.42,2-1.14,2-1.14c-0.57,0.06-2.17,0.82-3.91,0.92c-1.74,0.1-2.64-0.38-2.61-0.68
			c0.04-0.37,1.62-0.53,2.97-1.51c-1.97,0.61-4.02,1.27-5.68,0.8c-1.66-0.47-1.59-0.92-1.47-1.05c0.12-0.13,1.07,0,2.21-0.33
			c1.14-0.33,2.2-1.12,2.2-1.12s-1.4,0.14-3.17,0.69c-1.78,0.55-4.5,0.4-5.58-0.07c-1.08-0.47-0.32-0.72,0.23-0.74
			c0.98-0.04,3.11-0.97,4.46-2.12c-2.26,1.12-6.28,1.58-8.23,0.33c-0.31-0.19-0.39-0.58,0.04-0.59c0.43-0.01,2.55-0.27,4.96-1.93
			c-2.33,0.7-5.3,1.88-8.04,0.76c-0.45-0.2-0.39-0.55-0.03-0.66c0.36-0.11,2.61-0.29,4.53-1.73c-2.34,0.74-5.02,1.32-7.56,0.53
			c-0.43-0.09-0.67-0.63-0.02-0.64c0.65-0.01,3.73-0.38,4.88-1.4c-2.12,0.62-4.94,1.13-7.88,0.25c-0.37-0.11-0.54-0.49-0.26-0.68
			c0.28-0.19,2.97-0.11,4.39-1.29c-1.84,0.61-5.1,0.98-7.44-0.29c-0.41-0.21-0.41-0.69-0.03-0.69c0.38,0,3.1-0.16,4.75-1.01
			c-2.33,0.37-7.41,0.56-9.05-0.22c-1.65-0.78-0.98-1.29-0.3-1.19c0.68,0.1,6.66-0.32,8.53-1.54c-2.41,0.72-6.02,1.12-7.21,0.71
			c-1.19-0.41-0.95-0.54-1.94-0.47c-0.99,0.07-4.17,0.33-6.51-0.82c-0.72-0.44-0.87-0.95-0.6-1.15c0.27-0.2,0.63,0.06,2.4,0.15
			c1.76,0.09,6.49,0.1,10.77-1.29c-3.41,0.25-6.15,0.81-8.8,0.32c-2.65-0.48-1.16-0.83-2.65-0.83c-1.49,0-4.49-0.44-6.54-1.11
			c-2.05-0.66-2.86-1.81-2.95-2.14c-0.09-0.33,0.06-0.53,1.43,0c1.37,0.53,7.41,2.01,12.25,1.41c-2.94-0.04-6.31-1.01-7.41-1.68
			c-1.1-0.66-4.14-1.13-5.84-1.87c-1.7-0.74-3.01-1.86-2.73-2.26c0.29-0.41,1.79,0.57,2.49,0.86c0.69,0.29,6.9,2.44,13.71,1.68
			c-6.06-0.64-9.28-1.49-9.94-2.12c-0.66-0.62-0.98-0.8-1.63-1.01c-0.64-0.2-3.69-1.18-4.89-2.27c-1.2-1.09-0.59-1.85,0.18-1.3
			c0.77,0.56,4.08,1.74,6.43,2.25c2.35,0.51,5.75,0.94,8.77,0.79c-4.8-0.8-9.32-2.23-10.24-3.55c-0.92-1.33-0.62-0.7-2.09-1.75
			c-1.47-1.05-3.07-2.49-3.53-3.56c-0.46-1.07,0.12-1.21,0.9-0.3c0.78,0.9,8,5.18,11.53,5.66c-5.22-2.28-7.19-4.38-7.67-5.28
			c-0.48-0.9-0.18-0.86-1.08-1.39c-0.9-0.52-4.93-4.27-3.69-5.51c0.14-0.14,0.34,0.48,2.09,2.01c1.75,1.53,9.03,7.2,14.38,8.41
			c-4.66-2.98-9.6-7.02-10.38-8.75c-0.78-1.73-0.16-1.57-0.74-2.17c-0.58-0.6-3.41-3.72-3.91-6.13c-0.14-0.7-0.06-1.45,0.42-1.39
			c0.48,0.06,0.9,2.43,3.23,4.8c2.33,2.37,7.43,8.16,13.01,9.71c-4.04-3.12-7.12-7.47-7.4-8.31c-0.29-0.84,0.18-1.3-0.07-1.66
			c-0.26-0.36-2.82-3.72-3.52-6.45C8.23,7.99,8.81,7.2,9.13,7.2c0.32,0,0.48,1.14,0.96,2.51c0.94,2.69,7.4,12.46,15.83,17.89
			c-2.4-3.38-4.83-8.86-4.86-10.1c-0.03-1.24,0.39-1.81,0.3-2.38c-0.09-0.57-1.45-3.07-1.93-6.97c-0.48-3.9,0.69-4.92,0.95-4.92
			c0.26,0-0.2,0.82,0.26,3.09c0.46,2.27,3.83,13.68,9.3,19.53c-2.92-6.75-3.28-9.25-2.85-10.55c0.42-1.3,0.57-1.54,0.42-2.38
			c-0.15-0.84-0.84-3.35-0.78-5.51C26.8,5.25,27.37,3.89,27.78,3.8z"/>
		<g>
			<path fill="#D02C2F" d="M36.05,34.09c1,0.83,1.98,1.64,2.99,2.41c1.02,0.76,2.07,1.48,3.14,2.17c1.07,0.69,2.16,1.33,3.28,1.95
				c0.28,0.15,0.56,0.31,0.84,0.45c0.28,0.15,0.57,0.3,0.85,0.44c0.57,0.29,1.15,0.57,1.74,0.83c-0.64-0.1-1.27-0.28-1.89-0.48
				c-0.62-0.2-1.22-0.44-1.82-0.7c-1.19-0.52-2.34-1.14-3.43-1.84c-1.09-0.7-2.14-1.49-3.1-2.36C37.7,36.09,36.81,35.13,36.05,34.09
				z"/>
			<path fill="#D02C2F" d="M41.16,41.68c0.96,0.59,1.89,1.18,2.87,1.69c0.97,0.51,1.96,0.99,2.97,1.42
				c1.01,0.43,2.04,0.81,3.08,1.16c0.52,0.18,1.05,0.35,1.58,0.52c0.53,0.18,1.07,0.34,1.58,0.56c-0.56-0.06-1.11-0.11-1.67-0.19
				c-0.28-0.04-0.55-0.09-0.83-0.14c-0.28-0.05-0.55-0.11-0.83-0.17c-1.1-0.25-2.18-0.6-3.22-1.04c-1.04-0.44-2.04-0.98-2.98-1.61
				C42.78,43.26,41.92,42.52,41.16,41.68z"/>
			<path fill="#D02C2F" d="M45.33,47.03c0.24,0.11,0.47,0.24,0.7,0.36c0.12,0.06,0.23,0.12,0.34,0.18l0.35,0.17
				c0.23,0.11,0.46,0.23,0.7,0.34c0.24,0.1,0.47,0.2,0.71,0.31c0.95,0.4,1.9,0.76,2.88,1.06c0.98,0.3,1.97,0.55,2.98,0.77
				c0.5,0.11,1.01,0.22,1.52,0.33c0.25,0.06,0.51,0.11,0.77,0.17c0.25,0.06,0.52,0.12,0.76,0.22c-0.13,0-0.26-0.02-0.39-0.01
				c-0.13,0-0.26,0-0.39,0c-0.26,0-0.52,0-0.79,0c-0.52-0.02-1.05-0.04-1.57-0.1c-1.05-0.12-2.09-0.33-3.1-0.64
				c-1.01-0.31-1.99-0.74-2.92-1.25c-0.23-0.14-0.46-0.27-0.68-0.41c-0.22-0.15-0.43-0.3-0.65-0.46l-0.32-0.24
				c-0.1-0.08-0.2-0.17-0.3-0.26C45.72,47.38,45.52,47.21,45.33,47.03z"/>
			<path fill="#D02C2F" d="M49.8,51.98c0.23,0.1,0.45,0.2,0.68,0.3c0.11,0.05,0.22,0.1,0.33,0.16l0.34,0.13l0.67,0.27
				c0.23,0.07,0.46,0.16,0.69,0.24c0.92,0.3,1.85,0.56,2.8,0.73c0.95,0.18,1.91,0.3,2.87,0.38c0.24,0.02,0.48,0.04,0.73,0.05
				c0.24,0.02,0.49,0.03,0.73,0.04l0.74,0.05c0.12,0.01,0.25,0.02,0.37,0.03l0.18,0.02c0.06,0.01,0.12,0.03,0.18,0.05l-0.18,0
				l-0.18,0.02c-0.12,0.01-0.24,0.03-0.37,0.05c-0.24,0.03-0.49,0.06-0.73,0.09c-0.49,0.05-0.99,0.08-1.48,0.08
				c-0.99,0.01-1.99-0.07-2.97-0.26c-0.98-0.18-1.94-0.49-2.85-0.89c-0.23-0.11-0.45-0.21-0.68-0.32l-0.65-0.37l-0.32-0.19
				c-0.1-0.07-0.2-0.14-0.3-0.22C50.19,52.28,49.99,52.13,49.8,51.98z"/>
			<path fill="#D02C2F" d="M53.24,56.43c0.89,0.33,1.76,0.62,2.66,0.82c0.9,0.2,1.8,0.33,2.72,0.4c0.91,0.06,1.83,0.06,2.76,0.01
				c0.46-0.03,0.92-0.06,1.39-0.11l0.7-0.07c0.23-0.02,0.47-0.06,0.71-0.03c-0.12,0.01-0.23,0.06-0.34,0.09l-0.34,0.11
				c-0.22,0.07-0.45,0.14-0.68,0.2c-0.46,0.12-0.92,0.22-1.39,0.29c-0.94,0.15-1.9,0.2-2.85,0.13c-0.95-0.07-1.9-0.24-2.81-0.55
				C54.87,57.41,54,56.98,53.24,56.43z"/>
			<path fill="#D02C2F" d="M56.68,59.97c0.88,0.25,1.76,0.44,2.64,0.55c0.44,0.05,0.88,0.08,1.33,0.1c0.44,0.01,0.89,0,1.33-0.02
				c0.88-0.05,1.77-0.18,2.64-0.36c0.87-0.19,1.74-0.42,2.61-0.72c-0.75,0.53-1.61,0.9-2.49,1.18c-0.88,0.28-1.8,0.45-2.73,0.51
				c-0.93,0.05-1.87-0.01-2.77-0.22C58.33,60.79,57.46,60.45,56.68,59.97z"/>
		</g>
		<path fill="#D02C2F" d="M69.14,52.8c1.18,0.26,2.33,0.61,3.46,1.01c0.57,0.2,1.13,0.42,1.68,0.65c0.28,0.11,0.55,0.24,0.83,0.36
			c0.28,0.12,0.55,0.25,0.82,0.38c0.27,0.13,0.54,0.26,0.81,0.4c0.27,0.14,0.54,0.27,0.8,0.42c0.26,0.15,0.53,0.29,0.79,0.44
			c0.26,0.15,0.52,0.3,0.78,0.46c1.02,0.63,2.02,1.33,2.92,2.13c-1.05-0.59-2.1-1.16-3.16-1.71c-0.53-0.27-1.06-0.55-1.59-0.81
			c-0.53-0.27-1.07-0.53-1.61-0.78c-0.27-0.13-0.54-0.26-0.81-0.38c-0.27-0.13-0.54-0.25-0.81-0.37c-0.27-0.12-0.54-0.25-0.81-0.37
			c-0.27-0.12-0.55-0.24-0.82-0.37C71.33,53.77,70.23,53.3,69.14,52.8z"/>
		<path fill="#D02C2F" d="M106.84,57.87c-1.29-1.06-2.83-1.22-4.53-1.18c-0.75,0.39-1.22,1.46-1.4,2.28
			c-0.23-0.44-0.02-1.04-0.02-1.04s-0.33,0.34-0.8,0.46c0.64-0.54,0.5-1.26,0.5-1.26s-0.21,0.66-0.78,0.7
			c-0.57,0.03-0.84-0.55-0.84-0.55s-0.36,0.2-0.59,0.55c0.08-1.1,2.53-1.86,4.88-1.66c-1.34-2.41-7.41-1.64-9.76-1.26
			c-2.35,0.38-3.54,0.92-5.44,0.86c-1.91-0.06-2.29,0.1-4.66,0.78c0.78,0.34,1.43,0.58,2.74,0.74c1.32,0.15,2.37,0.22,2.37,0.22
			s-0.63,0.12-1.61,0.14c-0.97,0.02-2.43,0.41-2.43,0.41s2.12,0.48,3.26,0.43c0,0-0.73,0.23-1.79,0.23c-1.05,0-2.25,0.53-2.25,0.53
			s1.83,0.38,3.31,0.45c-1.06,0.14-2.04,0.58-2.43,1.13c0.6-0.33,1.76-0.15,2.35-0.33c0.59-0.18,1.93-0.53,3.03-0.51
			c-0.8,0.14-2.38,0.99-3.57,1.71c-1.19,0.72-2.42,1.8-2.42,1.8s1.01,0.22,2.14,0.09c1.13-0.13,1.99-0.72,3.35-0.84
			c0,0-1.87,0.79-2.31,1.6c0.65,0.17,2.27-0.74,3.32-1c-1.19,0.61-2.7,2.07-2.7,2.07s0.97-0.09,1.49-0.42
			c0.51-0.33,2.99-1.7,4.53-1.76c-2.75,0.77-4.58,2.9-4.58,2.9s3.72-2,5.38-2.08c-1.34,0.37-3.23,1.85-3.23,1.85s2.7-0.36,4.02-0.92
			c1.33-0.56,2.7-1.76,4.51-2.47c1.81-0.71,2.71-0.91,2.71-0.91l-3.42-0.59c0,0,3.54-0.21,6.88,0.04c-0.83-1.03-3.19-1.41-5.51-1.43
			c1.36-0.29,3.1-0.16,4.29-0.04c1.19,0.12,1.9,0.85,2.63,2.07C107.65,61.18,108.13,58.93,106.84,57.87z M104.3,57.6
			c0,0-0.08,0.16-0.37,0.19c-0.29,0.03-0.44-0.17-0.44-0.17l-0.24-0.03c0.41-0.23,1.06-0.14,1.35,0
			C104.35,57.62,104.3,57.6,104.3,57.6z"/>
		<g>
			<path fill="#D02C2F" d="M118.85,46.19c0.85-0.16,1.66-0.41,2.46-0.69c0.2-0.07,0.4-0.15,0.59-0.23c0.2-0.07,0.39-0.16,0.59-0.24
				l0.29-0.12l0.29-0.13c0.19-0.09,0.39-0.18,0.57-0.27c0.38-0.18,0.76-0.38,1.13-0.59c0.18-0.1,0.37-0.21,0.55-0.31l0.55-0.33
				c0.72-0.45,1.42-0.94,2.05-1.53c-0.48,0.72-1.15,1.31-1.84,1.83c-0.17,0.13-0.35,0.25-0.53,0.37c-0.18,0.12-0.37,0.23-0.55,0.35
				c-0.37,0.22-0.76,0.43-1.14,0.62c-0.78,0.38-1.59,0.7-2.43,0.93C120.59,46.07,119.72,46.22,118.85,46.19z"/>
			<path fill="#D02C2F" d="M116.94,48.87c0.78-0.05,1.53-0.18,2.27-0.35c0.37-0.09,0.74-0.18,1.1-0.29l0.27-0.08l0.27-0.09
				c0.18-0.06,0.36-0.11,0.54-0.18c0.36-0.12,0.72-0.26,1.07-0.4c0.18-0.07,0.36-0.14,0.53-0.22l0.52-0.23
				c0.69-0.32,1.38-0.66,2.02-1.09c-0.52,0.58-1.18,1.03-1.86,1.41c-0.34,0.19-0.69,0.36-1.05,0.53c-0.36,0.16-0.72,0.3-1.09,0.43
				c-0.74,0.25-1.5,0.45-2.28,0.55C118.5,48.98,117.71,49.01,116.94,48.87z"/>
			<path fill="#D02C2F" d="M114.66,51.24c0.7,0.01,1.37-0.05,2.05-0.15c0.33-0.06,0.67-0.11,1-0.18l0.25-0.05l0.25-0.06
				c0.17-0.04,0.33-0.08,0.49-0.13c0.66-0.17,1.31-0.37,1.95-0.6c0.64-0.23,1.28-0.48,1.9-0.78c-0.52,0.47-1.13,0.82-1.76,1.12
				c-0.63,0.3-1.29,0.53-1.97,0.71c-0.68,0.17-1.37,0.3-2.07,0.33C116.05,51.48,115.33,51.44,114.66,51.24z"/>
			<path fill="#D02C2F" d="M112.39,53.6c0.62,0.07,1.22,0.08,1.82,0.05c0.3-0.02,0.6-0.04,0.9-0.08c0.15-0.01,0.3-0.03,0.45-0.05
				c0.15-0.02,0.3-0.04,0.45-0.07c0.6-0.1,1.19-0.21,1.78-0.35c0.59-0.14,1.18-0.3,1.77-0.48c-0.51,0.36-1.08,0.62-1.67,0.83
				c-0.59,0.21-1.19,0.37-1.81,0.46c-0.62,0.09-1.24,0.14-1.87,0.1C113.58,53.97,112.95,53.86,112.39,53.6z"/>
			<path fill="#D02C2F" d="M110.36,56.2c1.09,0.2,2.15,0.17,3.22,0.07c0.53-0.05,1.07-0.13,1.6-0.21c0.53-0.09,1.07-0.19,1.61-0.29
				c-0.48,0.28-1,0.49-1.53,0.65c-0.53,0.16-1.08,0.26-1.64,0.32c-0.55,0.05-1.12,0.06-1.67-0.02
				C111.39,56.64,110.84,56.49,110.36,56.2z"/>
		</g>
		<path fill="#D02C2F" d="M62.97,80.59c0.37,0.09,0.61,0.05,0.61,0.05s1.25-1.45,1.38-1.71c0.13-0.26,0.11-0.48,0.58-0.58
			c0.47-0.1,1.77-0.64,2.36-0.74c0.59-0.1,3.58-1.42,4.61-1.95c-1.17,0.87-2.78,1.74-3.4,2.05c-0.62,0.32-0.85,0.28-1.35,0.89
			c-0.5,0.61-0.89,1.12-2.05,1.65c0.4-0.27,1.23-1.51,1.23-1.51s-0.86,0.32-1.08,0.41c-0.22,0.1-1.11,1.39-1.69,1.7
			C63.58,81.18,63.07,80.69,62.97,80.59z"/>
	</g>
</g>
</svg>
