<?xml version="1.0" encoding="utf-8"?>
<!-- Generator: Adobe Illustrator 24.0.2, SVG Export Plug-In . SVG Version: 6.00 Build 0)  -->
<svg version="1.1" id="Capa_1" xmlns="http://www.w3.org/2000/svg" xmlns:xlink="http://www.w3.org/1999/xlink" x="0px" y="0px"
	 viewBox="0 0 110 35" width="110" height="35" style="enable-background:new 0 0 110 35;" xml:space="preserve">
<style type="text/css">
	.st0{fill:#FFFFFF;}
</style>
<g>
	<path class="st0" d="M24.98,26.78c0.23,0.26,0.52,0.49,0.89,0.75v0.52h-10.5v-0.52c1.06-0.66,1.46-1.09,1.46-1.86
		c0-0.43-0.17-1.18-0.55-2.27l-0.46-1.38h-5.28c-0.43,1.35-0.63,2.32-0.63,2.87c0,0.95,0.52,1.81,1.58,2.64v0.52H5.47v-0.52
		c0.98-0.83,1.69-1.64,2.12-2.41c0.43-0.77,0.89-1.84,1.35-3.18l3.5-10.21l-1.23-2.41c2.32-0.8,4.3-1.72,6-2.75l6.8,18.33
		C24.35,25.8,24.66,26.44,24.98,26.78z M15,19.52l-1.81-5.54l-1.81,5.54H15z"/>
	<path class="st0" d="M47.38,8.05c-2.47,1.69-2.55,1.72-2.7,6.57v13.43h-5.31c-2.27-3.99-5.02-8.55-8.26-13.68v6.6
		c0,3.13,0.29,4.39,0.95,5.19c0.34,0.4,0.95,0.86,1.78,1.38v0.52h-7.46v-0.52c0.86-0.52,1.46-0.98,1.78-1.38
		c0.34-0.4,0.57-0.98,0.72-1.69c0.14-0.75,0.23-1.92,0.23-3.5v-8.09c0-1.81-0.92-3.5-2.73-5.11V7.53h8.12
		c2.24,3.38,4.96,7.8,8.15,13.22v-6.14c-0.14-4.85-0.23-4.88-2.7-6.57V7.53h7.43V8.05z"/>
	<path class="st0" d="M69.47,17.14c0,3.13-0.95,5.74-2.87,7.8c-1.92,2.07-4.65,3.1-8.23,3.1H47.93v-0.52
		c0.77-0.46,1.23-0.86,1.43-1.2c0.2-0.37,0.32-1.06,0.32-2.07V11.32c0-1-0.11-1.69-0.32-2.04c-0.2-0.37-0.66-0.77-1.43-1.23V7.53
		h9.24C65.31,7.53,69.47,10.86,69.47,17.14z M60.92,23.71c0.8-1.46,1.2-3.59,1.2-6.31c0-2.18-0.34-3.99-0.8-5.05
		c-0.43-1.12-1.23-1.95-1.81-2.29c-0.54-0.37-1.52-0.6-1.95-0.6c-0.2-0.03-0.43-0.03-0.75-0.03h-0.29v15.23
		c0,0.8,0.72,1.35,1.63,1.43C59.23,25.95,60.15,25.17,60.92,23.71z"/>
	<path class="st0" d="M87.63,21.19l-0.69,6.86H69.96v-0.52c0.77-0.46,1.23-0.86,1.43-1.2c0.2-0.37,0.32-1.06,0.32-2.07V11.32
		c0-1-0.11-1.69-0.32-2.04c-0.2-0.37-0.66-0.77-1.43-1.23V7.53h15.98l0.52,7.06h-0.49c-0.49-1.38-1.32-2.58-2.5-3.59
		c-1.15-1.03-2.61-1.55-4.39-1.55h-0.52v6.88h0.86c1.95,0,3.41-1.06,4.13-2.35h0.43v6.51h-0.43c-0.72-1.49-2.18-2.67-4.13-2.64
		l-0.86,0.03v6.77c0,0.92,0.89,1.46,2.01,1.46h0.06c1.35,0,2.58-0.49,3.7-1.46c1.12-1,2.07-2.15,2.81-3.47H87.63z"/>
	<path class="st0" d="M90.33,26.95l-0.4-7.31h0.52c2.84,4.56,5.19,6.86,7.06,6.86c1,0,1.64-0.69,1.64-1.86
		c0-1.61-1.12-2.81-3.76-4.42l-0.89-0.52l-0.89-0.54l-0.77-0.52c-0.77-0.49-0.83-0.69-1.41-1.23c-0.55-0.55-0.66-0.98-0.98-1.64
		c-0.32-0.69-0.37-1.43-0.37-2.27c0-2.04,0.66-3.61,1.95-4.7c1.29-1.12,2.95-1.66,4.96-1.66c1.61,0,3.56,0.32,5.88,0.95l0.6,7.17
		h-0.52c-0.89-1.64-1.86-3.1-2.98-4.33c-1.12-1.26-2.15-1.89-3.13-1.89c-0.95,0-1.64,0.72-1.64,1.72c0,1.18,0.92,2.09,3.47,3.67
		l1.12,0.66c0.54,0.32,0.92,0.54,1.12,0.69c0.2,0.11,0.52,0.32,0.95,0.63c0.43,0.32,0.75,0.57,0.92,0.77
		c0.34,0.37,1.06,1.18,1.29,1.86c0.23,0.66,0.46,1.61,0.46,2.64c0,2.5-0.98,4.36-2.5,5.36c-1.49,0.95-3.13,1.41-4.88,1.41
		C95.17,28.44,92.88,27.96,90.33,26.95z"/>
</g>
</svg>
