<?xml version="1.0" encoding="utf-8"?>
<!-- Generator: Adobe Illustrator 24.0.2, SVG Export Plug-In . SVG Version: 6.00 Build 0)  -->
<svg version="1.1" id="Capa_1" xmlns="http://www.w3.org/2000/svg" xmlns:xlink="http://www.w3.org/1999/xlink" x="0px" y="0px"
	 viewBox="0 0 1580 290" width="1580" height="290" style="enable-background:new 0 0 1580 290;">
<g>
	<g style="opacity:0.8;">
		<g>
			<path style="fill:#FFFFFF;" d="M751.76,228.37c-19.24,10.45-41.6,12.53-62.28,18.9c-20.57,6.33-40.21,15.35-58.53,26.63
				c-5.3,3.26-11.27,5.84-17.32,7.26c-5.18,1.22-10.73,1.01-16.03,1.04c-14.4,0.08-29.37-0.13-43.46-3.37
				c-4.41-1.01-8.29-3.22-12.62-4.31c-4.69-1.18-9.65-1.45-14.46-1.63c-12.97-0.5-26.01,0.26-38.95,1.23
				c-10.19,0.76-20.39,1.67-30.52,2.98c-3.59,0.46-7.05,1.31-10.57,2.18c-9.7,2.4-19.47,4.59-29.42,5.71
				c-16.13,1.81-31.98-0.29-47.88-3.02c-6.98-1.2-13.93-2.53-20.86-3.97c-3.89-0.8-7.86-2.04-11.8-2.55
				c-1.75-0.23-3.09,0.46-4.81,1.03c-5.3,1.74-10.65,3.35-16.04,4.81c-10.1,2.74-21.67,6.33-32.17,4.1
				c-19.26-4.08-38.31-9.32-57.48-13.8c-26.04-6.09-52.27-12.09-78.8-15.6c-8.73-1.16-17.86-2.38-26.67-1.44
				c-8.72,0.93-17.26,3.32-25.67,5.7c-9.5,2.69-19.03,5.07-28.82,6.49c-16.65,2.41-33.59,2.74-50.38,2.5
				c-2.7-0.04-5.46-0.28-8.17-0.15c-0.46,0.02-1.17-0.11-1.57,0.18c-0.55,0.39-0.67,1.07-0.21,1.6c0.61,0.69,2.57,0.51,3.36,0.57
				c2.92,0.23,5.84,0.41,8.77,0.6c9.42,0.61,18.84,1.19,28.26,1.81c9.24,0.61,18.49,1.23,27.72,2.05c6.07,0.54,12,1.32,18.11,1.23
				c23.91-0.35,47.9-3.91,71.56-7.08c34.34-4.59,68.53-10.16,102.83-14.99c16.09-2.26,32.59-5.28,48.89-5.56
				c1.02-0.02,2.29-0.1,3.2,0.13c0.47,0.12,0.39,0.04,0.11-0.12c0.81,0.47,1.45,1.3,2.4,1.76c4.28,2.09,9.32,3.37,14.04,3.93
				c1.87,0.22,3.46,0.11,5.28-0.19c2.64-0.44,5.15,0.32,7.65,1.16c3.45,1.16,6.92,3.65,10.43,4.43c3.02,0.67,7.35-0.34,10.45-0.56
				c3.9-0.28,7.79-0.64,11.66-1.16c14.26-1.91,28.77-6.11,39.44-16.25c6.06-5.76,10.37-12.99,15.52-19.51
				c5.07-6.43,11.16-11.34,18.21-15.47c12.3-7.19,26.02-12.61,34.64-24.55c8.76-12.13,11.84-28.24,23.5-38.28
				c6.3-5.42,14.1-8.71,20.56-13.94c5.44-4.41,10.03-9.74,14.2-15.34c8.95-12.02,15.94-25.55,26.39-36.41
				c2.79-2.9,6.35-6.9,10.32-8.03c5.04-1.43,8.51,4.55,11.68,7.49c5.28,4.9,11.5,8.74,18.21,11.36c7.02,2.74,14.49,4.02,22.02,3.89
				c1.31-0.02,1.31-2.06,0-2.03c-8.44,0.15-16.79-1.54-24.46-5.09c-7.6-3.52-13.29-8.66-19.1-14.53c-5.09-5.15-10.29-3.3-15.33,0.99
				c-5.36,4.57-9.87,10.05-13.99,15.72c-8.78,12.08-15.83,25.58-26.52,36.19c-5.99,5.94-13.2,9.72-20.14,14.36
				c-6.02,4.02-10.73,9.07-14.42,15.29c-7.95,13.4-12.05,28.24-25.3,37.73c-11.9,8.53-26.49,13.07-36.98,23.59
				c-5.9,5.92-10.14,13.18-15.4,19.62c-5.11,6.26-11.29,11.19-18.63,14.59c-6.93,3.21-14.44,5.04-21.96,6.21
				c-3.91,0.61-7.85,1.03-11.8,1.35c-1.92,0.16-3.84,0.29-5.76,0.4c-1.85,0.11-4.28,0.68-6.05,0.39c-3.51-0.58-7.33-3.23-10.82-4.41
				c-2.03-0.68-4.22-1.38-6.39-1.44c-1.94-0.05-3.69,0.65-5.66,0.53c-4.72-0.28-10.76-1.63-14.9-4.01c-0.9-0.52-1.45-1.25-2.43-1.6
				c-2.58-0.93-6.43-0.14-9.05,0.05c-7.5,0.56-14.98,1.49-22.45,2.43c-60.14,7.6-119.87,19.62-180.38,24.15
				c-7.72,0.58-15.61,1.19-23.35,0.58c-6.67-0.52-13.31-1.35-19.99-1.85c-17.68-1.33-35.38-2.26-53.06-3.53
				c-0.99-0.07-2-0.22-2.99-0.23c-0.84-0.01-1.13-0.44-0.62,0.13c-0.07,0.53-0.14,1.06-0.21,1.6c-0.58,0.41,0.87,0.1,1.59,0.11
				c4.62,0.05,9.25,0.18,13.87,0.19c9,0.02,18.01-0.19,27-0.82c11.82-0.83,23.55-2.46,35.05-5.33c8.46-2.11,16.75-4.83,25.27-6.69
				c8.48-1.86,16.56-2.46,25.2-1.79c25.74,1.99,51.33,7.95,76.46,13.62c22.02,4.97,43.9,10.54,65.86,15.73
				c2.42,0.57,4.85,1.18,7.3,1.63c4.66,0.85,9.44,0.26,14.08-0.49c11.84-1.9,23.48-5.38,34.84-9.16c0.42-0.14,2.99-0.8,1.8-0.78
				c0.85-0.01,1.91,0.43,2.73,0.62c4.89,1.09,9.8,2.12,14.71,3.1c14.42,2.87,29.02,5.59,43.71,6.61
				c17.71,1.23,35.13-2.53,52.22-6.73c7.79-1.92,15.74-2.61,23.72-3.38c13.11-1.26,26.28-2.25,39.45-2.57
				c6.05-0.15,12.12-0.17,18.16,0.21c4.26,0.27,8.86,0.55,12.88,2.12c5.26,2.06,10.19,3.74,15.82,4.66
				c7.02,1.14,14.13,1.69,21.23,2.02c6.67,0.31,13.36,0.41,20.03,0.31c5.71-0.08,11.24-0.22,16.75-1.93
				c5.59-1.74,10.9-4.27,15.88-7.32c9.12-5.6,18.61-10.6,28.37-14.98c10.5-4.71,21.33-8.68,32.38-11.89
				c10.12-2.94,20.46-4.99,30.68-7.58c9.77-2.47,19.36-5.56,28.24-10.38C753.94,229.5,752.91,227.75,751.76,228.37L751.76,228.37z"
				/>
		</g>
	</g>
	<g style="opacity:0.8;">
		<g>
			<path style="fill:#FFFFFF;" d="M1576.42,274.72c-10.06,1.82-20.31-1.94-29.74-5.03c-12.53-4.11-25.08-8.01-38.22-9.63
				c-8.41-1.04-16.83-0.89-25.29-1.01c-8.82-0.12-17.63-0.4-26.44-0.8c-15.37-0.69-30.71-1.77-46.05-2.84
				c-11.24-0.78-22.52-1.7-33.8-1.71c-4.02,0-7.96,0.38-11.97,0.62c-6.12,0.37-12.29-0.27-18.35-1.09
				c-15.91-2.16-31.59-5.8-47.39-8.61c-14.33-2.55-28.72-4.45-43.25-5.42c-23.86-1.58-47.81-1.79-71.72-1.58
				c-5.39,0.05-10.76,0.19-16.14,0.4c-14.68,0.57-29.39-1.97-43.13-7.15c-14.18-5.34-27.32-13.52-38.27-24
				c-5.55-5.31-10.28-11.22-14.74-17.45c-4.27-5.96-8.78-11.07-15.13-14.88c-7.13-4.28-14.02-7.75-19.46-14.26
				c-5.36-6.42-9.76-13.66-14.82-20.32c-9.71-12.78-20.38-24.82-31.9-35.99c-11.37-11.02-23.56-21.2-36.45-30.39
				c-11.29-8.05-26.75-16.88-40.89-10.94c-5.96,2.5-10.28,7.36-14.49,12.07c-5.28,5.92-10.61,10.26-17.92,13.5
				c-6.69,2.97-12.84,5.93-17.62,11.65c-4.28,5.13-7.28,11.14-11.05,16.63c-4.92,7.17-11.43,11.46-18.89,15.69
				c-1.14,0.65-0.11,2.4,1.03,1.76c6.6-3.75,12.84-7.47,17.54-13.56c4.09-5.29,7.05-11.32,10.98-16.72
				c5.15-7.07,11.8-10.46,19.6-13.95c6.7-2.99,11.77-6.91,16.67-12.34c5.01-5.57,9.97-11.65,17.49-13.76
				c8.41-2.36,17.27,0.53,24.76,4.39C956,75.53,969.14,87,981.27,97.97c11.99,10.85,23.15,22.62,33.35,35.17
				c5.31,6.54,10.3,13.31,15.11,20.22c4.17,5.99,8.48,11.91,14.54,16.15c6.6,4.61,14.29,7.37,19.91,13.34
				c5.22,5.55,9.04,12.28,14.02,18.04c9.2,10.66,20.53,19.49,33,26.02c12.24,6.41,25.6,10.65,39.31,12.36
				c8.48,1.06,16.86,0.6,25.35,0.47c21.36-0.34,42.74-0.22,64.08,0.64c13.19,0.53,26.37,1.37,39.46,3.13
				c17.17,2.32,34.11,5.96,51.14,9.1c11.98,2.21,24.46,4.68,36.68,3.53c9.13-0.86,18.37-0.3,27.51,0.23
				c30.93,1.82,61.76,4.49,92.77,4.74c15.62,0.13,30.41,1.83,45.42,6.29c10.5,3.12,20.84,7.55,31.7,9.24
				c4.11,0.64,8.22,0.75,12.33,0.01C1578.24,276.44,1577.7,274.48,1576.42,274.72L1576.42,274.72z"/>
		</g>
	</g>
	<g style="opacity:0.4;">
		<g>
			<path style="fill:#FFFFFF;" d="M381.65,260.96c16.59-2.28,33.28-4.62,49.33-9.55c7.76-2.38,15.36-5.39,22.52-9.23
				c7.82-4.19,14.75-9.89,23.19-12.87c4.12-1.46,8.34-2.59,12.45-4.09c3.88-1.42,7.67-3.07,11.38-4.88
				c7.57-3.7,14.77-8.11,21.76-12.81c7.03-4.73,13.9-9.72,20.68-14.79c5.86-4.39,11.26-9.23,14.13-16.13
				c2.85-6.87,3.42-14.64,7.22-21.13c3.6-6.15,10.01-9.21,16.39-11.73c5.87-2.31,12.01-4.37,16.99-8.38
				c6.13-4.93,8.81-12.53,13.73-18.46c9.38-11.3,24.2-15.81,35-25.44c5.03-4.48,9.21-9.8,13.86-14.65
				c4.34-4.53,9.3-9.03,15.53-10.64c11.21-2.9,20.42,5.21,27.82,12.48c6.81,6.68,14.13,15.48,24.05,17.25
				c2.29,0.41,4.57,0.38,6.86-0.01c1.29-0.22,0.74-2.18-0.54-1.96c-10.54,1.77-18.84-6.71-25.65-13.46
				c-7.01-6.96-14.7-15.4-25.04-16.75c-13.07-1.71-22.3,9.15-30.15,17.89c-4.77,5.31-9.69,10.14-15.68,14.08
				c-6.01,3.95-12.43,7.26-18.28,11.45c-2.94,2.11-5.74,4.43-8.17,7.11c-2.47,2.73-4.42,5.83-6.34,8.97
				c-2.05,3.34-4.11,6.73-6.99,9.44c-2.52,2.37-5.55,4.09-8.68,5.53c-5.89,2.71-12.26,4.42-17.85,7.79
				c-5.99,3.6-9.54,8.96-11.64,15.55c-2.29,7.21-3.34,14.91-8.25,20.95c-5.07,6.23-12.29,10.7-18.74,15.36
				c-13.79,9.97-28.14,19.66-44.24,25.51c-4.22,1.53-8.57,2.67-12.78,4.21c-3.97,1.45-7.64,3.4-11.21,5.64
				c-7.35,4.6-14.58,9.01-22.64,12.27c-15.44,6.24-31.93,9.34-48.33,11.79c-4.07,0.61-8.15,1.17-12.22,1.73
				C379.82,259.18,380.37,261.14,381.65,260.96L381.65,260.96z"/>
		</g>
	</g>
	<g style="opacity:0.9;">
		<g>
			<path style="fill:#FFFFFF;" d="M553.7,238.48c-13.24,16-36.46,19.97-55.64,24.24c-23.62,5.26-47.58,9.02-71.69,11.23
				c-8.74,0.8-17.5,1.35-26.26,1.86c-3.41,0.2-6.83,0.35-10.24,0.31c-2.71-0.03-5.33-0.5-8.02-0.68c-7.93-0.52-15.99,0.25-23.9,0.76
				c-8.75,0.57-17.53,1.28-26.31,1.25c-9.69-0.03-19.42-1.04-29.06-1.81c-16.27-1.29-32.53-2.7-48.8-4.05
				c-18.45-1.53-36.9-3-55.36-4.25c-18.47-1.25-36.91-2.37-55.43-1.65c-40.92,1.6-81.36,8.93-122.38,9.21
				c-5.77,0.04-11.54-0.04-17.31-0.23c-1.31-0.04-1.31,1.99,0,2.03c22.34,0.73,44.64-0.43,66.88-2.51
				c19.88-1.86,39.71-4.37,59.64-5.74c37.38-2.57,74.86,1.19,112.12,4.21c17.21,1.39,34.41,2.88,51.62,4.29
				c11.52,0.94,23.07,2.02,34.62,2.46c15.42,0.58,30.82-1.66,46.22-2.02c6.16-0.14,12.19,0.85,18.33,0.75
				c6.93-0.12,13.9-0.65,20.81-1.13c23.97-1.65,47.84-4.81,71.41-9.46c11.36-2.24,22.7-4.73,33.87-7.79
				c9.07-2.48,18.21-5.59,26.12-10.8c3.82-2.52,7.27-5.52,10.19-9.05C555.97,238.92,554.53,237.47,553.7,238.48L553.7,238.48z"/>
		</g>
	</g>
	<g style="opacity:0.9;">
		<g>
			<path style="fill:#FFFFFF;" d="M896.78,138.4c-7.75-10.94-15.29-22.14-24.5-31.94c-4.5-4.79-9.41-9.21-14.79-13
				c-6.06-4.27-12.65-7.73-18.94-11.64c-22.01-13.68-37.29-35.18-48.11-58.36c-1.37-2.94-2.67-5.92-3.93-8.92
				c-1.04-2.48-2.13-4.97-3.68-7.17c-1.5-2.14-3.4-3.99-5.89-4.9c-3.13-1.15-6.45-0.36-9.37,1.01c-5.06,2.37-9.75,5.94-14.07,9.44
				c-4.15,3.36-8.03,7.03-11.68,10.93c-15.09,16.13-25.99,35.58-37.25,54.42c-11.39,19.05-23.41,38.26-40.27,53.01
				c-2.74,2.4-5.59,4.68-8.45,6.94c-1.03,0.81,0.42,2.24,1.44,1.44c5.11-4.05,10.12-8.2,14.71-12.83
				c3.84-3.87,7.43-7.99,10.82-12.26c6.77-8.53,12.75-17.65,18.44-26.92c11.42-18.59,21.74-38.06,35.58-55.02
				c6.74-8.25,14.35-15.87,23.07-22.04c2.28-1.61,4.61-3.18,7.06-4.52c2.95-1.63,6.5-2.94,9.79-1.48c5.13,2.28,7.09,8.93,9.12,13.66
				c9.79,22.78,23.51,44.66,43.52,59.8c5.46,4.13,11.39,7.52,17.28,11c6.08,3.59,11.95,7.42,17.24,12.12
				c9.89,8.78,17.81,19.48,25.42,30.22c1.9,2.68,3.79,5.37,5.68,8.05C895.78,140.49,897.54,139.48,896.78,138.4L896.78,138.4z"/>
		</g>
	</g>
	<g style="opacity:0.9;">
		<g>
			<path style="fill:#FFFFFF;" d="M1576.69,266.35c-9.57,0.65-19.26,0.4-28.84,0.33c-24.66-0.18-49.31-1.17-73.97-1.38
				c-23.89-0.2-47.78-0.09-71.66,0.15c-22.01,0.22-44.02,0.55-66.02,1.14c-10.39,0.28-20.94,0.2-31.26,1.52
				c-5.06,0.65-10.49,0.19-15.6,0.06c-9.23-0.24-18.46-0.64-27.69-1.05c-17.42-0.77-34.83-1.79-52.25-2.38
				c-4.19-0.14-8.34,0.08-12.53,0.02c-9.84-0.14-19.68-0.59-29.52-0.97c-2.47-0.1-5.01-0.36-7.48-0.19
				c-3.54,0.25-7.08,1.04-10.57,1.65c-4.73,0.83-9.46,1.71-14.18,2.6c-2.86,0.54-5.71,1.29-8.62,1.36
				c-34.05,0.88-64.81-15.76-92.75-33.47c-5.61-3.56-11.13-7.25-16.66-10.92c-1.09-0.72-2.11,1.04-1.03,1.76
				c25.93,17.15,52.7,35.01,83.47,41.92c11.05,2.48,22.67,3.86,33.86,1.73c8.56-1.63,17.19-3.58,25.86-4.54
				c2.3-0.25,4.65-0.01,6.96,0.08c4.73,0.18,9.46,0.37,14.19,0.55c7.74,0.28,15.52,0.7,23.26,0.36c4.81-0.21,9.71,0.23,14.51,0.44
				c9.05,0.4,18.1,0.85,27.15,1.27c17.83,0.84,35.72,1.97,53.58,1.95c3.09,0,6.13-0.35,9.03-0.6c5.17-0.44,10.38-0.57,15.57-0.75
				c19.98-0.69,39.98-1.02,59.97-1.3c24.41-0.34,48.83-0.52,73.24-0.47c24.07,0.06,48.11,0.76,72.18,1.21
				c15.43,0.29,30.94,0.68,46.36,0c0.47-0.02,0.95-0.04,1.42-0.07C1577.99,268.29,1578,266.26,1576.69,266.35L1576.69,266.35z"/>
		</g>
	</g>
	<g style="opacity:0.1;">
		<g>
			<path style="fill:#FFFFFF;" d="M403.92,277.32c38.51-1.94,77.21-7.13,114.59-16.73c13.41-3.44,27.95-8.32,37.02-19.42
				c4.88-5.97,7.14-13.82,12.98-19.03c6.17-5.5,14.49-7.59,22.24-9.84c13.27-3.86,23.5-9,30.63-21.34
				c3.7-6.4,6.44-13.32,10.38-19.59c4.92-7.82,11.93-13.82,19.21-19.37c11.95-9.1,23.26-18.01,32.87-29.68
				c8.69-10.55,16.12-22.05,23.41-33.58c15.44-24.4,31.12-50.4,56.61-65.54c5.09-3.03,11.44-5.71,16.35-0.73
				c3.06,3.11,4.54,7.6,6.33,11.47c3.34,7.23,7.09,14.27,11.35,21c7.97,12.56,17.8,24.04,29.74,32.98
				c14.27,10.67,30.76,16.86,43.53,29.7c10.64,10.7,19.12,23.26,28.32,35.16c9.36,12.1,19.65,23.36,32.77,31.44
				c15.28,9.41,32.48,15.16,48.33,23.5c32.11,16.89,60.67,40.2,94.64,53.58c15.94,6.28,32.94,10.35,50.15,10.05
				c7.41-0.13,14.9-2.07,22.18-3.3c5.9-0.99,11.26-2.39,16.98-1.74c8.18,0.93,16.39,2.15,24.6,2.78c13.81,1.07,28.05,0.1,41.91,0.1
				c10.53,0,20.35-0.22,30.78-1.42c17.32-1.99,34.65-3.98,51.97-5.96c6.76-0.78,13.65,0.25,20.42,0.68
				c17.89,1.13,35.79,2.26,53.68,3.39c26.29,1.66,52.79,4.51,79.13,4.97c31.39,0.55,62.94-1,94.33-1.51
				c3.26-0.05,6.52-0.1,9.77-0.16c0.95-0.02,0.95-1.49,0-1.48c-30.42,0.49-60.84,0.97-91.27,1.46c-20.98,0.33-41.86-1.6-62.8-2.93
				c-32.53-2.06-65.05-4.24-97.59-6.17c-9.76-0.58-20.15,1.91-29.81,3.02c-13.4,1.54-27,3.93-40.47,4.61
				c-15.87,0.81-31.98,0-47.86,0c-12.55,0-24.67-1.51-37.17-2.93c-13.19-1.49-26.53,5.01-39.81,5.1
				c-38.31,0.25-72.34-20.06-103.66-39.88c-15.62-9.88-31.21-19.9-47.92-27.87c-16.66-7.95-34.56-14.09-49.13-25.76
				c-23.7-18.98-36.14-48.3-59.76-67.37c-13.58-10.96-30.19-16.9-43.19-28.77c-12.22-11.16-21.74-24.98-29.27-39.65
				c-4.89-9.54-9.19-27.19-23.48-21.25c-12.22,5.08-23.13,15.69-31.71,25.47c-18.49,21.06-30.89,46.53-47.56,68.93
				c-9.49,12.76-20.36,23.47-33.1,32.96c-12.34,9.2-22.6,18.21-29.62,32.13c-3.5,6.94-6.7,14.27-12.06,20.02
				c-5.9,6.32-13.85,9.15-21.94,11.53c-13.22,3.9-24.27,7.38-31.41,19.98c-4.42,7.8-9.07,14.21-16.86,18.95
				c-7.06,4.3-15.01,6.98-22.95,9.14c-18.69,5.09-37.94,8.59-57.08,11.46c-19.8,2.96-39.74,4.89-59.73,5.9
				C402.98,275.89,402.97,277.36,403.92,277.32L403.92,277.32z"/>
		</g>
	</g>
	<g style="opacity:0.1;">
		<g>
			<path style="fill:#FFFFFF;" d="M1128.47,270.16c-34.6,1.34-66.64-13.43-95.91-30.37c-14.61-8.45-28.91-17.46-43.84-25.36
				c-14.66-7.76-30.19-13.35-45.16-20.4c-13.84-6.52-25.64-15.18-35.91-26.51c-9.3-10.26-17.3-21.6-26.46-31.97
				c-9.58-10.85-20.27-19.43-33.09-26.16c-6.99-3.67-14.01-7.23-20.44-11.84c-6.19-4.44-11.85-9.59-16.97-15.23
				c-9.85-10.84-17.59-23.4-23.89-36.58c-2.22-4.65-4.79-10.26-10.23-11.78c-6.15-1.73-12.48,2.56-17.44,5.66
				c-21.62,13.51-36.3,34.69-50.27,55.47c-7.33,10.9-14.62,21.86-23.02,31.98c-9.08,10.93-19.43,19.88-31.06,28.01
				c-5.84,4.09-11.76,8.18-16.91,13.14c-4.88,4.7-8.5,10.18-11.7,16.12c-3.32,6.16-6.32,12.64-11.03,17.89
				c-4.86,5.42-11.17,8.46-18.01,10.61c-11.31,3.57-24.9,5.09-32.9,14.86c-4.55,5.55-7.02,12.34-12.36,17.32
				c-5.48,5.11-12.4,8.47-19.4,10.98c-15.24,5.47-31.69,8.15-47.59,10.94c-17.96,3.15-36.05,5.52-54.22,7.11
				c-8.9,0.78-17.81,1.37-26.73,1.78c-0.95,0.04-0.95,1.52,0,1.48c35.45-1.66,70.75-6.18,105.45-13.66
				c13.63-2.94,28.27-6.05,39.73-14.47c5.29-3.88,8.83-8.7,12.13-14.3c4.13-7.02,9-11.75,16.64-14.74
				c11.39-4.46,24.61-5.25,34.43-13.18c10.8-8.72,13.94-23.16,22.67-33.53c9.54-11.33,23.3-18.05,34.48-27.52
				c9.64-8.16,17.85-17.83,25.34-27.96c15.33-20.73,27.82-43.81,46.28-62.06c4.74-4.68,9.84-9,15.34-12.76
				c5.76-3.94,15.21-11.19,22.18-6.63c3.01,1.96,4.72,5.41,6.23,8.54c1.6,3.33,3.21,6.64,4.97,9.89c3.4,6.29,7.19,12.38,11.43,18.14
				c8.26,11.22,18.27,21.17,30.03,28.7c6.79,4.35,14.14,7.68,21.16,11.63c6.78,3.81,12.99,8.41,18.65,13.75
				c20.02,18.87,33.06,44.47,56.49,59.79c13.35,8.73,28.58,13.91,43.09,20.31c15.45,6.82,30.03,15.35,44.53,23.97
				c28.07,16.7,56.91,33.82,89.7,38.99c7.81,1.23,15.69,1.71,23.59,1.41C1129.41,271.6,1129.42,270.12,1128.47,270.16
				L1128.47,270.16z"/>
		</g>
	</g>
	<g style="opacity:0.3;">
		<g>
			<path style="fill:#FFFFFF;" d="M1556.13,263.6c-63.54-6.63-125.66,10.12-188.9,11.59c-21.48,0.5-43.18-8.77-63.41-15.02
				c-23.32-7.2-46.24-13.06-70.53-15.9c-19.33-2.26-38.81-3.6-58.26-4.21c-9.78-0.31-19.31,0.34-29.07-1.22
				c-14.68-2.35-28.91-7.47-41.7-15.05c-13.55-8.04-23.91-18.55-33.53-30.87c-3.93-5.03-8.09-9.08-13.62-12.3
				c-7.32-4.26-14.53-7.55-20.22-14.1c-10.06-11.59-18.57-24.3-29.11-35.55c-10.65-11.37-22.17-21.93-34.42-31.56
				c-18.09-14.24-47.22-38.34-69.34-18.17c-5.47,4.99-9.86,11.05-16.39,14.81c-6.63,3.81-14.29,5.38-20.33,10.25
				c-10.69,8.61-14.4,22.68-26.44,30.13c-5.8,3.59-12.08,6.22-17.48,10.45c-5.27,4.13-9.66,9.23-13.54,14.67
				c-8.08,11.32-14.1,23.97-21.99,35.42c-9.05,13.12-20.05,25.25-34.09,33.1c-14.75,8.25-31.67,10.99-47.94,14.68
				c-15.34,3.48-30.35,8.17-44.85,14.27c-6.92,2.91-13.72,6.11-20.36,9.62c-4.36,2.3-8.54,5.57-13.32,6.89
				c-6.47,1.79-13.09,0.01-19.39-1.51c-5.22-1.26-10.56-1.26-15.89-0.78c-8.82,0.79-17.16,3.14-25.74,5.12
				c-16.92,3.91-36.78,3.16-53.84,1.13c-13.73-1.63-26.52-6.5-40.47-6.62c-11.78-0.1-23.59,1.64-35.03,4.38
				c-4.01,0.96-9.5,3.17-12.93,3.58c-3.01,0.36-6.35-0.1-9.37-0.16c-16.76-0.3-33.53-0.67-50.29-1.08
				c-57.14-1.41-114.27-3.33-171.36-6.18c-15.45-0.77-30.9-1.63-46.34-2.57c-1.27-0.08-1.26,1.9,0,1.97
				c60.67,3.72,121.43,6.04,182.18,7.8c21.86,0.63,43.72,1.18,65.59,1.64c9.54,0.2,20.24,1.77,29.74,0.55
				c3.72-0.47,7.55-2.21,11.2-3.13c12.28-3.1,24.98-5.04,37.66-4.82c14.2,0.25,27.48,5.38,41.54,6.84
				c12.4,1.29,24.95,1.17,37.37,0.27c14.27-1.03,27.62-5.96,41.86-6.91c11.04-0.74,21.51,4.73,32.45,2.69
				c2.68-0.5,4.41-1.34,6.74-2.65c7.19-4.03,14.44-7.89,21.95-11.3c15.75-7.17,32.21-12.69,49.06-16.61
				c14.59-3.39,29.57-5.8,43.4-11.8c26.55-11.51,41.87-35.89,55.94-59.85c8.52-14.51,17.65-25.98,32.63-34.11
				c5.25-2.85,10.32-5.72,14.42-10.14c4.12-4.46,7.03-9.85,10.52-14.78c5.74-8.12,12.3-11.81,21.24-15.7
				c5.82-2.54,10.64-5.4,15.16-9.86c5.69-5.62,10.6-12.2,18.62-14.62c9.79-2.96,20.2,0.92,28.78,5.58
				c27.41,14.88,52,38.36,72.02,62.02c9.33,11.03,16.8,25.32,29.43,32.98c6.47,3.92,13.31,6.58,18.73,12.07
				c5.38,5.45,9.4,12.16,14.7,17.73c18.44,19.37,44.07,31.46,70.52,34.69c15.85,1.94,32.54,0.77,48.56,1.79
				c24.81,1.58,50.07,3.71,74.21,9.92c23.66,6.09,46.63,14.62,70.27,20.78c22.4,5.83,45.45,2.41,68.18-0.11
				c32.2-3.57,64.32-8.27,96.73-9.53c16.06-0.62,32.13-0.34,48.13,1.33C1557.39,265.7,1557.38,263.73,1556.13,263.6L1556.13,263.6z"
				/>
		</g>
	</g>
	<g style="opacity:0.2;">
		<g>
			<path style="fill:#FFFFFF;" d="M381.38,261.88c16.28-2.11,32.65-4.25,48.49-8.71c7.52-2.12,14.91-4.77,21.95-8.18
				c7.62-3.68,14.45-9.04,22.38-12.06c4.12-1.57,8.4-2.61,12.59-3.96c3.78-1.21,7.49-2.64,11.13-4.22
				c7.58-3.29,14.82-7.3,21.84-11.64c7.11-4.4,14-9.14,20.87-13.89c5.95-4.11,12.19-8.46,15.6-15.05
				c3.29-6.36,3.86-13.75,7.17-20.09c3.28-6.28,9.29-9.51,15.66-11.96c5.9-2.27,12.16-4.04,17.42-7.65
				c6.03-4.14,9.04-10.64,13.34-16.31c8.86-11.67,23.89-15.92,35.12-24.69c5.16-4.03,9.44-9.03,14.03-13.67
				c4.45-4.5,9.4-9.05,15.57-10.95c11.2-3.45,20.71,3.69,28.52,10.85c7.09,6.5,14.56,15.06,24.54,16.77
				c2.31,0.4,4.61,0.37,6.93,0.01c1.25-0.2,0.72-2.1-0.52-1.9c-10.6,1.67-19.01-6.43-26.13-13.08
				c-7.19-6.72-15.06-14.54-25.41-15.45c-13.07-1.15-22.21,9.59-30.41,18.1c-4.77,4.95-9.8,9.22-15.7,12.78
				c-6.19,3.73-12.74,6.91-18.64,11.12c-2.72,1.94-5.3,4.1-7.53,6.59c-2.38,2.66-4.27,5.69-6.23,8.67
				c-2.13,3.24-4.41,6.41-7.52,8.78c-2.61,1.99-5.63,3.44-8.66,4.67c-5.85,2.38-12.1,4.03-17.53,7.35
				c-5.78,3.54-9.03,8.83-11.06,15.18c-2.29,7.19-3.68,14.36-9.14,19.97c-5.52,5.66-12.7,9.86-19.21,14.27
				c-13.76,9.31-28.11,18.15-43.99,23.34c-4.17,1.36-8.45,2.41-12.58,3.92c-3.89,1.43-7.5,3.39-11.05,5.52
				c-7.01,4.2-14.04,8.04-21.69,10.95c-15.34,5.82-31.61,8.71-47.8,10.99c-4.12,0.58-8.24,1.12-12.37,1.65
				C380.14,260.07,380.12,262.04,381.38,261.88L381.38,261.88z"/>
		</g>
	</g>
	<g style="opacity:0.4;">
		<g>
			<path style="fill:#FFFFFF;" d="M359.01,261.53c22.54-0.97,48.3-2.62,64.71-20.21c4.33-4.64,7.9-9.92,11.95-14.8
				c3.81-4.59,8.11-8.51,13.14-11.72c9.56-6.11,20.41-9.98,29.7-16.53c4.56-3.22,8.48-7.08,11.67-11.67
				c3.17-4.57,5.61-9.59,8.14-14.54c2.59-5.07,5.27-10.19,8.94-14.57c4.02-4.8,9.16-8.06,14.54-11.13c5.27-3,10.36-6.1,14.89-10.16
				c4.05-3.63,7.63-7.75,10.96-12.05c6.81-8.78,12.58-18.32,19.7-26.86c3.62-4.35,7.63-8.59,12.22-11.93
				c2.68-1.95,6.01-3.51,9.11-1.51c2.39,1.54,4.19,4.03,6.3,5.92c8.79,7.87,20.06,12.8,31.73,14.31c2.97,0.38,5.95,0.54,8.94,0.47
				c1.27-0.03,1.27-2,0-1.97c-12.17,0.28-24.33-3.33-34.33-10.29c-2.5-1.74-4.85-3.7-7-5.86c-1.92-1.91-3.7-4.18-6.34-5.12
				c-5.58-1.98-11.03,3.36-14.74,6.82c-16.26,15.17-24.57,37.46-42.86,50.64c-5.25,3.78-11.18,6.45-16.5,10.11
				c-4.69,3.22-8.48,7.3-11.58,12.05c-6.17,9.42-9.64,20.57-17.26,29.04c-7.64,8.49-18.51,13-28.45,18.15
				c-5.02,2.6-9.95,5.42-14.36,8.98c-4.71,3.8-8.46,8.54-12.13,13.31c-3.86,5.03-7.74,10.1-12.68,14.13
				c-4.4,3.59-9.5,6.31-14.8,8.31c-11.1,4.19-23.07,5.51-34.84,6.24c-2.92,0.18-5.84,0.32-8.76,0.44
				C357.74,259.61,357.74,261.58,359.01,261.53L359.01,261.53z"/>
		</g>
	</g>
	<g style="opacity:0.1;">
		<g>
			<path style="fill:#FFFFFF;" d="M1510.27,271.45c-36.63-10.87-74.77-11.4-112.61-11.58c-26.8-0.13-53.67-1.92-80.17-5.98
				c-16.48-2.52-32.56-7.26-49.13-9.07c-30.79-3.37-62.14-3.08-93.07-2.5c-18.43,0.35-35.91-0.77-53.46-7.06
				c-12.11-4.34-23.63-10.6-33.65-18.69c-4.46-3.6-8.64-7.58-12.42-11.9c-4.18-4.79-7.8-10.12-12.94-13.99
				c-4.51-3.39-9.8-5.43-14.74-8.07c-6.56-3.51-11.38-8.53-15.99-14.27c-8.03-9.99-16.36-19.63-25.52-28.62
				c-17.9-17.57-38.68-34.89-61.19-46.22c-9.79-4.93-21.58-8.59-32.31-4.49c-10.72,4.1-16.52,15.09-26.77,20.05
				c-5.15,2.49-10.81,3.9-15.79,6.77c-4.52,2.6-8.05,6.34-11.16,10.48c-3.37,4.49-6.27,9.35-10.19,13.4
				c-4.86,5.02-11.11,7.7-17.21,10.85c-21.31,11-30.2,32.94-43.77,51.37c-8.02,10.89-17.45,20.91-28.98,28.11
				c-12.19,7.61-26.1,11.14-40.02,14.05c-26.52,5.54-52.13,12.26-76.67,24.05c-6.42,3.09-11.7,7.06-18.43,8.89
				c-10.93,2.98-22.88,2.8-34.1,2.49c-25.31-0.7-50.19-5.2-75.35-7.51c-46.69-4.29-94.38-3.56-140.95,1.96
				c-4.48,0.53-8.97,1.08-13.4,1.91c-1.2,0.23-0.69,2.06,0.51,1.84c13.54-2.55,27.5-3.49,41.21-4.45
				c24.77-1.75,49.64-2.33,74.46-1.61c28.49,0.83,56.39,4.88,84.69,7.78c17.11,1.75,34.65,3.11,51.83,1.39
				c5.63-0.56,11.65-1.3,16.78-3.85c15.99-7.97,31.69-15.65,48.81-21.08c13.17-4.18,26.6-6.97,40.12-9.76
				c12.86-2.66,25.84-5.74,37.45-12.08c20.8-11.36,34.2-30.94,46.47-50.52c6.83-10.89,14.26-21.84,25.46-28.66
				c9.61-5.85,19.22-9.14,26.3-18.36c3.57-4.65,6.53-9.8,10.66-14.01c5.21-5.31,11.79-7.45,18.51-10.19
				c4.67-1.9,8.87-4.3,12.64-7.65c4.53-4.02,8.43-8.9,13.71-12.01c13.34-7.86,29.21-1,41.2,6.19c12.08,7.25,23.59,15.61,34.47,24.56
				c10.06,8.27,19.59,17.19,28.48,26.71c8.62,9.23,15.67,20.67,25.25,28.89c3.86,3.32,8.33,5.52,12.85,7.76
				c7,3.46,12.52,7.51,17.53,13.53c7.27,8.72,14.95,16.56,24.38,22.98c19.1,13.01,42.07,20.26,65.12,21.19
				c10.43,0.42,21.08-0.37,31.53-0.43c17.18-0.11,34.36,0.05,51.52,0.82c16.11,0.72,31.87,2.12,47.59,5.75
				c21.08,4.85,42.65,7.67,64.19,9.37c28.31,2.23,56.6,0.58,84.89,2.14c20.81,1.15,41.61,4.03,61.9,8.84
				c3.01,0.71,6.02,1.45,8.98,2.33C1510.94,273.63,1511.44,271.79,1510.27,271.45L1510.27,271.45z"/>
		</g>
	</g>
	<g style="opacity:0.1;">
		<g>
			<path style="fill:#FFFFFF;" d="M381.38,262.85c15.9-1.92,31.87-3.86,47.41-7.83c7.53-1.92,14.94-4.35,22.07-7.47
				c7.56-3.32,14.4-8.22,22.11-11.19c3.89-1.5,7.95-2.47,11.95-3.59c3.9-1.1,7.75-2.4,11.52-3.88c7.42-2.91,14.56-6.48,21.5-10.4
				c7.01-3.96,13.81-8.27,20.58-12.61c6.11-3.92,12.86-7.82,16.9-14.06c3.74-5.78,4.36-12.84,7.39-18.93
				c3.04-6.11,8.61-9.34,14.79-11.67c5.88-2.22,12.09-3.76,17.59-6.88c6.37-3.62,9.67-9.66,14.05-15.25
				c8.82-11.25,23.47-15.1,34.81-23.06c5.11-3.59,9.42-8.11,13.9-12.41c4.48-4.29,9.33-8.65,15.29-10.73
				c22.98-8.03,34.12,21.92,54.26,25.27c2.35,0.39,4.68,0.37,7.04,0.03c1.21-0.18,0.69-2.01-0.51-1.84
				c-10.67,1.56-19.2-6.1-26.65-12.6c-7.44-6.48-15.62-13.69-26.02-14.03c-12.76-0.42-21.65,9.65-30.1,17.73
				c-4.88,4.67-10.14,8.5-16.07,11.75c-6.13,3.36-12.54,6.29-18.31,10.28c-2.72,1.88-5.31,4-7.51,6.48
				c-2.36,2.65-4.25,5.66-6.34,8.52c-2.17,2.97-4.63,5.64-7.78,7.6c-2.71,1.69-5.68,2.91-8.67,3.99
				c-5.84,2.11-12.03,3.69-17.34,7.02c-5.58,3.51-8.49,8.79-10.45,14.93c-1.05,3.28-1.9,6.65-3.35,9.79
				c-1.56,3.38-3.88,6.19-6.68,8.61c-5.91,5.1-13.03,9.04-19.64,13.16c-13.85,8.64-28.28,16.63-44.06,21.15
				c-4,1.15-8.06,2.1-11.97,3.54c-3.73,1.38-7.23,3.26-10.69,5.2c-7.07,3.98-14.26,7.45-21.95,10.08
				c-15.23,5.23-31.23,7.83-47.16,9.9c-3.96,0.51-7.92,1-11.89,1.47C380.18,261.09,380.17,263,381.38,262.85L381.38,262.85z"/>
		</g>
	</g>
	<g style="opacity:0.1;">
		<g>
			<path style="fill:#FFFFFF;" d="M359.01,262.52c21.95-0.88,47.44-2.06,64.16-18.3c4.34-4.22,7.93-9.12,11.91-13.66
				c3.91-4.46,8.27-8.26,13.36-11.33c9.5-5.72,20.17-9.25,29.52-15.26c4.44-2.85,8.39-6.28,11.62-10.47
				c3.33-4.32,5.9-9.15,8.51-13.92c2.62-4.8,5.33-9.62,8.97-13.73c4.06-4.57,9.19-7.61,14.54-10.45c5.15-2.73,10.15-5.53,14.67-9.24
				c4.11-3.37,7.77-7.25,11.17-11.32c6.91-8.26,12.8-17.34,20.01-25.36c3.62-4.03,7.6-7.92,12.1-10.97
				c2.78-1.88,6.13-3.26,9.27-1.34c2.34,1.44,4.16,3.75,6.27,5.5c8.99,7.46,20.26,11.92,31.82,13.29c2.9,0.34,5.82,0.47,8.74,0.41
				c1.22-0.03,1.23-1.93,0-1.9c-12.11,0.25-24.3-3.02-34.47-9.66c-2.37-1.55-4.62-3.28-6.71-5.2c-1.99-1.83-3.82-4.03-6.46-4.93
				c-5.46-1.85-10.8,2.93-14.61,6.22c-16.32,14.09-25.06,35.39-43.31,47.46c-5.16,3.42-10.9,5.83-16.12,9.16
				c-4.74,3.02-8.63,6.92-11.83,11.53c-6.19,8.92-9.82,19.6-17.66,27.35c-7.83,7.75-18.5,11.76-28.24,16.49
				c-4.96,2.41-9.87,5.02-14.26,8.39c-4.78,3.67-8.63,8.26-12.44,12.88c-3.83,4.64-7.74,9.28-12.63,12.85
				c-4.46,3.26-9.48,5.69-14.69,7.49c-11.14,3.84-23.03,5.03-34.73,5.69c-2.83,0.16-5.66,0.28-8.49,0.4
				C357.79,260.67,357.78,262.57,359.01,262.52L359.01,262.52z"/>
		</g>
	</g>
</g>
<g>
	<g>
		<path style="fill:#FFFFFF;" d="M843.88,232.45c0,2.64-2.83,4.09-5.92,4.03h-7.81v-0.35c0.53-0.31,0.85-0.59,0.98-0.83
			c0.14-0.26,0.22-0.73,0.22-1.42v-8.87c0-0.69-0.08-1.16-0.22-1.4c-0.14-0.26-0.45-0.53-0.98-0.85v-0.35h8.18
			c1.73,0,3.09,0.45,3.74,1.14c0.69,0.65,0.98,1.36,0.98,2.05c0,1.18-1.02,2.08-2.12,2.46c-0.53,0.18-1.12,0.31-1.77,0.37v0.14
			C841.36,228.77,843.88,229.85,843.88,232.45z M836.05,223.72v4.62h0.47c1.2,0,1.95-0.89,1.95-2.46c0-1.3-0.47-1.83-1.04-2.03
			c-0.41-0.16-0.59-0.14-0.92-0.14H836.05z M838.92,232.53c0-3.32-1.57-3.23-2.2-3.15l-0.67,0.06v4.72c0,0.57,0.43,1,1.38,1
			C838.11,235.16,838.92,234.95,838.92,232.53z"/>
		<path style="fill:#FFFFFF;" d="M863.58,222.42v0.35c-0.83,0.71-1.57,1.63-2.24,2.77l-2.54,4.25v4.09c0,0.69,0.06,1.16,0.2,1.42
			c0.14,0.24,0.47,0.51,1,0.83v0.35h-7.1v-0.35c0.53-0.31,0.85-0.59,0.98-0.83c0.14-0.26,0.22-0.73,0.22-1.42v-4.01l-3.32-5.37
			c-0.51-0.81-0.96-1.38-1.36-1.73v-0.35h7.2v0.35c-0.71,0.43-1.06,0.83-1.06,1.2c0,0.28,0.22,0.75,0.63,1.4l2.08,3.25l1.73-3.07
			c0.26-0.43,0.37-0.83,0.37-1.16c0-0.49-0.29-1.02-0.87-1.61v-0.35H863.58z"/>
		<path style="fill:#FFFFFF;" d="M893.3,235.62c0.16,0.18,0.35,0.33,0.61,0.51v0.35h-7.2v-0.35c0.73-0.45,1-0.75,1-1.28
			c0-0.29-0.12-0.81-0.37-1.55l-0.31-0.94h-3.62c-0.3,0.92-0.43,1.59-0.43,1.97c0,0.65,0.35,1.24,1.08,1.81v0.35h-4.13v-0.35
			c0.67-0.57,1.16-1.12,1.46-1.65c0.3-0.53,0.61-1.26,0.92-2.18l2.4-7l-0.85-1.65c1.59-0.55,2.95-1.18,4.11-1.89l4.66,12.57
			C892.87,234.95,893.08,235.38,893.3,235.62z M886.46,230.64l-1.24-3.8l-1.24,3.8H886.46z"/>
		<path style="fill:#FFFFFF;" d="M914.56,222.77c-1.69,1.16-1.75,1.18-1.85,4.5v9.21h-3.64c-1.55-2.73-3.44-5.86-5.66-9.38v4.52
			c0,2.14,0.2,3.01,0.65,3.56c0.24,0.28,0.65,0.59,1.22,0.94v0.35h-5.11v-0.35c0.59-0.35,1-0.67,1.22-0.94
			c0.24-0.28,0.39-0.67,0.49-1.16c0.1-0.51,0.16-1.32,0.16-2.4v-5.55c0-1.24-0.63-2.4-1.87-3.5v-0.16h5.57
			c1.53,2.32,3.4,5.35,5.59,9.07v-4.21c-0.1-3.32-0.16-3.34-1.85-4.5v-0.35h5.09V222.77z"/>
		<path style="fill:#FFFFFF;" d="M935.6,229.01c0,2.14-0.65,3.93-1.97,5.35c-1.32,1.42-3.19,2.12-5.65,2.12h-7.16v-0.35
			c0.53-0.31,0.85-0.59,0.98-0.83c0.14-0.26,0.22-0.73,0.22-1.42v-8.87c0-0.69-0.08-1.16-0.22-1.4c-0.14-0.26-0.45-0.53-0.98-0.85
			v-0.35h6.33C932.75,222.42,935.6,224.7,935.6,229.01z M929.74,233.51c0.55-1,0.83-2.46,0.83-4.33c0-1.49-0.24-2.73-0.55-3.46
			c-0.29-0.77-0.85-1.34-1.24-1.57c-0.37-0.26-1.04-0.41-1.34-0.41c-0.14-0.02-0.3-0.02-0.51-0.02h-0.2v10.44
			c0,0.55,0.49,0.92,1.12,0.98C928.58,235.05,929.21,234.51,929.74,233.51z"/>
		<path style="fill:#FFFFFF;" d="M953.95,231.78l-0.47,4.7h-11.64v-0.35c0.53-0.31,0.85-0.59,0.98-0.83
			c0.14-0.26,0.22-0.73,0.22-1.42v-8.87c0-0.69-0.08-1.16-0.22-1.4c-0.14-0.26-0.45-0.53-0.98-0.85v-0.35h10.96l0.35,4.84h-0.33
			c-0.33-0.94-0.9-1.77-1.71-2.46c-0.79-0.71-1.79-1.06-3.01-1.06h-0.35v4.72h0.59c1.34,0,2.34-0.73,2.83-1.61h0.29v4.47h-0.29
			c-0.49-1.02-1.49-1.83-2.83-1.81l-0.59,0.02v4.64c0,0.63,0.61,1,1.38,1h0.04c0.92,0,1.77-0.33,2.54-1
			c0.77-0.69,1.42-1.48,1.93-2.38H953.95z"/>
		<path style="fill:#FFFFFF;" d="M961.7,235.73l-0.28-5.02h0.35c1.95,3.13,3.56,4.7,4.84,4.7c0.69,0,1.12-0.47,1.12-1.28
			c0-1.1-0.77-1.93-2.58-3.03l-0.61-0.35l-0.61-0.37l-0.53-0.35c-0.53-0.33-0.57-0.47-0.96-0.85c-0.37-0.37-0.45-0.67-0.67-1.12
			c-0.22-0.47-0.26-0.98-0.26-1.55c0-1.4,0.45-2.48,1.34-3.23c0.89-0.77,2.03-1.14,3.4-1.14c1.1,0,2.44,0.22,4.03,0.65l0.41,4.92
			h-0.35c-0.61-1.12-1.28-2.12-2.05-2.97c-0.77-0.87-1.48-1.3-2.14-1.3c-0.65,0-1.12,0.49-1.12,1.18c0,0.81,0.63,1.44,2.38,2.52
			l0.77,0.45c0.37,0.22,0.63,0.37,0.77,0.47c0.14,0.08,0.35,0.22,0.65,0.43c0.29,0.22,0.51,0.39,0.63,0.53
			c0.24,0.26,0.73,0.81,0.89,1.28c0.16,0.45,0.31,1.1,0.31,1.81c0,1.71-0.67,2.99-1.71,3.68c-1.02,0.65-2.14,0.96-3.34,0.96
			C965.03,236.76,963.45,236.42,961.7,235.73z"/>
	</g>
</g>
<g>
	<g>
		<g>
			<path style="fill:#FFFFFF;" d="M542.12,143.56l36.98,0.08l-0.01,4.06l-32.57-0.07l-0.05,24.54l74.47,0.06l-0.01,4.06l-74.47-0.06
				l-0.05,25.07l33.01,0.07l-0.01,4.06l-37.43-0.08L542.12,143.56z"/>
			<path style="fill:#FFFFFF;" d="M620.17,174.88l0-0.44c0.04-18.62,11.63-31.58,26.81-31.55c8.3,0.02,13.68,3.21,18.43,7.54
				l-2.83,3.35c-4.14-3.98-8.99-6.82-15.79-6.83c-12.45-0.03-22.09,11.34-22.12,27.41l0,0.35c-0.03,16.24,9.56,27.65,22.01,27.67
				c6.62,0.01,11.57-2.62,16.26-7.2l2.73,3.1c-5.04,4.76-10.87,8.19-19.17,8.17C631.49,206.41,620.13,193.77,620.17,174.88z"/>
			<path style="fill:#FFFFFF;" d="M689.97,143.9l4.41,0.01l-0.06,28.69l74.47,0.07l0.06-28.69l4.41,0.01l-0.13,61.79l-4.41-0.01
				l0.06-29.04l-74.47-0.07l-0.06,29.04l-4.41-0.01L689.97,143.9z"/>
			<path style="fill:#FFFFFF;" d="M794.63,175.33l0-0.62c0.04-18.01,10.66-31.58,26.19-31.55c15.54,0.03,25.92,13.56,25.89,31.57
				l0,0.62c-0.04,18.01-10.57,31.58-26.1,31.55C805.07,206.86,794.59,193.33,794.63,175.33z M842.2,175.43l0-0.62
				c0.03-15.89-9.12-27.56-21.48-27.58c-12.45-0.03-21.56,11.52-21.59,27.41l0,0.62c-0.03,15.89,9.12,27.56,21.57,27.58
				C833.06,202.86,842.17,191.31,842.2,175.43z"/>
			<path style="fill:#FFFFFF;" d="M868.19,144.28l36.98,0.08l-0.01,4.06l-32.57-0.07l-0.05,24.54l113.99,0.06l-0.01,4.06
				l-113.99-0.06l-0.05,25.07l33.01,0.07l-0.01,4.06l-37.43-0.08L868.19,144.28z"/>
			<path style="fill:#FFFFFF;" d="M966.86,198.55l2.92-3.44c5.55,5.22,10.93,7.97,18.17,7.98c8.3,0.02,14.05-5.18,14.06-11.89
				l0-0.18c0.01-5.83-2.8-9.63-14.89-13.89c-13.5-4.88-17.72-9.75-17.71-17.78l0-0.18c0.02-8.74,7.54-15.61,17.95-15.59
				c7.06,0.01,12.62,2.14,17.99,6.75l-2.74,3.53c-4.85-4.34-9.87-6.2-15.43-6.21c-8.12-0.02-13.34,5-13.35,11.18l0,0.18
				c-0.01,6,2.89,9.72,15.33,14.07c13.23,4.88,17.19,10.01,17.18,17.69l0,0.18c-0.02,9.36-7.8,16.23-18.48,16.2
				C979.82,207.14,973.29,204.48,966.86,198.55z"/>
		</g>
	</g>
</g>
</svg>
