<?xml version="1.0" encoding="utf-8"?>
<!-- Generator: Adobe Illustrator 24.0.2, SVG Export Plug-In . SVG Version: 6.00 Build 0)  -->
<svg version="1.1" id="Capa_1" xmlns="http://www.w3.org/2000/svg" xmlns:xlink="http://www.w3.org/1999/xlink" x="0px" y="0px"
	 viewBox="0 0 260 260" style="enable-background:new 0 0 260 260;" xml:space="preserve">
<g>
	<rect x="31.23" y="104.96" style="opacity:0.3;fill:#FFFFFF;stroke:#FFFFFF;stroke-miterlimit:10;" width="9.78" height="87.55"/>
	<polygon style="fill:#FFFFFF;stroke:#FFFFFF;stroke-miterlimit:10;" points="41.01,212.71 31.23,200.89 31.23,163.76 41.01,163.76 
			"/>
	<rect x="47.49" y="127.56" style="opacity:0.3;fill:#FFFFFF;stroke:#FFFFFF;stroke-miterlimit:10;" width="9.78" height="64.95"/>
	<polygon style="fill:#FFFFFF;stroke:#FFFFFF;stroke-miterlimit:10;" points="57.27,228.55 47.49,218.88 47.49,147.38 57.27,147.38 
			"/>
	<rect x="63.75" y="116.3" style="opacity:0.3;fill:#FFFFFF;stroke:#FFFFFF;stroke-miterlimit:10;" width="9.78" height="76.21"/>
	<polygon style="fill:#FFFFFF;stroke:#FFFFFF;stroke-miterlimit:10;" points="73.52,237.41 63.75,232.04 63.75,133.62 73.52,133.62 
			"/>
	<rect x="80" y="91.68" style="opacity:0.3;fill:#FFFFFF;stroke:#FFFFFF;stroke-miterlimit:10;" width="9.78" height="100.83"/>
	<polygon style="fill:#FFFFFF;stroke:#FFFFFF;stroke-miterlimit:10;" points="89.78,244.39 80,241.17 80,127.04 89.78,127.04 	"/>
	<rect x="95.94" y="99.33" style="opacity:0.3;fill:#FFFFFF;stroke:#FFFFFF;stroke-miterlimit:10;" width="9.78" height="93.18"/>
	<polygon style="fill:#FFFFFF;stroke:#FFFFFF;stroke-miterlimit:10;" points="105.72,249.49 95.94,247.08 95.94,138.26 
		105.72,138.26 	"/>
	<rect x="112.2" y="109.21" style="opacity:0.3;fill:#FFFFFF;stroke:#FFFFFF;stroke-miterlimit:10;" width="9.78" height="83.3"/>
	<rect x="112.2" y="150.44" style="fill:#FFFFFF;stroke:#FFFFFF;stroke-miterlimit:10;" width="9.78" height="100.94"/>
	<rect x="128.77" y="127.54" style="opacity:0.3;fill:#FFFFFF;stroke:#FFFFFF;stroke-miterlimit:10;" width="9.78" height="64.97"/>
	<rect x="128.77" y="164.54" style="fill:#FFFFFF;stroke:#FFFFFF;stroke-miterlimit:10;" width="9.78" height="86.56"/>
	<rect x="225.99" y="127.54" style="opacity:0.3;fill:#FFFFFF;stroke:#FFFFFF;stroke-miterlimit:10;" width="9.78" height="64.97"/>
	<polygon style="fill:#FFFFFF;stroke:#FFFFFF;stroke-miterlimit:10;" points="235.77,192.51 225.99,204.82 225.99,147.62 
		235.77,147.62 	"/>
	<rect x="160.65" y="120.74" style="opacity:0.3;fill:#FFFFFF;stroke:#FFFFFF;stroke-miterlimit:10;" width="9.78" height="51.77"/>
	<polygon style="fill:#FFFFFF;stroke:#FFFFFF;stroke-miterlimit:10;" points="170.42,245.47 160.65,248.13 160.65,136.04 
		170.42,136.04 	"/>
	<rect x="177.22" y="116.86" style="opacity:0.3;fill:#FFFFFF;stroke:#FFFFFF;stroke-miterlimit:10;" width="9.78" height="75.65"/>
	<polygon style="fill:#FFFFFF;stroke:#FFFFFF;stroke-miterlimit:10;" points="187,238.98 177.22,242.74 177.22,145.68 187,145.68 	
		"/>
	<rect x="193.48" y="105.39" style="opacity:0.3;fill:#FFFFFF;stroke:#FFFFFF;stroke-miterlimit:10;" width="9.78" height="87.12"/>
	<polygon style="fill:#FFFFFF;stroke:#FFFFFF;stroke-miterlimit:10;" points="203.25,228.73 193.48,233.52 193.48,132.05 
		203.25,132.05 	"/>
	<rect x="209.74" y="98.37" style="opacity:0.3;fill:#FFFFFF;stroke:#FFFFFF;stroke-miterlimit:10;" width="9.78" height="94.14"/>
	<polygon style="fill:#FFFFFF;stroke:#FFFFFF;stroke-miterlimit:10;" points="219.51,211.99 209.74,220.53 209.74,111.64 
		219.51,111.64 	"/>
	<rect x="144.82" y="105.13" style="opacity:0.3;fill:#FFFFFF;stroke:#FFFFFF;stroke-miterlimit:10;" width="9.78" height="87.38"/>
	<rect x="144.82" y="120.08" style="fill:#FFFFFF;stroke:#FFFFFF;stroke-miterlimit:10;" width="9.78" height="130.18"/>
	<circle style="fill:none;stroke:#D02C2F;stroke-width:3;stroke-miterlimit:10;" cx="130" cy="130" r="122.19"/>
</g>
</svg>
