<?xml version="1.0" encoding="utf-8"?>
<!-- Generator: Adobe Illustrator 24.0.2, SVG Export Plug-In . SVG Version: 6.00 Build 0)  -->
<svg version="1.1" id="Capa_1" xmlns="http://www.w3.org/2000/svg" xmlns:xlink="http://www.w3.org/1999/xlink" x="0px" y="0px"
	 viewBox="0 0 350 350" enable-background="new 0 0 350 350" xml:space="preserve">
<circle id="pulse" fill="none" stroke="#D02C2F" stroke-width="3" stroke-miterlimit="10" cx="175" cy="175" r="122.2"/>
<circle fill="none" stroke="#D02C2F" stroke-width="3" stroke-miterlimit="10" cx="175" cy="175" r="122.2"/>
<g>
	
		<line opacity="0.3" fill="none" stroke="#FFFFFF" stroke-width="3" stroke-miterlimit="10" enable-background="new    " x1="178.7" y1="122" x2="178.9" y2="108.7"/>
	
		<line opacity="0.3" fill="none" stroke="#FFFFFF" stroke-width="3" stroke-miterlimit="10" enable-background="new    " x1="159.9" y1="126.6" x2="152.3" y2="115.7"/>
	
		<line opacity="0.3" fill="none" stroke="#FFFFFF" stroke-width="3" stroke-miterlimit="10" enable-background="new    " x1="194.4" y1="126.5" x2="204.3" y2="117.6"/>
</g>
<g>
	<g>
		<path fill="#FFFFFF" d="M239.7,226.3l-30.2,10.5c-0.7,0.2-1.1,1-0.8,1.7c0.2,0.7,1,1.1,1.7,0.8l30.2-10.5c0.7-0.2,1.1-1,0.8-1.7
			C241.2,226.4,240.4,226,239.7,226.3z"/>
		<path fill="#FFFFFF" d="M181.9,157.5l30.2-10.5c0.7-0.2,1.1-1,0.8-1.7c-0.2-0.7-1-1.1-1.7-0.8L181,155c-0.7,0.2-1.1,1-0.8,1.7
			C180.4,157.4,181.2,157.7,181.9,157.5z"/>
		<g>
			<polygon fill="#FFFFFF" points="229.6,185.2 218.1,152 212.5,148.2 182.3,158.7 180.3,165.1 191.9,198.3 			"/>
			<polygon fill="#FFFFFF" points="192.2,199.3 204.4,234.4 209.1,235.5 239.3,225 242.2,221.2 230,186.1 			"/>
		</g>
	</g>
	<g>
		<g>
			<path d="M194.6,177.4l2.1,0.7l-0.1,1.4c0,0,2.1,3.5,3.8,2.5c1.7-1-0.8-4.7-0.8-4.7l-1.2-0.8l0.2-2l1.8,0.9l-0.1,1.6
				c0.8,1.6,2.4,3.8,4.1,3.2c1.6-0.6,0.8-4.6,0-4.9s-1,0.8-1,0.8l-1.5-0.4l0.7-1.6c0,0,0.7,0.5,1.1-0.1s-0.7-1.3-0.7-1.3l0.5-2
				l1.6,1.2c0,0-0.3,1.2,0.3,1.4c0.6,0.2,0.9-0.6,0.9-0.6l1.6,0.7l-0.9,1.3c0,0-0.9-0.7-1.3,0s1.5,4.3,3.2,3.8
				c1.6-0.6,1.5-3.3,1.1-5.1l-1.1-1.1l0.8-1.9l1.4,1.4l-0.4,1.4c0,0,0.4,4.4,2.4,4.1c1.9-0.3,1.4-4.3,1.4-4.3l-1-1.1l1.2-1.8
				l0.9,8.9l-7.9,2.9l-7.9,2.9L194.6,177.4z"/>
			<path d="M199.5,185.9l-0.1-0.3c-0.1-0.2,0-0.3,0.2-0.4l16-5.8c0.2-0.1,0.3,0,0.4,0.2l0.1,0.3c0.1,0.2,0,0.3-0.2,0.4l-16,5.8
				C199.7,186.1,199.6,186,199.5,185.9z"/>
			<rect x="200" y="183.5" transform="matrix(0.9406 -0.3394 0.3394 0.9406 -50.2275 81.6389)" width="16.5" height="1.9"/>
			<path d="M217.1,183.7l-16,5.8c-0.2,0.1-0.3,0-0.4-0.2l-0.1-0.3c-0.1-0.2,0-0.3,0.2-0.4l16-5.8c0.2-0.1,0.3,0,0.4,0.2l0.1,0.3
				C217.4,183.4,217.3,183.6,217.1,183.7z"/>
		</g>
		<g>
			<polygon fill="#FFFFFF" points="213.7,180.3 213.5,180.5 213.6,180.8 213.9,180.8 214,180.6 213.9,180.4 			"/>
			<polygon fill="#FFFFFF" points="208.5,182.2 208.4,182.4 208.5,182.6 208.7,182.7 208.9,182.5 208.8,182.2 			"/>
			<polygon fill="#FFFFFF" points="214.6,180 214.4,180.2 214.5,180.4 214.7,180.5 214.9,180.3 214.8,180.1 			"/>
			<path fill="#FFFFFF" d="M210.6,184.4c0.1,0,0.1-0.1,0.1-0.2l-0.3-1c0-0.1-0.1-0.1-0.2-0.1s-0.1,0.1-0.1,0.2l0.3,1
				C210.5,184.4,210.6,184.4,210.6,184.4z"/>
			<polygon fill="#FFFFFF" points="209.4,181.9 209.2,182.1 209.3,182.3 209.6,182.3 209.7,182.2 209.6,181.9 			"/>
			<polygon fill="#FFFFFF" points="215.4,179.7 215.3,179.9 215.3,180.1 215.6,180.2 215.7,180 215.7,179.8 			"/>
			<polygon fill="#FFFFFF" points="210.3,181.6 210.1,181.8 210.2,182 210.4,182 210.6,181.8 210.5,181.6 			"/>
			<polygon fill="#FFFFFF" points="211.1,181.3 211,181.4 211,181.7 211.3,181.7 211.4,181.5 211.4,181.3 			"/>
			<polygon fill="#FFFFFF" points="212.8,180.6 212.7,180.8 212.8,181.1 213,181.1 213.2,180.9 213.1,180.7 			"/>
			<path fill="#FFFFFF" d="M212.6,183.7c0.1,0,0.1-0.1,0.1-0.2l-0.3-1c0-0.1-0.1-0.1-0.2-0.1s-0.1,0.1-0.1,0.2l0.3,1
				C212.5,183.6,212.6,183.7,212.6,183.7z"/>
			<path fill="#FFFFFF" d="M212,183.9c0.1,0,0.1-0.1,0.1-0.2l-0.3-1c0-0.1-0.1-0.1-0.2-0.1s-0.1,0.1-0.1,0.2l0.3,1
				C211.8,183.9,211.9,183.9,212,183.9z"/>
			<path fill="#FFFFFF" d="M211.3,184.1c0.1,0,0.1-0.1,0.1-0.2l-0.3-1c0-0.1-0.1-0.1-0.2-0.1s-0.1,0.1-0.1,0.2l0.3,1
				C211.1,184.1,211.2,184.2,211.3,184.1z"/>
			<path fill="#FFFFFF" d="M216,182.5c0.1,0,0.1-0.1,0.1-0.2l-0.3-1c0-0.1-0.1-0.1-0.2-0.1s-0.1,0.1-0.1,0.2l0.3,1
				C215.8,182.4,215.9,182.5,216,182.5z"/>
			<path fill="#FFFFFF" d="M213.3,183.4c0.1,0,0.1-0.1,0.1-0.2l-0.3-1c0-0.1-0.1-0.1-0.2-0.1s-0.1,0.1-0.1,0.2l0.3,1
				C213.2,183.4,213.2,183.4,213.3,183.4z"/>
			<path fill="#FFFFFF" d="M215.3,182.7c0.1,0,0.1-0.1,0.1-0.2l-0.3-1c0-0.1-0.1-0.1-0.2-0.1s-0.1,0.1-0.1,0.2l0.3,1
				C215.2,182.7,215.2,182.7,215.3,182.7z"/>
			<path fill="#FFFFFF" d="M214,183.2c0.1,0,0.1-0.1,0.1-0.2l-0.3-1c0-0.1-0.1-0.1-0.2-0.1s-0.1,0.1-0.1,0.2l0.3,1
				C213.8,183.2,213.9,183.2,214,183.2z"/>
			<path fill="#FFFFFF" d="M214.6,182.9c0.1,0,0.1-0.1,0.1-0.2l-0.3-1c0-0.1-0.1-0.1-0.2-0.1s-0.1,0.1-0.1,0.2l0.3,1
				C214.5,182.9,214.6,183,214.6,182.9z"/>
			<polygon fill="#FFFFFF" points="212,180.9 211.8,181.1 211.9,181.4 212.1,181.4 212.3,181.2 212.2,181 			"/>
			<path fill="#FFFFFF" d="M202.9,183c0.2-0.1,0.3-0.3,0.2-0.5c-0.1-0.2-0.3-0.3-0.5-0.2c-0.2,0.1-0.3,0.3-0.2,0.5
				C202.5,182.9,202.7,183,202.9,183z"/>
			<path fill="#FFFFFF" d="M204.9,182.3c0.3-0.1,0.4-0.4,0.3-0.6c-0.1-0.3-0.4-0.4-0.6-0.3s-0.4,0.4-0.3,0.6
				C204.4,182.2,204.6,182.4,204.9,182.3z"/>
			<path fill="#FFFFFF" d="M201,183.7c0.2-0.1,0.3-0.3,0.2-0.4c-0.1-0.2-0.3-0.3-0.4-0.2c-0.2,0.1-0.3,0.3-0.2,0.4
				C200.6,183.6,200.8,183.7,201,183.7z"/>
			
				<rect x="206.3" y="179.9" transform="matrix(0.4252 -0.9051 0.9051 0.4252 -44.4675 291.0872)" fill="#FFFFFF" width="1.3" height="1.3"/>
			<path fill="#FFFFFF" d="M209.7,180.5c0.3-0.1,0.4-0.4,0.3-0.6s-0.4-0.4-0.6-0.3c-0.3,0.1-0.4,0.4-0.3,0.6
				S209.4,180.6,209.7,180.5z"/>
			<path fill="#FFFFFF" d="M213.6,179.1c0.2-0.1,0.3-0.3,0.2-0.4c-0.1-0.2-0.3-0.3-0.4-0.2c-0.2,0.1-0.3,0.3-0.2,0.4
				C213.2,179.1,213.4,179.2,213.6,179.1z"/>
			<polygon fill="#FFFFFF" points="199.9,185.3 199.8,185.5 199.9,185.7 200.1,185.8 200.3,185.6 200.2,185.3 			"/>
			<path fill="#FFFFFF" d="M211.6,179.8c0.2-0.1,0.3-0.3,0.2-0.5c-0.1-0.2-0.3-0.3-0.5-0.2s-0.3,0.3-0.2,0.5
				C211.2,179.8,211.4,179.9,211.6,179.8z"/>
			<polygon fill="#FFFFFF" points="204.2,183.7 204.1,183.9 204.2,184.2 204.4,184.2 204.6,184 204.5,183.8 			"/>
			<polygon fill="#FFFFFF" points="206,183.1 205.8,183.3 205.9,183.5 206.1,183.6 206.3,183.4 206.2,183.2 			"/>
			<polygon fill="#FFFFFF" points="207.7,182.5 207.5,182.7 207.6,182.9 207.8,183 208,182.8 207.9,182.5 			"/>
			<polygon fill="#FFFFFF" points="205.1,183.4 204.9,183.6 205,183.9 205.3,183.9 205.4,183.7 205.3,183.5 			"/>
			<polygon fill="#FFFFFF" points="206.8,182.8 206.7,183 206.7,183.2 207,183.3 207.1,183.1 207.1,182.9 			"/>
			<polygon fill="#FFFFFF" points="200.8,185 200.6,185.2 200.7,185.4 201,185.4 201.1,185.3 201,185 			"/>
			<polygon fill="#FFFFFF" points="203.4,184 203.2,184.2 203.3,184.5 203.5,184.5 203.7,184.3 203.6,184.1 			"/>
			<polygon fill="#FFFFFF" points="201.7,184.7 201.5,184.9 201.6,185.1 201.8,185.1 202,184.9 201.9,184.7 			"/>
			<polygon fill="#FFFFFF" points="202.5,184.4 202.4,184.5 202.4,184.8 202.7,184.8 202.8,184.6 202.8,184.4 			"/>
			<path fill="#FFFFFF" d="M205.3,186.3c0.1,0,0.1-0.1,0.1-0.2l-0.3-1c0-0.1-0.1-0.1-0.2-0.1s-0.1,0.1-0.1,0.2l0.3,1
				C205.1,186.3,205.2,186.3,205.3,186.3z"/>
			<polygon fill="#FFFFFF" points="203.7,187.8 203.6,188 203.7,188.2 203.9,188.2 204.1,188 204,187.8 			"/>
			<polygon fill="#FFFFFF" points="208,186.2 207.9,186.4 208,186.6 208.2,186.7 208.4,186.5 208.3,186.3 			"/>
			<polygon fill="#FFFFFF" points="208.9,185.9 208.7,186.1 208.8,186.3 209.1,186.4 209.2,186.2 209.1,185.9 			"/>
			<polygon fill="#FFFFFF" points="209.8,185.6 209.6,185.8 209.7,186 209.9,186.1 210.1,185.9 210,185.6 			"/>
			<polygon fill="#FFFFFF" points="206.3,186.8 206.2,187 206.2,187.3 206.5,187.3 206.7,187.1 206.6,186.9 			"/>
			<polygon fill="#FFFFFF" points="204.6,187.5 204.4,187.6 204.5,187.9 204.8,187.9 204.9,187.7 204.9,187.5 			"/>
			<path fill="#FFFFFF" d="M210,184.6c0.1,0,0.1-0.1,0.1-0.2l-0.3-1c0-0.1-0.1-0.1-0.2-0.1s-0.1,0.1-0.1,0.2l0.3,1
				C209.8,184.6,209.9,184.6,210,184.6z"/>
			<polygon fill="#FFFFFF" points="210.6,185.3 210.5,185.5 210.5,185.7 210.8,185.8 211,185.6 210.9,185.3 			"/>
			<polygon fill="#FFFFFF" points="207.2,186.5 207,186.7 207.1,186.9 207.4,187 207.5,186.8 207.4,186.6 			"/>
			<polygon fill="#FFFFFF" points="215.8,183.4 215.6,183.6 215.7,183.8 215.9,183.9 216.1,183.7 216,183.5 			"/>
			<polygon fill="#FFFFFF" points="214.9,183.7 214.8,183.9 214.8,184.2 215.1,184.2 215.3,184 215.2,183.8 			"/>
			<polygon fill="#FFFFFF" points="211.5,185 211.3,185.2 211.4,185.4 211.7,185.4 211.8,185.3 211.7,185 			"/>
			<polygon fill="#FFFFFF" points="216.6,183.1 216.5,183.3 216.6,183.5 216.8,183.6 217,183.4 216.9,183.2 			"/>
			<polygon fill="#FFFFFF" points="212.3,184.7 212.2,184.9 212.3,185.1 212.5,185.1 212.7,184.9 212.6,184.7 			"/>
			<polygon fill="#FFFFFF" points="214.1,184 213.9,184.2 214,184.5 214.2,184.5 214.4,184.3 214.3,184.1 			"/>
			<polygon fill="#FFFFFF" points="213.2,184.4 213,184.5 213.1,184.8 213.4,184.8 213.5,184.6 213.4,184.4 			"/>
			<polygon fill="#FFFFFF" points="205.5,187.1 205.3,187.3 205.4,187.6 205.6,187.6 205.8,187.4 205.7,187.2 			"/>
			<path fill="#FFFFFF" d="M207.3,185.6c0.1,0,0.1-0.1,0.1-0.2l-0.3-1c0-0.1-0.1-0.1-0.2-0.1s-0.1,0.1-0.1,0.2l0.3,1
				C207.1,185.6,207.2,185.6,207.3,185.6z"/>
			<path fill="#FFFFFF" d="M203.9,186.8c0.1,0,0.1-0.1,0.1-0.2l-0.3-1c0-0.1-0.1-0.1-0.2-0.1s-0.1,0.1-0.1,0.2l0.3,1
				C203.8,186.8,203.9,186.8,203.9,186.8z"/>
			<path fill="#FFFFFF" d="M206.6,185.8c0.1,0,0.1-0.1,0.1-0.2l-0.3-1c0-0.1-0.1-0.1-0.2-0.1s-0.1,0.1-0.1,0.2l0.3,1
				C206.5,185.8,206.5,185.9,206.6,185.8z"/>
			<path fill="#FFFFFF" d="M204.6,186.6c0.1,0,0.1-0.1,0.1-0.2l-0.3-1c0-0.1-0.1-0.1-0.2-0.1s-0.1,0.1-0.1,0.2l0.3,1
				C204.5,186.5,204.5,186.6,204.6,186.6z"/>
			<path fill="#FFFFFF" d="M205.9,186.1c0.1,0,0.1-0.1,0.1-0.2l-0.3-1c0-0.1-0.1-0.1-0.2-0.1s-0.1,0.1-0.1,0.2l0.3,1
				C205.8,186.1,205.9,186.1,205.9,186.1z"/>
			<path fill="#FFFFFF" d="M207.9,185.3c0.1,0,0.1-0.1,0.1-0.2l-0.3-1c0-0.1-0.1-0.1-0.2-0.1s-0.1,0.1-0.1,0.2l0.3,1
				C207.8,185.3,207.9,185.4,207.9,185.3z"/>
			<polygon fill="#FFFFFF" points="202.9,188.1 202.7,188.3 202.8,188.5 203.1,188.5 203.2,188.4 203.1,188.1 			"/>
			<path fill="#FFFFFF" d="M208.6,185.1c0.1,0,0.1-0.1,0.1-0.2l-0.3-1c0-0.1-0.1-0.1-0.2-0.1s-0.1,0.1-0.1,0.2l0.3,1
				C208.5,185.1,208.5,185.1,208.6,185.1z"/>
			<path fill="#FFFFFF" d="M209.3,184.9c0.1,0,0.1-0.1,0.1-0.2l-0.3-1c0-0.1-0.1-0.1-0.2-0.1s-0.1,0.1-0.1,0.2l0.3,1
				C209.1,184.9,209.2,184.9,209.3,184.9z"/>
			<polygon fill="#FFFFFF" points="201.2,188.7 201,188.9 201.1,189.1 201.3,189.2 201.5,189 201.4,188.7 			"/>
			<polygon fill="#FFFFFF" points="202,188.4 201.9,188.6 201.9,188.8 202.2,188.9 202.4,188.7 202.3,188.4 			"/>
			<path fill="#FFFFFF" d="M201.9,187.5c0.1,0,0.1-0.1,0.1-0.2l-0.3-1c0-0.1-0.1-0.1-0.2-0.1s-0.1,0.1-0.1,0.2l0.3,1
				C201.8,187.5,201.9,187.5,201.9,187.5z"/>
			<path fill="#FFFFFF" d="M201.3,187.8c0.1,0,0.1-0.1,0.1-0.2l-0.3-1c0-0.1-0.1-0.1-0.2-0.1s-0.1,0.1-0.1,0.2l0.3,1
				C201.1,187.7,201.2,187.8,201.3,187.8z"/>
			<path fill="#FFFFFF" d="M203.3,187c0.1,0,0.1-0.1,0.1-0.2l-0.3-1c0-0.1-0.1-0.1-0.2-0.1s-0.1,0.1-0.1,0.2l0.3,1
				C203.1,187,203.2,187.1,203.3,187z"/>
			<path fill="#FFFFFF" d="M202.6,187.3c0.1,0,0.1-0.1,0.1-0.2l-0.3-1c0-0.1-0.1-0.1-0.2-0.1s-0.1,0.1-0.1,0.2l0.3,1
				C202.5,187.3,202.5,187.3,202.6,187.3z"/>
		</g>
	</g>
	<path opacity="0.3" fill="#FFFFFF" enable-background="new    " d="M201.9,161.4l-11.6,6.6l10.3,26.2l18.6-10.9
		c0,0-0.3-10-1.3-11.9c-1-2-9.6-11.9-9.6-11.9L201.9,161.4z"/>
</g>
<g>
	<path fill="#FFFFFF" d="M108.1,226.4c-0.3,0.7,0,1.5,0.7,1.8l29.2,13c0.7,0.3,1.5,0,1.8-0.7s0-1.5-0.7-1.8l-29.2-13
		C109.2,225.5,108.4,225.8,108.1,226.4z"/>
	<path fill="#FFFFFF" d="M174.9,161.4c0.3-0.7,0-1.5-0.7-1.8l-29.2-13c-0.7-0.3-1.5,0-1.8,0.7s0,1.5,0.7,1.8l29.2,13
		C173.9,162.3,174.7,162,174.9,161.4z"/>
	<g>
		<polygon fill="#FFFFFF" points="123.3,185.7 137.6,153.6 143.4,150.3 172.6,163.3 174.1,169.8 159.8,201.9 		"/>
		<polygon fill="#FFFFFF" points="159.4,202.8 144.3,236.8 139.6,237.6 110.4,224.6 107.8,220.5 122.9,186.6 		"/>
	</g>
</g>
<g>
	<g>
		<path d="M153.3,187.8l-7.6-3.5l-7.6-3.5l1.6-8.8l1,1.9l-1.1,1c0,0-0.9,4,1,4.4s2.7-3.9,2.7-3.9L143,174l1.5-1.3l0.6,1.9l-1.2,1
			c-0.5,1.8-0.9,4.4,0.7,5.1s3.8-2.7,3.5-3.5c-0.4-0.7-1.3-0.1-1.3-0.1l-0.8-1.4l1.6-0.6c0,0,0.2,0.9,0.8,0.7
			c0.6-0.2,0.4-1.4,0.4-1.4l1.7-1.1l0.3,2c0,0-1.1,0.6-0.8,1.2s1.1,0.1,1.1,0.1l0.6,1.6l-1.6,0.3c0,0-0.1-1.1-0.9-0.9
			s-1.9,4.2-0.4,4.9c1.6,0.7,3.3-1.3,4.3-2.9V178l1.9-0.8v2l-1.3,0.7c0,0-2.8,3.5-1.2,4.6c1.6,1.2,4-2.1,4-2.1V181l2.1-0.5
			L153.3,187.8z"/>
		<path d="M152.9,189l-15.5-7.1c-0.2-0.1-0.2-0.3-0.2-0.4l0.1-0.3c0.1-0.2,0.3-0.2,0.4-0.2l15.5,7.1c0.2,0.1,0.2,0.3,0.2,0.4
			l-0.1,0.3C153.2,189,153,189.1,152.9,189z"/>
		<rect x="143.6" y="178.4" transform="matrix(0.4166 -0.9091 0.9091 0.4166 -85.3748 240.28)" width="1.9" height="16.5"/>
		<path d="M135.7,184.8l0.1-0.3c0.1-0.2,0.3-0.2,0.4-0.2l15.5,7.1c0.2,0.1,0.2,0.3,0.2,0.4l-0.1,0.3c-0.1,0.2-0.3,0.2-0.4,0.2
			l-15.5-7.1C135.7,185.1,135.6,184.9,135.7,184.8z"/>
	</g>
	<g>
		<polygon fill="#FFFFFF" points="139.6,182.2 139.7,182.4 139.6,182.6 139.4,182.6 139.2,182.4 139.3,182.2 		"/>
		<polygon fill="#FFFFFF" points="144.6,184.4 144.7,184.6 144.6,184.9 144.4,184.9 144.2,184.7 144.3,184.5 		"/>
		<polygon fill="#FFFFFF" points="138.8,181.8 138.9,182 138.8,182.2 138.6,182.2 138.4,182 138.5,181.8 		"/>
		<path fill="#FFFFFF" d="M142.3,186.5c-0.1,0-0.1-0.1-0.1-0.2l0.4-0.9c0-0.1,0.1-0.1,0.2-0.1s0.1,0.1,0.1,0.2l-0.4,0.9
			C142.5,186.5,142.4,186.5,142.3,186.5z"/>
		<polygon fill="#FFFFFF" points="143.8,184.1 143.9,184.3 143.8,184.5 143.5,184.5 143.4,184.3 143.5,184.1 		"/>
		<polygon fill="#FFFFFF" points="137.9,181.4 138.1,181.6 138,181.8 137.7,181.8 137.6,181.6 137.7,181.4 		"/>
		<polygon fill="#FFFFFF" points="142.9,183.7 143.1,183.9 143,184.1 142.7,184.1 142.6,183.9 142.7,183.7 		"/>
		<polygon fill="#FFFFFF" points="142.1,183.3 142.2,183.5 142.1,183.7 141.9,183.8 141.7,183.5 141.8,183.3 		"/>
		<polygon fill="#FFFFFF" points="140.4,182.5 140.6,182.7 140.5,183 140.2,183 140.1,182.8 140.2,182.6 		"/>
		<path fill="#FFFFFF" d="M140.4,185.6c-0.1,0-0.1-0.1-0.1-0.2l0.4-0.9c0-0.1,0.1-0.1,0.2-0.1s0.1,0.1,0.1,0.2l-0.4,0.9
			C140.5,185.6,140.4,185.6,140.4,185.6z"/>
		<path fill="#FFFFFF" d="M141,185.9c-0.1,0-0.1-0.1-0.1-0.2l0.4-0.9c0-0.1,0.1-0.1,0.2-0.1s0.1,0.1,0.1,0.2l-0.4,0.9
			C141.2,185.9,141.1,185.9,141,185.9z"/>
		<path fill="#FFFFFF" d="M141.7,186.2c-0.1,0-0.1-0.1-0.1-0.2l0.4-0.9c0-0.1,0.1-0.1,0.2-0.1s0.1,0.1,0.1,0.2l-0.4,0.9
			C141.8,186.2,141.7,186.2,141.7,186.2z"/>
		<path fill="#FFFFFF" d="M137.1,184.1c-0.1,0-0.1-0.1-0.1-0.2l0.4-0.9c0-0.1,0.1-0.1,0.2-0.1s0.1,0.1,0.1,0.2l-0.4,0.9
			C137.3,184.1,137.2,184.1,137.1,184.1z"/>
		<path fill="#FFFFFF" d="M139.7,185.3c-0.1,0-0.1-0.1-0.1-0.2l0.4-0.9c0-0.1,0.1-0.1,0.2-0.1s0.1,0.1,0.1,0.2l-0.4,0.9
			C139.9,185.3,139.8,185.3,139.7,185.3z"/>
		<path fill="#FFFFFF" d="M137.8,184.4c-0.1,0-0.1-0.1-0.1-0.2l0.4-0.9c0-0.1,0.1-0.1,0.2-0.1s0.1,0.1,0.1,0.2l-0.4,0.9
			C137.9,184.4,137.9,184.4,137.8,184.4z"/>
		<path fill="#FFFFFF" d="M139.1,185c-0.1,0-0.1-0.1-0.1-0.2l0.4-0.9c0-0.1,0.1-0.1,0.2-0.1s0.1,0.1,0.1,0.2l-0.4,0.9
			C139.2,185,139.2,185,139.1,185z"/>
		<path fill="#FFFFFF" d="M138.4,184.7c-0.1,0-0.1-0.1-0.1-0.2l0.4-0.9c0-0.1,0.1-0.1,0.2-0.1s0.1,0.1,0.1,0.2l-0.4,0.9
			C138.6,184.7,138.5,184.7,138.4,184.7z"/>
		<polygon fill="#FFFFFF" points="141.3,182.9 141.4,183.1 141.3,183.3 141.1,183.4 140.9,183.2 141,182.9 		"/>
		<path fill="#FFFFFF" d="M150.1,185.7c-0.2-0.1-0.3-0.3-0.2-0.5c0.1-0.2,0.3-0.3,0.5-0.2c0.2,0.1,0.3,0.3,0.2,0.5
			C150.6,185.7,150.3,185.8,150.1,185.7z"/>
		<path fill="#FFFFFF" d="M148.2,184.8c-0.2-0.1-0.4-0.4-0.2-0.6c0.1-0.2,0.4-0.3,0.6-0.2c0.2,0.1,0.3,0.4,0.2,0.6
			C148.7,184.8,148.5,184.9,148.2,184.8z"/>
		<path fill="#FFFFFF" d="M152,186.5c-0.2-0.1-0.2-0.3-0.2-0.4c0.1-0.2,0.3-0.2,0.4-0.2c0.2,0.1,0.2,0.3,0.2,0.4
			C152.3,186.5,152.1,186.6,152,186.5z"/>
		
			<rect x="145.6" y="182.3" transform="matrix(0.9374 -0.3482 0.3482 0.9374 -54.5631 62.3671)" fill="#FFFFFF" width="1.3" height="1.3"/>
		<path fill="#FFFFFF" d="M143.6,182.7c-0.2-0.1-0.3-0.4-0.2-0.6c0.1-0.2,0.4-0.4,0.6-0.2c0.2,0.1,0.4,0.4,0.2,0.6
			C144.1,182.7,143.8,182.8,143.6,182.7z"/>
		<path fill="#FFFFFF" d="M139.8,181c-0.2-0.1-0.2-0.3-0.2-0.4c0.1-0.2,0.3-0.2,0.4-0.2c0.2,0.1,0.2,0.3,0.2,0.4
			C140.2,181,140,181.1,139.8,181z"/>
		<polygon fill="#FFFFFF" points="152.9,188.2 153,188.5 152.9,188.7 152.7,188.7 152.5,188.5 152.6,188.3 		"/>
		<path fill="#FFFFFF" d="M141.7,181.8c-0.2-0.1-0.3-0.3-0.2-0.5c0.1-0.2,0.3-0.3,0.5-0.2c0.2,0.1,0.3,0.3,0.2,0.5
			C142.1,181.8,141.9,181.9,141.7,181.8z"/>
		<polygon fill="#FFFFFF" points="148.7,186.3 148.9,186.5 148.8,186.8 148.5,186.8 148.4,186.6 148.5,186.4 		"/>
		<polygon fill="#FFFFFF" points="147.1,185.6 147.2,185.8 147.1,186 146.9,186 146.7,185.8 146.8,185.6 		"/>
		<polygon fill="#FFFFFF" points="145.4,184.8 145.6,185 145.5,185.3 145.2,185.3 145.1,185.1 145.2,184.8 		"/>
		<polygon fill="#FFFFFF" points="147.9,186 148,186.2 147.9,186.4 147.7,186.4 147.6,186.2 147.7,186 		"/>
		<polygon fill="#FFFFFF" points="146.2,185.2 146.4,185.4 146.3,185.6 146,185.7 145.9,185.5 146,185.2 		"/>
		<polygon fill="#FFFFFF" points="152.1,187.9 152.2,188.1 152.1,188.3 151.9,188.3 151.7,188.1 151.8,187.9 		"/>
		<polygon fill="#FFFFFF" points="149.6,186.7 149.7,186.9 149.6,187.2 149.4,187.2 149.2,187 149.3,186.7 		"/>
		<polygon fill="#FFFFFF" points="151.2,187.5 151.4,187.7 151.3,187.9 151,187.9 150.9,187.7 151,187.5 		"/>
		<polygon fill="#FFFFFF" points="150.4,187.1 150.5,187.3 150.4,187.5 150.2,187.6 150,187.4 150.1,187.1 		"/>
		<path fill="#FFFFFF" d="M147.5,188.8c-0.1,0-0.1-0.1-0.1-0.2l0.4-0.9c0-0.1,0.1-0.1,0.2-0.1s0.1,0.1,0.1,0.2l-0.4,0.9
			C147.6,188.8,147.6,188.9,147.5,188.8z"/>
		<polygon fill="#FFFFFF" points="148.9,190.4 149,190.6 148.9,190.8 148.7,190.8 148.5,190.6 148.6,190.4 		"/>
		<polygon fill="#FFFFFF" points="144.7,188.5 144.9,188.7 144.8,188.9 144.5,188.9 144.4,188.7 144.5,188.5 		"/>
		<polygon fill="#FFFFFF" points="143.9,188.1 144,188.3 143.9,188.5 143.7,188.6 143.6,188.4 143.7,188.1 		"/>
		<polygon fill="#FFFFFF" points="143.1,187.7 143.2,187.9 143.1,188.2 142.9,188.2 142.7,188 142.8,187.8 		"/>
		<polygon fill="#FFFFFF" points="146.4,189.3 146.5,189.5 146.4,189.7 146.2,189.7 146,189.5 146.1,189.3 		"/>
		<polygon fill="#FFFFFF" points="148.1,190 148.2,190.2 148.1,190.4 147.9,190.5 147.7,190.3 147.8,190 		"/>
		<path fill="#FFFFFF" d="M143,186.7c-0.1,0-0.1-0.1-0.1-0.2l0.4-0.9c0-0.1,0.1-0.1,0.2-0.1s0.1,0.1,0.1,0.2l-0.4,0.9
			C143.1,186.7,143,186.8,143,186.7z"/>
		<polygon fill="#FFFFFF" points="142.2,187.3 142.4,187.6 142.3,187.8 142,187.8 141.9,187.6 142,187.4 		"/>
		<polygon fill="#FFFFFF" points="145.6,188.9 145.7,189.1 145.6,189.3 145.4,189.3 145.2,189.1 145.3,188.9 		"/>
		<polygon fill="#FFFFFF" points="137.3,185.1 137.4,185.3 137.3,185.5 137,185.5 136.9,185.3 137,185.1 		"/>
		<polygon fill="#FFFFFF" points="138.1,185.4 138.2,185.6 138.1,185.9 137.9,185.9 137.7,185.7 137.8,185.5 		"/>
		<polygon fill="#FFFFFF" points="141.4,187 141.6,187.2 141.5,187.4 141.2,187.4 141.1,187.2 141.2,187 		"/>
		<polygon fill="#FFFFFF" points="136.4,184.7 136.6,184.9 136.5,185.1 136.2,185.1 136.1,184.9 136.2,184.7 		"/>
		<polygon fill="#FFFFFF" points="140.6,186.6 140.7,186.8 140.6,187 140.4,187 140.2,186.8 140.3,186.6 		"/>
		<polygon fill="#FFFFFF" points="138.9,185.8 139.1,186 139,186.3 138.7,186.3 138.6,186.1 138.7,185.9 		"/>
		<polygon fill="#FFFFFF" points="139.7,186.2 139.9,186.4 139.8,186.6 139.5,186.7 139.4,186.5 139.5,186.2 		"/>
		<polygon fill="#FFFFFF" points="147.2,189.6 147.4,189.8 147.3,190.1 147,190.1 146.9,189.9 147,189.7 		"/>
		<path fill="#FFFFFF" d="M145.5,187.9c-0.1,0-0.1-0.1-0.1-0.2l0.4-0.9c0-0.1,0.1-0.1,0.2-0.1s0.1,0.1,0.1,0.2l-0.4,0.9
			C145.7,187.9,145.6,188,145.5,187.9z"/>
		<path fill="#FFFFFF" d="M148.8,189.4c-0.1,0-0.1-0.1-0.1-0.2l0.4-0.9c0-0.1,0.1-0.1,0.2-0.1s0.1,0.1,0.1,0.2l-0.4,0.9
			C148.9,189.4,148.8,189.4,148.8,189.4z"/>
		<path fill="#FFFFFF" d="M146.2,188.2c-0.1,0-0.1-0.1-0.1-0.2l0.4-0.9c0-0.1,0.1-0.1,0.2-0.1s0.1,0.1,0.1,0.2l-0.4,0.9
			C146.3,188.2,146.3,188.3,146.2,188.2z"/>
		<path fill="#FFFFFF" d="M148.1,189.1c-0.1,0-0.1-0.1-0.1-0.2l0.4-0.9c0-0.1,0.1-0.1,0.2-0.1s0.1,0.1,0.1,0.2l-0.4,0.9
			C148.3,189.1,148.2,189.1,148.1,189.1z"/>
		<path fill="#FFFFFF" d="M146.8,188.5c-0.1,0-0.1-0.1-0.1-0.2l0.4-0.9c0-0.1,0.1-0.1,0.2-0.1s0.1,0.1,0.1,0.2l-0.4,0.9
			C147,188.5,146.9,188.6,146.8,188.5z"/>
		<path fill="#FFFFFF" d="M144.9,187.6c-0.1,0-0.1-0.1-0.1-0.2l0.4-0.9c0-0.1,0.1-0.1,0.2-0.1s0.1,0.1,0.1,0.2l-0.4,0.9
			C145,187.6,145,187.7,144.9,187.6z"/>
		<polygon fill="#FFFFFF" points="149.7,190.8 149.9,191 149.8,191.2 149.5,191.2 149.4,191 149.5,190.8 		"/>
		<path fill="#FFFFFF" d="M144.3,187.3c-0.1,0-0.1-0.1-0.1-0.2l0.4-0.9c0-0.1,0.1-0.1,0.2-0.1s0.1,0.1,0.1,0.2l-0.4,0.9
			C144.4,187.3,144.3,187.4,144.3,187.3z"/>
		<path fill="#FFFFFF" d="M143.6,187c-0.1,0-0.1-0.1-0.1-0.2l0.4-0.9c0-0.1,0.1-0.1,0.2-0.1s0.1,0.1,0.1,0.2l-0.4,0.9
			C143.8,187,143.7,187.1,143.6,187z"/>
		<polygon fill="#FFFFFF" points="151.4,191.5 151.5,191.7 151.4,192 151.2,192 151,191.8 151.1,191.6 		"/>
		<polygon fill="#FFFFFF" points="150.6,191.2 150.7,191.4 150.6,191.6 150.3,191.6 150.2,191.4 150.3,191.2 		"/>
		<path fill="#FFFFFF" d="M150.7,190.3c-0.1,0-0.1-0.1-0.1-0.2l0.4-0.9c0-0.1,0.1-0.1,0.2-0.1s0.1,0.1,0.1,0.2l-0.4,0.9
			C150.9,190.3,150.8,190.3,150.7,190.3z"/>
		<path fill="#FFFFFF" d="M151.4,190.6c-0.1,0-0.1-0.1-0.1-0.2l0.4-0.9c0-0.1,0.1-0.1,0.2-0.1s0.1,0.1,0.1,0.2l-0.4,0.9
			C151.5,190.6,151.4,190.6,151.4,190.6z"/>
		<path fill="#FFFFFF" d="M149.4,189.7c-0.1,0-0.1-0.1-0.1-0.2l0.4-0.9c0-0.1,0.1-0.1,0.2-0.1s0.1,0.1,0.1,0.2l-0.4,0.9
			C149.6,189.7,149.5,189.7,149.4,189.7z"/>
		<path fill="#FFFFFF" d="M150.1,190c-0.1,0-0.1-0.1-0.1-0.2l0.4-0.9c0-0.1,0.1-0.1,0.2-0.1s0.1,0.1,0.1,0.2l-0.4,0.9
			C150.2,190,150.1,190,150.1,190z"/>
	</g>
</g>
<path opacity="0.3" fill="#FFFFFF" enable-background="new    " d="M152.9,164.3l11,7.6l-12.4,25.3l-17.6-12.5c0,0,1.2-9.9,2.3-11.8
	c1.2-1.9,10.6-11.1,10.6-11.1L152.9,164.3z"/>
</svg>
