<?xml version="1.0" encoding="utf-8"?>
<!-- Generator: Adobe Illustrator 24.0.2, SVG Export Plug-In . SVG Version: 6.00 Build 0)  -->
<svg version="1.1" id="Capa_1" xmlns="http://www.w3.org/2000/svg" xmlns:xlink="http://www.w3.org/1999/xlink" x="0px" y="0px"
	 viewBox="0 0 350 350" style="enable-background:new 0 0 350 350;" xml:space="preserve">
<g>
	<path style="opacity:0.3;fill:#FFFFFF;" d="M102.44,159.52c-6.78,0-12.29,5.52-12.29,12.3c0,7.11,6.52,14.26,12.29,18.39
		c5.75-4.12,12.29-11.25,12.29-18.39C114.73,165.04,109.21,159.52,102.44,159.52z M102.44,177.98c-3.53,0-6.4-2.87-6.4-6.41
		c0-3.53,2.87-6.41,6.4-6.41s6.4,2.87,6.4,6.41C108.84,175.1,105.96,177.98,102.44,177.98z"/>
	<g>
		<path style="fill:#FFFFFF;" d="M70.26,238.6l21.83-28.72l18.38-2.87l28.14-36.76l9.19,8.62l25.27-33.31l25.27,32.74l9.76-7.47
			l26.42,35.61l18.95,4.02l23.38,32c0,0-19.92,27.13-49.41,43.01c-29.02,15.63-81.43,9.06-81.43,9.06l35.66-81.77l-12.06-20.68
			l3.45-34.46l-36.18,46.52l2.3-22.97l-35.04,44.23l-9.76-9.19l-16.66,24.12L70.26,238.6z"/>
		<polygon points="197.19,187.48 207.53,179.44 209.25,209.88 		"/>
		<polygon points="228.21,209.88 248.31,215.62 236.25,226.54 		"/>
	</g>
	<polygon style="opacity:0.3;fill:#FFFFFF;" points="180.36,194.24 207.89,176.65 218.84,200.21 250.7,214.81 250.03,226.09 
		232.12,230.73 192.3,216.47 	"/>
	<circle style="fill:none;stroke:#D02C2F;stroke-width:3;stroke-miterlimit:10;" cx="175" cy="175" r="122.19"/>
	<circle style="fill:none;stroke:#D02C2F;stroke-width:3;stroke-miterlimit:10;" cx="175" cy="175" r="122.19" id="pulse"/>
</g>
</svg>
