<?xml version="1.0" encoding="utf-8"?>
<!-- Generator: Adobe Illustrator 24.0.2, SVG Export Plug-In . SVG Version: 6.00 Build 0)  -->
<svg version="1.1" id="Capa_1" xmlns="http://www.w3.org/2000/svg" xmlns:xlink="http://www.w3.org/1999/xlink" x="0px" y="0px"
	 viewBox="0 0 260 250" style="enable-background:new 0 0 260 250;" xml:space="preserve">
<g>
	<path style="opacity:0.3;fill:#FFFFFF;" d="M57.44,109.52c-6.78,0-12.29,5.52-12.29,12.3c0,7.11,6.52,14.26,12.29,18.39
		c5.75-4.12,12.29-11.25,12.29-18.39C69.73,115.04,64.21,109.52,57.44,109.52z M57.44,127.98c-3.53,0-6.4-2.87-6.4-6.41
		c0-3.53,2.87-6.41,6.4-6.41c3.53,0,6.4,2.87,6.4,6.41C63.84,125.1,60.96,127.98,57.44,127.98z"/>
	<g>
		<path style="fill:#FFFFFF;" d="M25.26,188.6l21.83-28.72l18.38-2.87l28.14-36.76l9.19,8.62l25.27-33.31l25.27,32.74l9.76-7.47
			l26.42,35.61l18.95,4.02l23.38,32c0,0-19.92,27.13-49.41,43.01c-29.02,15.63-81.43,9.06-81.43,9.06l35.66-81.77l-12.06-20.68
			l3.45-34.46l-36.18,46.52l2.3-22.97l-35.04,44.23l-9.76-9.19l-16.66,24.12L25.26,188.6z"/>
		<polygon points="152.19,137.48 162.53,129.44 164.25,159.88 		"/>
		<polygon points="183.21,159.88 203.31,165.62 191.25,176.54 		"/>
	</g>
	<polygon style="opacity:0.3;fill:#FFFFFF;" points="135.36,144.24 162.89,126.65 173.84,150.21 205.7,164.81 205.03,176.09 
		187.12,180.73 147.3,166.47 	"/>
	<circle style="fill:none;stroke:#D02C2F;stroke-width:3;stroke-miterlimit:10;" cx="130" cy="125" r="122.19"/>
</g>
</svg>
