<?xml version="1.0" encoding="utf-8"?>
<!-- Generator: Adobe Illustrator 24.0.2, SVG Export Plug-In . SVG Version: 6.00 Build 0)  -->
<svg version="1.1" id="Capa_1" xmlns="http://www.w3.org/2000/svg" xmlns:xlink="http://www.w3.org/1999/xlink" x="0px" y="0px"
	 viewBox="0 0 255 255" style="enable-background:new 0 0 255 255;" xml:space="preserve">
<g>
	
		<line style="opacity:0.3;fill:none;stroke:#FFFFFF;stroke-width:3;stroke-miterlimit:10;" x1="131.69" y1="70.49" x2="131.89" y2="57.18"/>
	
		<line style="opacity:0.3;fill:none;stroke:#FFFFFF;stroke-width:3;stroke-miterlimit:10;" x1="112.9" y1="75.11" x2="105.23" y2="64.22"/>
	
		<line style="opacity:0.3;fill:none;stroke:#FFFFFF;stroke-width:3;stroke-miterlimit:10;" x1="147.31" y1="74.99" x2="157.23" y2="66.11"/>
	<g>
		<polygon style="fill:#FFFFFF;" points="169.65,147.83 169.49,148.02 169.57,148.26 169.82,148.3 169.98,148.11 169.89,147.87 		
			"/>
		<polygon style="fill:#FFFFFF;" points="164.49,149.69 164.33,149.88 164.41,150.12 164.66,150.16 164.82,149.97 164.74,149.74 		
			"/>
		<polygon style="fill:#FFFFFF;" points="170.51,147.52 170.35,147.71 170.43,147.95 170.68,147.99 170.84,147.8 170.75,147.56 		
			"/>
		<path style="fill:#FFFFFF;" d="M166.58,151.88c0.07-0.02,0.1-0.1,0.08-0.17l-0.35-0.97c-0.02-0.07-0.1-0.1-0.17-0.08
			s-0.1,0.1-0.08,0.17l0.35,0.97C166.43,151.87,166.51,151.91,166.58,151.88z"/>
		<polygon style="fill:#FFFFFF;" points="165.35,149.38 165.19,149.57 165.27,149.81 165.52,149.85 165.68,149.66 165.6,149.43 		
			"/>
		<polygon style="fill:#FFFFFF;" points="171.37,147.21 171.21,147.4 171.29,147.64 171.54,147.68 171.7,147.49 171.61,147.25 		"/>
		<polygon style="fill:#FFFFFF;" points="166.21,149.07 166.05,149.26 166.13,149.5 166.38,149.54 166.54,149.35 166.46,149.12 		
			"/>
		<polygon style="fill:#FFFFFF;" points="167.07,148.76 166.91,148.95 166.99,149.19 167.24,149.23 167.4,149.04 167.32,148.8 		"/>
		<polygon style="fill:#FFFFFF;" points="168.79,148.14 168.63,148.33 168.71,148.57 168.96,148.61 169.12,148.42 169.03,148.18 		
			"/>
		<path style="fill:#FFFFFF;" d="M168.58,151.16c0.07-0.02,0.1-0.1,0.08-0.17l-0.35-0.97c-0.02-0.07-0.1-0.1-0.17-0.08
			s-0.1,0.1-0.08,0.17l0.35,0.97C168.44,151.15,168.52,151.19,168.58,151.16z"/>
		<path style="fill:#FFFFFF;" d="M167.91,151.4c0.07-0.02,0.1-0.1,0.08-0.17l-0.35-0.97c-0.02-0.07-0.1-0.1-0.17-0.08
			s-0.1,0.1-0.08,0.17l0.35,0.97C167.77,151.39,167.85,151.43,167.91,151.4z"/>
		<path style="fill:#FFFFFF;" d="M167.25,151.64c0.07-0.02,0.1-0.1,0.08-0.17l-0.35-0.97c-0.02-0.07-0.1-0.1-0.17-0.08
			s-0.1,0.1-0.08,0.17l0.35,0.97C167.1,151.63,167.18,151.67,167.25,151.64z"/>
		<path style="fill:#FFFFFF;" d="M171.93,149.95c0.07-0.02,0.1-0.1,0.08-0.17l-0.35-0.97c-0.02-0.07-0.1-0.1-0.17-0.08
			c-0.07,0.02-0.1,0.1-0.08,0.17l0.35,0.97C171.78,149.94,171.86,149.98,171.93,149.95z"/>
		<path style="fill:#FFFFFF;" d="M169.25,150.92c0.07-0.02,0.1-0.1,0.08-0.17l-0.35-0.97c-0.02-0.07-0.1-0.1-0.17-0.08
			s-0.1,0.1-0.08,0.17l0.35,0.97C169.11,150.91,169.18,150.94,169.25,150.92z"/>
		<path style="fill:#FFFFFF;" d="M171.26,150.2c0.07-0.02,0.1-0.1,0.08-0.17l-0.35-0.97c-0.02-0.07-0.1-0.1-0.17-0.08
			c-0.07,0.02-0.1,0.1-0.08,0.17l0.35,0.97C171.11,150.19,171.19,150.22,171.26,150.2z"/>
		<path style="fill:#FFFFFF;" d="M169.92,150.68c0.07-0.02,0.1-0.1,0.08-0.17l-0.35-0.97c-0.02-0.07-0.1-0.1-0.17-0.08
			c-0.07,0.02-0.1,0.1-0.08,0.17l0.35,0.97C169.78,150.67,169.85,150.7,169.92,150.68z"/>
		<path style="fill:#FFFFFF;" d="M170.59,150.44c0.07-0.02,0.1-0.1,0.08-0.17l-0.35-0.97c-0.02-0.07-0.1-0.1-0.17-0.08
			c-0.07,0.02-0.1,0.1-0.08,0.17l0.35,0.97C170.45,150.43,170.52,150.46,170.59,150.44z"/>
		<polygon style="fill:#FFFFFF;" points="167.93,148.45 167.77,148.64 167.85,148.88 168.1,148.92 168.26,148.73 168.17,148.49 		
			"/>
		<path style="fill:#FFFFFF;" d="M158.89,150.47c0.21-0.08,0.32-0.31,0.25-0.52c-0.08-0.21-0.31-0.32-0.52-0.25
			c-0.21,0.08-0.32,0.31-0.25,0.53C158.44,150.44,158.67,150.55,158.89,150.47z"/>
		<path style="fill:#FFFFFF;" d="M160.84,149.77c0.25-0.09,0.38-0.37,0.29-0.62c-0.09-0.25-0.37-0.38-0.62-0.29
			s-0.38,0.37-0.29,0.62C160.31,149.73,160.59,149.86,160.84,149.77z"/>
		<path style="fill:#FFFFFF;" d="M156.96,151.17c0.18-0.06,0.27-0.26,0.2-0.43c-0.06-0.18-0.26-0.27-0.43-0.2
			c-0.18,0.06-0.27,0.26-0.2,0.43C156.59,151.14,156.78,151.23,156.96,151.17z"/>
		
			<rect x="162.3" y="147.43" transform="matrix(0.4252 -0.9051 0.9051 0.4252 -40.3573 232.5706)" style="fill:#FFFFFF;" width="1.26" height="1.26"/>
		<path style="fill:#FFFFFF;" d="M165.63,148.04c0.25-0.09,0.38-0.37,0.29-0.62s-0.37-0.38-0.62-0.29
			c-0.25,0.09-0.38,0.37-0.29,0.62S165.38,148.13,165.63,148.04z"/>
		<path style="fill:#FFFFFF;" d="M169.51,146.64c0.18-0.06,0.27-0.26,0.2-0.43c-0.06-0.18-0.26-0.27-0.43-0.2
			c-0.18,0.06-0.27,0.26-0.2,0.43C169.14,146.61,169.33,146.7,169.51,146.64z"/>
		<polygon style="fill:#FFFFFF;" points="155.89,152.79 155.73,152.98 155.82,153.22 156.06,153.26 156.22,153.07 156.14,152.84 		
			"/>
		<path style="fill:#FFFFFF;" d="M167.58,147.33c0.21-0.08,0.32-0.31,0.25-0.53c-0.08-0.21-0.31-0.32-0.53-0.25
			s-0.32,0.31-0.25,0.52C167.13,147.3,167.37,147.41,167.58,147.33z"/>
		<polygon style="fill:#FFFFFF;" points="160.19,151.24 160.03,151.43 160.12,151.67 160.36,151.71 160.52,151.52 160.44,151.29 		
			"/>
		<polygon style="fill:#FFFFFF;" points="161.91,150.62 161.75,150.81 161.84,151.05 162.08,151.09 162.24,150.9 162.16,150.67 		
			"/>
		<polygon style="fill:#FFFFFF;" points="163.63,150 163.47,150.19 163.55,150.43 163.8,150.47 163.96,150.28 163.88,150.05 		"/>
		<polygon style="fill:#FFFFFF;" points="161.05,150.93 160.89,151.12 160.98,151.36 161.22,151.4 161.38,151.21 161.3,150.98 		"/>
		<polygon style="fill:#FFFFFF;" points="162.77,150.31 162.61,150.5 162.7,150.74 162.94,150.78 163.1,150.59 163.02,150.36 		"/>
		<polygon style="fill:#FFFFFF;" points="156.75,152.48 156.59,152.67 156.68,152.91 156.92,152.95 157.08,152.76 157,152.53 		"/>
		<polygon style="fill:#FFFFFF;" points="159.33,151.55 159.17,151.74 159.26,151.98 159.5,152.02 159.66,151.83 159.58,151.6 		"/>
		<polygon style="fill:#FFFFFF;" points="157.61,152.17 157.45,152.36 157.54,152.6 157.78,152.64 157.94,152.45 157.86,152.22 		
			"/>
		<polygon style="fill:#FFFFFF;" points="158.47,151.86 158.31,152.05 158.4,152.29 158.64,152.33 158.8,152.14 158.72,151.91 		"/>
		<path style="fill:#FFFFFF;" d="M161.23,153.81c0.07-0.02,0.1-0.1,0.08-0.17l-0.35-0.97c-0.02-0.07-0.1-0.1-0.17-0.08
			s-0.1,0.1-0.08,0.17l0.35,0.97C161.08,153.8,161.16,153.84,161.23,153.81z"/>
		<polygon style="fill:#FFFFFF;" points="159.7,155.27 159.54,155.46 159.62,155.69 159.87,155.74 160.03,155.55 159.95,155.31 		
			"/>
		<polygon style="fill:#FFFFFF;" points="164,153.72 163.84,153.91 163.92,154.14 164.17,154.19 164.33,153.99 164.25,153.76 		"/>
		<polygon style="fill:#FFFFFF;" points="164.86,153.41 164.7,153.6 164.78,153.83 165.03,153.88 165.19,153.68 165.1,153.45 		"/>
		<polygon style="fill:#FFFFFF;" points="165.72,153.1 165.56,153.29 165.64,153.52 165.89,153.57 166.05,153.37 165.96,153.14 		
			"/>
		<polygon style="fill:#FFFFFF;" points="162.28,154.34 162.12,154.53 162.2,154.76 162.45,154.81 162.61,154.61 162.53,154.38 		
			"/>
		<polygon style="fill:#FFFFFF;" points="160.56,154.96 160.4,155.15 160.48,155.38 160.73,155.43 160.89,155.24 160.81,155 		"/>
		<path style="fill:#FFFFFF;" d="M165.91,152.13c0.07-0.02,0.1-0.1,0.08-0.17l-0.35-0.97c-0.02-0.07-0.1-0.1-0.17-0.08
			c-0.07,0.02-0.1,0.1-0.08,0.17l0.35,0.97C165.77,152.12,165.84,152.15,165.91,152.13z"/>
		<polygon style="fill:#FFFFFF;" points="166.58,152.79 166.42,152.98 166.5,153.21 166.75,153.25 166.91,153.06 166.82,152.83 		
			"/>
		<polygon style="fill:#FFFFFF;" points="163.14,154.03 162.98,154.22 163.06,154.45 163.31,154.5 163.47,154.3 163.39,154.07 		"/>
		<polygon style="fill:#FFFFFF;" points="171.74,150.92 171.58,151.12 171.66,151.35 171.91,151.39 172.07,151.2 171.98,150.97 		
			"/>
		<polygon style="fill:#FFFFFF;" points="170.88,151.24 170.72,151.43 170.8,151.66 171.05,151.7 171.21,151.51 171.12,151.28 		"/>
		<polygon style="fill:#FFFFFF;" points="167.44,152.48 167.28,152.67 167.36,152.9 167.61,152.94 167.77,152.75 167.68,152.52 		
			"/>
		<path style="fill:#FFFFFF;" d="M182.11,158.47c-5.41-16.08-9.42-32.62-18.28-43c-8.86-10.38-16.91-29.12-16.91-29.12l-0.13-0.28
			c0,0,0.41-0.68,0.08-1.12s-1.44-2.28-1.44-2.28s0.52-0.5,0.46-0.82c-0.09-0.47-0.79-1.45-1.4-1.49c-0.35-0.02-1.02,0.11-1.73,0.28
			c-1.39,0.34-2.75,0.8-4.07,1.37c-0.67,0.29-1.28,0.59-1.55,0.82c-0.46,0.4-0.42,1.6-0.21,2.03c0.14,0.29,0.86,0.37,0.86,0.37
			s0.22,2.13,0.23,2.68c0.01,0.56,0.74,0.85,0.74,0.85l0.07,0.3c0,0,4.53,19.47,3.74,33.1c-0.79,13.62,4.36,28.15,9.77,44.22
			c5.41,16.08,7.66,22.77,10.06,25.31c2.4,2.53,6.62,0.52,6.62,0.52l7.18-2.41l-0.03,0.01l7.18-2.41c0,0,4.57-0.94,4.96-4.41
			C188.71,179.51,187.51,174.54,182.11,158.47z M150.54,144.9l2.06,0.66l-0.07,1.43c0,0,2.13,3.49,3.8,2.46
			c1.67-1.02-0.81-4.72-0.81-4.72l-1.21-0.79l0.2-2l1.79,0.92l-0.11,1.55c0.84,1.63,2.43,3.8,4.07,3.21
			c1.63-0.59,0.82-4.63,0.05-4.91c-0.77-0.28-1,0.81-1,0.81l-1.53-0.43l0.74-1.58c0,0,0.75,0.51,1.07-0.05s-0.68-1.27-0.68-1.27
			l0.46-1.99l1.62,1.23c0,0-0.33,1.18,0.28,1.41c0.61,0.23,0.86-0.65,0.86-0.65l1.58,0.74l-0.9,1.3c0,0-0.87-0.69-1.28,0.01
			c-0.42,0.71,1.54,4.34,3.17,3.75c1.63-0.59,1.48-3.28,1.08-5.07l-1.08-1.12l0.79-1.85l1.43,1.41l-0.42,1.38
			c0,0,0.45,4.43,2.39,4.15c1.94-0.28,1.35-4.32,1.35-4.32l-0.97-1.05l1.16-1.82l0.88,8.89l-7.9,2.85l-7.9,2.85L150.54,144.9z
			 M155.46,153.37l-0.09-0.26c-0.06-0.16,0.03-0.35,0.19-0.41l16.01-5.78c0.16-0.06,0.35,0.03,0.41,0.19l0.09,0.26
			c0.06,0.16-0.03,0.35-0.19,0.41l-16.01,5.78C155.7,153.62,155.52,153.53,155.46,153.37z M171.79,148.26l0.66,1.82l-15.55,5.61
			l-0.66-1.82L171.79,148.26z M173.11,151.18l-16.01,5.78c-0.16,0.06-0.35-0.03-0.41-0.19l-0.09-0.26
			c-0.06-0.16,0.03-0.35,0.19-0.41l16.01-5.78c0.16-0.06,0.35,0.03,0.41,0.19l0.09,0.26C173.36,150.94,173.27,151.12,173.11,151.18z
			"/>
		<polygon style="fill:#FFFFFF;" points="172.6,150.61 172.44,150.81 172.52,151.04 172.77,151.08 172.93,150.89 172.84,150.66 		
			"/>
		<polygon style="fill:#FFFFFF;" points="168.3,152.17 168.14,152.36 168.22,152.59 168.47,152.63 168.63,152.44 168.54,152.21 		
			"/>
		<polygon style="fill:#FFFFFF;" points="170.02,151.55 169.86,151.74 169.94,151.97 170.19,152.01 170.35,151.82 170.26,151.59 		
			"/>
		<polygon style="fill:#FFFFFF;" points="169.16,151.86 169,152.05 169.08,152.28 169.33,152.32 169.49,152.13 169.4,151.9 		"/>
		<polygon style="fill:#FFFFFF;" points="161.42,154.65 161.26,154.84 161.34,155.07 161.59,155.12 161.75,154.92 161.67,154.69 		
			"/>
		<path style="fill:#FFFFFF;" d="M163.23,153.09c0.07-0.02,0.1-0.1,0.08-0.17l-0.35-0.97c-0.02-0.07-0.1-0.1-0.17-0.08
			c-0.07,0.02-0.1,0.1-0.08,0.17l0.35,0.97C163.09,153.08,163.17,153.12,163.23,153.09z"/>
		<path style="fill:#FFFFFF;" d="M159.89,154.3c0.07-0.02,0.1-0.1,0.08-0.17l-0.35-0.97c-0.02-0.07-0.1-0.1-0.17-0.08
			c-0.07,0.02-0.1,0.1-0.08,0.17l0.35,0.97C159.75,154.29,159.82,154.32,159.89,154.3z"/>
		<path style="fill:#FFFFFF;" d="M162.57,153.33c0.07-0.02,0.1-0.1,0.08-0.17l-0.35-0.97c-0.02-0.07-0.1-0.1-0.17-0.08
			c-0.07,0.02-0.1,0.1-0.08,0.17l0.35,0.97C162.42,153.32,162.5,153.36,162.57,153.33z"/>
		<path style="fill:#FFFFFF;" d="M160.56,154.06c0.07-0.02,0.1-0.1,0.08-0.17l-0.35-0.97c-0.02-0.07-0.1-0.1-0.17-0.08
			c-0.07,0.02-0.1,0.1-0.08,0.17l0.35,0.97C160.42,154.04,160.49,154.08,160.56,154.06z"/>
		<path style="fill:#FFFFFF;" d="M161.9,153.57c0.07-0.02,0.1-0.1,0.08-0.17l-0.35-0.97c-0.02-0.07-0.1-0.1-0.17-0.08
			s-0.1,0.1-0.08,0.17l0.35,0.97C161.75,153.56,161.83,153.6,161.9,153.57z"/>
		<path style="fill:#FFFFFF;" d="M163.9,152.85c0.07-0.02,0.1-0.1,0.08-0.17l-0.35-0.97c-0.02-0.07-0.1-0.1-0.17-0.08
			c-0.07,0.02-0.1,0.1-0.08,0.17l0.35,0.97C163.76,152.84,163.83,152.87,163.9,152.85z"/>
		<polygon style="fill:#FFFFFF;" points="158.84,155.58 158.68,155.77 158.77,156 159.01,156.05 159.17,155.86 159.09,155.62 		"/>
		<path style="fill:#FFFFFF;" d="M164.57,152.61c0.07-0.02,0.1-0.1,0.08-0.17l-0.35-0.97c-0.02-0.07-0.1-0.1-0.17-0.08
			c-0.07,0.02-0.1,0.1-0.08,0.17l0.35,0.97C164.43,152.6,164.5,152.63,164.57,152.61z"/>
		<path style="fill:#FFFFFF;" d="M165.24,152.37c0.07-0.02,0.1-0.1,0.08-0.17l-0.35-0.97c-0.02-0.07-0.1-0.1-0.17-0.08
			c-0.07,0.02-0.1,0.1-0.08,0.17l0.35,0.97C165.1,152.36,165.17,152.39,165.24,152.37z"/>
		<polygon style="fill:#FFFFFF;" points="157.12,156.2 156.96,156.39 157.05,156.62 157.29,156.67 157.45,156.48 157.37,156.24 		
			"/>
		<polygon style="fill:#FFFFFF;" points="157.98,155.89 157.82,156.08 157.91,156.31 158.15,156.36 158.31,156.17 158.23,155.93 		
			"/>
		<path style="fill:#FFFFFF;" d="M157.88,155.02c0.07-0.02,0.1-0.1,0.08-0.17l-0.35-0.97c-0.02-0.07-0.1-0.1-0.17-0.08
			c-0.07,0.02-0.1,0.1-0.08,0.17l0.35,0.97C157.74,155.01,157.82,155.05,157.88,155.02z"/>
		<path style="fill:#FFFFFF;" d="M157.22,155.26c0.07-0.02,0.1-0.1,0.08-0.17l-0.35-0.97c-0.02-0.07-0.1-0.1-0.17-0.08
			c-0.07,0.02-0.1,0.1-0.08,0.17l0.35,0.97C157.07,155.25,157.15,155.29,157.22,155.26z"/>
		<path style="fill:#FFFFFF;" d="M159.22,154.54c0.07-0.02,0.1-0.1,0.08-0.17l-0.35-0.97c-0.02-0.07-0.1-0.1-0.17-0.08
			c-0.07,0.02-0.1,0.1-0.08,0.17l0.35,0.97C159.08,154.53,159.15,154.56,159.22,154.54z"/>
		<path style="fill:#FFFFFF;" d="M158.55,154.78c0.07-0.02,0.1-0.1,0.08-0.17l-0.35-0.97c-0.02-0.07-0.1-0.1-0.17-0.08
			c-0.07,0.02-0.1,0.1-0.08,0.17l0.35,0.97C158.41,154.77,158.49,154.8,158.55,154.78z"/>
	</g>
	<g>
		<path style="fill:#FFFFFF;" d="M90.21,149.97c0.07,0.03,0.14-0.01,0.17-0.07l0.38-0.95c0.03-0.07-0.01-0.14-0.07-0.17
			c-0.07-0.03-0.14,0.01-0.17,0.07l-0.38,0.95C90.1,149.86,90.14,149.94,90.21,149.97z"/>
		<path style="fill:#FFFFFF;" d="M97.47,152.85c0.07,0.03,0.14-0.01,0.17-0.07l0.38-0.95c0.03-0.07-0.01-0.14-0.07-0.17
			c-0.07-0.03-0.14,0.01-0.17,0.07l-0.38,0.95C97.37,152.74,97.41,152.82,97.47,152.85z"/>
		<path style="fill:#FFFFFF;" d="M98.14,153.11c0.07,0.03,0.14-0.01,0.17-0.07l0.38-0.95c0.03-0.07-0.01-0.14-0.07-0.17
			c-0.07-0.03-0.14,0.01-0.17,0.07l-0.38,0.95C98.04,153.01,98.07,153.08,98.14,153.11z"/>
		<path style="fill:#FFFFFF;" d="M96.15,152.32c0.07,0.03,0.14-0.01,0.17-0.07l0.38-0.95c0.03-0.07-0.01-0.14-0.07-0.17
			c-0.07-0.03-0.14,0.01-0.17,0.07l-0.38,0.95C96.05,152.22,96.09,152.3,96.15,152.32z"/>
		<path style="fill:#FFFFFF;" d="M100.12,153.9c0.07,0.03,0.14-0.01,0.17-0.07l0.38-0.95c0.03-0.07-0.01-0.14-0.07-0.17
			s-0.14,0.01-0.17,0.07l-0.38,0.95C100.02,153.79,100.05,153.87,100.12,153.9z"/>
		<path style="fill:#FFFFFF;" d="M95.49,152.06c0.07,0.03,0.14-0.01,0.17-0.07l0.38-0.95c0.03-0.07-0.01-0.14-0.07-0.17
			c-0.07-0.03-0.14,0.01-0.17,0.07l-0.38,0.95C95.39,151.96,95.42,152.03,95.49,152.06z"/>
		<path style="fill:#FFFFFF;" d="M99.46,153.63c0.07,0.03,0.14-0.01,0.17-0.07l0.38-0.95c0.03-0.07-0.01-0.14-0.07-0.17
			c-0.07-0.03-0.14,0.01-0.17,0.07l-0.38,0.95C99.36,153.53,99.39,153.61,99.46,153.63z"/>
		<path style="fill:#FFFFFF;" d="M98.8,153.37c0.07,0.03,0.14-0.01,0.17-0.07l0.38-0.95c0.03-0.07-0.01-0.14-0.07-0.17
			c-0.07-0.03-0.14,0.01-0.17,0.07l-0.38,0.95C98.7,153.27,98.73,153.34,98.8,153.37z"/>
		<path style="fill:#FFFFFF;" d="M96.81,152.59c0.07,0.03,0.14-0.01,0.17-0.07l0.38-0.95c0.03-0.07-0.01-0.14-0.07-0.17
			c-0.07-0.03-0.14,0.01-0.17,0.07l-0.38,0.95C96.71,152.48,96.75,152.56,96.81,152.59z"/>
		<polygon style="fill:#FFFFFF;" points="99.94,154.87 99.84,155.1 100,155.3 100.25,155.26 100.34,155.03 100.18,154.83 		"/>
		<path style="fill:#FFFFFF;" d="M91.53,150.49c0.07,0.03,0.14-0.01,0.17-0.07l0.38-0.95c0.03-0.07-0.01-0.14-0.07-0.17
			c-0.07-0.03-0.14,0.01-0.17,0.07l-0.38,0.95C91.43,150.39,91.46,150.46,91.53,150.49z"/>
		<path style="fill:#FFFFFF;" d="M92.19,150.75c0.07,0.03,0.14-0.01,0.17-0.07l0.38-0.95c0.03-0.07-0.01-0.14-0.07-0.17
			c-0.07-0.03-0.14,0.01-0.17,0.07l-0.38,0.95C92.09,150.65,92.12,150.73,92.19,150.75z"/>
		<path style="fill:#FFFFFF;" d="M94.83,151.8c0.07,0.03,0.14-0.01,0.17-0.07l0.38-0.95c0.03-0.07-0.01-0.14-0.07-0.17
			c-0.07-0.03-0.14,0.01-0.17,0.07l-0.38,0.95C94.73,151.7,94.76,151.77,94.83,151.8z"/>
		<path style="fill:#FFFFFF;" d="M90.87,150.23c0.07,0.03,0.14-0.01,0.17-0.07l0.38-0.95c0.03-0.07-0.01-0.14-0.07-0.17
			c-0.07-0.03-0.14,0.01-0.17,0.07l-0.38,0.95C90.77,150.12,90.8,150.2,90.87,150.23z"/>
		<path style="fill:#FFFFFF;" d="M94.17,151.54c0.07,0.03,0.14-0.01,0.17-0.07l0.38-0.95c0.03-0.07-0.01-0.14-0.07-0.17
			c-0.07-0.03-0.14,0.01-0.17,0.07l-0.38,0.95C94.07,151.43,94.1,151.51,94.17,151.54z"/>
		<path style="fill:#FFFFFF;" d="M93.51,151.28c0.07,0.03,0.14-0.01,0.17-0.07l0.38-0.95c0.03-0.07-0.01-0.14-0.07-0.17
			c-0.07-0.03-0.14,0.01-0.17,0.07l-0.38,0.95C93.41,151.17,93.44,151.25,93.51,151.28z"/>
		<path style="fill:#FFFFFF;" d="M92.85,151.01c0.07,0.03,0.14-0.01,0.17-0.07l0.38-0.95c0.03-0.07-0.01-0.14-0.07-0.17
			c-0.07-0.03-0.14,0.01-0.17,0.07l-0.38,0.95C92.75,150.91,92.78,150.99,92.85,151.01z"/>
		<polygon style="fill:#FFFFFF;" points="97.39,153.86 97.3,154.09 97.45,154.29 97.7,154.25 97.79,154.02 97.63,153.82 		"/>
		<polygon style="fill:#FFFFFF;" points="91.44,151.5 91.35,151.73 91.5,151.93 91.75,151.89 91.84,151.66 91.69,151.46 		"/>
		<polygon style="fill:#FFFFFF;" points="99.09,154.53 98.99,154.76 99.15,154.96 99.4,154.92 99.49,154.69 99.33,154.5 		"/>
		<polygon style="fill:#FFFFFF;" points="88.89,150.49 88.8,150.72 88.95,150.92 89.2,150.88 89.29,150.65 89.14,150.45 		"/>
		<polygon style="fill:#FFFFFF;" points="90.59,151.16 90.5,151.4 90.65,151.59 90.9,151.56 90.99,151.32 90.84,151.13 		"/>
		<polygon style="fill:#FFFFFF;" points="89.74,150.83 89.65,151.06 89.8,151.26 90.05,151.22 90.14,150.99 89.99,150.79 		"/>
		<polygon style="fill:#FFFFFF;" points="84.64,148.81 84.55,149.04 84.71,149.23 84.95,149.2 85.04,148.97 84.89,148.77 		"/>
		<polygon style="fill:#FFFFFF;" points="85.49,149.14 85.4,149.38 85.56,149.57 85.8,149.53 85.89,149.3 85.74,149.11 		"/>
		<polygon style="fill:#FFFFFF;" points="86.34,149.48 86.25,149.71 86.41,149.91 86.65,149.87 86.74,149.64 86.59,149.44 		"/>
		<polygon style="fill:#FFFFFF;" points="87.19,149.82 87.1,150.05 87.26,150.24 87.5,150.21 87.59,149.98 87.44,149.78 		"/>
		<polygon style="fill:#FFFFFF;" points="88.04,150.15 87.95,150.39 88.1,150.58 88.35,150.55 88.44,150.31 88.29,150.12 		"/>
		<path style="fill:#FFFFFF;" d="M89.54,149.7c0.07,0.03,0.14-0.01,0.17-0.07l0.38-0.95c0.03-0.07-0.01-0.14-0.07-0.17
			c-0.07-0.03-0.14,0.01-0.17,0.07l-0.38,0.95C89.44,149.6,89.48,149.68,89.54,149.7z"/>
		<polygon style="fill:#FFFFFF;" points="96.54,153.52 96.45,153.75 96.6,153.95 96.85,153.91 96.94,153.68 96.78,153.49 		"/>
		<polygon style="fill:#FFFFFF;" points="95.69,153.19 95.6,153.42 95.75,153.61 96,153.58 96.09,153.34 95.93,153.15 		"/>
		<polygon style="fill:#FFFFFF;" points="98.24,154.2 98.14,154.43 98.3,154.62 98.55,154.59 98.64,154.35 98.48,154.16 		"/>
		<polygon style="fill:#FFFFFF;" points="92.29,151.84 92.2,152.07 92.35,152.27 92.6,152.23 92.69,152 92.54,151.8 		"/>
		<polygon style="fill:#FFFFFF;" points="94.84,152.85 94.75,153.08 94.9,153.28 95.15,153.24 95.24,153.01 95.09,152.81 		"/>
		<polygon style="fill:#FFFFFF;" points="93.14,152.17 93.05,152.41 93.2,152.6 93.45,152.57 93.54,152.33 93.39,152.14 		"/>
		<polygon style="fill:#FFFFFF;" points="93.99,152.51 93.9,152.74 94.05,152.94 94.3,152.9 94.39,152.67 94.24,152.48 		"/>
		<path style="fill:#FFFFFF;" d="M86.24,148.39c0.07,0.03,0.14-0.01,0.17-0.07l0.38-0.95c0.03-0.07-0.01-0.14-0.07-0.17
			c-0.07-0.03-0.14,0.01-0.17,0.07l-0.38,0.95C86.14,148.29,86.17,148.37,86.24,148.39z"/>
		<polygon style="fill:#FFFFFF;" points="98.72,150.49 98.63,150.73 98.78,150.92 99.03,150.88 99.12,150.65 98.97,150.46 		"/>
		<polygon style="fill:#FFFFFF;" points="97.87,150.16 97.78,150.39 97.93,150.58 98.18,150.55 98.27,150.32 98.12,150.12 		"/>
		<polygon style="fill:#FFFFFF;" points="99.57,150.83 99.48,151.06 99.63,151.26 99.88,151.22 99.97,150.99 99.82,150.79 		"/>
		<polygon style="fill:#FFFFFF;" points="100.42,151.17 100.33,151.4 100.48,151.59 100.73,151.56 100.82,151.33 100.67,151.13 		
			"/>
		<polygon style="fill:#FFFFFF;" points="96.17,149.48 96.08,149.72 96.24,149.91 96.48,149.87 96.57,149.64 96.42,149.45 		"/>
		<polygon style="fill:#FFFFFF;" points="97.02,149.82 96.93,150.05 97.08,150.25 97.33,150.21 97.42,149.98 97.27,149.78 		"/>
		<polygon style="fill:#FFFFFF;" points="95.32,149.15 95.23,149.38 95.39,149.57 95.63,149.54 95.72,149.31 95.57,149.11 		"/>
		<polygon style="fill:#FFFFFF;" points="101.27,151.5 101.18,151.74 101.33,151.93 101.58,151.89 101.67,151.66 101.52,151.47 		
			"/>
		<path style="fill:#FFFFFF;" d="M100.75,149.18c-0.17-0.07-0.37,0.02-0.44,0.19c-0.07,0.17,0.02,0.37,0.19,0.44
			c0.17,0.07,0.37-0.02,0.44-0.19C101.01,149.44,100.93,149.25,100.75,149.18z"/>
		<path style="fill:#FFFFFF;" d="M98.9,148.29c-0.21-0.08-0.45,0.02-0.53,0.23c-0.08,0.21,0.02,0.45,0.23,0.53s0.45-0.02,0.53-0.23
			C99.21,148.61,99.11,148.37,98.9,148.29z"/>
		<path style="fill:#FFFFFF;" d="M97.03,147.39c-0.25-0.1-0.53,0.02-0.63,0.27c-0.1,0.25,0.02,0.53,0.27,0.63s0.53-0.02,0.63-0.27
			S97.27,147.49,97.03,147.39z"/>
		<polygon style="fill:#FFFFFF;" points="94.47,148.81 94.38,149.04 94.54,149.24 94.78,149.2 94.87,148.97 94.72,148.77 		"/>
		<path style="fill:#FFFFFF;" d="M88.35,144.26c-0.17-0.07-0.37,0.02-0.44,0.19c-0.07,0.17,0.02,0.37,0.19,0.44s0.37-0.02,0.44-0.19
			S88.52,144.33,88.35,144.26z"/>
		<path style="fill:#FFFFFF;" d="M125.64,83.58c-0.25-0.25-0.84-0.6-1.49-0.93c-1.27-0.66-2.59-1.22-3.95-1.67
			c-0.69-0.23-1.35-0.41-1.71-0.41c-0.61-0.01-1.38,0.92-1.5,1.38c-0.08,0.31,0.4,0.85,0.4,0.85s-1.24,1.74-1.6,2.17
			c-0.36,0.42,0,1.13,0,1.13l-0.15,0.27c0,0-9.5,17.59-19.11,27.28c-9.61,9.69-15.36,23.98-21.96,39.61
			c-6.59,15.63-9.34,22.14-9.22,25.63c0.12,3.49,4.61,4.77,4.61,4.77l6.98,2.94l-0.03-0.01l6.98,2.94c0,0,4.05,2.32,6.64-0.02
			c2.58-2.35,4.98-6.86,11.57-22.48c6.59-15.63,14.54-30.68,14.77-44.33c0.23-13.65,6.6-33.02,6.6-33.02l0.09-0.3
			c0,0,0.75-0.23,0.8-0.79c0.05-0.55,0.43-2.66,0.43-2.66s0.73-0.03,0.89-0.3C125.95,85.21,126.07,84.01,125.64,83.58z
			 M100.6,155.42c-0.06,0.16-0.25,0.24-0.41,0.18l-15.83-6.27c-0.16-0.06-0.24-0.25-0.18-0.41l0.1-0.26
			c0.06-0.16,0.25-0.24,0.41-0.18l15.83,6.27c0.16,0.06,0.24,0.25,0.18,0.41L100.6,155.42z M100.43,154.33l-15.37-6.09l0.71-1.79
			l15.37,6.09L100.43,154.33z M101.93,152.05c-0.06,0.16-0.25,0.24-0.41,0.18l-15.83-6.27c-0.16-0.06-0.24-0.25-0.18-0.41l0.1-0.26
			c0.06-0.16,0.25-0.24,0.41-0.18l15.83,6.27c0.16,0.06,0.24,0.25,0.18,0.41L101.93,152.05z M101.89,150.99l-7.81-3.09l-7.81-3.09
			l1.16-8.85l1.11,1.85l-1,1.02c0,0-0.72,4.02,1.22,4.36s2.52-4.07,2.52-4.07l-0.38-1.4l1.48-1.37l0.73,1.88l-1.11,1.09
			c-0.45,1.78-0.69,4.46,0.93,5.1c1.62,0.64,3.68-2.93,3.29-3.65c-0.39-0.72-1.28-0.05-1.28-0.05l-0.86-1.33l1.61-0.69
			c0,0,0.22,0.88,0.84,0.67c0.62-0.21,0.33-1.4,0.33-1.4l1.66-1.18l0.4,2c0,0-1.03,0.67-0.72,1.24c0.31,0.58,1.07,0.08,1.07,0.08
			l0.69,1.61l-1.54,0.38c0,0-0.19-1.09-0.97-0.84c-0.78,0.26-1.72,4.27-0.11,4.91c1.62,0.64,3.28-1.48,4.17-3.08l-0.06-1.55
			l1.82-0.87l0.14,2.01l-1.23,0.76c0,0-2.59,3.62-0.95,4.69c1.64,1.08,3.87-2.34,3.87-2.34l-0.03-1.43l2.08-0.59L101.89,150.99z"/>
		<path style="fill:#FFFFFF;" d="M90.31,144.88c-0.21-0.08-0.45,0.02-0.53,0.23c-0.08,0.21,0.02,0.45,0.23,0.53
			c0.21,0.08,0.45-0.02,0.53-0.23C90.62,145.21,90.52,144.97,90.31,144.88z"/>
		<path style="fill:#FFFFFF;" d="M92.29,145.51c-0.25-0.1-0.53,0.02-0.63,0.27s0.02,0.53,0.27,0.63s0.53-0.02,0.63-0.27
			S92.54,145.61,92.29,145.51z"/>
		
			<rect x="94" y="145.89" transform="matrix(0.9179 -0.3968 0.3968 0.9179 -50.3657 49.5717)" style="fill:#FFFFFF;" width="1.26" height="1.26"/>
		<polygon style="fill:#FFFFFF;" points="88.53,146.45 88.43,146.68 88.59,146.88 88.84,146.84 88.93,146.61 88.77,146.42 		"/>
		<polygon style="fill:#FFFFFF;" points="86.83,145.78 86.73,146.01 86.89,146.21 87.14,146.17 87.23,145.94 87.07,145.74 		"/>
		<path style="fill:#FFFFFF;" d="M85.58,148.13c0.07,0.03,0.14-0.01,0.17-0.07l0.38-0.95c0.03-0.07-0.01-0.14-0.07-0.17
			c-0.07-0.03-0.14,0.01-0.17,0.07l-0.38,0.95C85.48,148.03,85.51,148.11,85.58,148.13z"/>
		<polygon style="fill:#FFFFFF;" points="87.68,146.12 87.58,146.35 87.74,146.54 87.99,146.51 88.08,146.28 87.92,146.08 		"/>
		<path style="fill:#FFFFFF;" d="M87.56,148.92c0.07,0.03,0.14-0.01,0.17-0.07l0.38-0.95c0.03-0.07-0.01-0.14-0.07-0.17
			c-0.07-0.03-0.14,0.01-0.17,0.07l-0.38,0.95C87.46,148.81,87.49,148.89,87.56,148.92z"/>
		<path style="fill:#FFFFFF;" d="M88.22,149.18c0.07,0.03,0.14-0.01,0.17-0.07l0.38-0.95c0.03-0.07-0.01-0.14-0.07-0.17
			c-0.07-0.03-0.14,0.01-0.17,0.07l-0.38,0.95C88.12,149.08,88.16,149.15,88.22,149.18z"/>
		<path style="fill:#FFFFFF;" d="M88.88,149.44c0.07,0.03,0.14-0.01,0.17-0.07l0.38-0.95c0.03-0.07-0.01-0.14-0.07-0.17
			c-0.07-0.03-0.14,0.01-0.17,0.07l-0.38,0.95C88.78,149.34,88.82,149.42,88.88,149.44z"/>
		<path style="fill:#FFFFFF;" d="M86.9,148.66c0.07,0.03,0.14-0.01,0.17-0.07l0.38-0.95c0.03-0.07-0.01-0.14-0.07-0.17
			c-0.07-0.03-0.14,0.01-0.17,0.07l-0.38,0.95C86.8,148.55,86.83,148.63,86.9,148.66z"/>
		<polygon style="fill:#FFFFFF;" points="85.98,145.44 85.88,145.67 86.04,145.87 86.29,145.83 86.38,145.6 86.22,145.41 		"/>
		<polygon style="fill:#FFFFFF;" points="93.62,148.47 93.53,148.71 93.69,148.9 93.93,148.86 94.02,148.63 93.87,148.44 		"/>
		<polygon style="fill:#FFFFFF;" points="92.77,148.14 92.68,148.37 92.84,148.56 93.08,148.53 93.18,148.3 93.02,148.1 		"/>
		<polygon style="fill:#FFFFFF;" points="91.07,147.46 90.98,147.69 91.14,147.89 91.38,147.85 91.48,147.62 91.32,147.43 		"/>
		<polygon style="fill:#FFFFFF;" points="91.92,147.8 91.83,148.03 91.99,148.23 92.23,148.19 92.33,147.96 92.17,147.76 		"/>
		<polygon style="fill:#FFFFFF;" points="90.22,147.13 90.13,147.36 90.29,147.55 90.53,147.52 90.63,147.29 90.47,147.09 		"/>
		<polygon style="fill:#FFFFFF;" points="89.38,146.79 89.28,147.02 89.44,147.22 89.68,147.18 89.78,146.95 89.62,146.75 		"/>
	</g>
	<polygon style="opacity:0.3;fill:#FFFFFF;" points="99.47,129.59 86.53,132.91 77.9,155.14 91.84,164.76 102.78,156.47 
		107.12,143.74 	"/>
	<path style="opacity:0.3;fill:#FFFFFF;" d="M159.85,133.91l-11.61,6.64l10.29,26.21l18.58-10.95c0,0-0.33-9.95-1.33-11.94
		s-9.62-11.94-9.62-11.94L159.85,133.91z"/>
	<circle style="fill:none;stroke:#D02C2F;stroke-width:3;stroke-miterlimit:10;" cx="127.5" cy="127.5" r="122.19"/>
</g>
</svg>
