<?xml version="1.0" encoding="utf-8"?>
<!-- Generator: Adobe Illustrator 24.0.2, SVG Export Plug-In . SVG Version: 6.00 Build 0)  -->
<svg version="1.1" id="Capa_1" xmlns="http://www.w3.org/2000/svg" xmlns:xlink="http://www.w3.org/1999/xlink" x="0px" y="0px"
	 viewBox="0 0 350 350" style="enable-background:new 0 0 350 350;" xml:space="preserve">
<g>
	
		<line style="opacity:0.3;fill:none;stroke:#FFFFFF;stroke-width:3;stroke-miterlimit:10;" x1="179.19" y1="117.99" x2="179.39" y2="104.68"/>
	
		<line style="opacity:0.3;fill:none;stroke:#FFFFFF;stroke-width:3;stroke-miterlimit:10;" x1="160.4" y1="122.61" x2="152.73" y2="111.72"/>
	
		<line style="opacity:0.3;fill:none;stroke:#FFFFFF;stroke-width:3;stroke-miterlimit:10;" x1="194.81" y1="122.49" x2="204.73" y2="113.61"/>
	<g>
		<polygon style="fill:#FFFFFF;" points="217.15,195.33 216.99,195.52 217.07,195.76 217.32,195.8 217.48,195.61 217.39,195.37 		
			"/>
		<polygon style="fill:#FFFFFF;" points="211.99,197.19 211.83,197.38 211.91,197.62 212.16,197.66 212.32,197.47 212.24,197.24 		
			"/>
		<polygon style="fill:#FFFFFF;" points="218.01,195.02 217.85,195.21 217.93,195.45 218.18,195.49 218.34,195.3 218.25,195.06 		
			"/>
		<path style="fill:#FFFFFF;" d="M214.08,199.38c0.07-0.02,0.1-0.1,0.08-0.17l-0.35-0.97c-0.02-0.07-0.1-0.1-0.17-0.08
			s-0.1,0.1-0.08,0.17l0.35,0.97C213.93,199.37,214.01,199.41,214.08,199.38z"/>
		<polygon style="fill:#FFFFFF;" points="212.85,196.88 212.69,197.07 212.77,197.31 213.02,197.35 213.18,197.16 213.1,196.93 		
			"/>
		<polygon style="fill:#FFFFFF;" points="218.87,194.71 218.71,194.9 218.79,195.14 219.04,195.18 219.2,194.99 219.11,194.75 		"/>
		<polygon style="fill:#FFFFFF;" points="213.71,196.57 213.55,196.76 213.63,197 213.88,197.04 214.04,196.85 213.96,196.62 		"/>
		<polygon style="fill:#FFFFFF;" points="214.57,196.26 214.41,196.45 214.49,196.69 214.74,196.73 214.9,196.54 214.82,196.3 		"/>
		<polygon style="fill:#FFFFFF;" points="216.29,195.64 216.13,195.83 216.21,196.07 216.46,196.11 216.62,195.92 216.53,195.68 		
			"/>
		<path style="fill:#FFFFFF;" d="M216.08,198.66c0.07-0.02,0.1-0.1,0.08-0.17l-0.35-0.97c-0.02-0.07-0.1-0.1-0.17-0.08
			s-0.1,0.1-0.08,0.17l0.35,0.97C215.94,198.65,216.02,198.69,216.08,198.66z"/>
		<path style="fill:#FFFFFF;" d="M215.41,198.9c0.07-0.02,0.1-0.1,0.08-0.17l-0.35-0.97c-0.02-0.07-0.1-0.1-0.17-0.08
			s-0.1,0.1-0.08,0.17l0.35,0.97C215.27,198.89,215.35,198.93,215.41,198.9z"/>
		<path style="fill:#FFFFFF;" d="M214.75,199.14c0.07-0.02,0.1-0.1,0.08-0.17l-0.35-0.97c-0.02-0.07-0.1-0.1-0.17-0.08
			s-0.1,0.1-0.08,0.17l0.35,0.97C214.6,199.13,214.68,199.17,214.75,199.14z"/>
		<path style="fill:#FFFFFF;" d="M219.43,197.45c0.07-0.02,0.1-0.1,0.08-0.17l-0.35-0.97c-0.02-0.07-0.1-0.1-0.17-0.08
			c-0.07,0.02-0.1,0.1-0.08,0.17l0.35,0.97C219.28,197.44,219.36,197.48,219.43,197.45z"/>
		<path style="fill:#FFFFFF;" d="M216.75,198.42c0.07-0.02,0.1-0.1,0.08-0.17l-0.35-0.97c-0.02-0.07-0.1-0.1-0.17-0.08
			s-0.1,0.1-0.08,0.17l0.35,0.97C216.61,198.41,216.68,198.44,216.75,198.42z"/>
		<path style="fill:#FFFFFF;" d="M218.76,197.7c0.07-0.02,0.1-0.1,0.08-0.17l-0.35-0.97c-0.02-0.07-0.1-0.1-0.17-0.08
			c-0.07,0.02-0.1,0.1-0.08,0.17l0.35,0.97C218.61,197.69,218.69,197.72,218.76,197.7z"/>
		<path style="fill:#FFFFFF;" d="M217.42,198.18c0.07-0.02,0.1-0.1,0.08-0.17l-0.35-0.97c-0.02-0.07-0.1-0.1-0.17-0.08
			c-0.07,0.02-0.1,0.1-0.08,0.17l0.35,0.97C217.28,198.17,217.35,198.2,217.42,198.18z"/>
		<path style="fill:#FFFFFF;" d="M218.09,197.94c0.07-0.02,0.1-0.1,0.08-0.17l-0.35-0.97c-0.02-0.07-0.1-0.1-0.17-0.08
			c-0.07,0.02-0.1,0.1-0.08,0.17l0.35,0.97C217.95,197.93,218.02,197.96,218.09,197.94z"/>
		<polygon style="fill:#FFFFFF;" points="215.43,195.95 215.27,196.14 215.35,196.38 215.6,196.42 215.76,196.23 215.67,195.99 		
			"/>
		<path style="fill:#FFFFFF;" d="M206.39,197.97c0.21-0.08,0.32-0.31,0.25-0.52c-0.08-0.21-0.31-0.32-0.52-0.25
			c-0.21,0.08-0.32,0.31-0.25,0.53C205.94,197.94,206.17,198.05,206.39,197.97z"/>
		<path style="fill:#FFFFFF;" d="M208.34,197.27c0.25-0.09,0.38-0.37,0.29-0.62c-0.09-0.25-0.37-0.38-0.62-0.29
			s-0.38,0.37-0.29,0.62C207.81,197.23,208.09,197.36,208.34,197.27z"/>
		<path style="fill:#FFFFFF;" d="M204.46,198.67c0.18-0.06,0.27-0.26,0.2-0.43c-0.06-0.18-0.26-0.27-0.43-0.2
			c-0.18,0.06-0.27,0.26-0.2,0.43C204.09,198.64,204.28,198.73,204.46,198.67z"/>
		
			<rect x="209.8" y="194.93" transform="matrix(0.4252 -0.9051 0.9051 0.4252 -56.0468 302.8651)" style="fill:#FFFFFF;" width="1.26" height="1.26"/>
		<path style="fill:#FFFFFF;" d="M213.13,195.54c0.25-0.09,0.38-0.37,0.29-0.62s-0.37-0.38-0.62-0.29
			c-0.25,0.09-0.38,0.37-0.29,0.62S212.88,195.63,213.13,195.54z"/>
		<path style="fill:#FFFFFF;" d="M217.01,194.14c0.18-0.06,0.27-0.26,0.2-0.43c-0.06-0.18-0.26-0.27-0.43-0.2
			c-0.18,0.06-0.27,0.26-0.2,0.43C216.64,194.11,216.83,194.2,217.01,194.14z"/>
		<polygon style="fill:#FFFFFF;" points="203.39,200.29 203.23,200.48 203.32,200.72 203.56,200.76 203.72,200.57 203.64,200.34 		
			"/>
		<path style="fill:#FFFFFF;" d="M215.08,194.83c0.21-0.08,0.32-0.31,0.25-0.53c-0.08-0.21-0.31-0.32-0.53-0.25
			s-0.32,0.31-0.25,0.52C214.63,194.8,214.87,194.91,215.08,194.83z"/>
		<polygon style="fill:#FFFFFF;" points="207.69,198.74 207.53,198.93 207.62,199.17 207.86,199.21 208.02,199.02 207.94,198.79 		
			"/>
		<polygon style="fill:#FFFFFF;" points="209.41,198.12 209.25,198.31 209.34,198.55 209.58,198.59 209.74,198.4 209.66,198.17 		
			"/>
		<polygon style="fill:#FFFFFF;" points="211.13,197.5 210.97,197.69 211.05,197.93 211.3,197.97 211.46,197.78 211.38,197.55 		"/>
		<polygon style="fill:#FFFFFF;" points="208.55,198.43 208.39,198.62 208.48,198.86 208.72,198.9 208.88,198.71 208.8,198.48 		"/>
		<polygon style="fill:#FFFFFF;" points="210.27,197.81 210.11,198 210.2,198.24 210.44,198.28 210.6,198.09 210.52,197.86 		"/>
		<polygon style="fill:#FFFFFF;" points="204.25,199.98 204.09,200.17 204.18,200.41 204.42,200.45 204.58,200.26 204.5,200.03 		
			"/>
		<polygon style="fill:#FFFFFF;" points="206.83,199.05 206.67,199.24 206.76,199.48 207,199.52 207.16,199.33 207.08,199.1 		"/>
		<polygon style="fill:#FFFFFF;" points="205.11,199.67 204.95,199.86 205.04,200.1 205.28,200.14 205.44,199.95 205.36,199.72 		
			"/>
		<polygon style="fill:#FFFFFF;" points="205.97,199.36 205.81,199.55 205.9,199.79 206.14,199.83 206.3,199.64 206.22,199.41 		"/>
		<path style="fill:#FFFFFF;" d="M208.73,201.31c0.07-0.02,0.1-0.1,0.08-0.17l-0.35-0.97c-0.02-0.07-0.1-0.1-0.17-0.08
			s-0.1,0.1-0.08,0.17l0.35,0.97C208.58,201.3,208.66,201.34,208.73,201.31z"/>
		<polygon style="fill:#FFFFFF;" points="207.2,202.77 207.04,202.96 207.12,203.19 207.37,203.24 207.53,203.05 207.45,202.81 		
			"/>
		<polygon style="fill:#FFFFFF;" points="211.5,201.22 211.34,201.41 211.42,201.64 211.67,201.69 211.83,201.49 211.75,201.26 		
			"/>
		<polygon style="fill:#FFFFFF;" points="212.36,200.91 212.2,201.1 212.28,201.33 212.53,201.38 212.69,201.18 212.6,200.95 		"/>
		<polygon style="fill:#FFFFFF;" points="213.22,200.6 213.06,200.79 213.14,201.02 213.39,201.07 213.55,200.87 213.46,200.64 		
			"/>
		<polygon style="fill:#FFFFFF;" points="209.78,201.84 209.62,202.03 209.7,202.26 209.95,202.31 210.11,202.11 210.03,201.88 		
			"/>
		<polygon style="fill:#FFFFFF;" points="208.06,202.46 207.9,202.65 207.98,202.88 208.23,202.93 208.39,202.74 208.31,202.5 		"/>
		<path style="fill:#FFFFFF;" d="M213.41,199.63c0.07-0.02,0.1-0.1,0.08-0.17l-0.35-0.97c-0.02-0.07-0.1-0.1-0.17-0.08
			c-0.07,0.02-0.1,0.1-0.08,0.17l0.35,0.97C213.27,199.62,213.34,199.65,213.41,199.63z"/>
		<polygon style="fill:#FFFFFF;" points="214.08,200.29 213.92,200.48 214,200.71 214.25,200.75 214.41,200.56 214.32,200.33 		"/>
		<polygon style="fill:#FFFFFF;" points="210.64,201.53 210.48,201.72 210.56,201.95 210.81,202 210.97,201.8 210.89,201.57 		"/>
		<polygon style="fill:#FFFFFF;" points="219.24,198.42 219.08,198.62 219.16,198.85 219.41,198.89 219.57,198.7 219.48,198.47 		
			"/>
		<polygon style="fill:#FFFFFF;" points="218.38,198.74 218.22,198.93 218.3,199.16 218.55,199.2 218.71,199.01 218.62,198.78 		"/>
		<polygon style="fill:#FFFFFF;" points="214.94,199.98 214.78,200.17 214.86,200.4 215.11,200.44 215.27,200.25 215.18,200.02 		
			"/>
		<path style="fill:#FFFFFF;" d="M229.61,205.97c-5.41-16.08-9.42-32.62-18.28-43c-8.86-10.38-16.91-29.12-16.91-29.12l-0.13-0.28
			c0,0,0.41-0.68,0.08-1.12s-1.44-2.28-1.44-2.28s0.52-0.5,0.46-0.82c-0.09-0.47-0.79-1.45-1.4-1.49c-0.35-0.02-1.02,0.11-1.73,0.28
			c-1.39,0.34-2.75,0.8-4.07,1.37c-0.67,0.29-1.28,0.59-1.55,0.82c-0.46,0.4-0.42,1.6-0.21,2.03c0.14,0.29,0.86,0.37,0.86,0.37
			s0.22,2.13,0.23,2.68c0.01,0.56,0.74,0.85,0.74,0.85l0.07,0.3c0,0,4.53,19.47,3.74,33.1c-0.79,13.62,4.36,28.15,9.77,44.22
			c5.41,16.08,7.66,22.77,10.06,25.31c2.4,2.53,6.62,0.52,6.62,0.52l7.18-2.41l-0.03,0.01l7.18-2.41c0,0,4.57-0.94,4.96-4.41
			C236.21,227.01,235.01,222.04,229.61,205.97z M198.04,192.4l2.06,0.66l-0.07,1.43c0,0,2.13,3.49,3.8,2.46
			c1.67-1.02-0.81-4.72-0.81-4.72l-1.21-0.79l0.2-2l1.79,0.92l-0.11,1.55c0.84,1.63,2.43,3.8,4.07,3.21
			c1.63-0.59,0.82-4.63,0.05-4.91c-0.77-0.28-1,0.81-1,0.81l-1.53-0.43l0.74-1.58c0,0,0.75,0.51,1.07-0.05s-0.68-1.27-0.68-1.27
			l0.46-1.99l1.62,1.23c0,0-0.33,1.18,0.28,1.41c0.61,0.23,0.86-0.65,0.86-0.65l1.58,0.74l-0.9,1.3c0,0-0.87-0.69-1.28,0.01
			c-0.42,0.71,1.54,4.34,3.17,3.75c1.63-0.59,1.48-3.28,1.08-5.07l-1.08-1.12l0.79-1.85l1.43,1.41l-0.42,1.38
			c0,0,0.45,4.43,2.39,4.15c1.94-0.28,1.35-4.32,1.35-4.32l-0.97-1.05l1.16-1.82l0.88,8.89l-7.9,2.85l-7.9,2.85L198.04,192.4z
			 M202.96,200.87l-0.09-0.26c-0.06-0.16,0.03-0.35,0.19-0.41l16.01-5.78c0.16-0.06,0.35,0.03,0.41,0.19l0.09,0.26
			c0.06,0.16-0.03,0.35-0.19,0.41l-16.01,5.78C203.2,201.12,203.02,201.03,202.96,200.87z M219.29,195.76l0.66,1.82l-15.55,5.61
			l-0.66-1.82L219.29,195.76z M220.61,198.68l-16.01,5.78c-0.16,0.06-0.35-0.03-0.41-0.19l-0.09-0.26
			c-0.06-0.16,0.03-0.35,0.19-0.41l16.01-5.78c0.16-0.06,0.35,0.03,0.41,0.19l0.09,0.26C220.86,198.44,220.77,198.62,220.61,198.68z
			"/>
		<polygon style="fill:#FFFFFF;" points="220.1,198.11 219.94,198.31 220.02,198.54 220.27,198.58 220.43,198.39 220.34,198.16 		
			"/>
		<polygon style="fill:#FFFFFF;" points="215.8,199.67 215.64,199.86 215.72,200.09 215.97,200.13 216.13,199.94 216.04,199.71 		
			"/>
		<polygon style="fill:#FFFFFF;" points="217.52,199.05 217.36,199.24 217.44,199.47 217.69,199.51 217.85,199.32 217.76,199.09 		
			"/>
		<polygon style="fill:#FFFFFF;" points="216.66,199.36 216.5,199.55 216.58,199.78 216.83,199.82 216.99,199.63 216.9,199.4 		"/>
		<polygon style="fill:#FFFFFF;" points="208.92,202.15 208.76,202.34 208.84,202.57 209.09,202.62 209.25,202.42 209.17,202.19 		
			"/>
		<path style="fill:#FFFFFF;" d="M210.73,200.59c0.07-0.02,0.1-0.1,0.08-0.17l-0.35-0.97c-0.02-0.07-0.1-0.1-0.17-0.08
			c-0.07,0.02-0.1,0.1-0.08,0.17l0.35,0.97C210.59,200.58,210.67,200.62,210.73,200.59z"/>
		<path style="fill:#FFFFFF;" d="M207.39,201.8c0.07-0.02,0.1-0.1,0.08-0.17l-0.35-0.97c-0.02-0.07-0.1-0.1-0.17-0.08
			c-0.07,0.02-0.1,0.1-0.08,0.17l0.35,0.97C207.25,201.79,207.32,201.82,207.39,201.8z"/>
		<path style="fill:#FFFFFF;" d="M210.07,200.83c0.07-0.02,0.1-0.1,0.08-0.17l-0.35-0.97c-0.02-0.07-0.1-0.1-0.17-0.08
			c-0.07,0.02-0.1,0.1-0.08,0.17l0.35,0.97C209.92,200.82,210,200.86,210.07,200.83z"/>
		<path style="fill:#FFFFFF;" d="M208.06,201.56c0.07-0.02,0.1-0.1,0.08-0.17l-0.35-0.97c-0.02-0.07-0.1-0.1-0.17-0.08
			c-0.07,0.02-0.1,0.1-0.08,0.17l0.35,0.97C207.92,201.54,207.99,201.58,208.06,201.56z"/>
		<path style="fill:#FFFFFF;" d="M209.4,201.07c0.07-0.02,0.1-0.1,0.08-0.17l-0.35-0.97c-0.02-0.07-0.1-0.1-0.17-0.08
			s-0.1,0.1-0.08,0.17l0.35,0.97C209.25,201.06,209.33,201.1,209.4,201.07z"/>
		<path style="fill:#FFFFFF;" d="M211.4,200.35c0.07-0.02,0.1-0.1,0.08-0.17l-0.35-0.97c-0.02-0.07-0.1-0.1-0.17-0.08
			c-0.07,0.02-0.1,0.1-0.08,0.17l0.35,0.97C211.26,200.34,211.33,200.37,211.4,200.35z"/>
		<polygon style="fill:#FFFFFF;" points="206.34,203.08 206.18,203.27 206.27,203.5 206.51,203.55 206.67,203.36 206.59,203.12 		
			"/>
		<path style="fill:#FFFFFF;" d="M212.07,200.11c0.07-0.02,0.1-0.1,0.08-0.17l-0.35-0.97c-0.02-0.07-0.1-0.1-0.17-0.08
			c-0.07,0.02-0.1,0.1-0.08,0.17l0.35,0.97C211.93,200.1,212,200.13,212.07,200.11z"/>
		<path style="fill:#FFFFFF;" d="M212.74,199.87c0.07-0.02,0.1-0.1,0.08-0.17l-0.35-0.97c-0.02-0.07-0.1-0.1-0.17-0.08
			c-0.07,0.02-0.1,0.1-0.08,0.17l0.35,0.97C212.6,199.86,212.67,199.89,212.74,199.87z"/>
		<polygon style="fill:#FFFFFF;" points="204.62,203.7 204.46,203.89 204.55,204.12 204.79,204.17 204.95,203.98 204.87,203.74 		
			"/>
		<polygon style="fill:#FFFFFF;" points="205.48,203.39 205.32,203.58 205.41,203.81 205.65,203.86 205.81,203.67 205.73,203.43 		
			"/>
		<path style="fill:#FFFFFF;" d="M205.38,202.52c0.07-0.02,0.1-0.1,0.08-0.17l-0.35-0.97c-0.02-0.07-0.1-0.1-0.17-0.08
			c-0.07,0.02-0.1,0.1-0.08,0.17l0.35,0.97C205.24,202.51,205.32,202.55,205.38,202.52z"/>
		<path style="fill:#FFFFFF;" d="M204.72,202.76c0.07-0.02,0.1-0.1,0.08-0.17l-0.35-0.97c-0.02-0.07-0.1-0.1-0.17-0.08
			c-0.07,0.02-0.1,0.1-0.08,0.17l0.35,0.97C204.57,202.75,204.65,202.79,204.72,202.76z"/>
		<path style="fill:#FFFFFF;" d="M206.72,202.04c0.07-0.02,0.1-0.1,0.08-0.17l-0.35-0.97c-0.02-0.07-0.1-0.1-0.17-0.08
			c-0.07,0.02-0.1,0.1-0.08,0.17l0.35,0.97C206.58,202.03,206.65,202.06,206.72,202.04z"/>
		<path style="fill:#FFFFFF;" d="M206.05,202.28c0.07-0.02,0.1-0.1,0.08-0.17l-0.35-0.97c-0.02-0.07-0.1-0.1-0.17-0.08
			c-0.07,0.02-0.1,0.1-0.08,0.17l0.35,0.97C205.91,202.27,205.99,202.3,206.05,202.28z"/>
	</g>
	<g>
		<path style="fill:#FFFFFF;" d="M137.71,197.47c0.07,0.03,0.14-0.01,0.17-0.07l0.38-0.95c0.03-0.07-0.01-0.14-0.07-0.17
			c-0.07-0.03-0.14,0.01-0.17,0.07l-0.38,0.95C137.6,197.36,137.64,197.44,137.71,197.47z"/>
		<path style="fill:#FFFFFF;" d="M144.97,200.35c0.07,0.03,0.14-0.01,0.17-0.07l0.38-0.95c0.03-0.07-0.01-0.14-0.07-0.17
			c-0.07-0.03-0.14,0.01-0.17,0.07l-0.38,0.95C144.87,200.24,144.91,200.32,144.97,200.35z"/>
		<path style="fill:#FFFFFF;" d="M145.64,200.61c0.07,0.03,0.14-0.01,0.17-0.07l0.38-0.95c0.03-0.07-0.01-0.14-0.07-0.17
			c-0.07-0.03-0.14,0.01-0.17,0.07l-0.38,0.95C145.54,200.51,145.57,200.58,145.64,200.61z"/>
		<path style="fill:#FFFFFF;" d="M143.65,199.82c0.07,0.03,0.14-0.01,0.17-0.07l0.38-0.95c0.03-0.07-0.01-0.14-0.07-0.17
			c-0.07-0.03-0.14,0.01-0.17,0.07l-0.38,0.95C143.55,199.72,143.59,199.8,143.65,199.82z"/>
		<path style="fill:#FFFFFF;" d="M147.62,201.4c0.07,0.03,0.14-0.01,0.17-0.07l0.38-0.95c0.03-0.07-0.01-0.14-0.07-0.17
			s-0.14,0.01-0.17,0.07l-0.38,0.95C147.52,201.29,147.55,201.37,147.62,201.4z"/>
		<path style="fill:#FFFFFF;" d="M142.99,199.56c0.07,0.03,0.14-0.01,0.17-0.07l0.38-0.95c0.03-0.07-0.01-0.14-0.07-0.17
			c-0.07-0.03-0.14,0.01-0.17,0.07l-0.38,0.95C142.89,199.46,142.92,199.53,142.99,199.56z"/>
		<path style="fill:#FFFFFF;" d="M146.96,201.13c0.07,0.03,0.14-0.01,0.17-0.07l0.38-0.95c0.03-0.07-0.01-0.14-0.07-0.17
			c-0.07-0.03-0.14,0.01-0.17,0.07l-0.38,0.95C146.86,201.03,146.89,201.11,146.96,201.13z"/>
		<path style="fill:#FFFFFF;" d="M146.3,200.87c0.07,0.03,0.14-0.01,0.17-0.07l0.38-0.95c0.03-0.07-0.01-0.14-0.07-0.17
			c-0.07-0.03-0.14,0.01-0.17,0.07l-0.38,0.95C146.2,200.77,146.23,200.84,146.3,200.87z"/>
		<path style="fill:#FFFFFF;" d="M144.31,200.09c0.07,0.03,0.14-0.01,0.17-0.07l0.38-0.95c0.03-0.07-0.01-0.14-0.07-0.17
			c-0.07-0.03-0.14,0.01-0.17,0.07l-0.38,0.95C144.21,199.98,144.25,200.06,144.31,200.09z"/>
		<polygon style="fill:#FFFFFF;" points="147.44,202.37 147.34,202.6 147.5,202.8 147.75,202.76 147.84,202.53 147.68,202.33 		"/>
		<path style="fill:#FFFFFF;" d="M139.03,197.99c0.07,0.03,0.14-0.01,0.17-0.07l0.38-0.95c0.03-0.07-0.01-0.14-0.07-0.17
			c-0.07-0.03-0.14,0.01-0.17,0.07l-0.38,0.95C138.93,197.89,138.96,197.96,139.03,197.99z"/>
		<path style="fill:#FFFFFF;" d="M139.69,198.25c0.07,0.03,0.14-0.01,0.17-0.07l0.38-0.95c0.03-0.07-0.01-0.14-0.07-0.17
			c-0.07-0.03-0.14,0.01-0.17,0.07l-0.38,0.95C139.59,198.15,139.62,198.23,139.69,198.25z"/>
		<path style="fill:#FFFFFF;" d="M142.33,199.3c0.07,0.03,0.14-0.01,0.17-0.07l0.38-0.95c0.03-0.07-0.01-0.14-0.07-0.17
			c-0.07-0.03-0.14,0.01-0.17,0.07l-0.38,0.95C142.23,199.2,142.26,199.27,142.33,199.3z"/>
		<path style="fill:#FFFFFF;" d="M138.37,197.73c0.07,0.03,0.14-0.01,0.17-0.07l0.38-0.95c0.03-0.07-0.01-0.14-0.07-0.17
			c-0.07-0.03-0.14,0.01-0.17,0.07l-0.38,0.95C138.27,197.62,138.3,197.7,138.37,197.73z"/>
		<path style="fill:#FFFFFF;" d="M141.67,199.04c0.07,0.03,0.14-0.01,0.17-0.07l0.38-0.95c0.03-0.07-0.01-0.14-0.07-0.17
			c-0.07-0.03-0.14,0.01-0.17,0.07l-0.38,0.95C141.57,198.93,141.6,199.01,141.67,199.04z"/>
		<path style="fill:#FFFFFF;" d="M141.01,198.78c0.07,0.03,0.14-0.01,0.17-0.07l0.38-0.95c0.03-0.07-0.01-0.14-0.07-0.17
			c-0.07-0.03-0.14,0.01-0.17,0.07l-0.38,0.95C140.91,198.67,140.94,198.75,141.01,198.78z"/>
		<path style="fill:#FFFFFF;" d="M140.35,198.51c0.07,0.03,0.14-0.01,0.17-0.07l0.38-0.95c0.03-0.07-0.01-0.14-0.07-0.17
			c-0.07-0.03-0.14,0.01-0.17,0.07l-0.38,0.95C140.25,198.41,140.28,198.49,140.35,198.51z"/>
		<polygon style="fill:#FFFFFF;" points="144.89,201.36 144.8,201.59 144.95,201.79 145.2,201.75 145.29,201.52 145.13,201.32 		"/>
		<polygon style="fill:#FFFFFF;" points="138.94,199 138.85,199.23 139,199.43 139.25,199.39 139.34,199.16 139.19,198.96 		"/>
		<polygon style="fill:#FFFFFF;" points="146.59,202.03 146.49,202.26 146.65,202.46 146.9,202.42 146.99,202.19 146.83,202 		"/>
		<polygon style="fill:#FFFFFF;" points="136.39,197.99 136.3,198.22 136.45,198.42 136.7,198.38 136.79,198.15 136.64,197.95 		"/>
		<polygon style="fill:#FFFFFF;" points="138.09,198.66 138,198.9 138.15,199.09 138.4,199.06 138.49,198.82 138.34,198.63 		"/>
		<polygon style="fill:#FFFFFF;" points="137.24,198.33 137.15,198.56 137.3,198.76 137.55,198.72 137.64,198.49 137.49,198.29 		
			"/>
		<polygon style="fill:#FFFFFF;" points="132.14,196.31 132.05,196.54 132.21,196.73 132.45,196.7 132.54,196.47 132.39,196.27 		
			"/>
		<polygon style="fill:#FFFFFF;" points="132.99,196.64 132.9,196.88 133.06,197.07 133.3,197.03 133.39,196.8 133.24,196.61 		"/>
		<polygon style="fill:#FFFFFF;" points="133.84,196.98 133.75,197.21 133.91,197.41 134.15,197.37 134.24,197.14 134.09,196.94 		
			"/>
		<polygon style="fill:#FFFFFF;" points="134.69,197.32 134.6,197.55 134.76,197.74 135,197.71 135.09,197.48 134.94,197.28 		"/>
		<polygon style="fill:#FFFFFF;" points="135.54,197.65 135.45,197.89 135.6,198.08 135.85,198.05 135.94,197.81 135.79,197.62 		
			"/>
		<path style="fill:#FFFFFF;" d="M137.04,197.2c0.07,0.03,0.14-0.01,0.17-0.07l0.38-0.95c0.03-0.07-0.01-0.14-0.07-0.17
			c-0.07-0.03-0.14,0.01-0.17,0.07l-0.38,0.95C136.94,197.1,136.98,197.18,137.04,197.2z"/>
		<polygon style="fill:#FFFFFF;" points="144.04,201.02 143.95,201.25 144.1,201.45 144.35,201.41 144.44,201.18 144.28,200.99 		
			"/>
		<polygon style="fill:#FFFFFF;" points="143.19,200.69 143.1,200.92 143.25,201.11 143.5,201.08 143.59,200.84 143.43,200.65 		"/>
		<polygon style="fill:#FFFFFF;" points="145.74,201.7 145.64,201.93 145.8,202.12 146.05,202.09 146.14,201.85 145.98,201.66 		"/>
		<polygon style="fill:#FFFFFF;" points="139.79,199.34 139.7,199.57 139.85,199.77 140.1,199.73 140.19,199.5 140.04,199.3 		"/>
		<polygon style="fill:#FFFFFF;" points="142.34,200.35 142.25,200.58 142.4,200.78 142.65,200.74 142.74,200.51 142.59,200.31 		
			"/>
		<polygon style="fill:#FFFFFF;" points="140.64,199.67 140.55,199.91 140.7,200.1 140.95,200.07 141.04,199.83 140.89,199.64 		"/>
		<polygon style="fill:#FFFFFF;" points="141.49,200.01 141.4,200.24 141.55,200.44 141.8,200.4 141.89,200.17 141.74,199.98 		"/>
		<path style="fill:#FFFFFF;" d="M133.74,195.89c0.07,0.03,0.14-0.01,0.17-0.07l0.38-0.95c0.03-0.07-0.01-0.14-0.07-0.17
			c-0.07-0.03-0.14,0.01-0.17,0.07l-0.38,0.95C133.64,195.79,133.67,195.87,133.74,195.89z"/>
		<polygon style="fill:#FFFFFF;" points="146.22,197.99 146.13,198.23 146.28,198.42 146.53,198.38 146.62,198.15 146.47,197.96 		
			"/>
		<polygon style="fill:#FFFFFF;" points="145.37,197.66 145.28,197.89 145.43,198.08 145.68,198.05 145.77,197.82 145.62,197.62 		
			"/>
		<polygon style="fill:#FFFFFF;" points="147.07,198.33 146.98,198.56 147.13,198.76 147.38,198.72 147.47,198.49 147.32,198.29 		
			"/>
		<polygon style="fill:#FFFFFF;" points="147.92,198.67 147.83,198.9 147.98,199.09 148.23,199.06 148.32,198.83 148.17,198.63 		
			"/>
		<polygon style="fill:#FFFFFF;" points="143.67,196.98 143.58,197.22 143.74,197.41 143.98,197.37 144.07,197.14 143.92,196.95 		
			"/>
		<polygon style="fill:#FFFFFF;" points="144.52,197.32 144.43,197.55 144.58,197.75 144.83,197.71 144.92,197.48 144.77,197.28 		
			"/>
		<polygon style="fill:#FFFFFF;" points="142.82,196.65 142.73,196.88 142.89,197.07 143.13,197.04 143.22,196.81 143.07,196.61 		
			"/>
		<polygon style="fill:#FFFFFF;" points="148.77,199 148.68,199.24 148.83,199.43 149.08,199.39 149.17,199.16 149.02,198.97 		"/>
		<path style="fill:#FFFFFF;" d="M148.25,196.68c-0.17-0.07-0.37,0.02-0.44,0.19c-0.07,0.17,0.02,0.37,0.19,0.44
			c0.17,0.07,0.37-0.02,0.44-0.19C148.51,196.94,148.43,196.75,148.25,196.68z"/>
		<path style="fill:#FFFFFF;" d="M146.4,195.79c-0.21-0.08-0.45,0.02-0.53,0.23c-0.08,0.21,0.02,0.45,0.23,0.53s0.45-0.02,0.53-0.23
			C146.71,196.11,146.61,195.87,146.4,195.79z"/>
		<path style="fill:#FFFFFF;" d="M144.53,194.89c-0.25-0.1-0.53,0.02-0.63,0.27c-0.1,0.25,0.02,0.53,0.27,0.63s0.53-0.02,0.63-0.27
			S144.77,194.99,144.53,194.89z"/>
		<polygon style="fill:#FFFFFF;" points="141.97,196.31 141.88,196.54 142.04,196.74 142.28,196.7 142.37,196.47 142.22,196.27 		
			"/>
		<path style="fill:#FFFFFF;" d="M135.85,191.76c-0.17-0.07-0.37,0.02-0.44,0.19c-0.07,0.17,0.02,0.37,0.19,0.44
			s0.37-0.02,0.44-0.19S136.02,191.83,135.85,191.76z"/>
		<path style="fill:#FFFFFF;" d="M173.14,131.08c-0.25-0.25-0.84-0.6-1.49-0.93c-1.27-0.66-2.59-1.22-3.95-1.67
			c-0.69-0.23-1.35-0.41-1.71-0.41c-0.61-0.01-1.38,0.92-1.5,1.38c-0.08,0.31,0.4,0.85,0.4,0.85s-1.24,1.74-1.6,2.17
			c-0.36,0.42,0,1.13,0,1.13l-0.15,0.27c0,0-9.5,17.59-19.11,27.28c-9.61,9.69-15.36,23.98-21.96,39.61
			c-6.59,15.63-9.34,22.14-9.22,25.63c0.12,3.49,4.61,4.77,4.61,4.77l6.98,2.94l-0.03-0.01l6.98,2.94c0,0,4.05,2.32,6.64-0.02
			c2.58-2.35,4.98-6.86,11.57-22.48c6.59-15.63,14.54-30.68,14.77-44.33c0.23-13.65,6.6-33.02,6.6-33.02l0.09-0.3
			c0,0,0.75-0.23,0.8-0.79c0.05-0.55,0.43-2.66,0.43-2.66s0.73-0.03,0.89-0.3C173.45,132.71,173.57,131.51,173.14,131.08z
			 M148.1,202.92c-0.06,0.16-0.25,0.24-0.41,0.18l-15.83-6.27c-0.16-0.06-0.24-0.25-0.18-0.41l0.1-0.26
			c0.06-0.16,0.25-0.24,0.41-0.18l15.83,6.27c0.16,0.06,0.24,0.25,0.18,0.41L148.1,202.92z M147.93,201.83l-15.37-6.09l0.71-1.79
			l15.37,6.09L147.93,201.83z M149.43,199.55c-0.06,0.16-0.25,0.24-0.41,0.18l-15.83-6.27c-0.16-0.06-0.24-0.25-0.18-0.41l0.1-0.26
			c0.06-0.16,0.25-0.24,0.41-0.18l15.83,6.27c0.16,0.06,0.24,0.25,0.18,0.41L149.43,199.55z M149.39,198.49l-7.81-3.09l-7.81-3.09
			l1.16-8.85l1.11,1.85l-1,1.02c0,0-0.72,4.02,1.22,4.36s2.52-4.07,2.52-4.07l-0.38-1.4l1.48-1.37l0.73,1.88l-1.11,1.09
			c-0.45,1.78-0.69,4.46,0.93,5.1c1.62,0.64,3.68-2.93,3.29-3.65c-0.39-0.72-1.28-0.05-1.28-0.05l-0.86-1.33l1.61-0.69
			c0,0,0.22,0.88,0.84,0.67c0.62-0.21,0.33-1.4,0.33-1.4l1.66-1.18l0.4,2c0,0-1.03,0.67-0.72,1.24c0.31,0.58,1.07,0.08,1.07,0.08
			l0.69,1.61l-1.54,0.38c0,0-0.19-1.09-0.97-0.84c-0.78,0.26-1.72,4.27-0.11,4.91c1.62,0.64,3.28-1.48,4.17-3.08l-0.06-1.55
			l1.82-0.87l0.14,2.01l-1.23,0.76c0,0-2.59,3.62-0.95,4.69c1.64,1.08,3.87-2.34,3.87-2.34l-0.03-1.43l2.08-0.59L149.39,198.49z"/>
		<path style="fill:#FFFFFF;" d="M137.81,192.38c-0.21-0.08-0.45,0.02-0.53,0.23c-0.08,0.21,0.02,0.45,0.23,0.53
			c0.21,0.08,0.45-0.02,0.53-0.23C138.12,192.71,138.02,192.47,137.81,192.38z"/>
		<path style="fill:#FFFFFF;" d="M139.79,193.01c-0.25-0.1-0.53,0.02-0.63,0.27s0.02,0.53,0.27,0.63s0.53-0.02,0.63-0.27
			S140.04,193.11,139.79,193.01z"/>
		
			<rect x="141.5" y="193.39" transform="matrix(0.9179 -0.3968 0.3968 0.9179 -65.3131 72.3166)" style="fill:#FFFFFF;" width="1.26" height="1.26"/>
		<polygon style="fill:#FFFFFF;" points="136.03,193.95 135.93,194.18 136.09,194.38 136.34,194.34 136.43,194.11 136.27,193.92 		
			"/>
		<polygon style="fill:#FFFFFF;" points="134.33,193.28 134.23,193.51 134.39,193.71 134.64,193.67 134.73,193.44 134.57,193.24 		
			"/>
		<path style="fill:#FFFFFF;" d="M133.08,195.63c0.07,0.03,0.14-0.01,0.17-0.07l0.38-0.95c0.03-0.07-0.01-0.14-0.07-0.17
			c-0.07-0.03-0.14,0.01-0.17,0.07l-0.38,0.95C132.98,195.53,133.01,195.61,133.08,195.63z"/>
		<polygon style="fill:#FFFFFF;" points="135.18,193.62 135.08,193.85 135.24,194.04 135.49,194.01 135.58,193.78 135.42,193.58 		
			"/>
		<path style="fill:#FFFFFF;" d="M135.06,196.42c0.07,0.03,0.14-0.01,0.17-0.07l0.38-0.95c0.03-0.07-0.01-0.14-0.07-0.17
			c-0.07-0.03-0.14,0.01-0.17,0.07l-0.38,0.95C134.96,196.31,134.99,196.39,135.06,196.42z"/>
		<path style="fill:#FFFFFF;" d="M135.72,196.68c0.07,0.03,0.14-0.01,0.17-0.07l0.38-0.95c0.03-0.07-0.01-0.14-0.07-0.17
			c-0.07-0.03-0.14,0.01-0.17,0.07l-0.38,0.95C135.62,196.58,135.66,196.65,135.72,196.68z"/>
		<path style="fill:#FFFFFF;" d="M136.38,196.94c0.07,0.03,0.14-0.01,0.17-0.07l0.38-0.95c0.03-0.07-0.01-0.14-0.07-0.17
			c-0.07-0.03-0.14,0.01-0.17,0.07l-0.38,0.95C136.28,196.84,136.32,196.92,136.38,196.94z"/>
		<path style="fill:#FFFFFF;" d="M134.4,196.16c0.07,0.03,0.14-0.01,0.17-0.07l0.38-0.95c0.03-0.07-0.01-0.14-0.07-0.17
			c-0.07-0.03-0.14,0.01-0.17,0.07l-0.38,0.95C134.3,196.05,134.33,196.13,134.4,196.16z"/>
		<polygon style="fill:#FFFFFF;" points="133.48,192.94 133.38,193.17 133.54,193.37 133.79,193.33 133.88,193.1 133.72,192.91 		
			"/>
		<polygon style="fill:#FFFFFF;" points="141.12,195.97 141.03,196.21 141.19,196.4 141.43,196.36 141.52,196.13 141.37,195.94 		
			"/>
		<polygon style="fill:#FFFFFF;" points="140.27,195.64 140.18,195.87 140.34,196.06 140.58,196.03 140.68,195.8 140.52,195.6 		"/>
		<polygon style="fill:#FFFFFF;" points="138.57,194.96 138.48,195.19 138.64,195.39 138.88,195.35 138.98,195.12 138.82,194.93 		
			"/>
		<polygon style="fill:#FFFFFF;" points="139.42,195.3 139.33,195.53 139.49,195.73 139.73,195.69 139.83,195.46 139.67,195.26 		
			"/>
		<polygon style="fill:#FFFFFF;" points="137.72,194.63 137.63,194.86 137.79,195.05 138.03,195.02 138.13,194.79 137.97,194.59 		
			"/>
		<polygon style="fill:#FFFFFF;" points="136.88,194.29 136.78,194.52 136.94,194.72 137.18,194.68 137.28,194.45 137.12,194.25 		
			"/>
	</g>
	<polygon style="opacity:0.3;fill:#FFFFFF;" points="146.97,177.09 134.03,180.41 125.4,202.64 139.34,212.26 150.28,203.97 
		154.62,191.24 	"/>
	<path style="opacity:0.3;fill:#FFFFFF;" d="M207.35,181.41l-11.61,6.64l10.29,26.21l18.58-10.95c0,0-0.33-9.95-1.33-11.94
		s-9.62-11.94-9.62-11.94L207.35,181.41z"/>
	<circle style="fill:none;stroke:#D02C2F;stroke-width:3;stroke-miterlimit:10;" cx="175" cy="175" r="122.19" id="pulse"/>
	<circle style="fill:none;stroke:#D02C2F;stroke-width:3;stroke-miterlimit:10;" cx="175" cy="175" r="122.19"/>
</g>
</svg>
