<?xml version="1.0" encoding="utf-8"?>
<!-- Generator: Adobe Illustrator 24.0.2, SVG Export Plug-In . SVG Version: 6.00 Build 0)  -->
<svg version="1.1" id="Capa_1" xmlns="http://www.w3.org/2000/svg" xmlns:xlink="http://www.w3.org/1999/xlink" x="0px" y="0px"
	 viewBox="0 0 350 350" style="enable-background:new 0 0 350 350;" xml:space="preserve">
<g>
	<rect x="76.23" y="149.96" style="opacity:0.3;fill:#FFFFFF;stroke:#FFFFFF;stroke-miterlimit:10;" width="9.78" height="87.55"/>
	<polygon style="fill:#FFFFFF;stroke:#FFFFFF;stroke-miterlimit:10;" points="86.01,257.71 76.23,245.89 76.23,208.76 86.01,208.76 
			"/>
	<rect x="92.49" y="172.56" style="opacity:0.3;fill:#FFFFFF;stroke:#FFFFFF;stroke-miterlimit:10;" width="9.78" height="64.95"/>
	<polygon style="fill:#FFFFFF;stroke:#FFFFFF;stroke-miterlimit:10;" points="102.27,273.55 92.49,263.88 92.49,192.38 
		102.27,192.38 	"/>
	<rect x="108.75" y="161.3" style="opacity:0.3;fill:#FFFFFF;stroke:#FFFFFF;stroke-miterlimit:10;" width="9.78" height="76.21"/>
	<polygon style="fill:#FFFFFF;stroke:#FFFFFF;stroke-miterlimit:10;" points="118.52,282.41 108.75,277.04 108.75,178.62 
		118.52,178.62 	"/>
	<rect x="125" y="136.68" style="opacity:0.3;fill:#FFFFFF;stroke:#FFFFFF;stroke-miterlimit:10;" width="9.78" height="100.83"/>
	<polygon style="fill:#FFFFFF;stroke:#FFFFFF;stroke-miterlimit:10;" points="134.78,289.39 125,286.17 125,172.04 134.78,172.04 	
		"/>
	<rect x="140.94" y="144.33" style="opacity:0.3;fill:#FFFFFF;stroke:#FFFFFF;stroke-miterlimit:10;" width="9.78" height="93.18"/>
	<polygon style="fill:#FFFFFF;stroke:#FFFFFF;stroke-miterlimit:10;" points="150.72,294.49 140.94,292.08 140.94,183.26 
		150.72,183.26 	"/>
	<rect x="157.2" y="154.21" style="opacity:0.3;fill:#FFFFFF;stroke:#FFFFFF;stroke-miterlimit:10;" width="9.78" height="83.3"/>
	<rect x="157.2" y="195.44" style="fill:#FFFFFF;stroke:#FFFFFF;stroke-miterlimit:10;" width="9.78" height="100.94"/>
	<rect x="173.77" y="172.54" style="opacity:0.3;fill:#FFFFFF;stroke:#FFFFFF;stroke-miterlimit:10;" width="9.78" height="64.97"/>
	<rect x="173.77" y="209.54" style="fill:#FFFFFF;stroke:#FFFFFF;stroke-miterlimit:10;" width="9.78" height="86.56"/>
	<rect x="270.99" y="172.54" style="opacity:0.3;fill:#FFFFFF;stroke:#FFFFFF;stroke-miterlimit:10;" width="9.78" height="64.97"/>
	<polygon style="fill:#FFFFFF;stroke:#FFFFFF;stroke-miterlimit:10;" points="280.77,237.51 270.99,249.82 270.99,192.62 
		280.77,192.62 	"/>
	<rect x="205.65" y="165.74" style="opacity:0.3;fill:#FFFFFF;stroke:#FFFFFF;stroke-miterlimit:10;" width="9.78" height="51.77"/>
	<polygon style="fill:#FFFFFF;stroke:#FFFFFF;stroke-miterlimit:10;" points="215.42,290.47 205.65,293.13 205.65,181.04 
		215.42,181.04 	"/>
	<rect x="222.22" y="161.86" style="opacity:0.3;fill:#FFFFFF;stroke:#FFFFFF;stroke-miterlimit:10;" width="9.78" height="75.65"/>
	<polygon style="fill:#FFFFFF;stroke:#FFFFFF;stroke-miterlimit:10;" points="232,283.98 222.22,287.74 222.22,190.68 232,190.68 	
		"/>
	<rect x="238.48" y="150.39" style="opacity:0.3;fill:#FFFFFF;stroke:#FFFFFF;stroke-miterlimit:10;" width="9.78" height="87.12"/>
	<polygon style="fill:#FFFFFF;stroke:#FFFFFF;stroke-miterlimit:10;" points="248.25,273.73 238.48,278.52 238.48,177.05 
		248.25,177.05 	"/>
	<rect x="254.74" y="143.37" style="opacity:0.3;fill:#FFFFFF;stroke:#FFFFFF;stroke-miterlimit:10;" width="9.78" height="94.14"/>
	<polygon style="fill:#FFFFFF;stroke:#FFFFFF;stroke-miterlimit:10;" points="264.51,256.99 254.74,265.53 254.74,156.64 
		264.51,156.64 	"/>
	<rect x="189.82" y="150.13" style="opacity:0.3;fill:#FFFFFF;stroke:#FFFFFF;stroke-miterlimit:10;" width="9.78" height="87.38"/>
	<rect x="189.82" y="165.08" style="fill:#FFFFFF;stroke:#FFFFFF;stroke-miterlimit:10;" width="9.78" height="130.18"/>
	<circle style="fill:none;stroke:#D02C2F;stroke-width:3;stroke-miterlimit:10;" cx="175" cy="175" r="122.19"/>
	<circle style="fill:none;stroke:#D02C2F;stroke-width:3;stroke-miterlimit:10;" cx="175" cy="175" r="122.19" id="pulse"/>
</g>
</svg>
