<?xml version="1.0" encoding="utf-8"?>
<!-- Generator: Adobe Illustrator 25.0.0, SVG Export Plug-In . SVG Version: 6.00 Build 0)  -->
<svg version="1.2" baseProfile="tiny" id="landing" xmlns="http://www.w3.org/2000/svg" xmlns:xlink="http://www.w3.org/1999/xlink"
	 x="0px" y="0px" viewBox="0 0 520 90" overflow="visible" xml:space="preserve">
<g id="mecánica">
</g>
<g id="inicio">
</g>
<g id="ubicación">
</g>
<g id="menú">
</g>
<g id="legal__x2B__redes">
</g>
<g id="guías">
</g>
<g id="campaña">
	<g>
		<g>
			<path fill="#FFFFFF" d="M3.96,13.95h11.4c6.73,0,11.06,3.46,11.06,9.35v0.08c0,6.27-4.83,9.57-11.44,9.57h-3.65v7.6H3.96V13.95z
				 M14.83,27.17c2.62,0,4.22-1.37,4.22-3.46v-0.08c0-2.28-1.6-3.5-4.26-3.5h-3.46v7.03H14.83z"/>
			<path fill="#FFFFFF" d="M35.62,13.95h21.39v6.27h-14.1v4.03h12.77v5.81H42.91v4.22H57.2v6.27H35.62V13.95z"/>
			<path fill="#FFFFFF" d="M67.04,13.95H77.3c9.5,0,15.01,5.47,15.01,13.15v0.08c0,7.67-5.59,13.37-15.16,13.37H67.04V13.95z
				 M77.42,34.01c4.41,0,7.33-2.43,7.33-6.73v-0.08c0-4.26-2.93-6.73-7.33-6.73h-3v13.53H77.42z"/>
			<path fill="#FFFFFF" d="M102.35,13.95h7.41v26.6h-7.41V13.95z"/>
			<path fill="#FFFFFF" d="M120.7,13.95h7.37v20.14h12.88v6.46H120.7V13.95z"/>
			<path fill="#FFFFFF" d="M150.19,13.95h21.39v6.27h-14.1v4.03h12.77v5.81h-12.77v4.22h14.29v6.27h-21.58V13.95z"/>
			<path fill="#FFFFFF" d="M197.88,28.88V13.95h7.48v14.78c0,3.84,1.94,5.66,4.9,5.66s4.9-1.75,4.9-5.47V13.95h7.48v14.74
				c0,8.59-4.9,12.35-12.46,12.35C202.63,41.04,197.88,37.2,197.88,28.88z"/>
			<path fill="#FFFFFF" d="M233.1,13.95h6.88l10.94,14.06V13.95h7.29v26.6h-6.46L240.4,25.96v14.59h-7.29V13.95z"/>
			<path fill="#FFFFFF" d="M278.21,13.76h7.1l11.32,26.79h-7.9l-1.94-4.75h-10.26l-1.9,4.75h-7.75L278.21,13.76z M284.67,30.06
				l-2.96-7.56l-3,7.56H284.67z"/>
			<path fill="#FFFFFF" d="M302.91,36.59l4.1-4.9c2.62,2.09,5.55,3.19,8.62,3.19c1.98,0,3.04-0.68,3.04-1.82v-0.08
				c0-1.1-0.87-1.71-4.48-2.55c-5.66-1.29-10.03-2.89-10.03-8.36V22c0-4.94,3.91-8.51,10.3-8.51c4.52,0,8.06,1.22,10.94,3.53
				l-3.69,5.21c-2.43-1.71-5.09-2.62-7.45-2.62c-1.79,0-2.66,0.76-2.66,1.71v0.08c0,1.22,0.91,1.75,4.6,2.58
				c6.12,1.33,9.92,3.31,9.92,8.28v0.08c0,5.43-4.29,8.66-10.75,8.66C310.66,41,306.18,39.52,302.91,36.59z"/>
			<path fill="#FFFFFF" d="M13.16,59.36h7.1l11.32,26.79h-7.9l-1.94-4.75H11.49l-1.9,4.75H1.84L13.16,59.36z M19.62,75.66
				l-2.96-7.56l-3,7.56H19.62z"/>
			<path fill="#FFFFFF" d="M56.86,59.55h7.37v20.14h12.88v6.46H56.86V59.55z"/>
			<path fill="#FFFFFF" d="M83.92,72.92v-0.08c0-7.64,6.16-13.83,14.36-13.83s14.29,6.12,14.29,13.75v0.08
				c0,7.64-6.15,13.83-14.36,13.83C90,86.68,83.92,80.56,83.92,72.92z M105.04,72.92v-0.08c0-3.84-2.77-7.18-6.84-7.18
				c-4.03,0-6.72,3.27-6.72,7.1v0.08c0,3.84,2.77,7.18,6.8,7.18C102.34,80.03,105.04,76.76,105.04,72.92z"/>
			<path fill="#FFFFFF" d="M120.28,82.19l4.1-4.9c2.62,2.09,5.55,3.19,8.62,3.19c1.98,0,3.04-0.68,3.04-1.82v-0.08
				c0-1.1-0.87-1.71-4.48-2.55c-5.66-1.29-10.03-2.89-10.03-8.36V67.6c0-4.94,3.91-8.51,10.3-8.51c4.52,0,8.06,1.22,10.94,3.53
				l-3.69,5.21c-2.43-1.71-5.09-2.62-7.45-2.62c-1.79,0-2.66,0.76-2.66,1.71V67c0,1.22,0.91,1.75,4.6,2.58
				c6.12,1.33,9.92,3.31,9.92,8.28v0.08c0,5.43-4.29,8.66-10.75,8.66C128.03,86.6,123.55,85.12,120.28,82.19z"/>
			<path fill="#FFFFFF" d="M178.95,59.36h7.1l11.32,26.79h-7.9l-1.94-4.75h-10.26l-1.9,4.75h-7.75L178.95,59.36z M185.41,75.66
				l-2.96-7.56l-3,7.56H185.41z"/>
			<path fill="#FFFFFF" d="M206.05,59.55h6.88l10.94,14.06V59.55h7.29v26.6h-6.46l-11.36-14.59v14.59h-7.29V59.55z"/>
			<path fill="#FFFFFF" d="M241.96,59.55h10.26c9.5,0,15.01,5.47,15.01,13.15v0.08c0,7.67-5.59,13.37-15.16,13.37h-10.11V59.55z
				 M252.33,79.61c4.41,0,7.33-2.43,7.33-6.73v-0.08c0-4.26-2.93-6.73-7.33-6.73h-3v13.53H252.33z"/>
			<path fill="#FFFFFF" d="M277.11,59.55h21.39v6.27h-14.1v4.03h12.77v5.81H284.4v4.22h14.29v6.27h-21.58V59.55z"/>
			<path fill="#FFFFFF" d="M306.52,82.19l4.1-4.9c2.62,2.09,5.55,3.19,8.62,3.19c1.98,0,3.04-0.68,3.04-1.82v-0.08
				c0-1.1-0.87-1.71-4.48-2.55c-5.66-1.29-10.03-2.89-10.03-8.36V67.6c0-4.94,3.91-8.51,10.3-8.51c4.52,0,8.06,1.22,10.94,3.53
				l-3.69,5.21c-2.43-1.71-5.09-2.62-7.45-2.62c-1.79,0-2.66,0.76-2.66,1.71V67c0,1.22,0.91,1.75,4.6,2.58
				c6.12,1.33,9.92,3.31,9.92,8.28v0.08c0,5.43-4.29,8.66-10.75,8.66C314.27,86.6,309.79,85.12,306.52,82.19z"/>
		</g>
		<g>
			<path fill="#FFFFFF" d="M378.94,38.72c0.4,0.45,0.9,0.85,1.56,1.31v0.9h-18.38v-0.9c1.86-1.15,2.56-1.91,2.56-3.26
				c0-0.75-0.3-2.06-0.95-3.97l-0.8-2.41h-9.24c-0.75,2.36-1.1,4.07-1.1,5.02c0,1.66,0.9,3.16,2.76,4.62v0.9H344.8v-0.9
				c1.71-1.46,2.96-2.86,3.72-4.22c0.75-1.36,1.56-3.21,2.36-5.57L357,12.36l-2.16-4.22c4.07-1.41,7.53-3.01,10.49-4.82l11.9,32.08
				C377.83,37.01,378.39,38.12,378.94,38.72z M361.47,26.02l-3.16-9.69l-3.16,9.69H361.47z"/>
			<path fill="#FFFFFF" d="M418.15,5.93c-4.32,2.96-4.47,3.01-4.72,11.5v23.5h-9.29c-3.97-6.98-8.79-14.96-14.46-23.95v11.55
				c0,5.47,0.5,7.68,1.66,9.09c0.6,0.7,1.66,1.51,3.11,2.41v0.9H381.4v-0.9c1.51-0.9,2.56-1.71,3.11-2.41c0.6-0.7,1-1.71,1.26-2.96
				c0.25-1.31,0.4-3.36,0.4-6.13V14.37c0-3.16-1.61-6.13-4.77-8.94v-0.4h14.21c3.92,5.92,8.69,13.66,14.26,23.15V17.43
				c-0.25-8.48-0.4-8.54-4.72-11.5v-0.9h13V5.93z"/>
			<path fill="#FFFFFF" d="M456.81,21.85c0,5.47-1.66,10.04-5.02,13.66c-3.36,3.61-8.13,5.42-14.41,5.42H419.1v-0.9
				c1.36-0.8,2.16-1.51,2.51-2.11c0.35-0.65,0.55-1.86,0.55-3.61V11.66c0-1.76-0.2-2.96-0.55-3.56c-0.35-0.65-1.15-1.36-2.51-2.16
				v-0.9h16.17C449.53,5.03,456.81,10.85,456.81,21.85z M441.85,33.35c1.41-2.56,2.11-6.28,2.11-11.05c0-3.82-0.6-6.98-1.41-8.84
				c-0.75-1.96-2.16-3.41-3.16-4.02c-0.95-0.65-2.66-1.05-3.41-1.05c-0.35-0.05-0.75-0.05-1.31-0.05h-0.5V35
				c0,1.41,1.26,2.36,2.86,2.51C438.88,37.26,440.49,35.91,441.85,33.35z"/>
			<path fill="#FFFFFF" d="M488.59,28.93l-1.2,12h-29.72v-0.9c1.36-0.8,2.16-1.51,2.51-2.11c0.35-0.65,0.55-1.86,0.55-3.61V11.66
				c0-1.76-0.2-2.96-0.55-3.56c-0.35-0.65-1.15-1.36-2.51-2.16v-0.9h27.97l0.9,12.35h-0.85c-0.85-2.41-2.31-4.52-4.37-6.28
				c-2.01-1.81-4.57-2.71-7.68-2.71h-0.9v12.05h1.51c3.41,0,5.97-1.86,7.23-4.12h0.75v11.4h-0.75c-1.26-2.61-3.82-4.67-7.23-4.62
				l-1.51,0.05V35c0,1.61,1.56,2.56,3.51,2.56h0.1c2.36,0,4.52-0.85,6.48-2.56c1.96-1.76,3.61-3.77,4.92-6.08H488.59z"/>
			<path fill="#FFFFFF" d="M493.31,39.02l-0.7-12.8h0.9c4.97,7.98,9.09,12,12.35,12c1.76,0,2.86-1.21,2.86-3.26
				c0-2.81-1.96-4.92-6.58-7.73l-1.56-0.9l-1.56-0.95l-1.36-0.9c-1.36-0.85-1.46-1.21-2.46-2.16c-0.95-0.95-1.15-1.71-1.71-2.86
				c-0.55-1.21-0.65-2.51-0.65-3.97c0-3.56,1.15-6.33,3.41-8.23c2.26-1.96,5.17-2.91,8.69-2.91c2.81,0,6.23,0.55,10.29,1.66
				l1.05,12.55h-0.9c-1.56-2.86-3.26-5.42-5.22-7.58c-1.96-2.21-3.77-3.31-5.47-3.31c-1.66,0-2.86,1.26-2.86,3.01
				c0,2.06,1.61,3.67,6.08,6.43l1.96,1.15c0.95,0.55,1.61,0.95,1.96,1.21c0.35,0.2,0.9,0.55,1.66,1.1c0.75,0.55,1.31,1,1.61,1.36
				c0.6,0.65,1.86,2.06,2.26,3.26c0.4,1.15,0.8,2.81,0.8,4.62c0,4.37-1.71,7.63-4.37,9.39c-2.61,1.66-5.47,2.46-8.54,2.46
				C501.8,41.63,497.78,40.78,493.31,39.02z"/>
		</g>
	</g>
</g>
</svg>
